<svg width="183" height="171" viewBox="0 0 183 171" fill="none" xmlns="http://www.w3.org/2000/svg">
<g id="19949385_6137732">
<g id="Background_Complete">
<g id="Group">
<path id="Vector" d="M183 130.78H0V130.866H183V130.78Z" fill="#EBEBEB"/>
<path id="Vector_2" d="M164.664 136.285H152.541V136.371H164.664V136.285Z" fill="#EBEBEB"/>
<path id="Vector_3" d="M121.227 137.213H118.045V137.299H121.227V137.213Z" fill="#EBEBEB"/>
<path id="Vector_4" d="M152.175 133.109H145.15V133.195H152.175V133.109Z" fill="#EBEBEB"/>
<path id="Vector_5" d="M35.0088 133.684H19.2002V133.769H35.0088V133.684Z" fill="#EBEBEB"/>
<path id="Vector_6" d="M40.5855 133.684H38.2676V133.769H40.5855V133.684Z" fill="#EBEBEB"/>
<path id="Vector_7" d="M82.4036 135.128H48.1182V135.214H82.4036V135.128Z" fill="#EBEBEB"/>
<path id="Vector_8" d="M86.7473 115.528H16.073C14.9212 115.528 13.9839 114.652 13.9839 113.576V20.7458C13.9839 19.6696 14.9212 18.7937 16.073 18.7937H86.7473C87.8987 18.7937 88.836 19.6696 88.836 20.7458V113.576C88.836 114.652 87.8987 115.528 86.7473 115.528ZM16.073 18.8795C14.9714 18.8795 14.0754 19.7168 14.0754 20.7462V113.576C14.0754 114.605 14.9714 115.443 16.073 115.443H86.7473C87.8485 115.443 88.7445 114.605 88.7445 113.576V20.7458C88.7445 19.7168 87.8485 18.8792 86.7473 18.8792L16.073 18.8795Z" fill="#EBEBEB"/>
<path id="Vector_9" d="M165.912 115.528H95.2377C94.0859 115.528 93.1489 114.652 93.1489 113.576V20.7458C93.1489 19.6696 94.0863 18.7937 95.2377 18.7937H165.912C167.064 18.7937 168.001 19.6696 168.001 20.7458V113.576C168.001 114.652 167.064 115.528 165.912 115.528ZM95.2377 18.8795C94.1364 18.8795 93.2404 19.7168 93.2404 20.7462V113.576C93.2404 114.605 94.1364 115.443 95.2377 115.443H165.912C167.013 115.443 167.909 114.605 167.909 113.576V20.7458C167.909 19.7168 167.013 18.8792 165.912 18.8792L95.2377 18.8795Z" fill="#EBEBEB"/>
</g>
<g id="Group_2">
<path id="Vector_10" d="M160.265 130.557V114.544H158.8V106.914H156.658V80.3868H153.562V76.9637L146.951 74.0827V70.6313H146.035V80.3868H144.753V106.914H143.471V92.9659H139.991V85.7778H139.02V106.914H136.376V98.8706H134.637V96.8168H130.607V89.7997H128.401V84.8366H125.688V77.6057H124.72V84.8366H122.008V89.7997H119.801V96.8168H115.771V98.8706H114.031V106.914H111.968V96.8168H107.938V75.081H106.656V72.685H98.0479V75.081H96.2164V90.8267H88.8902V92.3667H86.143V93.5651H88.8902V99.7262H81.1976V79.1888H79.5491V74.8245H75.9777V59.3357H74.9705V74.8245H72.4063V79.1888H57.3735V77.7521H56.4575V87.5076H55.1754V87.6786H54.4053V97.4338H53.1232V100.087H50.4133V92.8985H49.4423V110.013H48.3612V102.825H47.3902V114.035H46.7994V105.991H45.0595V103.938H41.0298V96.9205H38.8232V91.9574H36.1108V84.7265H35.1427V91.9574H32.4303V96.9205H30.2237V103.938H26.1944V105.991H24.4544V113.864H24.1418V114.035H23.2803V130.557H160.265Z" fill="#E6E6E6"/>
<g id="Group_3">
<path id="Vector_11" d="M66.7987 80.1484H65.7607V81.1183H66.7987V80.1484Z" fill="#F0F0F0"/>
<path id="Vector_12" d="M66.7987 81.7742H65.7607V82.7441H66.7987V81.7742Z" fill="#F0F0F0"/>
<path id="Vector_13" d="M66.7987 88.2778H65.7607V89.2477H66.7987V88.2778Z" fill="#F0F0F0"/>
<path id="Vector_14" d="M66.7987 89.9036H65.7607V90.8735H66.7987V89.9036Z" fill="#F0F0F0"/>
<path id="Vector_15" d="M66.7987 91.5295H65.7607V92.4995H66.7987V91.5295Z" fill="#F0F0F0"/>
<path id="Vector_16" d="M66.7987 96.407H65.7607V97.3769H66.7987V96.407Z" fill="#F0F0F0"/>
<path id="Vector_17" d="M66.7987 98.033H65.7607V99.0029H66.7987V98.033Z" fill="#F0F0F0"/>
<path id="Vector_18" d="M68.4472 86.6519H67.4092V87.6218H68.4472V86.6519Z" fill="#F0F0F0"/>
<path id="Vector_19" d="M68.4472 88.2778H67.4092V89.2477H68.4472V88.2778Z" fill="#F0F0F0"/>
<path id="Vector_20" d="M68.4472 89.9036H67.4092V90.8735H68.4472V89.9036Z" fill="#F0F0F0"/>
<path id="Vector_21" d="M68.4472 91.5295H67.4092V92.4995H68.4472V91.5295Z" fill="#F0F0F0"/>
<path id="Vector_22" d="M68.4472 93.1553H67.4092V94.1252H68.4472V93.1553Z" fill="#F0F0F0"/>
<path id="Vector_23" d="M68.4472 96.407H67.4092V97.3769H68.4472V96.407Z" fill="#F0F0F0"/>
<path id="Vector_24" d="M68.4472 98.033H67.4092V99.0029H68.4472V98.033Z" fill="#F0F0F0"/>
<path id="Vector_25" d="M70.0956 80.1484H69.0576V81.1183H70.0956V80.1484Z" fill="#F0F0F0"/>
<path id="Vector_26" d="M70.0956 81.7742H69.0576V82.7441H70.0956V81.7742Z" fill="#F0F0F0"/>
<path id="Vector_27" d="M70.0956 83.4001H69.0576V84.3701H70.0956V83.4001Z" fill="#F0F0F0"/>
<path id="Vector_28" d="M70.0956 85.0261H69.0576V85.996H70.0956V85.0261Z" fill="#F0F0F0"/>
<path id="Vector_29" d="M70.0956 86.6519H69.0576V87.6218H70.0956V86.6519Z" fill="#F0F0F0"/>
<path id="Vector_30" d="M70.0956 88.2778H69.0576V89.2477H70.0956V88.2778Z" fill="#F0F0F0"/>
<path id="Vector_31" d="M70.0956 89.9036H69.0576V90.8735H70.0956V89.9036Z" fill="#F0F0F0"/>
<path id="Vector_32" d="M70.0956 91.5295H69.0576V92.4995H70.0956V91.5295Z" fill="#F0F0F0"/>
<path id="Vector_33" d="M70.0956 93.1553H69.0576V94.1252H70.0956V93.1553Z" fill="#F0F0F0"/>
<path id="Vector_34" d="M70.0956 94.7812H69.0576V95.7512H70.0956V94.7812Z" fill="#F0F0F0"/>
<path id="Vector_35" d="M70.0956 98.033H69.0576V99.0029H70.0956V98.033Z" fill="#F0F0F0"/>
<path id="Vector_36" d="M71.744 80.1484H70.7061V81.1183H71.744V80.1484Z" fill="#F0F0F0"/>
<path id="Vector_37" d="M71.744 81.7742H70.7061V82.7441H71.744V81.7742Z" fill="#F0F0F0"/>
<path id="Vector_38" d="M71.744 83.4001H70.7061V84.3701H71.744V83.4001Z" fill="#F0F0F0"/>
<path id="Vector_39" d="M71.744 85.0261H70.7061V85.996H71.744V85.0261Z" fill="#F0F0F0"/>
<path id="Vector_40" d="M71.744 86.6519H70.7061V87.6218H71.744V86.6519Z" fill="#F0F0F0"/>
<path id="Vector_41" d="M71.744 88.2778H70.7061V89.2477H71.744V88.2778Z" fill="#F0F0F0"/>
<path id="Vector_42" d="M71.744 89.9036H70.7061V90.8735H71.744V89.9036Z" fill="#F0F0F0"/>
<path id="Vector_43" d="M71.744 104.536H70.7061V105.506H71.744V104.536Z" fill="#F0F0F0"/>
<path id="Vector_44" d="M73.3925 80.1484H72.3545V81.1183H73.3925V80.1484Z" fill="#F0F0F0"/>
<path id="Vector_45" d="M73.3925 81.7742H72.3545V82.7441H73.3925V81.7742Z" fill="#F0F0F0"/>
<path id="Vector_46" d="M73.3925 83.4001H72.3545V84.3701H73.3925V83.4001Z" fill="#F0F0F0"/>
<path id="Vector_47" d="M73.3925 85.0261H72.3545V85.996H73.3925V85.0261Z" fill="#F0F0F0"/>
<path id="Vector_48" d="M73.3925 86.6519H72.3545V87.6218H73.3925V86.6519Z" fill="#F0F0F0"/>
<path id="Vector_49" d="M73.3925 88.2778H72.3545V89.2477H73.3925V88.2778Z" fill="#F0F0F0"/>
<path id="Vector_50" d="M73.3925 89.9036H72.3545V90.8735H73.3925V89.9036Z" fill="#F0F0F0"/>
<path id="Vector_51" d="M73.3925 91.5295H72.3545V92.4995H73.3925V91.5295Z" fill="#F0F0F0"/>
<path id="Vector_52" d="M73.3925 101.285H72.3545V102.255H73.3925V101.285Z" fill="#F0F0F0"/>
<path id="Vector_53" d="M73.3925 102.911H72.3545V103.881H73.3925V102.911Z" fill="#F0F0F0"/>
<path id="Vector_54" d="M73.3925 104.536H72.3545V105.506H73.3925V104.536Z" fill="#F0F0F0"/>
<path id="Vector_55" d="M73.3925 106.163H72.3545V107.133H73.3925V106.163Z" fill="#F0F0F0"/>
<path id="Vector_56" d="M73.3925 112.666H72.3545V113.636H73.3925V112.666Z" fill="#F0F0F0"/>
<path id="Vector_57" d="M75.0409 80.1484H74.0029V81.1183H75.0409V80.1484Z" fill="#F0F0F0"/>
<path id="Vector_58" d="M75.0409 81.7742H74.0029V82.7441H75.0409V81.7742Z" fill="#F0F0F0"/>
<path id="Vector_59" d="M75.0409 83.4001H74.0029V84.3701H75.0409V83.4001Z" fill="#F0F0F0"/>
<path id="Vector_60" d="M75.0409 85.0261H74.0029V85.996H75.0409V85.0261Z" fill="#F0F0F0"/>
<path id="Vector_61" d="M75.0409 86.6519H74.0029V87.6218H75.0409V86.6519Z" fill="#F0F0F0"/>
<path id="Vector_62" d="M75.0409 88.2778H74.0029V89.2477H75.0409V88.2778Z" fill="#F0F0F0"/>
<path id="Vector_63" d="M75.0409 89.9036H74.0029V90.8735H75.0409V89.9036Z" fill="#F0F0F0"/>
<path id="Vector_64" d="M75.0409 91.5295H74.0029V92.4995H75.0409V91.5295Z" fill="#F0F0F0"/>
<path id="Vector_65" d="M75.0409 93.1553H74.0029V94.1252H75.0409V93.1553Z" fill="#F0F0F0"/>
<path id="Vector_66" d="M75.0409 94.7812H74.0029V95.7512H75.0409V94.7812Z" fill="#F0F0F0"/>
<path id="Vector_67" d="M75.0409 99.6589H74.0029V100.629H75.0409V99.6589Z" fill="#F0F0F0"/>
<path id="Vector_68" d="M75.0409 101.285H74.0029V102.255H75.0409V101.285Z" fill="#F0F0F0"/>
<path id="Vector_69" d="M75.0409 102.911H74.0029V103.881H75.0409V102.911Z" fill="#F0F0F0"/>
<path id="Vector_70" d="M75.0409 104.536H74.0029V105.506H75.0409V104.536Z" fill="#F0F0F0"/>
<path id="Vector_71" d="M75.0409 106.163H74.0029V107.133H75.0409V106.163Z" fill="#F0F0F0"/>
<path id="Vector_72" d="M75.0409 112.666H74.0029V113.636H75.0409V112.666Z" fill="#F0F0F0"/>
<path id="Vector_73" d="M76.6893 80.1484H75.6514V81.1183H76.6893V80.1484Z" fill="#F0F0F0"/>
<path id="Vector_74" d="M76.6893 81.7742H75.6514V82.7441H76.6893V81.7742Z" fill="#F0F0F0"/>
<path id="Vector_75" d="M76.6893 83.4001H75.6514V84.3701H76.6893V83.4001Z" fill="#F0F0F0"/>
<path id="Vector_76" d="M76.6893 85.0261H75.6514V85.996H76.6893V85.0261Z" fill="#F0F0F0"/>
<path id="Vector_77" d="M76.6893 86.6519H75.6514V87.6218H76.6893V86.6519Z" fill="#F0F0F0"/>
<path id="Vector_78" d="M76.6893 88.2778H75.6514V89.2477H76.6893V88.2778Z" fill="#F0F0F0"/>
<path id="Vector_79" d="M76.6893 89.9036H75.6514V90.8735H76.6893V89.9036Z" fill="#F0F0F0"/>
<path id="Vector_80" d="M76.6893 91.5295H75.6514V92.4995H76.6893V91.5295Z" fill="#F0F0F0"/>
<path id="Vector_81" d="M76.6893 93.1553H75.6514V94.1252H76.6893V93.1553Z" fill="#F0F0F0"/>
<path id="Vector_82" d="M76.6893 94.7812H75.6514V95.7512H76.6893V94.7812Z" fill="#F0F0F0"/>
<path id="Vector_83" d="M76.6893 96.407H75.6514V97.3769H76.6893V96.407Z" fill="#F0F0F0"/>
<path id="Vector_84" d="M76.6893 98.033H75.6514V99.0029H76.6893V98.033Z" fill="#F0F0F0"/>
<path id="Vector_85" d="M76.6893 99.6589H75.6514V100.629H76.6893V99.6589Z" fill="#F0F0F0"/>
<path id="Vector_86" d="M76.6893 101.285H75.6514V102.255H76.6893V101.285Z" fill="#F0F0F0"/>
<path id="Vector_87" d="M76.6893 102.911H75.6514V103.881H76.6893V102.911Z" fill="#F0F0F0"/>
<path id="Vector_88" d="M76.6893 104.536H75.6514V105.506H76.6893V104.536Z" fill="#F0F0F0"/>
<path id="Vector_89" d="M76.6893 106.163H75.6514V107.133H76.6893V106.163Z" fill="#F0F0F0"/>
<path id="Vector_90" d="M76.6893 107.789H75.6514V108.758H76.6893V107.789Z" fill="#F0F0F0"/>
<path id="Vector_91" d="M78.3378 80.1484H77.2998V81.1183H78.3378V80.1484Z" fill="#F0F0F0"/>
<path id="Vector_92" d="M78.3378 81.7742H77.2998V82.7441H78.3378V81.7742Z" fill="#F0F0F0"/>
<path id="Vector_93" d="M78.3378 83.4001H77.2998V84.3701H78.3378V83.4001Z" fill="#F0F0F0"/>
<path id="Vector_94" d="M78.3378 85.0261H77.2998V85.996H78.3378V85.0261Z" fill="#F0F0F0"/>
<path id="Vector_95" d="M78.3378 86.6519H77.2998V87.6218H78.3378V86.6519Z" fill="#F0F0F0"/>
<path id="Vector_96" d="M78.3378 88.2778H77.2998V89.2477H78.3378V88.2778Z" fill="#F0F0F0"/>
<path id="Vector_97" d="M78.3378 89.9036H77.2998V90.8735H78.3378V89.9036Z" fill="#F0F0F0"/>
<path id="Vector_98" d="M78.3378 91.5295H77.2998V92.4995H78.3378V91.5295Z" fill="#F0F0F0"/>
<path id="Vector_99" d="M78.3378 93.1553H77.2998V94.1252H78.3378V93.1553Z" fill="#F0F0F0"/>
<path id="Vector_100" d="M78.3378 94.7812H77.2998V95.7512H78.3378V94.7812Z" fill="#F0F0F0"/>
<path id="Vector_101" d="M78.3378 99.6589H77.2998V100.629H78.3378V99.6589Z" fill="#F0F0F0"/>
<path id="Vector_102" d="M78.3378 101.285H77.2998V102.255H78.3378V101.285Z" fill="#F0F0F0"/>
<path id="Vector_103" d="M78.3378 102.911H77.2998V103.881H78.3378V102.911Z" fill="#F0F0F0"/>
<path id="Vector_104" d="M78.3378 104.536H77.2998V105.506H78.3378V104.536Z" fill="#F0F0F0"/>
<path id="Vector_105" d="M79.9857 80.1484H78.9478V81.1183H79.9857V80.1484Z" fill="#F0F0F0"/>
<path id="Vector_106" d="M79.9857 81.7742H78.9478V82.7441H79.9857V81.7742Z" fill="#F0F0F0"/>
<path id="Vector_107" d="M79.9857 83.4001H78.9478V84.3701H79.9857V83.4001Z" fill="#F0F0F0"/>
<path id="Vector_108" d="M79.9857 85.0261H78.9478V85.996H79.9857V85.0261Z" fill="#F0F0F0"/>
<path id="Vector_109" d="M79.9857 86.6519H78.9478V87.6218H79.9857V86.6519Z" fill="#F0F0F0"/>
<path id="Vector_110" d="M79.9857 88.2778H78.9478V89.2477H79.9857V88.2778Z" fill="#F0F0F0"/>
<path id="Vector_111" d="M79.9857 89.9036H78.9478V90.8735H79.9857V89.9036Z" fill="#F0F0F0"/>
<path id="Vector_112" d="M79.9857 91.5295H78.9478V92.4995H79.9857V91.5295Z" fill="#F0F0F0"/>
<path id="Vector_113" d="M79.9857 93.1553H78.9478V94.1252H79.9857V93.1553Z" fill="#F0F0F0"/>
<path id="Vector_114" d="M79.9857 94.7812H78.9478V95.7512H79.9857V94.7812Z" fill="#F0F0F0"/>
<path id="Vector_115" d="M79.9857 99.6589H78.9478V100.629H79.9857V99.6589Z" fill="#F0F0F0"/>
<path id="Vector_116" d="M79.9857 101.285H78.9478V102.255H79.9857V101.285Z" fill="#F0F0F0"/>
<path id="Vector_117" d="M79.9857 102.911H78.9478V103.881H79.9857V102.911Z" fill="#F0F0F0"/>
<path id="Vector_118" d="M98.5458 75.9268H97.5078V76.8967H98.5458V75.9268Z" fill="#F0F0F0"/>
<path id="Vector_119" d="M98.5458 77.5527H97.5078V78.5227H98.5458V77.5527Z" fill="#F0F0F0"/>
<path id="Vector_120" d="M98.5458 79.1785H97.5078V80.1484H98.5458V79.1785Z" fill="#F0F0F0"/>
<path id="Vector_121" d="M98.5458 80.8044H97.5078V81.7744H98.5458V80.8044Z" fill="#F0F0F0"/>
<path id="Vector_122" d="M98.5458 82.4302H97.5078V83.4001H98.5458V82.4302Z" fill="#F0F0F0"/>
<path id="Vector_123" d="M98.5458 84.0562H97.5078V85.0261H98.5458V84.0562Z" fill="#F0F0F0"/>
<path id="Vector_124" d="M98.5458 85.6819H97.5078V86.6518H98.5458V85.6819Z" fill="#F0F0F0"/>
<path id="Vector_125" d="M98.5458 87.3079H97.5078V88.2778H98.5458V87.3079Z" fill="#F0F0F0"/>
<path id="Vector_126" d="M98.5458 92.1855H97.5078V93.1555H98.5458V92.1855Z" fill="#F0F0F0"/>
<path id="Vector_127" d="M98.5458 93.8113H97.5078V94.7812H98.5458V93.8113Z" fill="#F0F0F0"/>
<path id="Vector_128" d="M100.194 75.9268H99.1562V76.8967H100.194V75.9268Z" fill="#F0F0F0"/>
<path id="Vector_129" d="M100.194 77.5527H99.1562V78.5227H100.194V77.5527Z" fill="#F0F0F0"/>
<path id="Vector_130" d="M100.194 79.1785H99.1562V80.1484H100.194V79.1785Z" fill="#F0F0F0"/>
<path id="Vector_131" d="M100.194 80.8044H99.1562V81.7744H100.194V80.8044Z" fill="#F0F0F0"/>
<path id="Vector_132" d="M100.194 82.4302H99.1562V83.4001H100.194V82.4302Z" fill="#F0F0F0"/>
<path id="Vector_133" d="M100.194 84.0562H99.1562V85.0261H100.194V84.0562Z" fill="#F0F0F0"/>
<path id="Vector_134" d="M100.194 85.6819H99.1562V86.6518H100.194V85.6819Z" fill="#F0F0F0"/>
<path id="Vector_135" d="M100.194 87.3079H99.1562V88.2778H100.194V87.3079Z" fill="#F0F0F0"/>
<path id="Vector_136" d="M100.194 93.8113H99.1562V94.7812H100.194V93.8113Z" fill="#F0F0F0"/>
<path id="Vector_137" d="M101.843 75.9268H100.805V76.8967H101.843V75.9268Z" fill="#F0F0F0"/>
<path id="Vector_138" d="M101.843 77.5527H100.805V78.5227H101.843V77.5527Z" fill="#F0F0F0"/>
<path id="Vector_139" d="M101.843 79.1785H100.805V80.1484H101.843V79.1785Z" fill="#F0F0F0"/>
<path id="Vector_140" d="M101.843 80.8044H100.805V81.7744H101.843V80.8044Z" fill="#F0F0F0"/>
<path id="Vector_141" d="M101.843 82.4302H100.805V83.4001H101.843V82.4302Z" fill="#F0F0F0"/>
<path id="Vector_142" d="M101.843 84.0562H100.805V85.0261H101.843V84.0562Z" fill="#F0F0F0"/>
<path id="Vector_143" d="M101.843 85.6819H100.805V86.6518H101.843V85.6819Z" fill="#F0F0F0"/>
<path id="Vector_144" d="M101.843 87.3079H100.805V88.2778H101.843V87.3079Z" fill="#F0F0F0"/>
<path id="Vector_145" d="M103.491 75.9268H102.453V76.8967H103.491V75.9268Z" fill="#F0F0F0"/>
<path id="Vector_146" d="M103.491 77.5527H102.453V78.5227H103.491V77.5527Z" fill="#F0F0F0"/>
<path id="Vector_147" d="M103.491 79.1785H102.453V80.1484H103.491V79.1785Z" fill="#F0F0F0"/>
<path id="Vector_148" d="M103.491 80.8044H102.453V81.7744H103.491V80.8044Z" fill="#F0F0F0"/>
<path id="Vector_149" d="M103.491 82.4302H102.453V83.4001H103.491V82.4302Z" fill="#F0F0F0"/>
<path id="Vector_150" d="M103.491 84.0562H102.453V85.0261H103.491V84.0562Z" fill="#F0F0F0"/>
<path id="Vector_151" d="M103.491 87.3079H102.453V88.2778H103.491V87.3079Z" fill="#F0F0F0"/>
<path id="Vector_152" d="M103.491 88.9336H102.453V89.9035H103.491V88.9336Z" fill="#F0F0F0"/>
<path id="Vector_153" d="M103.491 93.8113H102.453V94.7812H103.491V93.8113Z" fill="#F0F0F0"/>
<path id="Vector_154" d="M103.491 95.4373H102.453V96.4072H103.491V95.4373Z" fill="#F0F0F0"/>
<path id="Vector_155" d="M103.491 97.0635H102.453V98.0334H103.491V97.0635Z" fill="#F0F0F0"/>
<path id="Vector_156" d="M103.491 98.6892H102.453V99.6591H103.491V98.6892Z" fill="#F0F0F0"/>
<path id="Vector_157" d="M103.491 100.315H102.453V101.285H103.491V100.315Z" fill="#F0F0F0"/>
<path id="Vector_158" d="M103.491 101.941H102.453V102.911H103.491V101.941Z" fill="#F0F0F0"/>
<path id="Vector_159" d="M103.491 103.567H102.453V104.537H103.491V103.567Z" fill="#F0F0F0"/>
<path id="Vector_160" d="M105.14 75.9268H104.102V76.8967H105.14V75.9268Z" fill="#F0F0F0"/>
<path id="Vector_161" d="M105.14 77.5527H104.102V78.5227H105.14V77.5527Z" fill="#F0F0F0"/>
<path id="Vector_162" d="M105.14 79.1785H104.102V80.1484H105.14V79.1785Z" fill="#F0F0F0"/>
<path id="Vector_163" d="M105.14 80.8044H104.102V81.7744H105.14V80.8044Z" fill="#F0F0F0"/>
<path id="Vector_164" d="M105.14 82.4302H104.102V83.4001H105.14V82.4302Z" fill="#F0F0F0"/>
<path id="Vector_165" d="M105.14 84.0562H104.102V85.0261H105.14V84.0562Z" fill="#F0F0F0"/>
<path id="Vector_166" d="M105.14 88.9336H104.102V89.9035H105.14V88.9336Z" fill="#F0F0F0"/>
<path id="Vector_167" d="M105.14 90.5596H104.102V91.5295H105.14V90.5596Z" fill="#F0F0F0"/>
<path id="Vector_168" d="M105.14 92.1855H104.102V93.1555H105.14V92.1855Z" fill="#F0F0F0"/>
<path id="Vector_169" d="M105.14 93.8113H104.102V94.7812H105.14V93.8113Z" fill="#F0F0F0"/>
<path id="Vector_170" d="M105.14 95.4373H104.102V96.4072H105.14V95.4373Z" fill="#F0F0F0"/>
<path id="Vector_171" d="M105.14 97.0635H104.102V98.0334H105.14V97.0635Z" fill="#F0F0F0"/>
<path id="Vector_172" d="M105.14 98.6892H104.102V99.6591H105.14V98.6892Z" fill="#F0F0F0"/>
<path id="Vector_173" d="M105.14 100.315H104.102V101.285H105.14V100.315Z" fill="#F0F0F0"/>
<path id="Vector_174" d="M105.14 101.941H104.102V102.911H105.14V101.941Z" fill="#F0F0F0"/>
<path id="Vector_175" d="M105.14 103.567H104.102V104.537H105.14V103.567Z" fill="#F0F0F0"/>
<path id="Vector_176" d="M105.14 105.193H104.102V106.163H105.14V105.193Z" fill="#F0F0F0"/>
<path id="Vector_177" d="M105.14 108.444H104.102V109.414H105.14V108.444Z" fill="#F0F0F0"/>
<path id="Vector_178" d="M106.787 75.9268H105.75V76.8967H106.787V75.9268Z" fill="#F0F0F0"/>
<path id="Vector_179" d="M106.787 77.5527H105.75V78.5227H106.787V77.5527Z" fill="#F0F0F0"/>
<path id="Vector_180" d="M106.787 79.1785H105.75V80.1484H106.787V79.1785Z" fill="#F0F0F0"/>
<path id="Vector_181" d="M106.787 80.8044H105.75V81.7744H106.787V80.8044Z" fill="#F0F0F0"/>
<path id="Vector_182" d="M106.787 82.4302H105.75V83.4001H106.787V82.4302Z" fill="#F0F0F0"/>
<path id="Vector_183" d="M106.787 84.0562H105.75V85.0261H106.787V84.0562Z" fill="#F0F0F0"/>
<path id="Vector_184" d="M106.787 88.9336H105.75V89.9035H106.787V88.9336Z" fill="#F0F0F0"/>
<path id="Vector_185" d="M106.787 90.5596H105.75V91.5295H106.787V90.5596Z" fill="#F0F0F0"/>
<path id="Vector_186" d="M106.787 92.1855H105.75V93.1555H106.787V92.1855Z" fill="#F0F0F0"/>
<path id="Vector_187" d="M106.787 93.8113H105.75V94.7812H106.787V93.8113Z" fill="#F0F0F0"/>
<path id="Vector_188" d="M106.787 98.6892H105.75V99.6591H106.787V98.6892Z" fill="#F0F0F0"/>
<path id="Vector_189" d="M106.787 100.315H105.75V101.285H106.787V100.315Z" fill="#F0F0F0"/>
<path id="Vector_190" d="M106.787 101.941H105.75V102.911H106.787V101.941Z" fill="#F0F0F0"/>
<path id="Vector_191" d="M106.787 103.567H105.75V104.537H106.787V103.567Z" fill="#F0F0F0"/>
<path id="Vector_192" d="M106.787 105.193H105.75V106.163H106.787V105.193Z" fill="#F0F0F0"/>
<path id="Vector_193" d="M106.787 108.444H105.75V109.414H106.787V108.444Z" fill="#F0F0F0"/>
<path id="Vector_194" d="M106.787 110.07H105.75V111.04H106.787V110.07Z" fill="#F0F0F0"/>
<path id="Vector_195" d="M121.746 91.0444H120.708V92.0143H121.746V91.0444Z" fill="#F0F0F0"/>
<path id="Vector_196" d="M121.746 92.6704H120.708V93.6403H121.746V92.6704Z" fill="#F0F0F0"/>
<path id="Vector_197" d="M121.746 94.2964H120.708V95.2663H121.746V94.2964Z" fill="#F0F0F0"/>
<path id="Vector_198" d="M121.746 95.9221H120.708V96.892H121.746V95.9221Z" fill="#F0F0F0"/>
<path id="Vector_199" d="M121.746 97.5481H120.708V98.518H121.746V97.5481Z" fill="#F0F0F0"/>
<path id="Vector_200" d="M121.746 99.1743H120.708V100.144H121.746V99.1743Z" fill="#F0F0F0"/>
<path id="Vector_201" d="M121.746 100.8H120.708V101.77H121.746V100.8Z" fill="#F0F0F0"/>
<path id="Vector_202" d="M121.746 105.678H120.708V106.648H121.746V105.678Z" fill="#F0F0F0"/>
<path id="Vector_203" d="M121.746 107.303H120.708V108.273H121.746V107.303Z" fill="#F0F0F0"/>
<path id="Vector_204" d="M121.746 108.929H120.708V109.899H121.746V108.929Z" fill="#F0F0F0"/>
<path id="Vector_205" d="M123.394 91.0444H122.356V92.0143H123.394V91.0444Z" fill="#F0F0F0"/>
<path id="Vector_206" d="M123.394 92.6704H122.356V93.6403H123.394V92.6704Z" fill="#F0F0F0"/>
<path id="Vector_207" d="M123.394 94.2964H122.356V95.2663H123.394V94.2964Z" fill="#F0F0F0"/>
<path id="Vector_208" d="M123.394 95.9221H122.356V96.892H123.394V95.9221Z" fill="#F0F0F0"/>
<path id="Vector_209" d="M123.394 97.5481H122.356V98.518H123.394V97.5481Z" fill="#F0F0F0"/>
<path id="Vector_210" d="M123.394 99.1743H122.356V100.144H123.394V99.1743Z" fill="#F0F0F0"/>
<path id="Vector_211" d="M123.394 100.8H122.356V101.77H123.394V100.8Z" fill="#F0F0F0"/>
<path id="Vector_212" d="M125.042 91.0444H124.004V92.0143H125.042V91.0444Z" fill="#F0F0F0"/>
<path id="Vector_213" d="M125.042 92.6704H124.004V93.6403H125.042V92.6704Z" fill="#F0F0F0"/>
<path id="Vector_214" d="M125.042 94.2964H124.004V95.2663H125.042V94.2964Z" fill="#F0F0F0"/>
<path id="Vector_215" d="M125.042 95.9221H124.004V96.892H125.042V95.9221Z" fill="#F0F0F0"/>
<path id="Vector_216" d="M125.042 97.5481H124.004V98.518H125.042V97.5481Z" fill="#F0F0F0"/>
<path id="Vector_217" d="M125.042 99.1743H124.004V100.144H125.042V99.1743Z" fill="#F0F0F0"/>
<path id="Vector_218" d="M125.042 100.8H124.004V101.77H125.042V100.8Z" fill="#F0F0F0"/>
<path id="Vector_219" d="M126.691 91.0444H125.653V92.0143H126.691V91.0444Z" fill="#F0F0F0"/>
<path id="Vector_220" d="M126.691 92.6704H125.653V93.6403H126.691V92.6704Z" fill="#F0F0F0"/>
<path id="Vector_221" d="M126.691 94.2964H125.653V95.2663H126.691V94.2964Z" fill="#F0F0F0"/>
<path id="Vector_222" d="M126.691 95.9221H125.653V96.892H126.691V95.9221Z" fill="#F0F0F0"/>
<path id="Vector_223" d="M126.691 97.5481H125.653V98.518H126.691V97.5481Z" fill="#F0F0F0"/>
<path id="Vector_224" d="M126.691 99.1743H125.653V100.144H126.691V99.1743Z" fill="#F0F0F0"/>
<path id="Vector_225" d="M126.691 100.8H125.653V101.77H126.691V100.8Z" fill="#F0F0F0"/>
<path id="Vector_226" d="M126.691 102.426H125.653V103.396H126.691V102.426Z" fill="#F0F0F0"/>
<path id="Vector_227" d="M126.691 104.052H125.653V105.022H126.691V104.052Z" fill="#F0F0F0"/>
<path id="Vector_228" d="M126.691 105.678H125.653V106.648H126.691V105.678Z" fill="#F0F0F0"/>
<path id="Vector_229" d="M126.691 107.303H125.653V108.273H126.691V107.303Z" fill="#F0F0F0"/>
<path id="Vector_230" d="M128.339 91.0444H127.301V92.0143H128.339V91.0444Z" fill="#F0F0F0"/>
<path id="Vector_231" d="M128.339 92.6704H127.301V93.6403H128.339V92.6704Z" fill="#F0F0F0"/>
<path id="Vector_232" d="M128.339 94.2964H127.301V95.2663H128.339V94.2964Z" fill="#F0F0F0"/>
<path id="Vector_233" d="M128.339 95.9221H127.301V96.892H128.339V95.9221Z" fill="#F0F0F0"/>
<path id="Vector_234" d="M128.339 97.5481H127.301V98.518H128.339V97.5481Z" fill="#F0F0F0"/>
<path id="Vector_235" d="M128.339 99.1743H127.301V100.144H128.339V99.1743Z" fill="#F0F0F0"/>
<path id="Vector_236" d="M128.339 100.8H127.301V101.77H128.339V100.8Z" fill="#F0F0F0"/>
<path id="Vector_237" d="M128.339 102.426H127.301V103.396H128.339V102.426Z" fill="#F0F0F0"/>
<path id="Vector_238" d="M128.339 104.052H127.301V105.022H128.339V104.052Z" fill="#F0F0F0"/>
<path id="Vector_239" d="M128.339 105.678H127.301V106.648H128.339V105.678Z" fill="#F0F0F0"/>
<path id="Vector_240" d="M128.339 107.303H127.301V108.273H128.339V107.303Z" fill="#F0F0F0"/>
<path id="Vector_241" d="M128.339 108.929H127.301V109.899H128.339V108.929Z" fill="#F0F0F0"/>
<path id="Vector_242" d="M128.339 113.807H127.301V114.777H128.339V113.807Z" fill="#F0F0F0"/>
<path id="Vector_243" d="M128.339 115.433H127.301V116.403H128.339V115.433Z" fill="#F0F0F0"/>
<path id="Vector_244" d="M129.988 91.0444H128.95V92.0143H129.988V91.0444Z" fill="#F0F0F0"/>
<path id="Vector_245" d="M129.988 92.6704H128.95V93.6403H129.988V92.6704Z" fill="#F0F0F0"/>
<path id="Vector_246" d="M129.988 94.2964H128.95V95.2663H129.988V94.2964Z" fill="#F0F0F0"/>
<path id="Vector_247" d="M129.988 99.1743H128.95V100.144H129.988V99.1743Z" fill="#F0F0F0"/>
<path id="Vector_248" d="M129.988 100.8H128.95V101.77H129.988V100.8Z" fill="#F0F0F0"/>
<path id="Vector_249" d="M129.988 102.426H128.95V103.396H129.988V102.426Z" fill="#F0F0F0"/>
<path id="Vector_250" d="M129.988 104.052H128.95V105.022H129.988V104.052Z" fill="#F0F0F0"/>
<path id="Vector_251" d="M129.988 105.678H128.95V106.648H129.988V105.678Z" fill="#F0F0F0"/>
<path id="Vector_252" d="M129.988 107.303H128.95V108.273H129.988V107.303Z" fill="#F0F0F0"/>
<path id="Vector_253" d="M129.988 108.929H128.95V109.899H129.988V108.929Z" fill="#F0F0F0"/>
<path id="Vector_254" d="M129.988 113.807H128.95V114.777H129.988V113.807Z" fill="#F0F0F0"/>
<path id="Vector_255" d="M129.988 115.433H128.95V116.403H129.988V115.433Z" fill="#F0F0F0"/>
<path id="Vector_256" d="M129.988 117.059H128.95V118.029H129.988V117.059Z" fill="#F0F0F0"/>
<path id="Vector_257" d="M147.266 81.2893H146.228V82.2592H147.266V81.2893Z" fill="#F0F0F0"/>
<path id="Vector_258" d="M147.266 82.9153H146.228V83.8852H147.266V82.9153Z" fill="#F0F0F0"/>
<path id="Vector_259" d="M147.266 84.541H146.228V85.5109H147.266V84.541Z" fill="#F0F0F0"/>
<path id="Vector_260" d="M147.266 86.167H146.228V87.1369H147.266V86.167Z" fill="#F0F0F0"/>
<path id="Vector_261" d="M147.266 87.7927H146.228V88.7626H147.266V87.7927Z" fill="#F0F0F0"/>
<path id="Vector_262" d="M147.266 89.4187H146.228V90.3886H147.266V89.4187Z" fill="#F0F0F0"/>
<path id="Vector_263" d="M147.266 91.0444H146.228V92.0143H147.266V91.0444Z" fill="#F0F0F0"/>
<path id="Vector_264" d="M147.266 92.6704H146.228V93.6403H147.266V92.6704Z" fill="#F0F0F0"/>
<path id="Vector_265" d="M147.266 94.2964H146.228V95.2663H147.266V94.2964Z" fill="#F0F0F0"/>
<path id="Vector_266" d="M147.266 95.9221H146.228V96.892H147.266V95.9221Z" fill="#F0F0F0"/>
<path id="Vector_267" d="M147.266 97.5481H146.228V98.518H147.266V97.5481Z" fill="#F0F0F0"/>
<path id="Vector_268" d="M147.266 99.1743H146.228V100.144H147.266V99.1743Z" fill="#F0F0F0"/>
<path id="Vector_269" d="M147.266 100.8H146.228V101.77H147.266V100.8Z" fill="#F0F0F0"/>
<path id="Vector_270" d="M147.266 102.426H146.228V103.396H147.266V102.426Z" fill="#F0F0F0"/>
<path id="Vector_271" d="M147.266 104.052H146.228V105.022H147.266V104.052Z" fill="#F0F0F0"/>
<path id="Vector_272" d="M147.266 105.678H146.228V106.648H147.266V105.678Z" fill="#F0F0F0"/>
<path id="Vector_273" d="M147.266 107.303H146.228V108.273H147.266V107.303Z" fill="#F0F0F0"/>
<path id="Vector_274" d="M147.266 108.929H146.228V109.899H147.266V108.929Z" fill="#F0F0F0"/>
<path id="Vector_275" d="M147.266 110.555H146.228V111.525H147.266V110.555Z" fill="#F0F0F0"/>
<path id="Vector_276" d="M147.266 112.181H146.228V113.151H147.266V112.181Z" fill="#F0F0F0"/>
<path id="Vector_277" d="M147.266 113.807H146.228V114.777H147.266V113.807Z" fill="#F0F0F0"/>
<path id="Vector_278" d="M147.266 115.433H146.228V116.403H147.266V115.433Z" fill="#F0F0F0"/>
<path id="Vector_279" d="M147.266 117.059H146.228V118.029H147.266V117.059Z" fill="#F0F0F0"/>
<path id="Vector_280" d="M148.914 81.2893H147.876V82.2592H148.914V81.2893Z" fill="#F0F0F0"/>
<path id="Vector_281" d="M148.914 82.9153H147.876V83.8852H148.914V82.9153Z" fill="#F0F0F0"/>
<path id="Vector_282" d="M148.914 84.541H147.876V85.5109H148.914V84.541Z" fill="#F0F0F0"/>
<path id="Vector_283" d="M148.914 86.167H147.876V87.1369H148.914V86.167Z" fill="#F0F0F0"/>
<path id="Vector_284" d="M148.914 87.7927H147.876V88.7626H148.914V87.7927Z" fill="#F0F0F0"/>
<path id="Vector_285" d="M148.914 89.4187H147.876V90.3886H148.914V89.4187Z" fill="#F0F0F0"/>
<path id="Vector_286" d="M148.914 91.0444H147.876V92.0143H148.914V91.0444Z" fill="#F0F0F0"/>
<path id="Vector_287" d="M148.914 92.6704H147.876V93.6403H148.914V92.6704Z" fill="#F0F0F0"/>
<path id="Vector_288" d="M148.914 94.2964H147.876V95.2663H148.914V94.2964Z" fill="#F0F0F0"/>
<path id="Vector_289" d="M148.914 95.9221H147.876V96.892H148.914V95.9221Z" fill="#F0F0F0"/>
<path id="Vector_290" d="M148.914 97.5481H147.876V98.518H148.914V97.5481Z" fill="#F0F0F0"/>
<path id="Vector_291" d="M148.914 99.1743H147.876V100.144H148.914V99.1743Z" fill="#F0F0F0"/>
<path id="Vector_292" d="M148.914 100.8H147.876V101.77H148.914V100.8Z" fill="#F0F0F0"/>
<path id="Vector_293" d="M148.914 102.426H147.876V103.396H148.914V102.426Z" fill="#F0F0F0"/>
<path id="Vector_294" d="M148.914 104.052H147.876V105.022H148.914V104.052Z" fill="#F0F0F0"/>
<path id="Vector_295" d="M148.914 105.678H147.876V106.648H148.914V105.678Z" fill="#F0F0F0"/>
<path id="Vector_296" d="M148.914 107.303H147.876V108.273H148.914V107.303Z" fill="#F0F0F0"/>
<path id="Vector_297" d="M148.914 108.929H147.876V109.899H148.914V108.929Z" fill="#F0F0F0"/>
<path id="Vector_298" d="M148.914 110.555H147.876V111.525H148.914V110.555Z" fill="#F0F0F0"/>
<path id="Vector_299" d="M150.562 81.2893H149.524V82.2592H150.562V81.2893Z" fill="#F0F0F0"/>
<path id="Vector_300" d="M150.562 82.9153H149.524V83.8852H150.562V82.9153Z" fill="#F0F0F0"/>
<path id="Vector_301" d="M150.562 84.541H149.524V85.5109H150.562V84.541Z" fill="#F0F0F0"/>
<path id="Vector_302" d="M150.562 86.167H149.524V87.1369H150.562V86.167Z" fill="#F0F0F0"/>
<path id="Vector_303" d="M150.562 87.7927H149.524V88.7626H150.562V87.7927Z" fill="#F0F0F0"/>
<path id="Vector_304" d="M150.562 89.4187H149.524V90.3886H150.562V89.4187Z" fill="#F0F0F0"/>
<path id="Vector_305" d="M150.562 91.0444H149.524V92.0143H150.562V91.0444Z" fill="#F0F0F0"/>
<path id="Vector_306" d="M150.562 92.6704H149.524V93.6403H150.562V92.6704Z" fill="#F0F0F0"/>
<path id="Vector_307" d="M150.562 94.2964H149.524V95.2663H150.562V94.2964Z" fill="#F0F0F0"/>
<path id="Vector_308" d="M150.562 95.9221H149.524V96.892H150.562V95.9221Z" fill="#F0F0F0"/>
<path id="Vector_309" d="M150.562 97.5481H149.524V98.518H150.562V97.5481Z" fill="#F0F0F0"/>
<path id="Vector_310" d="M150.562 99.1743H149.524V100.144H150.562V99.1743Z" fill="#F0F0F0"/>
<path id="Vector_311" d="M150.562 100.8H149.524V101.77H150.562V100.8Z" fill="#F0F0F0"/>
<path id="Vector_312" d="M150.562 102.426H149.524V103.396H150.562V102.426Z" fill="#F0F0F0"/>
<path id="Vector_313" d="M150.562 104.052H149.524V105.022H150.562V104.052Z" fill="#F0F0F0"/>
<path id="Vector_314" d="M150.562 105.678H149.524V106.648H150.562V105.678Z" fill="#F0F0F0"/>
<path id="Vector_315" d="M150.562 107.303H149.524V108.273H150.562V107.303Z" fill="#F0F0F0"/>
<path id="Vector_316" d="M150.562 108.929H149.524V109.899H150.562V108.929Z" fill="#F0F0F0"/>
<path id="Vector_317" d="M150.562 110.555H149.524V111.525H150.562V110.555Z" fill="#F0F0F0"/>
<path id="Vector_318" d="M152.21 81.2893H151.172V82.2592H152.21V81.2893Z" fill="#F0F0F0"/>
<path id="Vector_319" d="M152.21 82.9153H151.172V83.8852H152.21V82.9153Z" fill="#F0F0F0"/>
<path id="Vector_320" d="M152.21 84.541H151.172V85.5109H152.21V84.541Z" fill="#F0F0F0"/>
<path id="Vector_321" d="M152.21 86.167H151.172V87.1369H152.21V86.167Z" fill="#F0F0F0"/>
<path id="Vector_322" d="M152.21 87.7927H151.172V88.7626H152.21V87.7927Z" fill="#F0F0F0"/>
<path id="Vector_323" d="M152.21 89.4187H151.172V90.3886H152.21V89.4187Z" fill="#F0F0F0"/>
<path id="Vector_324" d="M152.21 91.0444H151.172V92.0143H152.21V91.0444Z" fill="#F0F0F0"/>
<path id="Vector_325" d="M152.21 92.6704H151.172V93.6403H152.21V92.6704Z" fill="#F0F0F0"/>
<path id="Vector_326" d="M152.21 94.2964H151.172V95.2663H152.21V94.2964Z" fill="#F0F0F0"/>
<path id="Vector_327" d="M152.21 95.9221H151.172V96.892H152.21V95.9221Z" fill="#F0F0F0"/>
<path id="Vector_328" d="M152.21 97.5481H151.172V98.518H152.21V97.5481Z" fill="#F0F0F0"/>
<path id="Vector_329" d="M152.21 99.1743H151.172V100.144H152.21V99.1743Z" fill="#F0F0F0"/>
<path id="Vector_330" d="M152.21 100.8H151.172V101.77H152.21V100.8Z" fill="#F0F0F0"/>
<path id="Vector_331" d="M152.21 102.426H151.172V103.396H152.21V102.426Z" fill="#F0F0F0"/>
<path id="Vector_332" d="M152.21 104.052H151.172V105.022H152.21V104.052Z" fill="#F0F0F0"/>
<path id="Vector_333" d="M153.859 81.2893H152.821V82.2592H153.859V81.2893Z" fill="#F0F0F0"/>
<path id="Vector_334" d="M153.859 82.9153H152.821V83.8852H153.859V82.9153Z" fill="#F0F0F0"/>
<path id="Vector_335" d="M153.859 84.541H152.821V85.5109H153.859V84.541Z" fill="#F0F0F0"/>
<path id="Vector_336" d="M153.859 86.167H152.821V87.1369H153.859V86.167Z" fill="#F0F0F0"/>
<path id="Vector_337" d="M153.859 87.7927H152.821V88.7626H153.859V87.7927Z" fill="#F0F0F0"/>
<path id="Vector_338" d="M153.859 89.4187H152.821V90.3886H153.859V89.4187Z" fill="#F0F0F0"/>
<path id="Vector_339" d="M153.859 91.0444H152.821V92.0143H153.859V91.0444Z" fill="#F0F0F0"/>
<path id="Vector_340" d="M153.859 92.6704H152.821V93.6403H153.859V92.6704Z" fill="#F0F0F0"/>
<path id="Vector_341" d="M153.859 94.2964H152.821V95.2663H153.859V94.2964Z" fill="#F0F0F0"/>
<path id="Vector_342" d="M153.859 95.9221H152.821V96.892H153.859V95.9221Z" fill="#F0F0F0"/>
<path id="Vector_343" d="M153.859 97.5481H152.821V98.518H153.859V97.5481Z" fill="#F0F0F0"/>
<path id="Vector_344" d="M153.859 99.1743H152.821V100.144H153.859V99.1743Z" fill="#F0F0F0"/>
<path id="Vector_345" d="M153.859 100.8H152.821V101.77H153.859V100.8Z" fill="#F0F0F0"/>
<path id="Vector_346" d="M155.507 81.2893H154.469V82.2592H155.507V81.2893Z" fill="#F0F0F0"/>
<path id="Vector_347" d="M155.507 82.9153H154.469V83.8852H155.507V82.9153Z" fill="#F0F0F0"/>
<path id="Vector_348" d="M155.507 84.541H154.469V85.5109H155.507V84.541Z" fill="#F0F0F0"/>
<path id="Vector_349" d="M155.507 86.167H154.469V87.1369H155.507V86.167Z" fill="#F0F0F0"/>
<path id="Vector_350" d="M155.507 87.7927H154.469V88.7626H155.507V87.7927Z" fill="#F0F0F0"/>
<path id="Vector_351" d="M155.507 89.4187H154.469V90.3886H155.507V89.4187Z" fill="#F0F0F0"/>
<path id="Vector_352" d="M155.507 91.0444H154.469V92.0143H155.507V91.0444Z" fill="#F0F0F0"/>
<path id="Vector_353" d="M155.507 92.6704H154.469V93.6403H155.507V92.6704Z" fill="#F0F0F0"/>
<path id="Vector_354" d="M155.507 94.2964H154.469V95.2663H155.507V94.2964Z" fill="#F0F0F0"/>
<path id="Vector_355" d="M155.507 95.9221H154.469V96.892H155.507V95.9221Z" fill="#F0F0F0"/>
<path id="Vector_356" d="M155.507 97.5481H154.469V98.518H155.507V97.5481Z" fill="#F0F0F0"/>
<path id="Vector_357" d="M155.507 99.1743H154.469V100.144H155.507V99.1743Z" fill="#F0F0F0"/>
<path id="Vector_358" d="M34.3803 93.1553H33.3423V94.1252H34.3803V93.1553Z" fill="#F0F0F0"/>
<path id="Vector_359" d="M34.3803 94.7812H33.3423V95.7512H34.3803V94.7812Z" fill="#F0F0F0"/>
<path id="Vector_360" d="M34.3803 96.407H33.3423V97.3769H34.3803V96.407Z" fill="#F0F0F0"/>
<path id="Vector_361" d="M34.3803 98.033H33.3423V99.0029H34.3803V98.033Z" fill="#F0F0F0"/>
<path id="Vector_362" d="M34.3803 99.6589H33.3423V100.629H34.3803V99.6589Z" fill="#F0F0F0"/>
<path id="Vector_363" d="M34.3803 101.285H33.3423V102.255H34.3803V101.285Z" fill="#F0F0F0"/>
<path id="Vector_364" d="M34.3803 102.911H33.3423V103.881H34.3803V102.911Z" fill="#F0F0F0"/>
<path id="Vector_365" d="M34.3803 104.536H33.3423V105.506H34.3803V104.536Z" fill="#F0F0F0"/>
<path id="Vector_366" d="M34.3803 106.163H33.3423V107.133H34.3803V106.163Z" fill="#F0F0F0"/>
<path id="Vector_367" d="M34.3803 107.789H33.3423V108.758H34.3803V107.789Z" fill="#F0F0F0"/>
<path id="Vector_368" d="M34.3803 109.414H33.3423V110.384H34.3803V109.414Z" fill="#F0F0F0"/>
<path id="Vector_369" d="M34.3803 111.04H33.3423V112.01H34.3803V111.04Z" fill="#F0F0F0"/>
<path id="Vector_370" d="M34.3803 112.666H33.3423V113.636H34.3803V112.666Z" fill="#F0F0F0"/>
<path id="Vector_371" d="M34.3803 114.292H33.3423V115.262H34.3803V114.292Z" fill="#F0F0F0"/>
<path id="Vector_372" d="M34.3803 115.918H33.3423V116.888H34.3803V115.918Z" fill="#F0F0F0"/>
<path id="Vector_373" d="M34.3803 117.544H33.3423V118.514H34.3803V117.544Z" fill="#F0F0F0"/>
<path id="Vector_374" d="M34.3803 119.17H33.3423V120.14H34.3803V119.17Z" fill="#F0F0F0"/>
<path id="Vector_375" d="M34.3803 120.795H33.3423V121.765H34.3803V120.795Z" fill="#F0F0F0"/>
<path id="Vector_376" d="M34.3803 122.421H33.3423V123.391H34.3803V122.421Z" fill="#F0F0F0"/>
<path id="Vector_377" d="M34.3803 124.047H33.3423V125.017H34.3803V124.047Z" fill="#F0F0F0"/>
<path id="Vector_378" d="M36.0287 93.1553H34.9907V94.1252H36.0287V93.1553Z" fill="#F0F0F0"/>
<path id="Vector_379" d="M36.0287 94.7812H34.9907V95.7512H36.0287V94.7812Z" fill="#F0F0F0"/>
<path id="Vector_380" d="M36.0287 96.407H34.9907V97.3769H36.0287V96.407Z" fill="#F0F0F0"/>
<path id="Vector_381" d="M36.0287 98.033H34.9907V99.0029H36.0287V98.033Z" fill="#F0F0F0"/>
<path id="Vector_382" d="M36.0287 99.6589H34.9907V100.629H36.0287V99.6589Z" fill="#F0F0F0"/>
<path id="Vector_383" d="M36.0287 101.285H34.9907V102.255H36.0287V101.285Z" fill="#F0F0F0"/>
<path id="Vector_384" d="M36.0287 102.911H34.9907V103.881H36.0287V102.911Z" fill="#F0F0F0"/>
<path id="Vector_385" d="M36.0287 104.536H34.9907V105.506H36.0287V104.536Z" fill="#F0F0F0"/>
<path id="Vector_386" d="M36.0287 106.163H34.9907V107.133H36.0287V106.163Z" fill="#F0F0F0"/>
<path id="Vector_387" d="M36.0287 107.789H34.9907V108.758H36.0287V107.789Z" fill="#F0F0F0"/>
<path id="Vector_388" d="M36.0287 109.414H34.9907V110.384H36.0287V109.414Z" fill="#F0F0F0"/>
<path id="Vector_389" d="M36.0287 111.04H34.9907V112.01H36.0287V111.04Z" fill="#F0F0F0"/>
<path id="Vector_390" d="M36.0287 112.666H34.9907V113.636H36.0287V112.666Z" fill="#F0F0F0"/>
<path id="Vector_391" d="M36.0287 114.292H34.9907V115.262H36.0287V114.292Z" fill="#F0F0F0"/>
<path id="Vector_392" d="M36.0287 115.918H34.9907V116.888H36.0287V115.918Z" fill="#F0F0F0"/>
<path id="Vector_393" d="M36.0287 117.544H34.9907V118.514H36.0287V117.544Z" fill="#F0F0F0"/>
<path id="Vector_394" d="M36.0287 119.17H34.9907V120.14H36.0287V119.17Z" fill="#F0F0F0"/>
<path id="Vector_395" d="M36.0287 120.795H34.9907V121.765H36.0287V120.795Z" fill="#F0F0F0"/>
<path id="Vector_396" d="M37.6771 93.1553H36.6392V94.1252H37.6771V93.1553Z" fill="#F0F0F0"/>
<path id="Vector_397" d="M37.6771 94.7812H36.6392V95.7512H37.6771V94.7812Z" fill="#F0F0F0"/>
<path id="Vector_398" d="M37.6771 96.407H36.6392V97.3769H37.6771V96.407Z" fill="#F0F0F0"/>
<path id="Vector_399" d="M37.6771 98.033H36.6392V99.0029H37.6771V98.033Z" fill="#F0F0F0"/>
<path id="Vector_400" d="M37.6771 99.6589H36.6392V100.629H37.6771V99.6589Z" fill="#F0F0F0"/>
<path id="Vector_401" d="M37.6771 101.285H36.6392V102.255H37.6771V101.285Z" fill="#F0F0F0"/>
<path id="Vector_402" d="M37.6771 102.911H36.6392V103.881H37.6771V102.911Z" fill="#F0F0F0"/>
<path id="Vector_403" d="M37.6771 104.536H36.6392V105.506H37.6771V104.536Z" fill="#F0F0F0"/>
<path id="Vector_404" d="M37.6771 106.163H36.6392V107.133H37.6771V106.163Z" fill="#F0F0F0"/>
<path id="Vector_405" d="M37.6771 107.789H36.6392V108.758H37.6771V107.789Z" fill="#F0F0F0"/>
<path id="Vector_406" d="M37.6771 109.414H36.6392V110.384H37.6771V109.414Z" fill="#F0F0F0"/>
<path id="Vector_407" d="M37.6771 111.04H36.6392V112.01H37.6771V111.04Z" fill="#F0F0F0"/>
<path id="Vector_408" d="M37.6771 112.666H36.6392V113.636H37.6771V112.666Z" fill="#F0F0F0"/>
<path id="Vector_409" d="M37.6771 114.292H36.6392V115.262H37.6771V114.292Z" fill="#F0F0F0"/>
<path id="Vector_410" d="M37.6771 115.918H36.6392V116.888H37.6771V115.918Z" fill="#F0F0F0"/>
<path id="Vector_411" d="M37.6771 117.544H36.6392V118.514H37.6771V117.544Z" fill="#F0F0F0"/>
<path id="Vector_412" d="M37.6771 119.17H36.6392V120.14H37.6771V119.17Z" fill="#F0F0F0"/>
<path id="Vector_413" d="M37.6771 120.795H36.6392V121.765H37.6771V120.795Z" fill="#F0F0F0"/>
<path id="Vector_414" d="M28.2138 105.022H27.1758V105.992H28.2138V105.022Z" fill="#F0F0F0"/>
<path id="Vector_415" d="M28.2138 106.648H27.1758V107.618H28.2138V106.648Z" fill="#F0F0F0"/>
<path id="Vector_416" d="M28.2138 108.273H27.1758V109.243H28.2138V108.273Z" fill="#F0F0F0"/>
<path id="Vector_417" d="M28.2138 109.899H27.1758V110.869H28.2138V109.899Z" fill="#F0F0F0"/>
<path id="Vector_418" d="M28.2138 111.525H27.1758V112.495H28.2138V111.525Z" fill="#F0F0F0"/>
<path id="Vector_419" d="M28.2138 113.151H27.1758V114.121H28.2138V113.151Z" fill="#F0F0F0"/>
<path id="Vector_420" d="M28.2138 114.777H27.1758V115.747H28.2138V114.777Z" fill="#F0F0F0"/>
<path id="Vector_421" d="M28.2138 116.403H27.1758V117.373H28.2138V116.403Z" fill="#F0F0F0"/>
<path id="Vector_422" d="M28.2138 118.029H27.1758V118.998H28.2138V118.029Z" fill="#F0F0F0"/>
<path id="Vector_423" d="M28.2138 119.655H27.1758V120.624H28.2138V119.655Z" fill="#F0F0F0"/>
<path id="Vector_424" d="M28.2138 121.281H27.1758V122.25H28.2138V121.281Z" fill="#F0F0F0"/>
<path id="Vector_425" d="M28.2138 122.906H27.1758V123.876H28.2138V122.906Z" fill="#F0F0F0"/>
<path id="Vector_426" d="M28.2138 124.532H27.1758V125.502H28.2138V124.532Z" fill="#F0F0F0"/>
<path id="Vector_427" d="M29.8622 105.022H28.8242V105.992H29.8622V105.022Z" fill="#F0F0F0"/>
<path id="Vector_428" d="M29.8622 106.648H28.8242V107.618H29.8622V106.648Z" fill="#F0F0F0"/>
<path id="Vector_429" d="M29.8622 108.273H28.8242V109.243H29.8622V108.273Z" fill="#F0F0F0"/>
<path id="Vector_430" d="M29.8622 109.899H28.8242V110.869H29.8622V109.899Z" fill="#F0F0F0"/>
<path id="Vector_431" d="M29.8622 111.525H28.8242V112.495H29.8622V111.525Z" fill="#F0F0F0"/>
<path id="Vector_432" d="M29.8622 113.151H28.8242V114.121H29.8622V113.151Z" fill="#F0F0F0"/>
<path id="Vector_433" d="M29.8622 114.777H28.8242V115.747H29.8622V114.777Z" fill="#F0F0F0"/>
<path id="Vector_434" d="M29.8622 116.403H28.8242V117.373H29.8622V116.403Z" fill="#F0F0F0"/>
<path id="Vector_435" d="M29.8622 118.029H28.8242V118.998H29.8622V118.029Z" fill="#F0F0F0"/>
<path id="Vector_436" d="M29.8622 119.655H28.8242V120.624H29.8622V119.655Z" fill="#F0F0F0"/>
<path id="Vector_437" d="M29.8622 121.281H28.8242V122.25H29.8622V121.281Z" fill="#F0F0F0"/>
<path id="Vector_438" d="M29.8622 122.906H28.8242V123.876H29.8622V122.906Z" fill="#F0F0F0"/>
<path id="Vector_439" d="M29.8622 124.532H28.8242V125.502H29.8622V124.532Z" fill="#F0F0F0"/>
<path id="Vector_440" d="M31.5106 105.022H30.4727V105.992H31.5106V105.022Z" fill="#F0F0F0"/>
<path id="Vector_441" d="M31.5106 106.648H30.4727V107.618H31.5106V106.648Z" fill="#F0F0F0"/>
<path id="Vector_442" d="M31.5106 108.273H30.4727V109.243H31.5106V108.273Z" fill="#F0F0F0"/>
<path id="Vector_443" d="M31.5106 109.899H30.4727V110.869H31.5106V109.899Z" fill="#F0F0F0"/>
<path id="Vector_444" d="M31.5106 111.525H30.4727V112.495H31.5106V111.525Z" fill="#F0F0F0"/>
<path id="Vector_445" d="M31.5106 113.151H30.4727V114.121H31.5106V113.151Z" fill="#F0F0F0"/>
<path id="Vector_446" d="M31.5106 114.777H30.4727V115.747H31.5106V114.777Z" fill="#F0F0F0"/>
<path id="Vector_447" d="M31.5106 116.403H30.4727V117.373H31.5106V116.403Z" fill="#F0F0F0"/>
<path id="Vector_448" d="M31.5106 118.029H30.4727V118.998H31.5106V118.029Z" fill="#F0F0F0"/>
<path id="Vector_449" d="M31.5106 119.655H30.4727V120.624H31.5106V119.655Z" fill="#F0F0F0"/>
<path id="Vector_450" d="M31.5106 121.281H30.4727V122.25H31.5106V121.281Z" fill="#F0F0F0"/>
<path id="Vector_451" d="M31.5106 122.906H30.4727V123.876H31.5106V122.906Z" fill="#F0F0F0"/>
<path id="Vector_452" d="M31.5106 124.532H30.4727V125.502H31.5106V124.532Z" fill="#F0F0F0"/>
<path id="Vector_453" d="M31.5106 126.158H30.4727V127.128H31.5106V126.158Z" fill="#F0F0F0"/>
<path id="Vector_454" d="M40.6683 105.506H39.6304V106.476H40.6683V105.506Z" fill="#F0F0F0"/>
<path id="Vector_455" d="M40.6683 107.132H39.6304V108.102H40.6683V107.132Z" fill="#F0F0F0"/>
<path id="Vector_456" d="M40.6683 108.758H39.6304V109.728H40.6683V108.758Z" fill="#F0F0F0"/>
<path id="Vector_457" d="M40.6683 110.384H39.6304V111.354H40.6683V110.384Z" fill="#F0F0F0"/>
<path id="Vector_458" d="M40.6683 112.01H39.6304V112.98H40.6683V112.01Z" fill="#F0F0F0"/>
<path id="Vector_459" d="M40.6683 113.636H39.6304V114.606H40.6683V113.636Z" fill="#F0F0F0"/>
<path id="Vector_460" d="M40.6683 115.262H39.6304V116.232H40.6683V115.262Z" fill="#F0F0F0"/>
<path id="Vector_461" d="M40.6683 116.888H39.6304V117.858H40.6683V116.888Z" fill="#F0F0F0"/>
<path id="Vector_462" d="M40.6683 118.514H39.6304V119.484H40.6683V118.514Z" fill="#F0F0F0"/>
<path id="Vector_463" d="M40.6683 120.139H39.6304V121.109H40.6683V120.139Z" fill="#F0F0F0"/>
<path id="Vector_464" d="M40.6683 125.017H39.6304V125.987H40.6683V125.017Z" fill="#F0F0F0"/>
<path id="Vector_465" d="M42.3168 105.506H41.2788V106.476H42.3168V105.506Z" fill="#F0F0F0"/>
<path id="Vector_466" d="M42.3168 107.132H41.2788V108.102H42.3168V107.132Z" fill="#F0F0F0"/>
<path id="Vector_467" d="M42.3168 108.758H41.2788V109.728H42.3168V108.758Z" fill="#F0F0F0"/>
<path id="Vector_468" d="M42.3168 110.384H41.2788V111.354H42.3168V110.384Z" fill="#F0F0F0"/>
<path id="Vector_469" d="M42.3168 112.01H41.2788V112.98H42.3168V112.01Z" fill="#F0F0F0"/>
<path id="Vector_470" d="M42.3168 113.636H41.2788V114.606H42.3168V113.636Z" fill="#F0F0F0"/>
<path id="Vector_471" d="M42.3168 115.262H41.2788V116.232H42.3168V115.262Z" fill="#F0F0F0"/>
<path id="Vector_472" d="M42.3168 116.888H41.2788V117.858H42.3168V116.888Z" fill="#F0F0F0"/>
<path id="Vector_473" d="M42.3168 118.514H41.2788V119.484H42.3168V118.514Z" fill="#F0F0F0"/>
<path id="Vector_474" d="M42.3168 123.391H41.2788V124.361H42.3168V123.391Z" fill="#F0F0F0"/>
<path id="Vector_475" d="M42.3168 125.017H41.2788V125.987H42.3168V125.017Z" fill="#F0F0F0"/>
<path id="Vector_476" d="M43.9652 105.506H42.9272V106.476H43.9652V105.506Z" fill="#F0F0F0"/>
<path id="Vector_477" d="M43.9652 107.132H42.9272V108.102H43.9652V107.132Z" fill="#F0F0F0"/>
<path id="Vector_478" d="M43.9652 108.758H42.9272V109.728H43.9652V108.758Z" fill="#F0F0F0"/>
<path id="Vector_479" d="M43.9652 110.384H42.9272V111.354H43.9652V110.384Z" fill="#F0F0F0"/>
<path id="Vector_480" d="M43.9652 112.01H42.9272V112.98H43.9652V112.01Z" fill="#F0F0F0"/>
<path id="Vector_481" d="M43.9652 113.636H42.9272V114.606H43.9652V113.636Z" fill="#F0F0F0"/>
<path id="Vector_482" d="M43.9652 115.262H42.9272V116.232H43.9652V115.262Z" fill="#F0F0F0"/>
<path id="Vector_483" d="M43.9652 116.888H42.9272V117.858H43.9652V116.888Z" fill="#F0F0F0"/>
<path id="Vector_484" d="M43.9652 121.765H42.9272V122.735H43.9652V121.765Z" fill="#F0F0F0"/>
<path id="Vector_485" d="M43.9652 123.391H42.9272V124.361H43.9652V123.391Z" fill="#F0F0F0"/>
<path id="Vector_486" d="M43.9652 125.017H42.9272V125.987H43.9652V125.017Z" fill="#F0F0F0"/>
<path id="Vector_487" d="M59.2894 80.8044H58.2515V81.7744H59.2894V80.8044Z" fill="#F0F0F0"/>
<path id="Vector_488" d="M59.2894 82.4302H58.2515V83.4001H59.2894V82.4302Z" fill="#F0F0F0"/>
<path id="Vector_489" d="M59.2894 84.0562H58.2515V85.0261H59.2894V84.0562Z" fill="#F0F0F0"/>
<path id="Vector_490" d="M59.2894 85.6819H58.2515V86.6518H59.2894V85.6819Z" fill="#F0F0F0"/>
<path id="Vector_491" d="M59.2894 87.3079H58.2515V88.2778H59.2894V87.3079Z" fill="#F0F0F0"/>
<path id="Vector_492" d="M59.2894 88.9336H58.2515V89.9035H59.2894V88.9336Z" fill="#F0F0F0"/>
<path id="Vector_493" d="M59.2894 90.5596H58.2515V91.5295H59.2894V90.5596Z" fill="#F0F0F0"/>
<path id="Vector_494" d="M59.2894 92.1855H58.2515V93.1555H59.2894V92.1855Z" fill="#F0F0F0"/>
<path id="Vector_495" d="M59.2894 93.8113H58.2515V94.7812H59.2894V93.8113Z" fill="#F0F0F0"/>
<path id="Vector_496" d="M59.2894 95.4373H58.2515V96.4072H59.2894V95.4373Z" fill="#F0F0F0"/>
<path id="Vector_497" d="M59.2894 97.0635H58.2515V98.0334H59.2894V97.0635Z" fill="#F0F0F0"/>
<path id="Vector_498" d="M59.2894 98.6892H58.2515V99.6591H59.2894V98.6892Z" fill="#F0F0F0"/>
<path id="Vector_499" d="M59.2894 100.315H58.2515V101.285H59.2894V100.315Z" fill="#F0F0F0"/>
<path id="Vector_500" d="M59.2894 101.941H58.2515V102.911H59.2894V101.941Z" fill="#F0F0F0"/>
<path id="Vector_501" d="M59.2894 103.567H58.2515V104.537H59.2894V103.567Z" fill="#F0F0F0"/>
<path id="Vector_502" d="M59.2894 105.193H58.2515V106.163H59.2894V105.193Z" fill="#F0F0F0"/>
<path id="Vector_503" d="M59.2894 106.819H58.2515V107.789H59.2894V106.819Z" fill="#F0F0F0"/>
<path id="Vector_504" d="M59.2894 110.07H58.2515V111.04H59.2894V110.07Z" fill="#F0F0F0"/>
<path id="Vector_505" d="M59.2894 111.696H58.2515V112.666H59.2894V111.696Z" fill="#F0F0F0"/>
<path id="Vector_506" d="M59.2894 113.322H58.2515V114.292H59.2894V113.322Z" fill="#F0F0F0"/>
<path id="Vector_507" d="M59.2894 114.948H58.2515V115.918H59.2894V114.948Z" fill="#F0F0F0"/>
<path id="Vector_508" d="M59.2894 116.574H58.2515V117.544H59.2894V116.574Z" fill="#F0F0F0"/>
<path id="Vector_509" d="M60.9379 80.8044H59.8999V81.7744H60.9379V80.8044Z" fill="#F0F0F0"/>
<path id="Vector_510" d="M60.9379 82.4302H59.8999V83.4001H60.9379V82.4302Z" fill="#F0F0F0"/>
<path id="Vector_511" d="M60.9379 84.0562H59.8999V85.0261H60.9379V84.0562Z" fill="#F0F0F0"/>
<path id="Vector_512" d="M60.9379 85.6819H59.8999V86.6518H60.9379V85.6819Z" fill="#F0F0F0"/>
<path id="Vector_513" d="M60.9379 87.3079H59.8999V88.2778H60.9379V87.3079Z" fill="#F0F0F0"/>
<path id="Vector_514" d="M60.9379 88.9336H59.8999V89.9035H60.9379V88.9336Z" fill="#F0F0F0"/>
<path id="Vector_515" d="M60.9379 90.5596H59.8999V91.5295H60.9379V90.5596Z" fill="#F0F0F0"/>
<path id="Vector_516" d="M60.9379 92.1855H59.8999V93.1555H60.9379V92.1855Z" fill="#F0F0F0"/>
<path id="Vector_517" d="M60.9379 93.8113H59.8999V94.7812H60.9379V93.8113Z" fill="#F0F0F0"/>
<path id="Vector_518" d="M60.9379 95.4373H59.8999V96.4072H60.9379V95.4373Z" fill="#F0F0F0"/>
<path id="Vector_519" d="M60.9379 97.0635H59.8999V98.0334H60.9379V97.0635Z" fill="#F0F0F0"/>
<path id="Vector_520" d="M60.9379 98.6892H59.8999V99.6591H60.9379V98.6892Z" fill="#F0F0F0"/>
<path id="Vector_521" d="M60.9379 100.315H59.8999V101.285H60.9379V100.315Z" fill="#F0F0F0"/>
<path id="Vector_522" d="M60.9379 101.941H59.8999V102.911H60.9379V101.941Z" fill="#F0F0F0"/>
<path id="Vector_523" d="M60.9379 103.567H59.8999V104.537H60.9379V103.567Z" fill="#F0F0F0"/>
<path id="Vector_524" d="M60.9379 105.193H59.8999V106.163H60.9379V105.193Z" fill="#F0F0F0"/>
<path id="Vector_525" d="M60.9379 114.948H59.8999V115.918H60.9379V114.948Z" fill="#F0F0F0"/>
<path id="Vector_526" d="M60.9379 116.574H59.8999V117.544H60.9379V116.574Z" fill="#F0F0F0"/>
<path id="Vector_527" d="M62.5863 80.8044H61.5483V81.7744H62.5863V80.8044Z" fill="#F0F0F0"/>
<path id="Vector_528" d="M62.5863 82.4302H61.5483V83.4001H62.5863V82.4302Z" fill="#F0F0F0"/>
<path id="Vector_529" d="M62.5863 84.0562H61.5483V85.0261H62.5863V84.0562Z" fill="#F0F0F0"/>
<path id="Vector_530" d="M62.5863 85.6819H61.5483V86.6518H62.5863V85.6819Z" fill="#F0F0F0"/>
<path id="Vector_531" d="M62.5863 87.3079H61.5483V88.2778H62.5863V87.3079Z" fill="#F0F0F0"/>
<path id="Vector_532" d="M62.5863 88.9336H61.5483V89.9035H62.5863V88.9336Z" fill="#F0F0F0"/>
<path id="Vector_533" d="M62.5863 90.5596H61.5483V91.5295H62.5863V90.5596Z" fill="#F0F0F0"/>
<path id="Vector_534" d="M62.5863 92.1855H61.5483V93.1555H62.5863V92.1855Z" fill="#F0F0F0"/>
<path id="Vector_535" d="M62.5863 93.8113H61.5483V94.7812H62.5863V93.8113Z" fill="#F0F0F0"/>
<path id="Vector_536" d="M62.5863 95.4373H61.5483V96.4072H62.5863V95.4373Z" fill="#F0F0F0"/>
<path id="Vector_537" d="M62.5863 97.0635H61.5483V98.0334H62.5863V97.0635Z" fill="#F0F0F0"/>
<path id="Vector_538" d="M62.5863 98.6892H61.5483V99.6591H62.5863V98.6892Z" fill="#F0F0F0"/>
<path id="Vector_539" d="M62.5863 100.315H61.5483V101.285H62.5863V100.315Z" fill="#F0F0F0"/>
<path id="Vector_540" d="M62.5863 101.941H61.5483V102.911H62.5863V101.941Z" fill="#F0F0F0"/>
<path id="Vector_541" d="M62.5863 103.567H61.5483V104.537H62.5863V103.567Z" fill="#F0F0F0"/>
<path id="Vector_542" d="M62.5863 105.193H61.5483V106.163H62.5863V105.193Z" fill="#F0F0F0"/>
<path id="Vector_543" d="M62.5863 108.444H61.5483V109.414H62.5863V108.444Z" fill="#F0F0F0"/>
<path id="Vector_544" d="M62.5863 110.07H61.5483V111.04H62.5863V110.07Z" fill="#F0F0F0"/>
<path id="Vector_545" d="M62.5863 111.696H61.5483V112.666H62.5863V111.696Z" fill="#F0F0F0"/>
<path id="Vector_546" d="M62.5863 113.322H61.5483V114.292H62.5863V113.322Z" fill="#F0F0F0"/>
<path id="Vector_547" d="M62.5863 116.574H61.5483V117.544H62.5863V116.574Z" fill="#F0F0F0"/>
<path id="Vector_548" d="M53.3065 101.285H52.2686V102.255H53.3065V101.285Z" fill="#F0F0F0"/>
<path id="Vector_549" d="M53.3065 102.911H52.2686V103.881H53.3065V102.911Z" fill="#F0F0F0"/>
<path id="Vector_550" d="M53.3065 104.536H52.2686V105.506H53.3065V104.536Z" fill="#F0F0F0"/>
<path id="Vector_551" d="M53.3065 106.163H52.2686V107.133H53.3065V106.163Z" fill="#F0F0F0"/>
<path id="Vector_552" d="M53.3065 107.789H52.2686V108.758H53.3065V107.789Z" fill="#F0F0F0"/>
<path id="Vector_553" d="M53.3065 109.414H52.2686V110.384H53.3065V109.414Z" fill="#F0F0F0"/>
<path id="Vector_554" d="M53.3065 111.04H52.2686V112.01H53.3065V111.04Z" fill="#F0F0F0"/>
<path id="Vector_555" d="M53.3065 114.292H52.2686V115.262H53.3065V114.292Z" fill="#F0F0F0"/>
<path id="Vector_556" d="M53.3065 115.918H52.2686V116.888H53.3065V115.918Z" fill="#F0F0F0"/>
<path id="Vector_557" d="M53.3065 117.544H52.2686V118.514H53.3065V117.544Z" fill="#F0F0F0"/>
<path id="Vector_558" d="M53.3065 119.17H52.2686V120.14H53.3065V119.17Z" fill="#F0F0F0"/>
<path id="Vector_559" d="M53.3065 120.795H52.2686V121.765H53.3065V120.795Z" fill="#F0F0F0"/>
<path id="Vector_560" d="M53.3065 122.421H52.2686V123.391H53.3065V122.421Z" fill="#F0F0F0"/>
<path id="Vector_561" d="M53.3065 124.047H52.2686V125.017H53.3065V124.047Z" fill="#F0F0F0"/>
<path id="Vector_562" d="M53.3065 125.673H52.2686V126.643H53.3065V125.673Z" fill="#F0F0F0"/>
<path id="Vector_563" d="M54.955 101.285H53.917V102.255H54.955V101.285Z" fill="#F0F0F0"/>
<path id="Vector_564" d="M54.955 102.911H53.917V103.881H54.955V102.911Z" fill="#F0F0F0"/>
<path id="Vector_565" d="M54.955 104.536H53.917V105.506H54.955V104.536Z" fill="#F0F0F0"/>
<path id="Vector_566" d="M54.955 106.163H53.917V107.133H54.955V106.163Z" fill="#F0F0F0"/>
<path id="Vector_567" d="M54.955 107.789H53.917V108.758H54.955V107.789Z" fill="#F0F0F0"/>
<path id="Vector_568" d="M54.955 109.414H53.917V110.384H54.955V109.414Z" fill="#F0F0F0"/>
<path id="Vector_569" d="M54.955 114.292H53.917V115.262H54.955V114.292Z" fill="#F0F0F0"/>
<path id="Vector_570" d="M54.955 115.918H53.917V116.888H54.955V115.918Z" fill="#F0F0F0"/>
<path id="Vector_571" d="M54.955 117.544H53.917V118.514H54.955V117.544Z" fill="#F0F0F0"/>
<path id="Vector_572" d="M54.955 119.17H53.917V120.14H54.955V119.17Z" fill="#F0F0F0"/>
<path id="Vector_573" d="M54.955 120.795H53.917V121.765H54.955V120.795Z" fill="#F0F0F0"/>
<path id="Vector_574" d="M54.955 122.421H53.917V123.391H54.955V122.421Z" fill="#F0F0F0"/>
<path id="Vector_575" d="M54.955 124.047H53.917V125.017H54.955V124.047Z" fill="#F0F0F0"/>
<path id="Vector_576" d="M54.955 125.673H53.917V126.643H54.955V125.673Z" fill="#F0F0F0"/>
<path id="Vector_577" d="M56.6034 101.285H55.5654V102.255H56.6034V101.285Z" fill="#F0F0F0"/>
<path id="Vector_578" d="M56.6034 102.911H55.5654V103.881H56.6034V102.911Z" fill="#F0F0F0"/>
<path id="Vector_579" d="M56.6034 104.536H55.5654V105.506H56.6034V104.536Z" fill="#F0F0F0"/>
<path id="Vector_580" d="M56.6034 106.163H55.5654V107.133H56.6034V106.163Z" fill="#F0F0F0"/>
<path id="Vector_581" d="M56.6034 107.789H55.5654V108.758H56.6034V107.789Z" fill="#F0F0F0"/>
<path id="Vector_582" d="M56.6034 109.414H55.5654V110.384H56.6034V109.414Z" fill="#F0F0F0"/>
<path id="Vector_583" d="M56.6034 112.666H55.5654V113.636H56.6034V112.666Z" fill="#F0F0F0"/>
<path id="Vector_584" d="M56.6034 114.292H55.5654V115.262H56.6034V114.292Z" fill="#F0F0F0"/>
<path id="Vector_585" d="M56.6034 115.918H55.5654V116.888H56.6034V115.918Z" fill="#F0F0F0"/>
<path id="Vector_586" d="M56.6034 117.544H55.5654V118.514H56.6034V117.544Z" fill="#F0F0F0"/>
<path id="Vector_587" d="M56.6034 119.17H55.5654V120.14H56.6034V119.17Z" fill="#F0F0F0"/>
<path id="Vector_588" d="M56.6034 120.795H55.5654V121.765H56.6034V120.795Z" fill="#F0F0F0"/>
<path id="Vector_589" d="M56.6034 122.421H55.5654V123.391H56.6034V122.421Z" fill="#F0F0F0"/>
<path id="Vector_590" d="M56.6034 124.047H55.5654V125.017H56.6034V124.047Z" fill="#F0F0F0"/>
<path id="Vector_591" d="M56.6034 125.673H55.5654V126.643H56.6034V125.673Z" fill="#F0F0F0"/>
<path id="Vector_592" d="M91.3417 92.1855H90.3037V93.1555H91.3417V92.1855Z" fill="#F0F0F0"/>
<path id="Vector_593" d="M91.3417 93.8113H90.3037V94.7812H91.3417V93.8113Z" fill="#F0F0F0"/>
<path id="Vector_594" d="M91.3417 95.4373H90.3037V96.4072H91.3417V95.4373Z" fill="#F0F0F0"/>
<path id="Vector_595" d="M91.3417 97.0635H90.3037V98.0334H91.3417V97.0635Z" fill="#F0F0F0"/>
<path id="Vector_596" d="M91.3417 98.6892H90.3037V99.6591H91.3417V98.6892Z" fill="#F0F0F0"/>
<path id="Vector_597" d="M91.3417 100.315H90.3037V101.285H91.3417V100.315Z" fill="#F0F0F0"/>
<path id="Vector_598" d="M91.3417 101.941H90.3037V102.911H91.3417V101.941Z" fill="#F0F0F0"/>
<path id="Vector_599" d="M91.3417 103.567H90.3037V104.537H91.3417V103.567Z" fill="#F0F0F0"/>
<path id="Vector_600" d="M91.3417 105.193H90.3037V106.163H91.3417V105.193Z" fill="#F0F0F0"/>
<path id="Vector_601" d="M91.3417 106.819H90.3037V107.789H91.3417V106.819Z" fill="#F0F0F0"/>
<path id="Vector_602" d="M91.3417 108.444H90.3037V109.414H91.3417V108.444Z" fill="#F0F0F0"/>
<path id="Vector_603" d="M91.3417 110.07H90.3037V111.04H91.3417V110.07Z" fill="#F0F0F0"/>
<path id="Vector_604" d="M91.3417 111.696H90.3037V112.666H91.3417V111.696Z" fill="#F0F0F0"/>
<path id="Vector_605" d="M91.3417 114.948H90.3037V115.918H91.3417V114.948Z" fill="#F0F0F0"/>
<path id="Vector_606" d="M91.3417 116.574H90.3037V117.544H91.3417V116.574Z" fill="#F0F0F0"/>
<path id="Vector_607" d="M91.3417 118.2H90.3037V119.17H91.3417V118.2Z" fill="#F0F0F0"/>
<path id="Vector_608" d="M91.3417 119.825H90.3037V120.795H91.3417V119.825Z" fill="#F0F0F0"/>
<path id="Vector_609" d="M91.3417 123.077H90.3037V124.047H91.3417V123.077Z" fill="#F0F0F0"/>
<path id="Vector_610" d="M91.3417 124.703H90.3037V125.673H91.3417V124.703Z" fill="#F0F0F0"/>
<path id="Vector_611" d="M91.3417 126.329H90.3037V127.299H91.3417V126.329Z" fill="#F0F0F0"/>
<path id="Vector_612" d="M92.9901 92.1855H91.9521V93.1555H92.9901V92.1855Z" fill="#F0F0F0"/>
<path id="Vector_613" d="M92.9901 93.8113H91.9521V94.7812H92.9901V93.8113Z" fill="#F0F0F0"/>
<path id="Vector_614" d="M92.9901 95.4373H91.9521V96.4072H92.9901V95.4373Z" fill="#F0F0F0"/>
<path id="Vector_615" d="M92.9901 97.0635H91.9521V98.0334H92.9901V97.0635Z" fill="#F0F0F0"/>
<path id="Vector_616" d="M92.9901 98.6892H91.9521V99.6591H92.9901V98.6892Z" fill="#F0F0F0"/>
<path id="Vector_617" d="M92.9901 100.315H91.9521V101.285H92.9901V100.315Z" fill="#F0F0F0"/>
<path id="Vector_618" d="M92.9901 101.941H91.9521V102.911H92.9901V101.941Z" fill="#F0F0F0"/>
<path id="Vector_619" d="M92.9901 103.567H91.9521V104.537H92.9901V103.567Z" fill="#F0F0F0"/>
<path id="Vector_620" d="M92.9901 105.193H91.9521V106.163H92.9901V105.193Z" fill="#F0F0F0"/>
<path id="Vector_621" d="M92.9901 106.819H91.9521V107.789H92.9901V106.819Z" fill="#F0F0F0"/>
<path id="Vector_622" d="M92.9901 108.444H91.9521V109.414H92.9901V108.444Z" fill="#F0F0F0"/>
<path id="Vector_623" d="M92.9901 110.07H91.9521V111.04H92.9901V110.07Z" fill="#F0F0F0"/>
<path id="Vector_624" d="M92.9901 111.696H91.9521V112.666H92.9901V111.696Z" fill="#F0F0F0"/>
<path id="Vector_625" d="M92.9901 116.574H91.9521V117.544H92.9901V116.574Z" fill="#F0F0F0"/>
<path id="Vector_626" d="M92.9901 118.2H91.9521V119.17H92.9901V118.2Z" fill="#F0F0F0"/>
<path id="Vector_627" d="M92.9901 121.451H91.9521V122.421H92.9901V121.451Z" fill="#F0F0F0"/>
<path id="Vector_628" d="M92.9901 123.077H91.9521V124.047H92.9901V123.077Z" fill="#F0F0F0"/>
<path id="Vector_629" d="M92.9901 124.703H91.9521V125.673H92.9901V124.703Z" fill="#F0F0F0"/>
<path id="Vector_630" d="M92.9901 126.329H91.9521V127.299H92.9901V126.329Z" fill="#F0F0F0"/>
<path id="Vector_631" d="M94.6386 92.1855H93.6006V93.1555H94.6386V92.1855Z" fill="#F0F0F0"/>
<path id="Vector_632" d="M94.6386 93.8113H93.6006V94.7812H94.6386V93.8113Z" fill="#F0F0F0"/>
<path id="Vector_633" d="M94.6386 95.4373H93.6006V96.4072H94.6386V95.4373Z" fill="#F0F0F0"/>
<path id="Vector_634" d="M94.6386 97.0635H93.6006V98.0334H94.6386V97.0635Z" fill="#F0F0F0"/>
<path id="Vector_635" d="M94.6386 98.6892H93.6006V99.6591H94.6386V98.6892Z" fill="#F0F0F0"/>
<path id="Vector_636" d="M94.6386 100.315H93.6006V101.285H94.6386V100.315Z" fill="#F0F0F0"/>
<path id="Vector_637" d="M94.6386 101.941H93.6006V102.911H94.6386V101.941Z" fill="#F0F0F0"/>
<path id="Vector_638" d="M94.6386 103.567H93.6006V104.537H94.6386V103.567Z" fill="#F0F0F0"/>
<path id="Vector_639" d="M94.6386 105.193H93.6006V106.163H94.6386V105.193Z" fill="#F0F0F0"/>
<path id="Vector_640" d="M94.6386 106.819H93.6006V107.789H94.6386V106.819Z" fill="#F0F0F0"/>
<path id="Vector_641" d="M94.6386 108.444H93.6006V109.414H94.6386V108.444Z" fill="#F0F0F0"/>
<path id="Vector_642" d="M94.6386 110.07H93.6006V111.04H94.6386V110.07Z" fill="#F0F0F0"/>
<path id="Vector_643" d="M94.6386 111.696H93.6006V112.666H94.6386V111.696Z" fill="#F0F0F0"/>
<path id="Vector_644" d="M94.6386 113.322H93.6006V114.292H94.6386V113.322Z" fill="#F0F0F0"/>
<path id="Vector_645" d="M94.6386 116.574H93.6006V117.544H94.6386V116.574Z" fill="#F0F0F0"/>
<path id="Vector_646" d="M94.6386 119.825H93.6006V120.795H94.6386V119.825Z" fill="#F0F0F0"/>
<path id="Vector_647" d="M94.6386 121.451H93.6006V122.421H94.6386V121.451Z" fill="#F0F0F0"/>
<path id="Vector_648" d="M94.6386 123.077H93.6006V124.047H94.6386V123.077Z" fill="#F0F0F0"/>
<path id="Vector_649" d="M94.6386 124.703H93.6006V125.673H94.6386V124.703Z" fill="#F0F0F0"/>
<path id="Vector_650" d="M94.6386 126.329H93.6006V127.299H94.6386V126.329Z" fill="#F0F0F0"/>
<path id="Vector_651" d="M84.6259 101.456H83.5879V102.426H84.6259V101.456Z" fill="#F0F0F0"/>
<path id="Vector_652" d="M84.6259 103.082H83.5879V104.052H84.6259V103.082Z" fill="#F0F0F0"/>
<path id="Vector_653" d="M84.6259 104.708H83.5879V105.678H84.6259V104.708Z" fill="#F0F0F0"/>
<path id="Vector_654" d="M84.6259 106.334H83.5879V107.304H84.6259V106.334Z" fill="#F0F0F0"/>
<path id="Vector_655" d="M84.6259 107.959H83.5879V108.929H84.6259V107.959Z" fill="#F0F0F0"/>
<path id="Vector_656" d="M84.6259 109.585H83.5879V110.555H84.6259V109.585Z" fill="#F0F0F0"/>
<path id="Vector_657" d="M84.6259 114.463H83.5879V115.433H84.6259V114.463Z" fill="#F0F0F0"/>
<path id="Vector_658" d="M84.6259 116.089H83.5879V117.059H84.6259V116.089Z" fill="#F0F0F0"/>
<path id="Vector_659" d="M84.6259 117.715H83.5879V118.685H84.6259V117.715Z" fill="#F0F0F0"/>
<path id="Vector_660" d="M84.6259 119.341H83.5879V120.311H84.6259V119.341Z" fill="#F0F0F0"/>
<path id="Vector_661" d="M84.6259 120.967H83.5879V121.937H84.6259V120.967Z" fill="#F0F0F0"/>
<path id="Vector_662" d="M84.6259 122.593H83.5879V123.563H84.6259V122.593Z" fill="#F0F0F0"/>
<path id="Vector_663" d="M84.6259 124.219H83.5879V125.188H84.6259V124.219Z" fill="#F0F0F0"/>
<path id="Vector_664" d="M86.2743 101.456H85.2363V102.426H86.2743V101.456Z" fill="#F0F0F0"/>
<path id="Vector_665" d="M86.2743 103.082H85.2363V104.052H86.2743V103.082Z" fill="#F0F0F0"/>
<path id="Vector_666" d="M86.2743 104.708H85.2363V105.678H86.2743V104.708Z" fill="#F0F0F0"/>
<path id="Vector_667" d="M86.2743 106.334H85.2363V107.304H86.2743V106.334Z" fill="#F0F0F0"/>
<path id="Vector_668" d="M86.2743 107.959H85.2363V108.929H86.2743V107.959Z" fill="#F0F0F0"/>
<path id="Vector_669" d="M86.2743 109.585H85.2363V110.555H86.2743V109.585Z" fill="#F0F0F0"/>
<path id="Vector_670" d="M86.2743 114.463H85.2363V115.433H86.2743V114.463Z" fill="#F0F0F0"/>
<path id="Vector_671" d="M86.2743 116.089H85.2363V117.059H86.2743V116.089Z" fill="#F0F0F0"/>
<path id="Vector_672" d="M86.2743 117.715H85.2363V118.685H86.2743V117.715Z" fill="#F0F0F0"/>
<path id="Vector_673" d="M86.2743 119.341H85.2363V120.311H86.2743V119.341Z" fill="#F0F0F0"/>
<path id="Vector_674" d="M86.2743 120.967H85.2363V121.937H86.2743V120.967Z" fill="#F0F0F0"/>
<path id="Vector_675" d="M86.2743 122.593H85.2363V123.563H86.2743V122.593Z" fill="#F0F0F0"/>
<path id="Vector_676" d="M86.2743 125.844H85.2363V126.814H86.2743V125.844Z" fill="#F0F0F0"/>
<path id="Vector_677" d="M141.038 94.2964H140V95.2663H141.038V94.2964Z" fill="#F0F0F0"/>
<path id="Vector_678" d="M141.038 95.9221H140V96.892H141.038V95.9221Z" fill="#F0F0F0"/>
<path id="Vector_679" d="M141.038 97.5481H140V98.518H141.038V97.5481Z" fill="#F0F0F0"/>
<path id="Vector_680" d="M141.038 99.1743H140V100.144H141.038V99.1743Z" fill="#F0F0F0"/>
<path id="Vector_681" d="M141.038 100.8H140V101.77H141.038V100.8Z" fill="#F0F0F0"/>
<path id="Vector_682" d="M141.038 102.426H140V103.396H141.038V102.426Z" fill="#F0F0F0"/>
<path id="Vector_683" d="M141.038 104.052H140V105.022H141.038V104.052Z" fill="#F0F0F0"/>
<path id="Vector_684" d="M141.038 105.678H140V106.648H141.038V105.678Z" fill="#F0F0F0"/>
<path id="Vector_685" d="M141.038 107.303H140V108.273H141.038V107.303Z" fill="#F0F0F0"/>
<path id="Vector_686" d="M141.038 108.929H140V109.899H141.038V108.929Z" fill="#F0F0F0"/>
<path id="Vector_687" d="M141.038 110.555H140V111.525H141.038V110.555Z" fill="#F0F0F0"/>
<path id="Vector_688" d="M141.038 113.807H140V114.777H141.038V113.807Z" fill="#F0F0F0"/>
<path id="Vector_689" d="M141.038 115.433H140V116.403H141.038V115.433Z" fill="#F0F0F0"/>
<path id="Vector_690" d="M141.038 117.059H140V118.029H141.038V117.059Z" fill="#F0F0F0"/>
<path id="Vector_691" d="M141.038 118.685H140V119.654H141.038V118.685Z" fill="#F0F0F0"/>
<path id="Vector_692" d="M141.038 120.311H140V121.28H141.038V120.311Z" fill="#F0F0F0"/>
<path id="Vector_693" d="M141.038 121.936H140V122.906H141.038V121.936Z" fill="#F0F0F0"/>
<path id="Vector_694" d="M141.038 123.562H140V124.532H141.038V123.562Z" fill="#F0F0F0"/>
<path id="Vector_695" d="M141.038 125.188H140V126.158H141.038V125.188Z" fill="#F0F0F0"/>
<path id="Vector_696" d="M142.686 94.2964H141.648V95.2663H142.686V94.2964Z" fill="#F0F0F0"/>
<path id="Vector_697" d="M142.686 95.9221H141.648V96.892H142.686V95.9221Z" fill="#F0F0F0"/>
<path id="Vector_698" d="M142.686 97.5481H141.648V98.518H142.686V97.5481Z" fill="#F0F0F0"/>
<path id="Vector_699" d="M142.686 99.1743H141.648V100.144H142.686V99.1743Z" fill="#F0F0F0"/>
<path id="Vector_700" d="M142.686 100.8H141.648V101.77H142.686V100.8Z" fill="#F0F0F0"/>
<path id="Vector_701" d="M142.686 102.426H141.648V103.396H142.686V102.426Z" fill="#F0F0F0"/>
<path id="Vector_702" d="M142.686 104.052H141.648V105.022H142.686V104.052Z" fill="#F0F0F0"/>
<path id="Vector_703" d="M142.686 105.678H141.648V106.648H142.686V105.678Z" fill="#F0F0F0"/>
<path id="Vector_704" d="M142.686 107.303H141.648V108.273H142.686V107.303Z" fill="#F0F0F0"/>
<path id="Vector_705" d="M142.686 108.929H141.648V109.899H142.686V108.929Z" fill="#F0F0F0"/>
<path id="Vector_706" d="M142.686 110.555H141.648V111.525H142.686V110.555Z" fill="#F0F0F0"/>
<path id="Vector_707" d="M142.686 112.181H141.648V113.151H142.686V112.181Z" fill="#F0F0F0"/>
<path id="Vector_708" d="M142.686 113.807H141.648V114.777H142.686V113.807Z" fill="#F0F0F0"/>
<path id="Vector_709" d="M142.686 115.433H141.648V116.403H142.686V115.433Z" fill="#F0F0F0"/>
<path id="Vector_710" d="M142.686 117.059H141.648V118.029H142.686V117.059Z" fill="#F0F0F0"/>
<path id="Vector_711" d="M142.686 118.685H141.648V119.654H142.686V118.685Z" fill="#F0F0F0"/>
<path id="Vector_712" d="M142.686 120.311H141.648V121.28H142.686V120.311Z" fill="#F0F0F0"/>
<path id="Vector_713" d="M142.686 121.936H141.648V122.906H142.686V121.936Z" fill="#F0F0F0"/>
<path id="Vector_714" d="M142.686 123.562H141.648V124.532H142.686V123.562Z" fill="#F0F0F0"/>
<path id="Vector_715" d="M142.686 125.188H141.648V126.158H142.686V125.188Z" fill="#F0F0F0"/>
<path id="Vector_716" d="M132.918 100.629H131.88V101.599H132.918V100.629Z" fill="#F0F0F0"/>
<path id="Vector_717" d="M132.918 102.255H131.88V103.225H132.918V102.255Z" fill="#F0F0F0"/>
<path id="Vector_718" d="M132.918 103.88H131.88V104.85H132.918V103.88Z" fill="#F0F0F0"/>
<path id="Vector_719" d="M132.918 105.506H131.88V106.476H132.918V105.506Z" fill="#F0F0F0"/>
<path id="Vector_720" d="M132.918 107.132H131.88V108.102H132.918V107.132Z" fill="#F0F0F0"/>
<path id="Vector_721" d="M132.918 108.758H131.88V109.728H132.918V108.758Z" fill="#F0F0F0"/>
<path id="Vector_722" d="M132.918 110.384H131.88V111.354H132.918V110.384Z" fill="#F0F0F0"/>
<path id="Vector_723" d="M132.918 112.01H131.88V112.98H132.918V112.01Z" fill="#F0F0F0"/>
<path id="Vector_724" d="M132.918 113.636H131.88V114.606H132.918V113.636Z" fill="#F0F0F0"/>
<path id="Vector_725" d="M132.918 115.262H131.88V116.232H132.918V115.262Z" fill="#F0F0F0"/>
<path id="Vector_726" d="M134.566 100.629H133.528V101.599H134.566V100.629Z" fill="#F0F0F0"/>
<path id="Vector_727" d="M134.566 102.255H133.528V103.225H134.566V102.255Z" fill="#F0F0F0"/>
<path id="Vector_728" d="M134.566 103.88H133.528V104.85H134.566V103.88Z" fill="#F0F0F0"/>
<path id="Vector_729" d="M134.566 105.506H133.528V106.476H134.566V105.506Z" fill="#F0F0F0"/>
<path id="Vector_730" d="M134.566 107.132H133.528V108.102H134.566V107.132Z" fill="#F0F0F0"/>
<path id="Vector_731" d="M134.566 108.758H133.528V109.728H134.566V108.758Z" fill="#F0F0F0"/>
<path id="Vector_732" d="M134.566 110.384H133.528V111.354H134.566V110.384Z" fill="#F0F0F0"/>
<path id="Vector_733" d="M134.566 112.01H133.528V112.98H134.566V112.01Z" fill="#F0F0F0"/>
<path id="Vector_734" d="M134.566 113.636H133.528V114.606H134.566V113.636Z" fill="#F0F0F0"/>
</g>
<path id="Vector_735" d="M53.8528 61.7409C53.8528 60.0757 52.4078 58.7255 50.6257 58.7255C50.3037 58.7255 49.9929 58.771 49.699 58.8531C49.7459 58.5508 49.7715 58.2419 49.7715 57.9273C49.7715 54.4006 46.7121 51.5418 42.9379 51.5418C42.5079 51.5418 42.0873 51.5808 41.6792 51.6519C40.6288 50.0456 38.741 48.97 36.579 48.97C33.307 48.97 30.6527 51.4266 30.6041 54.4734C30.5708 54.4728 30.5382 54.4686 30.5045 54.4686C27.4642 54.4686 24.9995 56.7717 24.9995 59.6127C24.9995 62.4537 27.4642 64.7563 30.5045 64.7563H50.7205L50.7165 64.7522C52.4565 64.7068 53.8528 63.3778 53.8528 61.7409Z" fill="#F0F0F0"/>
<path id="Vector_736" d="M80.1069 56.3193C80.1069 55.2561 81.0293 54.3939 82.1671 54.3939C82.3728 54.3939 82.5712 54.423 82.759 54.4753C82.729 54.2824 82.7129 54.0851 82.7129 53.8843C82.7129 51.6326 84.6662 49.8073 87.0759 49.8073C87.3508 49.8073 87.6191 49.8323 87.8797 49.8774C88.5502 48.8518 89.7558 48.165 91.136 48.165C93.2251 48.165 94.9197 49.7335 94.9508 51.6787C94.972 51.6784 94.9929 51.6757 95.0141 51.6757C96.9554 51.6757 98.5288 53.1459 98.5288 54.9599C98.5288 56.7739 96.9554 58.2441 95.0141 58.2441H82.1068L82.1093 58.2414C80.9985 58.213 80.1069 57.3645 80.1069 56.3193Z" fill="#F0F0F0"/>
<path id="Vector_737" d="M139.926 61.111C139.926 60.0477 140.849 59.1859 141.986 59.1859C142.192 59.1859 142.391 59.2149 142.578 59.2673C142.548 59.0744 142.532 58.877 142.532 58.6763C142.532 56.4246 144.485 54.5993 146.895 54.5993C147.169 54.5993 147.438 54.6243 147.699 54.6694C148.369 53.6438 149.575 52.957 150.955 52.957C153.044 52.957 154.739 54.5254 154.77 56.4707C154.791 56.4704 154.812 56.4677 154.833 56.4677C156.774 56.4677 158.348 57.9379 158.348 59.7519C158.348 61.5659 156.774 63.0361 154.833 63.0361H141.926L141.928 63.0334C140.818 63.0046 139.926 62.1558 139.926 61.111Z" fill="#F0F0F0"/>
<path id="Vector_738" d="M57.7983 37.0931C57.7983 36.4415 58.3634 35.9138 59.0603 35.9138C59.1862 35.9138 59.3077 35.9316 59.4226 35.9638C59.4043 35.8454 59.3945 35.7247 59.3945 35.6016C59.3945 34.2223 60.5909 33.104 62.0674 33.104C62.2357 33.104 62.4001 33.1194 62.5596 33.1471C62.9703 32.5188 63.7089 32.0981 64.5543 32.0981C65.8342 32.0981 66.8722 33.0592 66.8912 34.2507C66.9044 34.2504 66.9169 34.249 66.93 34.249C68.1192 34.249 69.0832 35.1498 69.0832 36.261C69.0832 37.3721 68.1192 38.273 66.93 38.273H59.023L59.0244 38.2712C58.3448 38.2531 57.7983 37.7333 57.7983 37.0931Z" fill="#F0F0F0"/>
<path id="Vector_739" d="M111.583 37.9539C111.583 37.3024 112.149 36.7743 112.845 36.7743C112.971 36.7743 113.093 36.7921 113.208 36.8243C113.189 36.7059 113.18 36.5852 113.18 36.4621C113.18 35.0828 114.376 33.9648 115.853 33.9648C116.021 33.9648 116.185 33.9802 116.345 34.0079C116.755 33.3796 117.494 32.959 118.339 32.959C119.619 32.959 120.657 33.9197 120.676 35.1115C120.69 35.1112 120.702 35.1098 120.715 35.1098C121.904 35.1098 122.868 36.0106 122.868 37.1218C122.868 38.233 121.904 39.1338 120.715 39.1338H112.808L112.81 39.1321C112.13 39.1136 111.583 38.5938 111.583 37.9539Z" fill="#F0F0F0"/>
</g>
</g>
<g id="Shadow_1_">
<path id="_x3C_Path_x3E__359_" d="M91.5 146.226C130.692 146.226 162.463 144.492 162.463 142.353C162.463 140.215 130.692 138.481 91.5 138.481C52.308 138.481 20.5366 140.215 20.5366 142.353C20.5366 144.492 52.308 146.226 91.5 146.226Z" fill="#F5F5F5"/>
</g>
<g id="Chart">
<g id="Group_4">
<g id="Group_5">
<g id="Group_6">
<g id="Group_7">
<path id="Vector_740" d="M31.1905 78.3936H26.8193V137.317H31.1905V78.3936Z" fill="#009CF8"/>
</g>
<g id="Group_8">
<path id="Vector_741" d="M39.5972 90.8789H35.2261V137.317H39.5972V90.8789Z" fill="#009CF8"/>
</g>
<g id="Group_9">
<path id="Vector_742" d="M48.0039 100.623H43.6328V137.317H48.0039V100.623Z" fill="#009CF8"/>
</g>
<g id="Group_10">
<path id="Vector_743" d="M56.4107 109.253H52.0396V137.317H56.4107V109.253Z" fill="#009CF8"/>
</g>
<g id="Group_11">
<path id="Vector_744" d="M64.8179 116.798H60.4468V137.317H64.8179V116.798Z" fill="#009CF8"/>
</g>
<g id="Group_12">
<path id="Vector_745" d="M73.2247 122.259H68.8535V137.317H73.2247V122.259Z" fill="#009CF8"/>
</g>
<g id="Group_13">
<path id="Vector_746" d="M81.6309 126.746H77.2598V137.318H81.6309V126.746Z" fill="#009CF8"/>
</g>
</g>
<g id="Group_14" opacity="0.7">
<g id="Group_15">
<path id="Vector_747" d="M31.1905 78.3936H26.8193V137.317H31.1905V78.3936Z" fill="white"/>
</g>
<g id="Group_16">
<path id="Vector_748" d="M39.5972 90.8789H35.2261V137.317H39.5972V90.8789Z" fill="white"/>
</g>
<g id="Group_17">
<path id="Vector_749" d="M48.0039 100.623H43.6328V137.317H48.0039V100.623Z" fill="white"/>
</g>
<g id="Group_18">
<path id="Vector_750" d="M56.4107 109.253H52.0396V137.317H56.4107V109.253Z" fill="white"/>
</g>
<g id="Group_19">
<path id="Vector_751" d="M64.8179 116.798H60.4468V137.317H64.8179V116.798Z" fill="white"/>
</g>
<g id="Group_20">
<path id="Vector_752" d="M73.2247 122.259H68.8535V137.317H73.2247V122.259Z" fill="white"/>
</g>
<g id="Group_21">
<path id="Vector_753" d="M81.6309 126.746H77.2598V137.318H81.6309V126.746Z" fill="white"/>
</g>
</g>
</g>
<g id="Group_22">
<g id="Group_23">
<path id="Vector_754" d="M26.2146 62.4495L25.3311 67.0627L30.2629 65.2162L26.2146 62.4495Z" fill="#0089EE"/>
</g>
<path id="Vector_755" d="M27.6162 65.8655C27.6162 65.8655 44.3157 107.617 88.474 127.299" stroke="#3362CC" stroke-width="8" stroke-miterlimit="10"/>
</g>
</g>
</g>
<g id="Rock">
<g id="Group_24">
<path id="Vector_756" d="M131.158 138.64C131.158 138.64 128.248 133.333 128.98 132.813C129.711 132.293 131.157 137.247 131.158 136.861C131.16 136.476 131.077 129.729 132.421 129.996C133.766 130.263 132.421 136.476 132.421 136.476C132.421 136.476 134.23 133.302 134.939 133.542C135.648 133.781 132.848 137.557 132.848 137.557C132.848 137.557 134.52 136.612 134.939 136.685C135.358 136.758 132.848 138.64 132.848 138.64H131.158V138.64Z" fill="#0089EE"/>
<path id="Vector_757" d="M52.5809 140.129C52.5809 140.129 55.491 134.822 54.7594 134.302C54.0277 133.782 52.5824 138.736 52.5809 138.35C52.5798 137.965 52.6622 131.218 51.3179 131.485C49.9735 131.752 51.3179 137.965 51.3179 137.965C51.3179 137.965 48.8012 133.48 48.1337 134.624C47.5543 135.616 50.8904 139.046 50.8904 139.046C50.8904 139.046 47.5722 136.946 47.5543 137.871C47.5352 138.863 50.8904 140.129 50.8904 140.129H52.5809V140.129Z" fill="#0089EE"/>
<path id="Vector_758" d="M97.2026 135.664C97.2026 135.664 94.4404 132.455 95.5007 132.16C96.5613 131.865 97.2889 134.536 97.4774 134.183C97.6659 133.83 97.5418 130.302 99.3074 130.831C101.073 131.361 98.6497 134.373 98.6497 134.373C98.6497 134.373 100.242 133.235 100.672 133.523C101.101 133.812 98.7577 135.917 98.7577 135.917L97.2026 135.664Z" fill="#0089EE"/>
<path id="Vector_759" d="M71.9034 131.721C71.9034 131.721 73.7722 127.991 72.6672 127.94C71.5619 127.889 71.2036 130.777 71.2036 130.777C71.2036 130.777 70.5785 126.907 68.9238 127.442C67.1714 128.009 70.1901 131.061 70.1901 131.061C70.1901 131.061 67.2943 129.347 67.1015 130.294C66.8647 131.456 70.8486 132.151 70.8486 132.151L71.9034 131.721Z" fill="#0089EE"/>
<path id="Vector_760" d="M42.6509 142.585H141.234L137.18 138.481L107.814 135.593H97.5417L90.1233 129.978L70.8578 131.443L55.037 136.986L51.7811 139.79H46.7281L42.6509 142.585Z" fill="#263238"/>
<path id="Vector_761" opacity="0.5" d="M42.6509 142.585H141.234L137.18 138.481L107.814 135.593H97.5417L90.1233 129.978L70.8578 131.443L55.037 136.986L51.7811 139.79H46.7281L42.6509 142.585Z" fill="white"/>
<path id="Vector_762" opacity="0.2" d="M51.7812 139.79L62.1574 141.44H67.7769L61.406 140.41L55.0372 136.986L51.7812 139.79Z" fill="black"/>
<path id="Vector_763" opacity="0.2" d="M97.5416 135.593H91.9426L82.9316 138.593L87.5648 134.314L94.2608 133.109L97.5416 135.593Z" fill="black"/>
<path id="Vector_764" opacity="0.2" d="M137.18 138.481L126.562 141.44L117.342 139.213L125.55 142.585H141.234L137.18 138.481Z" fill="black"/>
</g>
</g>
<g id="Character">
<g id="Group_25">
<path id="Vector_765" d="M86.5947 132.211L84.0312 131.534L84.9814 125.795L87.5445 126.472L86.5947 132.211Z" fill="#E4897B"/>
<path id="Vector_766" d="M83.9732 129.525H87.2208C87.3298 129.525 87.4246 129.595 87.4495 129.695L87.9992 131.907C88.0563 132.137 87.8656 132.354 87.6138 132.35C86.5689 132.333 85.8058 132.276 84.4897 132.276C83.6801 132.276 81.2392 132.354 80.1211 132.354C79.0275 132.354 78.8459 131.321 79.3027 131.228C81.3505 130.808 82.891 130.23 83.5421 129.678C83.6599 129.578 83.814 129.525 83.9732 129.525Z" fill="#263238"/>
<path id="Vector_767" d="M127.965 138.864L125.358 139.376L123.349 133.881L125.956 133.368L127.965 138.864Z" fill="#E4897B"/>
<path id="Vector_768" d="M105.147 84.5732C105.147 84.5732 92.9783 97.1171 89.6898 102.081C86.4013 107.044 83.5381 128.039 83.5381 128.039L88.3869 129.133C88.3869 129.133 94.0229 108.663 95.5238 106.613C97.0252 104.562 112.961 90.6673 112.961 90.6673L105.147 84.5732Z" fill="#263238"/>
<path id="Vector_769" opacity="0.1" d="M112.963 90.6673C112.963 90.6673 112.363 91.1909 111.382 92.05C110.064 93.2081 108.059 94.9714 105.909 96.89C101.438 100.871 96.3422 105.494 95.5235 106.611C94.0218 108.661 88.3865 129.134 88.3865 129.134L83.5396 128.038C83.5396 128.038 86.4031 107.045 89.6913 102.082C92.9794 97.1151 105.147 84.575 105.147 84.575L112.963 90.6673Z" fill="white"/>
<path id="Vector_770" opacity="0.2" d="M111.382 92.05C110.064 93.208 108.059 94.9713 105.909 96.89C107.332 93.2815 110.774 90.9453 110.774 90.9453L111.382 92.05Z" fill="black"/>
<g id="Group_26">
<path id="Vector_771" d="M109.387 85.4718C109.387 85.4718 112.516 106.819 114.027 113.985C115.682 121.831 123.049 136.389 123.049 136.389L127.823 135.451C127.823 135.451 122.804 121.996 121.693 114.118C120.451 105.308 118.587 85.4082 118.587 85.4082L109.387 85.4718Z" fill="#263238"/>
</g>
<g id="Group_27" opacity="0.1">
<path id="Vector_772" d="M109.387 85.4718C109.387 85.4718 112.516 106.819 114.027 113.985C115.682 121.831 123.049 136.389 123.049 136.389L127.823 135.451C127.823 135.451 122.804 121.996 121.693 114.118C120.451 105.308 118.587 85.4082 118.587 85.4082L109.387 85.4718Z" fill="white"/>
</g>
<g id="Group_28">
<path id="Vector_773" d="M90.8295 58.7858L90.6201 56.2563L93.4292 57.2707C93.4292 57.2707 93.4702 59.5382 92.2188 59.5088L90.8295 58.7858Z" fill="#E4897B"/>
<path id="Vector_774" d="M91.713 54.7966L94.3658 54.9526L93.4292 57.2707L90.6201 56.2563L91.713 54.7966Z" fill="#E4897B"/>
</g>
<path id="Vector_775" d="M90.7334 59.2307L90.8084 58.5303L93.0758 58.9629L92.8968 59.7013L90.7334 59.2307Z" fill="#0089EE"/>
<path id="Vector_776" opacity="0.7" d="M90.7334 59.2307L90.8084 58.5303L93.0758 58.9629L92.8968 59.7013L90.7334 59.2307Z" fill="white"/>
<g id="Group_29">
<path id="Vector_777" d="M101.556 55.4729H95.6833C95.4761 55.4729 95.3081 55.8915 95.3081 56.4076C95.3081 56.9237 95.4761 57.3423 95.6833 57.3423H101.556C101.763 57.3423 101.931 56.9237 101.931 56.4076C101.931 55.8915 101.763 55.4729 101.556 55.4729Z" fill="#0089EE"/>
<path id="Vector_778" opacity="0.4" d="M101.556 55.4729H95.6833C95.4761 55.4729 95.3081 55.8915 95.3081 56.4076C95.3081 56.9237 95.4761 57.3423 95.6833 57.3423H101.556C101.763 57.3423 101.931 56.9237 101.931 56.4076C101.931 55.8915 101.763 55.4729 101.556 55.4729Z" fill="white"/>
<path id="Vector_779" d="M95.5955 55.2158H88.5877C88.3235 55.2158 88.1094 55.7493 88.1094 56.4077C88.1094 57.066 88.3235 57.5996 88.5877 57.5996H95.5955C95.8598 57.5996 96.0739 57.066 96.0739 56.4077C96.0743 55.7497 95.8598 55.2158 95.5955 55.2158Z" fill="#0089EE"/>
<path id="Vector_780" opacity="0.2" d="M95.5955 55.2158H88.5877C88.3235 55.2158 88.1094 55.7493 88.1094 56.4077C88.1094 57.066 88.3235 57.5996 88.5877 57.5996H95.5955C95.8598 57.5996 96.0739 57.066 96.0739 56.4077C96.0743 55.7497 95.8598 55.2158 95.5955 55.2158Z" fill="white"/>
<path id="Vector_781" d="M88.6845 54.9753H81.3616C81.0439 54.9753 80.7866 55.6166 80.7866 56.408C80.7866 57.199 81.0443 57.8406 81.3616 57.8406H88.6845C89.0022 57.8406 89.2595 57.1994 89.2595 56.408C89.2595 55.6166 89.0022 54.9753 88.6845 54.9753Z" fill="#0089EE"/>
<path id="Vector_782" opacity="0.4" d="M88.6845 54.9753H81.3616C81.0439 54.9753 80.7866 55.6166 80.7866 56.408C80.7866 57.199 81.0443 57.8406 81.3616 57.8406H88.6845C89.0022 57.8406 89.2595 57.1994 89.2595 56.408C89.2595 55.6166 89.0022 54.9753 88.6845 54.9753Z" fill="white"/>
<path id="Vector_783" opacity="0.2" d="M81.9371 56.408C81.9371 57.199 81.6798 57.8406 81.3621 57.8406C81.0444 57.8406 80.7871 57.1994 80.7871 56.408C80.7871 55.6166 81.0448 54.9753 81.3621 54.9753C81.6794 54.9753 81.9371 55.6166 81.9371 56.408Z" fill="white"/>
<path id="Vector_784" d="M81.3618 57.6775C81.2209 57.6775 80.9614 57.1953 80.9614 56.4077C80.9614 55.6204 81.2209 55.1382 81.3618 55.1382C81.5031 55.1382 81.7626 55.6204 81.7626 56.4077C81.763 57.1953 81.5035 57.6775 81.3618 57.6775Z" fill="black"/>
</g>
<path id="Vector_785" d="M124.41 136.894H127.658C127.767 136.894 127.862 136.965 127.887 137.064L128.437 139.276C128.494 139.506 128.303 139.723 128.051 139.719C127.006 139.702 126.243 139.645 124.927 139.645C124.118 139.645 121.677 139.724 120.559 139.724C119.465 139.724 119.283 138.691 119.74 138.597C121.788 138.178 123.328 137.599 123.98 137.047C124.097 136.947 124.251 136.894 124.41 136.894Z" fill="#263238"/>
<path id="Vector_786" d="M100.524 65.1246C100.524 65.1246 99.0788 65.4498 97.5489 65.6663C96.7821 65.7696 96.0187 65.8694 95.283 65.9402C94.9155 65.9751 94.5558 65.997 94.2285 66.0117C94.1605 66.0144 94.0964 66.0155 94.0338 66.0165C93.9486 65.7986 93.8691 65.5425 93.7992 65.2771C93.6276 64.6266 93.4837 63.92 93.3608 63.2066C93.1159 61.7777 93.0416 59.3506 93.0416 59.3506L90.6853 58.8123C90.4642 60.3502 90.3416 61.868 90.3453 63.4313C90.3519 64.2131 90.3768 65.0004 90.4833 65.828C90.5396 66.2439 90.6092 66.6673 90.7431 67.1413C90.813 67.38 90.8943 67.6321 91.0425 67.9262C91.1249 68.0805 91.2072 68.2333 91.3562 68.4242C91.5044 68.6092 91.6944 68.8267 92.0465 69.0425C92.142 69.0976 92.2397 69.1482 92.3426 69.193C92.4553 69.2388 92.5805 69.2802 92.6928 69.3099L92.9476 69.3684C93.1185 69.405 93.2495 69.4218 93.3977 69.4444C93.6675 69.4779 93.9193 69.4994 94.1565 69.5121C94.6319 69.5394 95.0751 69.5367 95.5092 69.5264C96.3762 69.5069 97.2104 69.4502 98.0379 69.3718C99.6951 69.2173 101.295 68.9888 102.927 68.6831L100.524 65.1246Z" fill="#263238"/>
<g id="Group_30">
<path id="Vector_787" d="M115.768 64.3133C115.673 67.0917 115.871 69.4837 116.198 72.1075C116.44 74.0326 116.755 75.8586 117.083 77.5101C117.851 81.3891 118.685 84.3036 118.82 85.3221C116.806 85.5991 108.983 86.673 104.554 87.279C98.8762 73.0826 100.856 65.0695 100.856 65.0695C100.856 65.0695 102.399 64.5555 104.233 64.206C104.473 64.1588 104.718 64.1181 104.968 64.0798C106.573 63.8325 109.225 63.7083 111.039 63.667C111.419 63.6588 111.803 63.6594 112.178 63.6656C114.074 63.7008 115.768 64.3133 115.768 64.3133Z" fill="#0089EE"/>
<path id="Vector_788" opacity="0.7" d="M115.768 64.3133C115.673 67.0917 115.871 69.4837 116.198 72.1075C116.44 74.0326 116.755 75.8586 117.083 77.5101C117.851 81.3891 118.685 84.3036 118.82 85.3221C116.806 85.5991 108.983 86.673 104.554 87.279C98.8762 73.0826 100.856 65.0695 100.856 65.0695C100.856 65.0695 102.399 64.5555 104.233 64.206C104.473 64.1588 104.718 64.1181 104.968 64.0798C106.573 63.8325 109.225 63.7083 111.039 63.667C111.419 63.6588 111.803 63.6594 112.178 63.6656C114.074 63.7008 115.768 64.3133 115.768 64.3133Z" fill="white"/>
</g>
<path id="Vector_789" d="M106.231 67.3016C106.053 68.3358 105.489 70.9928 105.514 73.6115C105.778 74.1197 106.132 75.3577 106.452 75.8604C106.687 75.2873 107.093 74.1067 107.371 73.5287C107.124 71.04 106.652 68.5444 106.797 67.2383L106.231 67.3016Z" fill="#0089EE"/>
<path id="Vector_790" d="M106.399 68.0888L105.701 66.9257L106.588 66.3997L107.371 66.7047L106.399 68.0888Z" fill="#0089EE"/>
<path id="Vector_791" d="M109.262 57.823C109.197 59.6729 109.394 63.0173 110.952 64.0228C110.128 65.1127 108.805 66.1292 106.632 66.3945C104.967 66.598 105.024 65.2954 105.289 64.6442C107.021 63.9564 106.712 62.6154 106.094 61.2734L109.262 57.823Z" fill="#E4897B"/>
<g id="Group_31">
<path id="Vector_792" d="M106.588 66.3996C106.588 66.3996 107.338 67.06 108.195 67.6972C109.201 67.008 111.532 65.2136 111.224 63.8849C111.021 63.5128 110.43 63.3503 110.43 63.3503C110.43 63.3503 109.037 65.0019 106.588 66.3996Z" fill="white"/>
</g>
<g id="Group_32">
<path id="Vector_793" d="M106.588 66.3996C106.588 66.3996 105.832 67.1657 105.397 68.0696C104.532 67.6626 104.84 65.0008 105.094 64.6848C105.805 63.8955 106.462 63.6609 106.462 63.6609C106.462 63.6609 105.902 65.0894 106.588 66.3996Z" fill="white"/>
</g>
<path id="Vector_794" opacity="0.2" d="M107.97 59.2305L106.095 61.2715C106.243 61.5889 106.371 61.9138 106.453 62.236C107.255 62.0082 108.236 61.0072 108.184 60.1935C108.158 59.7879 108.072 59.4066 107.97 59.2305Z" fill="black"/>
<g id="Group_33">
<path id="Vector_795" d="M102.421 53.5497C102.012 54.479 102.01 56.454 103.496 55.9301C104.981 55.4058 103.123 51.9526 102.421 53.5497Z" fill="#263238"/>
<path id="Vector_796" d="M109.665 55.4245C109.599 57.8907 109.695 59.3387 108.411 60.6353C106.479 62.586 103.177 61.5388 102.451 59.0966C101.798 56.8986 102.016 53.2347 104.562 52.1909C107.07 51.1625 109.732 52.9584 109.665 55.4245Z" fill="#E4897B"/>
<path id="Vector_797" d="M108.068 51.237C107.976 51.2411 107.9 51.275 107.824 51.2773C107.824 51.2773 108.051 56.0995 109.238 57.1529C112.27 56.3523 113.828 50.9795 108.068 51.237Z" fill="#263238"/>
<path id="Vector_798" d="M110.761 57.4412C110.575 58.0818 110.088 58.5797 109.575 58.84C108.804 59.2312 108.215 58.6283 108.259 57.8506C108.299 57.1505 108.749 56.1033 109.605 56.0322C110.449 55.9621 110.974 56.7086 110.761 57.4412Z" fill="#E4897B"/>
<path id="Vector_799" d="M103.258 56.2716C103.266 56.472 103.158 56.6375 103.018 56.6409C102.878 56.6443 102.757 56.4846 102.749 56.2842C102.742 56.0838 102.849 55.9183 102.99 55.9148C103.13 55.9114 103.25 56.0711 103.258 56.2716Z" fill="#263238"/>
<path id="Vector_800" d="M104.035 56.3523C104.035 56.3523 103.577 57.4782 103.055 58.0322C103.442 58.3359 104.083 58.1683 104.083 58.1683L104.035 56.3523Z" fill="#DE5753"/>
<path id="Vector_801" d="M105.264 58.9067C105.176 58.92 105.083 58.9286 104.985 58.9306C104.95 58.9316 104.921 58.906 104.919 58.8735C104.918 58.8407 104.946 58.814 104.98 58.813C105.925 58.7887 106.34 58.1642 106.344 58.1577C106.362 58.13 106.401 58.1214 106.431 58.1382C106.461 58.1553 106.471 58.1916 106.453 58.2193C106.437 58.2449 106.078 58.7836 105.264 58.9067Z" fill="#263238"/>
<path id="Vector_802" d="M105.862 55.6822C105.824 55.7038 105.776 55.7065 105.734 55.6853C105.237 55.4329 104.824 55.632 104.82 55.634C104.759 55.6645 104.682 55.6429 104.648 55.5858C104.615 55.5287 104.639 55.4575 104.7 55.4271C104.721 55.4162 105.239 55.1665 105.855 55.4798C105.917 55.5109 105.939 55.5824 105.906 55.6391C105.895 55.6573 105.88 55.672 105.862 55.6822Z" fill="#263238"/>
<path id="Vector_803" d="M102.046 55.3705C102.022 55.366 102 55.3554 101.981 55.3383C101.932 55.2925 101.931 55.2176 101.979 55.1711C102.466 54.706 103.035 54.8144 103.061 54.8161C103.129 54.8294 103.173 54.892 103.16 54.9556C103.146 55.0192 103.081 55.0603 103.013 55.0476C102.99 55.0421 102.551 54.9642 102.16 55.3373C102.129 55.367 102.086 55.3776 102.046 55.3705Z" fill="#263238"/>
<path id="Vector_804" d="M105.094 56.278C105.094 56.278 105.364 56.0325 105.691 56.1805" stroke="#263238" stroke-width="0.2991" stroke-miterlimit="10" stroke-linecap="round" stroke-linejoin="round"/>
<path id="Vector_805" d="M108.776 54.4323C108.776 54.4323 107.613 54.3783 107.141 53.3263C106.669 52.2743 106.265 53.1314 106.265 53.1314C106.265 53.1314 106.11 52.8136 105.094 52.6249C104.079 52.4361 103.407 54.9857 102.31 54.5743C101.213 54.1625 101.531 53.1314 101.531 53.1314C101.531 53.1314 102.012 52.9115 102.553 51.5188C103.163 49.9504 106.092 49.2527 108.632 50.4398C111.172 51.6269 108.776 54.4323 108.776 54.4323Z" fill="#263238"/>
</g>
<path id="Vector_806" d="M120.813 88.5926L110.16 90.6668L107.371 86.8932L105.707 90.4052L101.066 87.9462L103.535 84.5748C98.96 74.1869 100.523 65.1246 100.523 65.1246C102.55 64.2039 105.147 64.0528 105.147 64.0528C102.489 67.825 106.452 75.8603 106.452 75.8603C108.834 69.6537 111.684 63.6598 111.684 63.6598C114.105 63.4919 116.194 64.0976 116.194 64.0976C116.194 64.0976 117.231 78.2536 118.607 81.8501C119.977 85.4425 120.813 88.5926 120.813 88.5926Z" fill="#263238"/>
<path id="Vector_807" opacity="0.1" d="M110.13 68.7906L112.354 71.4089C112.354 71.4089 107.157 74.8867 105.629 80.6597L106.176 77.2883L101.902 71.6791L103.868 69.384L101.53 67.7639C101.53 67.7639 103.54 64.6014 105.147 64.0529C102.489 67.8251 106.452 75.8604 106.452 75.8604C108.834 69.6538 111.684 63.6599 111.684 63.6599C111.684 63.6599 113.567 64.9079 114.579 67.5221L110.13 68.7906Z" fill="white"/>
<g id="Group_34">
<path id="Vector_808" d="M132.919 86.2539C133.096 86.9342 131.776 87.8189 129.97 88.23C128.164 88.6411 126.556 88.4225 126.379 87.7423C126.202 87.0621 127.522 86.1773 129.328 85.7662C131.133 85.3551 132.741 85.5733 132.919 86.2539Z" stroke="#263238" stroke-width="1.1963" stroke-miterlimit="10"/>
<path id="Vector_809" d="M137.958 85.416L140.776 96.2283C140.869 96.5823 140.638 96.9421 140.255 97.0293L123.375 100.871C122.996 100.957 122.61 100.738 122.518 100.384L119.7 89.5716C119.606 89.2139 119.842 88.8568 120.221 88.7706L137.101 84.929C137.484 84.8418 137.865 85.0582 137.958 85.416Z" fill="#263238"/>
<path id="Vector_810" opacity="0.1" d="M137.958 85.416L140.776 96.2283C140.869 96.5823 140.638 96.9421 140.255 97.0293L123.375 100.871C122.996 100.957 122.61 100.738 122.518 100.384L119.7 89.5716C119.606 89.2139 119.842 88.8568 120.221 88.7706L137.101 84.929C137.484 84.8418 137.865 85.0582 137.958 85.416Z" fill="white"/>
<path id="Vector_811" d="M121.359 89.1938L124.177 100.006C124.269 100.36 124.034 100.721 123.656 100.807L123.375 100.871C122.996 100.957 122.61 100.738 122.518 100.384L119.7 89.5718C119.606 89.214 119.842 88.857 120.221 88.7708L120.502 88.7068C120.88 88.6203 121.265 88.8358 121.359 89.1938Z" fill="#263238"/>
<path id="Vector_812" d="M120.688 88.6736C121.043 88.5929 121.415 88.8388 121.502 89.1702L122.808 94.1832C122.882 94.465 123.186 94.6381 123.488 94.5694L138.994 91.0403C139.296 90.9715 139.481 90.6873 139.407 90.4055L138.096 85.376C138.005 85.0238 137.625 84.808 137.248 84.8938L120.361 88.7369L120.688 88.6736Z" fill="#263238"/>
<path id="Vector_813" opacity="0.2" d="M120.688 88.6736C121.043 88.5929 121.415 88.8388 121.502 89.1702L122.808 94.1832C122.882 94.465 123.186 94.6381 123.488 94.5694L138.994 91.0403C139.296 90.9715 139.481 90.6873 139.407 90.4055L138.096 85.376C138.005 85.0238 137.625 84.808 137.248 84.8938L120.361 88.7369L120.688 88.6736Z" fill="white"/>
<path id="Vector_814" d="M132.758 95.014L131.503 95.2995C131.39 95.3252 131.277 95.2609 131.25 95.1559L130.493 92.253L132.155 91.8748L132.912 94.7773C132.939 94.8826 132.87 94.9883 132.758 95.014Z" fill="#263238"/>
<path id="Vector_815" d="M132.644 94.1792L131.193 94.5096C131.019 94.5493 130.843 94.4494 130.8 94.2866L130.631 93.6378C130.589 93.475 130.696 93.3109 130.87 93.2712L132.322 92.9408C132.496 92.9012 132.671 93.001 132.714 93.1638L132.883 93.8126C132.925 93.9754 132.819 94.1395 132.644 94.1792Z" stroke="white" stroke-width="0.5982" stroke-miterlimit="10"/>
</g>
<g id="Group_35">
<path id="Vector_816" d="M127.84 82.8696L127.376 85.3559L130.675 84.5208C130.675 84.5208 130.565 82.3265 129.307 82.2605L127.84 82.8696Z" fill="#E4897B"/>
<path id="Vector_817" d="M128.417 87.1816L131.11 86.3728L130.675 84.5205L127.376 85.3557L128.417 87.1816Z" fill="#E4897B"/>
</g>
<path id="Vector_818" d="M127.634 81.8703L127.718 82.9862L129.903 82.5652L129.731 81.5173L127.634 81.8703Z" fill="#0089EE"/>
<path id="Vector_819" opacity="0.7" d="M127.634 81.8703L127.718 82.9862L129.903 82.5652L129.731 81.5173L127.634 81.8703Z" fill="white"/>
<path id="Vector_820" d="M116.138 64.0654C118.081 64.7843 119.904 65.5781 121.733 66.5159C122.642 66.9871 123.545 67.4885 124.435 68.072C124.881 68.3633 125.325 68.678 125.769 69.0323C126.211 69.3952 126.653 69.7837 127.092 70.3473C127.202 70.4991 127.308 70.6315 127.414 70.8237C127.464 70.9116 127.52 71.0091 127.561 71.0908L127.645 71.2864L127.81 71.678L127.942 72.045C128.034 72.2909 128.107 72.5313 128.177 72.7666C128.251 73.005 128.32 73.2409 128.382 73.4742C128.647 74.4102 128.853 75.3384 129.051 76.2646C129.436 78.1206 129.732 79.9715 129.939 81.8511L127.588 82.2598C127.588 82.2598 126.705 78.7362 126.077 76.9988C125.769 76.1285 125.442 75.2656 125.115 74.428C125.034 74.216 124.949 74.0111 124.862 73.8097C124.777 73.6038 124.688 73.4048 124.6 73.2177L124.47 72.9325L124.338 72.6849L124.273 72.5611C124.257 72.5395 124.249 72.5371 124.239 72.5234C124.233 72.507 124.181 72.4588 124.149 72.4201C123.986 72.2423 123.689 71.9991 123.364 71.7731C123.037 71.5412 122.675 71.3107 122.291 71.0894C121.521 70.6493 120.698 70.2248 119.851 69.8244C118.164 69.0251 116.371 68.2628 114.636 67.5679L116.138 64.0654Z" fill="#263238"/>
</g>
</g>
<g id="Speech_bubble">
<g id="Group_36">
<g id="Group_37">
<path id="Vector_821" d="M137.705 65.0262C147.293 65.0262 155.066 57.7631 155.066 48.8037C155.066 39.8443 147.293 32.5813 137.705 32.5813C128.117 32.5813 120.344 39.8443 120.344 48.8037C120.344 57.7631 128.117 65.0262 137.705 65.0262Z" fill="#0089EE"/>
<path id="Vector_822" opacity="0.7" d="M137.705 65.0262C147.293 65.0262 155.066 57.7631 155.066 48.8037C155.066 39.8443 147.293 32.5813 137.705 32.5813C128.117 32.5813 120.344 39.8443 120.344 48.8037C120.344 57.7631 128.117 65.0262 137.705 65.0262Z" fill="white"/>
</g>
<g id="Group_38">
<path id="Vector_823" d="M119.861 56.6886C120.873 56.6886 121.694 55.9216 121.694 54.9755C121.694 54.0294 120.873 53.2625 119.861 53.2625C118.848 53.2625 118.027 54.0294 118.027 54.9755C118.027 55.9216 118.848 56.6886 119.861 56.6886Z" fill="#0089EE"/>
<path id="Vector_824" opacity="0.7" d="M119.861 56.6886C120.873 56.6886 121.694 55.9216 121.694 54.9755C121.694 54.0294 120.873 53.2625 119.861 53.2625C118.848 53.2625 118.027 54.0294 118.027 54.9755C118.027 55.9216 118.848 56.6886 119.861 56.6886Z" fill="white"/>
</g>
<g id="Group_39">
<path id="Vector_825" d="M116.986 56.1526C116.946 56.694 116.444 57.1023 115.865 57.0654C115.286 57.0281 114.849 56.5592 114.888 56.0182C114.928 55.4768 115.43 55.0681 116.009 55.1054C116.588 55.1427 117.026 55.6115 116.986 56.1526Z" fill="#0089EE"/>
<path id="Vector_826" opacity="0.7" d="M116.986 56.1526C116.946 56.694 116.444 57.1023 115.865 57.0654C115.286 57.0281 114.849 56.5592 114.888 56.0182C114.928 55.4768 115.43 55.0681 116.009 55.1054C116.588 55.1427 117.026 55.6115 116.986 56.1526Z" fill="white"/>
</g>
<g id="Group_40">
<path id="Vector_827" d="M113.825 55.89C113.805 56.1606 113.554 56.3651 113.264 56.3463C112.975 56.3275 112.756 56.0932 112.776 55.8227C112.796 55.5521 113.047 55.3476 113.337 55.3664C113.626 55.3852 113.845 55.6195 113.825 55.89Z" fill="#0089EE"/>
<path id="Vector_828" opacity="0.7" d="M113.825 55.89C113.805 56.1606 113.554 56.3651 113.264 56.3463C112.975 56.3275 112.756 56.0932 112.776 55.8227C112.796 55.5521 113.047 55.3476 113.337 55.3664C113.626 55.3852 113.845 55.6195 113.825 55.89Z" fill="white"/>
</g>
<g id="Group_41">
<g id="Group_42">
<path id="Vector_829" d="M140.135 56.5314C143.649 55.3569 145.231 51.0967 143.669 47.0159C142.107 42.9351 137.992 40.5791 134.478 41.7536C130.964 42.928 129.382 47.1883 130.944 51.269C132.506 55.3498 136.621 57.7059 140.135 56.5314Z" fill="#0089EE"/>
<path id="Vector_830" d="M140.089 54.9381C142.925 53.9901 144.202 50.5515 142.942 47.2577C141.681 43.9639 138.36 42.0623 135.523 43.0102C132.687 43.9581 131.41 47.3967 132.671 50.6905C133.932 53.9843 137.253 55.886 140.089 54.9381Z" fill="white"/>
<path id="Vector_831" d="M142.348 47.46C143.357 50.0978 142.334 52.8516 140.063 53.6108C137.792 54.3701 135.132 52.8468 134.122 50.2089C133.112 47.5711 134.135 44.8173 136.407 44.0581C138.678 43.2992 141.338 44.8221 142.348 47.46Z" fill="#0089EE"/>
<path id="Vector_832" d="M141.575 47.7182C142.351 49.7438 141.621 51.8403 139.945 52.4002C138.269 52.96 136.282 51.7719 135.507 49.7462C134.732 47.7206 135.462 45.6241 137.137 45.0643C138.813 44.5044 140.8 45.6925 141.575 47.7182Z" fill="white"/>
<path id="Vector_833" d="M141.004 48.0334C141.557 49.478 141.079 50.9585 139.937 51.3402C138.795 51.7219 137.421 50.8604 136.868 49.4158C136.315 47.9712 136.792 46.4907 137.935 46.109C139.077 45.7273 140.451 46.5888 141.004 48.0334Z" fill="#0089EE"/>
<path id="Vector_834" d="M140.604 48.167C141.003 49.2104 140.7 50.2658 139.926 50.5244C139.153 50.7829 138.202 50.1468 137.802 49.1034C137.403 48.0603 137.706 47.0048 138.48 46.7459C139.254 46.4877 140.205 47.1239 140.604 48.167Z" fill="white"/>
</g>
<path id="Vector_835" d="M149.823 43.4531L147.743 44.1481L147.343 45.9148L148.852 47.0438L150.931 46.3488L149.388 45.2315L149.823 43.4531Z" fill="#0089EE"/>
<path id="Vector_836" d="M139.527 48.5269L149.706 45.125" stroke="#263238" stroke-width="2" stroke-miterlimit="10" stroke-linecap="round" stroke-linejoin="round"/>
</g>
</g>
</g>
</g>
</svg>
