<svg width="149" height="159" viewBox="0 0 149 159" fill="none" xmlns="http://www.w3.org/2000/svg">
<g id="8690678_3969584">
<g id="Background_Complete">
<g id="Group">
<path id="Vector" d="M149 121.603H0V121.682H149V121.603Z" fill="#EBEBEB"/>
<path id="Vector_2" d="M134.071 126.721H124.2V126.801H134.071V126.721Z" fill="#EBEBEB"/>
<path id="Vector_3" d="M98.7038 127.584H96.1133V127.664H98.7038V127.584Z" fill="#EBEBEB"/>
<path id="Vector_4" d="M123.902 123.768H118.183V123.848H123.902V123.768Z" fill="#EBEBEB"/>
<path id="Vector_5" d="M28.5043 124.302H15.6328V124.382H28.5043V124.302Z" fill="#EBEBEB"/>
<path id="Vector_6" d="M33.0449 124.302H31.1577V124.382H33.0449V124.302Z" fill="#EBEBEB"/>
<path id="Vector_7" d="M67.0937 125.646H39.1782V125.725H67.0937V125.646Z" fill="#EBEBEB"/>
<path id="Vector_8" d="M70.6302 107.421H13.0867C12.1489 107.421 11.3857 106.606 11.3857 105.605V19.29C11.3857 18.2893 12.1489 17.4749 13.0867 17.4749H70.6302C71.5677 17.4749 72.3309 18.2893 72.3309 19.29V105.605C72.3309 106.606 71.5677 107.421 70.6302 107.421ZM13.0867 17.5547C12.1897 17.5547 11.4602 18.3331 11.4602 19.2903V105.606C11.4602 106.563 12.1897 107.341 13.0867 107.341H70.6302C71.5269 107.341 72.2564 106.563 72.2564 105.606V19.29C72.2564 18.3331 71.5269 17.5544 70.6302 17.5544L13.0867 17.5547Z" fill="#EBEBEB"/>
<path id="Vector_9" d="M135.086 107.421H77.543C76.6052 107.421 75.8423 106.606 75.8423 105.605V19.29C75.8423 18.2893 76.6055 17.4749 77.543 17.4749H135.086C136.024 17.4749 136.787 18.2893 136.787 19.29V105.605C136.787 106.606 136.024 107.421 135.086 107.421ZM77.543 17.5547C76.6463 17.5547 75.9168 18.3331 75.9168 19.2903V105.606C75.9168 106.563 76.6463 107.341 77.543 107.341H135.086C135.983 107.341 136.713 106.563 136.713 105.606V19.29C136.713 18.3331 135.983 17.5544 135.086 17.5544L77.543 17.5547Z" fill="#EBEBEB"/>
</g>
<g id="Group_2">
<g id="Group_3">
<path id="Vector_10" d="M132.735 37.262H60.5356V111.527H132.735V37.262Z" fill="#E0E0E0"/>
<path id="Vector_11" d="M132.735 38.6106H61.6943V110.232H132.735V38.6106Z" fill="#F5F5F5"/>
<g id="Group_4">
<path id="Vector_12" d="M62.2185 92.8863V71.344H64.3158V68.4985L69.0353 66.1431V63.2305H69.8217V71.344H70.6081V92.8863H71.6568V81.6955H74.0163V75.8202H74.8031V92.8863H76.6381V86.4515H77.949V84.7728H80.8331V78.8978H82.4062V74.981H84.2413V69.1059H85.0277V74.981H86.8631V78.8978H88.4363V84.7728H91.32V86.4515H92.6309V92.8863H94.204V84.7728H97.0878V66.8675H97.8745V64.9093H104.167V66.8675H105.478V79.737H110.721V81.1358H112.556V81.9754H110.721V87.0112H116.227V70.225H117.276V66.8675H119.897V53.998H120.684V66.8675H122.519V70.225H132.735V110.232H61.6943V92.8863H62.2185Z" fill="#E6E6E6"/>
<g id="Group_5">
<path id="Vector_13" d="M127.276 71.1021H126.533V71.8948H127.276V71.1021Z" fill="#F0F0F0"/>
<path id="Vector_14" d="M127.276 72.4309H126.533V73.2237H127.276V72.4309Z" fill="#F0F0F0"/>
<path id="Vector_15" d="M127.276 77.7466H126.533V78.5394H127.276V77.7466Z" fill="#F0F0F0"/>
<path id="Vector_16" d="M127.276 79.0754H126.533V79.8682H127.276V79.0754Z" fill="#F0F0F0"/>
<path id="Vector_17" d="M127.276 80.4045H126.533V81.1973H127.276V80.4045Z" fill="#F0F0F0"/>
<path id="Vector_18" d="M127.276 84.3911H126.533V85.1839H127.276V84.3911Z" fill="#F0F0F0"/>
<path id="Vector_19" d="M127.276 85.7202H126.533V86.513H127.276V85.7202Z" fill="#F0F0F0"/>
<path id="Vector_20" d="M126.096 76.4177H125.354V77.2105H126.096V76.4177Z" fill="#F0F0F0"/>
<path id="Vector_21" d="M126.096 77.7466H125.354V78.5394H126.096V77.7466Z" fill="#F0F0F0"/>
<path id="Vector_22" d="M126.096 79.0754H125.354V79.8682H126.096V79.0754Z" fill="#F0F0F0"/>
<path id="Vector_23" d="M126.096 80.4045H125.354V81.1973H126.096V80.4045Z" fill="#F0F0F0"/>
<path id="Vector_24" d="M126.096 81.7334H125.354V82.5262H126.096V81.7334Z" fill="#F0F0F0"/>
<path id="Vector_25" d="M126.096 84.3911H125.354V85.1839H126.096V84.3911Z" fill="#F0F0F0"/>
<path id="Vector_26" d="M126.096 85.7202H125.354V86.513H126.096V85.7202Z" fill="#F0F0F0"/>
<path id="Vector_27" d="M124.917 71.1021H124.174V71.8948H124.917V71.1021Z" fill="#F0F0F0"/>
<path id="Vector_28" d="M124.917 72.4309H124.174V73.2237H124.917V72.4309Z" fill="#F0F0F0"/>
<path id="Vector_29" d="M124.917 73.7598H124.174V74.5525H124.917V73.7598Z" fill="#F0F0F0"/>
<path id="Vector_30" d="M124.917 75.0889H124.174V75.8816H124.917V75.0889Z" fill="#F0F0F0"/>
<path id="Vector_31" d="M124.917 76.4177H124.174V77.2105H124.917V76.4177Z" fill="#F0F0F0"/>
<path id="Vector_32" d="M124.917 77.7466H124.174V78.5394H124.917V77.7466Z" fill="#F0F0F0"/>
<path id="Vector_33" d="M124.917 79.0754H124.174V79.8682H124.917V79.0754Z" fill="#F0F0F0"/>
<path id="Vector_34" d="M124.917 80.4045H124.174V81.1973H124.917V80.4045Z" fill="#F0F0F0"/>
<path id="Vector_35" d="M124.917 81.7334H124.174V82.5262H124.917V81.7334Z" fill="#F0F0F0"/>
<path id="Vector_36" d="M124.917 83.0623H124.174V83.855H124.917V83.0623Z" fill="#F0F0F0"/>
<path id="Vector_37" d="M124.917 85.7202H124.174V86.513H124.917V85.7202Z" fill="#F0F0F0"/>
<path id="Vector_38" d="M123.737 71.1021H122.994V71.8948H123.737V71.1021Z" fill="#F0F0F0"/>
<path id="Vector_39" d="M123.737 72.4309H122.994V73.2237H123.737V72.4309Z" fill="#F0F0F0"/>
<path id="Vector_40" d="M123.737 73.7598H122.994V74.5525H123.737V73.7598Z" fill="#F0F0F0"/>
<path id="Vector_41" d="M123.737 75.0889H122.994V75.8816H123.737V75.0889Z" fill="#F0F0F0"/>
<path id="Vector_42" d="M123.737 76.4177H122.994V77.2105H123.737V76.4177Z" fill="#F0F0F0"/>
<path id="Vector_43" d="M123.737 77.7466H122.994V78.5394H123.737V77.7466Z" fill="#F0F0F0"/>
<path id="Vector_44" d="M123.737 79.0754H122.994V79.8682H123.737V79.0754Z" fill="#F0F0F0"/>
<path id="Vector_45" d="M123.737 91.0359H122.994V91.8287H123.737V91.0359Z" fill="#F0F0F0"/>
<path id="Vector_46" d="M122.557 71.1021H121.814V71.8948H122.557V71.1021Z" fill="#F0F0F0"/>
<path id="Vector_47" d="M122.557 72.4309H121.814V73.2237H122.557V72.4309Z" fill="#F0F0F0"/>
<path id="Vector_48" d="M122.557 73.7598H121.814V74.5525H122.557V73.7598Z" fill="#F0F0F0"/>
<path id="Vector_49" d="M122.557 75.0889H121.814V75.8816H122.557V75.0889Z" fill="#F0F0F0"/>
<path id="Vector_50" d="M122.557 76.4177H121.814V77.2105H122.557V76.4177Z" fill="#F0F0F0"/>
<path id="Vector_51" d="M122.557 77.7466H121.814V78.5394H122.557V77.7466Z" fill="#F0F0F0"/>
<path id="Vector_52" d="M122.557 79.0754H121.814V79.8682H122.557V79.0754Z" fill="#F0F0F0"/>
<path id="Vector_53" d="M122.557 80.4045H121.814V81.1973H122.557V80.4045Z" fill="#F0F0F0"/>
<path id="Vector_54" d="M122.557 88.3779H121.814V89.1707H122.557V88.3779Z" fill="#F0F0F0"/>
<path id="Vector_55" d="M122.557 89.7068H121.814V90.4996H122.557V89.7068Z" fill="#F0F0F0"/>
<path id="Vector_56" d="M122.557 91.0359H121.814V91.8287H122.557V91.0359Z" fill="#F0F0F0"/>
<path id="Vector_57" d="M122.557 92.3647H121.814V93.1575H122.557V92.3647Z" fill="#F0F0F0"/>
<path id="Vector_58" d="M122.557 97.6804H121.814V98.4732H122.557V97.6804Z" fill="#F0F0F0"/>
<path id="Vector_59" d="M121.377 71.1021H120.634V71.8948H121.377V71.1021Z" fill="#F0F0F0"/>
<path id="Vector_60" d="M121.377 72.4309H120.634V73.2237H121.377V72.4309Z" fill="#F0F0F0"/>
<path id="Vector_61" d="M121.377 73.7598H120.634V74.5525H121.377V73.7598Z" fill="#F0F0F0"/>
<path id="Vector_62" d="M121.377 75.0889H120.634V75.8816H121.377V75.0889Z" fill="#F0F0F0"/>
<path id="Vector_63" d="M121.377 76.4177H120.634V77.2105H121.377V76.4177Z" fill="#F0F0F0"/>
<path id="Vector_64" d="M121.377 77.7466H120.634V78.5394H121.377V77.7466Z" fill="#F0F0F0"/>
<path id="Vector_65" d="M121.377 79.0754H120.634V79.8682H121.377V79.0754Z" fill="#F0F0F0"/>
<path id="Vector_66" d="M121.377 80.4045H120.634V81.1973H121.377V80.4045Z" fill="#F0F0F0"/>
<path id="Vector_67" d="M121.377 81.7334H120.634V82.5262H121.377V81.7334Z" fill="#F0F0F0"/>
<path id="Vector_68" d="M121.377 83.0623H120.634V83.855H121.377V83.0623Z" fill="#F0F0F0"/>
<path id="Vector_69" d="M121.377 87.0491H120.634V87.8418H121.377V87.0491Z" fill="#F0F0F0"/>
<path id="Vector_70" d="M121.377 88.3779H120.634V89.1707H121.377V88.3779Z" fill="#F0F0F0"/>
<path id="Vector_71" d="M121.377 89.7068H120.634V90.4996H121.377V89.7068Z" fill="#F0F0F0"/>
<path id="Vector_72" d="M121.377 91.0359H120.634V91.8287H121.377V91.0359Z" fill="#F0F0F0"/>
<path id="Vector_73" d="M121.377 92.3647H120.634V93.1575H121.377V92.3647Z" fill="#F0F0F0"/>
<path id="Vector_74" d="M121.377 97.6804H120.634V98.4732H121.377V97.6804Z" fill="#F0F0F0"/>
<path id="Vector_75" d="M120.198 71.1021H119.455V71.8948H120.198V71.1021Z" fill="#F0F0F0"/>
<path id="Vector_76" d="M120.198 72.4309H119.455V73.2237H120.198V72.4309Z" fill="#F0F0F0"/>
<path id="Vector_77" d="M120.198 73.7598H119.455V74.5525H120.198V73.7598Z" fill="#F0F0F0"/>
<path id="Vector_78" d="M120.198 75.0889H119.455V75.8816H120.198V75.0889Z" fill="#F0F0F0"/>
<path id="Vector_79" d="M120.198 76.4177H119.455V77.2105H120.198V76.4177Z" fill="#F0F0F0"/>
<path id="Vector_80" d="M120.198 77.7466H119.455V78.5394H120.198V77.7466Z" fill="#F0F0F0"/>
<path id="Vector_81" d="M120.198 79.0754H119.455V79.8682H120.198V79.0754Z" fill="#F0F0F0"/>
<path id="Vector_82" d="M120.198 80.4045H119.455V81.1973H120.198V80.4045Z" fill="#F0F0F0"/>
<path id="Vector_83" d="M120.198 81.7334H119.455V82.5262H120.198V81.7334Z" fill="#F0F0F0"/>
<path id="Vector_84" d="M120.198 83.0623H119.455V83.855H120.198V83.0623Z" fill="#F0F0F0"/>
<path id="Vector_85" d="M120.198 84.3911H119.455V85.1839H120.198V84.3911Z" fill="#F0F0F0"/>
<path id="Vector_86" d="M120.198 85.7202H119.455V86.513H120.198V85.7202Z" fill="#F0F0F0"/>
<path id="Vector_87" d="M120.198 87.0491H119.455V87.8418H120.198V87.0491Z" fill="#F0F0F0"/>
<path id="Vector_88" d="M120.198 88.3779H119.455V89.1707H120.198V88.3779Z" fill="#F0F0F0"/>
<path id="Vector_89" d="M120.198 89.7068H119.455V90.4996H120.198V89.7068Z" fill="#F0F0F0"/>
<path id="Vector_90" d="M120.198 91.0359H119.455V91.8287H120.198V91.0359Z" fill="#F0F0F0"/>
<path id="Vector_91" d="M120.198 92.3647H119.455V93.1575H120.198V92.3647Z" fill="#F0F0F0"/>
<path id="Vector_92" d="M120.198 93.6936H119.455V94.4864H120.198V93.6936Z" fill="#F0F0F0"/>
<path id="Vector_93" d="M119.017 71.1021H118.274V71.8948H119.017V71.1021Z" fill="#F0F0F0"/>
<path id="Vector_94" d="M119.017 72.4309H118.274V73.2237H119.017V72.4309Z" fill="#F0F0F0"/>
<path id="Vector_95" d="M119.017 73.7598H118.274V74.5525H119.017V73.7598Z" fill="#F0F0F0"/>
<path id="Vector_96" d="M119.017 75.0889H118.274V75.8816H119.017V75.0889Z" fill="#F0F0F0"/>
<path id="Vector_97" d="M119.017 76.4177H118.274V77.2105H119.017V76.4177Z" fill="#F0F0F0"/>
<path id="Vector_98" d="M119.017 77.7466H118.274V78.5394H119.017V77.7466Z" fill="#F0F0F0"/>
<path id="Vector_99" d="M119.017 79.0754H118.274V79.8682H119.017V79.0754Z" fill="#F0F0F0"/>
<path id="Vector_100" d="M119.017 80.4045H118.274V81.1973H119.017V80.4045Z" fill="#F0F0F0"/>
<path id="Vector_101" d="M119.017 81.7334H118.274V82.5262H119.017V81.7334Z" fill="#F0F0F0"/>
<path id="Vector_102" d="M119.017 83.0623H118.274V83.855H119.017V83.0623Z" fill="#F0F0F0"/>
<path id="Vector_103" d="M119.017 87.0491H118.274V87.8418H119.017V87.0491Z" fill="#F0F0F0"/>
<path id="Vector_104" d="M119.017 88.3779H118.274V89.1707H119.017V88.3779Z" fill="#F0F0F0"/>
<path id="Vector_105" d="M119.017 89.7068H118.274V90.4996H119.017V89.7068Z" fill="#F0F0F0"/>
<path id="Vector_106" d="M119.017 91.0359H118.274V91.8287H119.017V91.0359Z" fill="#F0F0F0"/>
<path id="Vector_107" d="M117.838 71.1021H117.095V71.8948H117.838V71.1021Z" fill="#F0F0F0"/>
<path id="Vector_108" d="M117.838 72.4309H117.095V73.2237H117.838V72.4309Z" fill="#F0F0F0"/>
<path id="Vector_109" d="M117.838 73.7598H117.095V74.5525H117.838V73.7598Z" fill="#F0F0F0"/>
<path id="Vector_110" d="M117.838 75.0889H117.095V75.8816H117.838V75.0889Z" fill="#F0F0F0"/>
<path id="Vector_111" d="M117.838 76.4177H117.095V77.2105H117.838V76.4177Z" fill="#F0F0F0"/>
<path id="Vector_112" d="M117.838 77.7466H117.095V78.5394H117.838V77.7466Z" fill="#F0F0F0"/>
<path id="Vector_113" d="M117.838 79.0754H117.095V79.8682H117.838V79.0754Z" fill="#F0F0F0"/>
<path id="Vector_114" d="M117.838 80.4045H117.095V81.1973H117.838V80.4045Z" fill="#F0F0F0"/>
<path id="Vector_115" d="M117.838 81.7334H117.095V82.5262H117.838V81.7334Z" fill="#F0F0F0"/>
<path id="Vector_116" d="M117.838 83.0623H117.095V83.855H117.838V83.0623Z" fill="#F0F0F0"/>
<path id="Vector_117" d="M117.838 87.0491H117.095V87.8418H117.838V87.0491Z" fill="#F0F0F0"/>
<path id="Vector_118" d="M117.838 88.3779H117.095V89.1707H117.838V88.3779Z" fill="#F0F0F0"/>
<path id="Vector_119" d="M117.838 89.7068H117.095V90.4996H117.838V89.7068Z" fill="#F0F0F0"/>
<path id="Vector_120" d="M104.554 67.6514H103.812V68.4441H104.554V67.6514Z" fill="#F0F0F0"/>
<path id="Vector_121" d="M104.554 68.9802H103.812V69.773H104.554V68.9802Z" fill="#F0F0F0"/>
<path id="Vector_122" d="M104.554 70.3093H103.812V71.1021H104.554V70.3093Z" fill="#F0F0F0"/>
<path id="Vector_123" d="M104.554 71.6382H103.812V72.431H104.554V71.6382Z" fill="#F0F0F0"/>
<path id="Vector_124" d="M104.554 72.967H103.812V73.7598H104.554V72.967Z" fill="#F0F0F0"/>
<path id="Vector_125" d="M104.554 74.2959H103.812V75.0887H104.554V74.2959Z" fill="#F0F0F0"/>
<path id="Vector_126" d="M104.554 75.625H103.812V76.4178H104.554V75.625Z" fill="#F0F0F0"/>
<path id="Vector_127" d="M104.554 76.9539H103.812V77.7466H104.554V76.9539Z" fill="#F0F0F0"/>
<path id="Vector_128" d="M104.554 80.9407H103.812V81.7335H104.554V80.9407Z" fill="#F0F0F0"/>
<path id="Vector_129" d="M104.554 82.2695H103.812V83.0623H104.554V82.2695Z" fill="#F0F0F0"/>
<path id="Vector_130" d="M103.375 67.6514H102.632V68.4441H103.375V67.6514Z" fill="#F0F0F0"/>
<path id="Vector_131" d="M103.375 68.9802H102.632V69.773H103.375V68.9802Z" fill="#F0F0F0"/>
<path id="Vector_132" d="M103.375 70.3093H102.632V71.1021H103.375V70.3093Z" fill="#F0F0F0"/>
<path id="Vector_133" d="M103.375 71.6382H102.632V72.431H103.375V71.6382Z" fill="#F0F0F0"/>
<path id="Vector_134" d="M103.375 72.967H102.632V73.7598H103.375V72.967Z" fill="#F0F0F0"/>
<path id="Vector_135" d="M103.375 74.2959H102.632V75.0887H103.375V74.2959Z" fill="#F0F0F0"/>
<path id="Vector_136" d="M103.375 75.625H102.632V76.4178H103.375V75.625Z" fill="#F0F0F0"/>
<path id="Vector_137" d="M103.375 76.9539H102.632V77.7466H103.375V76.9539Z" fill="#F0F0F0"/>
<path id="Vector_138" d="M103.375 82.2695H102.632V83.0623H103.375V82.2695Z" fill="#F0F0F0"/>
<path id="Vector_139" d="M102.195 67.6514H101.452V68.4441H102.195V67.6514Z" fill="#F0F0F0"/>
<path id="Vector_140" d="M102.195 68.9802H101.452V69.773H102.195V68.9802Z" fill="#F0F0F0"/>
<path id="Vector_141" d="M102.195 70.3093H101.452V71.1021H102.195V70.3093Z" fill="#F0F0F0"/>
<path id="Vector_142" d="M102.195 71.6382H101.452V72.431H102.195V71.6382Z" fill="#F0F0F0"/>
<path id="Vector_143" d="M102.195 72.967H101.452V73.7598H102.195V72.967Z" fill="#F0F0F0"/>
<path id="Vector_144" d="M102.195 74.2959H101.452V75.0887H102.195V74.2959Z" fill="#F0F0F0"/>
<path id="Vector_145" d="M102.195 75.625H101.452V76.4178H102.195V75.625Z" fill="#F0F0F0"/>
<path id="Vector_146" d="M102.195 76.9539H101.452V77.7466H102.195V76.9539Z" fill="#F0F0F0"/>
<path id="Vector_147" d="M101.015 67.6514H100.272V68.4441H101.015V67.6514Z" fill="#F0F0F0"/>
<path id="Vector_148" d="M101.015 68.9802H100.272V69.773H101.015V68.9802Z" fill="#F0F0F0"/>
<path id="Vector_149" d="M101.015 70.3093H100.272V71.1021H101.015V70.3093Z" fill="#F0F0F0"/>
<path id="Vector_150" d="M101.015 71.6382H100.272V72.431H101.015V71.6382Z" fill="#F0F0F0"/>
<path id="Vector_151" d="M101.015 72.967H100.272V73.7598H101.015V72.967Z" fill="#F0F0F0"/>
<path id="Vector_152" d="M101.015 74.2959H100.272V75.0887H101.015V74.2959Z" fill="#F0F0F0"/>
<path id="Vector_153" d="M101.015 76.9539H100.272V77.7466H101.015V76.9539Z" fill="#F0F0F0"/>
<path id="Vector_154" d="M101.015 78.2827H100.272V79.0755H101.015V78.2827Z" fill="#F0F0F0"/>
<path id="Vector_155" d="M101.015 82.2695H100.272V83.0623H101.015V82.2695Z" fill="#F0F0F0"/>
<path id="Vector_156" d="M101.015 83.5984H100.272V84.3912H101.015V83.5984Z" fill="#F0F0F0"/>
<path id="Vector_157" d="M101.015 84.9272H100.272V85.72H101.015V84.9272Z" fill="#F0F0F0"/>
<path id="Vector_158" d="M101.015 86.2563H100.272V87.0491H101.015V86.2563Z" fill="#F0F0F0"/>
<path id="Vector_159" d="M101.015 87.5852H100.272V88.378H101.015V87.5852Z" fill="#F0F0F0"/>
<path id="Vector_160" d="M101.015 88.9141H100.272V89.7068H101.015V88.9141Z" fill="#F0F0F0"/>
<path id="Vector_161" d="M101.015 90.2429H100.272V91.0357H101.015V90.2429Z" fill="#F0F0F0"/>
<path id="Vector_162" d="M99.8347 67.6514H99.0918V68.4441H99.8347V67.6514Z" fill="#F0F0F0"/>
<path id="Vector_163" d="M99.8347 68.9802H99.0918V69.773H99.8347V68.9802Z" fill="#F0F0F0"/>
<path id="Vector_164" d="M99.8347 70.3093H99.0918V71.1021H99.8347V70.3093Z" fill="#F0F0F0"/>
<path id="Vector_165" d="M99.8347 71.6382H99.0918V72.431H99.8347V71.6382Z" fill="#F0F0F0"/>
<path id="Vector_166" d="M99.8347 72.967H99.0918V73.7598H99.8347V72.967Z" fill="#F0F0F0"/>
<path id="Vector_167" d="M99.8347 74.2959H99.0918V75.0887H99.8347V74.2959Z" fill="#F0F0F0"/>
<path id="Vector_168" d="M99.8347 78.2827H99.0918V79.0755H99.8347V78.2827Z" fill="#F0F0F0"/>
<path id="Vector_169" d="M99.8347 79.6116H99.0918V80.4043H99.8347V79.6116Z" fill="#F0F0F0"/>
<path id="Vector_170" d="M99.8347 80.9407H99.0918V81.7335H99.8347V80.9407Z" fill="#F0F0F0"/>
<path id="Vector_171" d="M99.8347 82.2695H99.0918V83.0623H99.8347V82.2695Z" fill="#F0F0F0"/>
<path id="Vector_172" d="M99.8347 83.5984H99.0918V84.3912H99.8347V83.5984Z" fill="#F0F0F0"/>
<path id="Vector_173" d="M99.8347 84.9272H99.0918V85.72H99.8347V84.9272Z" fill="#F0F0F0"/>
<path id="Vector_174" d="M99.8347 86.2563H99.0918V87.0491H99.8347V86.2563Z" fill="#F0F0F0"/>
<path id="Vector_175" d="M99.8347 87.5852H99.0918V88.378H99.8347V87.5852Z" fill="#F0F0F0"/>
<path id="Vector_176" d="M99.8347 88.9141H99.0918V89.7068H99.8347V88.9141Z" fill="#F0F0F0"/>
<path id="Vector_177" d="M99.8347 90.2429H99.0918V91.0357H99.8347V90.2429Z" fill="#F0F0F0"/>
<path id="Vector_178" d="M99.8347 91.572H99.0918V92.3648H99.8347V91.572Z" fill="#F0F0F0"/>
<path id="Vector_179" d="M99.8347 94.2297H99.0918V95.0225H99.8347V94.2297Z" fill="#F0F0F0"/>
<path id="Vector_180" d="M98.6555 67.6514H97.9126V68.4441H98.6555V67.6514Z" fill="#F0F0F0"/>
<path id="Vector_181" d="M98.6555 68.9802H97.9126V69.773H98.6555V68.9802Z" fill="#F0F0F0"/>
<path id="Vector_182" d="M98.6555 70.3093H97.9126V71.1021H98.6555V70.3093Z" fill="#F0F0F0"/>
<path id="Vector_183" d="M98.6555 71.6382H97.9126V72.431H98.6555V71.6382Z" fill="#F0F0F0"/>
<path id="Vector_184" d="M98.6555 72.967H97.9126V73.7598H98.6555V72.967Z" fill="#F0F0F0"/>
<path id="Vector_185" d="M98.6555 74.2959H97.9126V75.0887H98.6555V74.2959Z" fill="#F0F0F0"/>
<path id="Vector_186" d="M98.6555 78.2827H97.9126V79.0755H98.6555V78.2827Z" fill="#F0F0F0"/>
<path id="Vector_187" d="M98.6555 79.6116H97.9126V80.4043H98.6555V79.6116Z" fill="#F0F0F0"/>
<path id="Vector_188" d="M98.6555 80.9407H97.9126V81.7335H98.6555V80.9407Z" fill="#F0F0F0"/>
<path id="Vector_189" d="M98.6555 82.2695H97.9126V83.0623H98.6555V82.2695Z" fill="#F0F0F0"/>
<path id="Vector_190" d="M98.6555 86.2563H97.9126V87.0491H98.6555V86.2563Z" fill="#F0F0F0"/>
<path id="Vector_191" d="M98.6555 87.5852H97.9126V88.378H98.6555V87.5852Z" fill="#F0F0F0"/>
<path id="Vector_192" d="M98.6555 88.9141H97.9126V89.7068H98.6555V88.9141Z" fill="#F0F0F0"/>
<path id="Vector_193" d="M98.6555 90.2429H97.9126V91.0357H98.6555V90.2429Z" fill="#F0F0F0"/>
<path id="Vector_194" d="M98.6555 91.572H97.9126V92.3648H98.6555V91.572Z" fill="#F0F0F0"/>
<path id="Vector_195" d="M98.6555 94.2297H97.9126V95.0225H98.6555V94.2297Z" fill="#F0F0F0"/>
<path id="Vector_196" d="M98.6555 95.5588H97.9126V96.3516H98.6555V95.5588Z" fill="#F0F0F0"/>
<path id="Vector_197" d="M87.9499 80.0083H87.207V80.8011H87.9499V80.0083Z" fill="#F0F0F0"/>
<path id="Vector_198" d="M87.9499 81.3372H87.207V82.1299H87.9499V81.3372Z" fill="#F0F0F0"/>
<path id="Vector_199" d="M87.9499 82.666H87.207V83.4588H87.9499V82.666Z" fill="#F0F0F0"/>
<path id="Vector_200" d="M87.9499 83.9946H87.207V84.7874H87.9499V83.9946Z" fill="#F0F0F0"/>
<path id="Vector_201" d="M87.9499 85.324H87.207V86.1168H87.9499V85.324Z" fill="#F0F0F0"/>
<path id="Vector_202" d="M87.9499 86.6526H87.207V87.4454H87.9499V86.6526Z" fill="#F0F0F0"/>
<path id="Vector_203" d="M87.9499 87.9817H87.207V88.7745H87.9499V87.9817Z" fill="#F0F0F0"/>
<path id="Vector_204" d="M87.9499 91.9683H87.207V92.761H87.9499V91.9683Z" fill="#F0F0F0"/>
<path id="Vector_205" d="M87.9499 93.2971H87.207V94.0899H87.9499V93.2971Z" fill="#F0F0F0"/>
<path id="Vector_206" d="M87.9499 94.626H87.207V95.4187H87.9499V94.626Z" fill="#F0F0F0"/>
<path id="Vector_207" d="M86.7703 80.0083H86.0273V80.8011H86.7703V80.0083Z" fill="#F0F0F0"/>
<path id="Vector_208" d="M86.7703 81.3372H86.0273V82.1299H86.7703V81.3372Z" fill="#F0F0F0"/>
<path id="Vector_209" d="M86.7703 82.666H86.0273V83.4588H86.7703V82.666Z" fill="#F0F0F0"/>
<path id="Vector_210" d="M86.7703 83.9946H86.0273V84.7874H86.7703V83.9946Z" fill="#F0F0F0"/>
<path id="Vector_211" d="M86.7703 85.324H86.0273V86.1168H86.7703V85.324Z" fill="#F0F0F0"/>
<path id="Vector_212" d="M86.7703 86.6526H86.0273V87.4454H86.7703V86.6526Z" fill="#F0F0F0"/>
<path id="Vector_213" d="M86.7703 87.9817H86.0273V88.7745H86.7703V87.9817Z" fill="#F0F0F0"/>
<path id="Vector_214" d="M85.5901 80.0083H84.8472V80.8011H85.5901V80.0083Z" fill="#F0F0F0"/>
<path id="Vector_215" d="M85.5901 81.3372H84.8472V82.1299H85.5901V81.3372Z" fill="#F0F0F0"/>
<path id="Vector_216" d="M85.5901 82.666H84.8472V83.4588H85.5901V82.666Z" fill="#F0F0F0"/>
<path id="Vector_217" d="M85.5901 83.9946H84.8472V84.7874H85.5901V83.9946Z" fill="#F0F0F0"/>
<path id="Vector_218" d="M85.5901 85.324H84.8472V86.1168H85.5901V85.324Z" fill="#F0F0F0"/>
<path id="Vector_219" d="M85.5901 86.6526H84.8472V87.4454H85.5901V86.6526Z" fill="#F0F0F0"/>
<path id="Vector_220" d="M85.5901 87.9817H84.8472V88.7745H85.5901V87.9817Z" fill="#F0F0F0"/>
<path id="Vector_221" d="M84.4104 80.0083H83.6675V80.8011H84.4104V80.0083Z" fill="#F0F0F0"/>
<path id="Vector_222" d="M84.4104 81.3372H83.6675V82.1299H84.4104V81.3372Z" fill="#F0F0F0"/>
<path id="Vector_223" d="M84.4104 82.666H83.6675V83.4588H84.4104V82.666Z" fill="#F0F0F0"/>
<path id="Vector_224" d="M84.4104 83.9946H83.6675V84.7874H84.4104V83.9946Z" fill="#F0F0F0"/>
<path id="Vector_225" d="M84.4104 85.324H83.6675V86.1168H84.4104V85.324Z" fill="#F0F0F0"/>
<path id="Vector_226" d="M84.4104 86.6526H83.6675V87.4454H84.4104V86.6526Z" fill="#F0F0F0"/>
<path id="Vector_227" d="M84.4104 87.9817H83.6675V88.7745H84.4104V87.9817Z" fill="#F0F0F0"/>
<path id="Vector_228" d="M84.4104 89.3103H83.6675V90.1031H84.4104V89.3103Z" fill="#F0F0F0"/>
<path id="Vector_229" d="M84.4104 90.6392H83.6675V91.4319H84.4104V90.6392Z" fill="#F0F0F0"/>
<path id="Vector_230" d="M84.4104 91.9683H83.6675V92.761H84.4104V91.9683Z" fill="#F0F0F0"/>
<path id="Vector_231" d="M84.4104 93.2971H83.6675V94.0899H84.4104V93.2971Z" fill="#F0F0F0"/>
<path id="Vector_232" d="M83.2307 80.0083H82.4878V80.8011H83.2307V80.0083Z" fill="#F0F0F0"/>
<path id="Vector_233" d="M83.2307 81.3372H82.4878V82.1299H83.2307V81.3372Z" fill="#F0F0F0"/>
<path id="Vector_234" d="M83.2307 82.666H82.4878V83.4588H83.2307V82.666Z" fill="#F0F0F0"/>
<path id="Vector_235" d="M83.2307 83.9946H82.4878V84.7874H83.2307V83.9946Z" fill="#F0F0F0"/>
<path id="Vector_236" d="M83.2307 85.324H82.4878V86.1168H83.2307V85.324Z" fill="#F0F0F0"/>
<path id="Vector_237" d="M83.2307 86.6526H82.4878V87.4454H83.2307V86.6526Z" fill="#F0F0F0"/>
<path id="Vector_238" d="M83.2307 87.9817H82.4878V88.7745H83.2307V87.9817Z" fill="#F0F0F0"/>
<path id="Vector_239" d="M83.2307 89.3103H82.4878V90.1031H83.2307V89.3103Z" fill="#F0F0F0"/>
<path id="Vector_240" d="M83.2307 90.6392H82.4878V91.4319H83.2307V90.6392Z" fill="#F0F0F0"/>
<path id="Vector_241" d="M83.2307 91.9683H82.4878V92.761H83.2307V91.9683Z" fill="#F0F0F0"/>
<path id="Vector_242" d="M83.2307 93.2971H82.4878V94.0899H83.2307V93.2971Z" fill="#F0F0F0"/>
<path id="Vector_243" d="M83.2307 94.626H82.4878V95.4187H83.2307V94.626Z" fill="#F0F0F0"/>
<path id="Vector_244" d="M83.2307 98.6128H82.4878V99.4056H83.2307V98.6128Z" fill="#F0F0F0"/>
<path id="Vector_245" d="M83.2307 99.9417H82.4878V100.734H83.2307V99.9417Z" fill="#F0F0F0"/>
<path id="Vector_246" d="M82.051 80.0083H81.3081V80.8011H82.051V80.0083Z" fill="#F0F0F0"/>
<path id="Vector_247" d="M82.051 81.3372H81.3081V82.1299H82.051V81.3372Z" fill="#F0F0F0"/>
<path id="Vector_248" d="M82.051 82.666H81.3081V83.4588H82.051V82.666Z" fill="#F0F0F0"/>
<path id="Vector_249" d="M82.051 86.6526H81.3081V87.4454H82.051V86.6526Z" fill="#F0F0F0"/>
<path id="Vector_250" d="M82.051 87.9817H81.3081V88.7745H82.051V87.9817Z" fill="#F0F0F0"/>
<path id="Vector_251" d="M82.051 89.3103H81.3081V90.1031H82.051V89.3103Z" fill="#F0F0F0"/>
<path id="Vector_252" d="M82.051 90.6392H81.3081V91.4319H82.051V90.6392Z" fill="#F0F0F0"/>
<path id="Vector_253" d="M82.051 91.9683H81.3081V92.761H82.051V91.9683Z" fill="#F0F0F0"/>
<path id="Vector_254" d="M82.051 93.2971H81.3081V94.0899H82.051V93.2971Z" fill="#F0F0F0"/>
<path id="Vector_255" d="M82.051 94.626H81.3081V95.4187H82.051V94.626Z" fill="#F0F0F0"/>
<path id="Vector_256" d="M82.051 98.6128H81.3081V99.4056H82.051V98.6128Z" fill="#F0F0F0"/>
<path id="Vector_257" d="M82.051 99.9417H81.3081V100.734H82.051V99.9417Z" fill="#F0F0F0"/>
<path id="Vector_258" d="M82.051 101.271H81.3081V102.064H82.051V101.271Z" fill="#F0F0F0"/>
<path id="Vector_259" d="M69.6848 72.0347H68.9419V72.8274H69.6848V72.0347Z" fill="#F0F0F0"/>
<path id="Vector_260" d="M69.6848 73.3635H68.9419V74.1563H69.6848V73.3635Z" fill="#F0F0F0"/>
<path id="Vector_261" d="M69.6848 74.6926H68.9419V75.4854H69.6848V74.6926Z" fill="#F0F0F0"/>
<path id="Vector_262" d="M69.6848 76.0215H68.9419V76.8143H69.6848V76.0215Z" fill="#F0F0F0"/>
<path id="Vector_263" d="M69.6848 77.3503H68.9419V78.1431H69.6848V77.3503Z" fill="#F0F0F0"/>
<path id="Vector_264" d="M69.6848 78.6792H68.9419V79.472H69.6848V78.6792Z" fill="#F0F0F0"/>
<path id="Vector_265" d="M69.6848 80.0083H68.9419V80.8011H69.6848V80.0083Z" fill="#F0F0F0"/>
<path id="Vector_266" d="M69.6848 81.3372H68.9419V82.1299H69.6848V81.3372Z" fill="#F0F0F0"/>
<path id="Vector_267" d="M69.6848 82.666H68.9419V83.4588H69.6848V82.666Z" fill="#F0F0F0"/>
<path id="Vector_268" d="M69.6848 83.9946H68.9419V84.7874H69.6848V83.9946Z" fill="#F0F0F0"/>
<path id="Vector_269" d="M69.6848 85.324H68.9419V86.1168H69.6848V85.324Z" fill="#F0F0F0"/>
<path id="Vector_270" d="M69.6848 86.6526H68.9419V87.4454H69.6848V86.6526Z" fill="#F0F0F0"/>
<path id="Vector_271" d="M69.6848 87.9817H68.9419V88.7745H69.6848V87.9817Z" fill="#F0F0F0"/>
<path id="Vector_272" d="M69.6848 89.3103H68.9419V90.1031H69.6848V89.3103Z" fill="#F0F0F0"/>
<path id="Vector_273" d="M69.6848 90.6392H68.9419V91.4319H69.6848V90.6392Z" fill="#F0F0F0"/>
<path id="Vector_274" d="M69.6848 91.9683H68.9419V92.761H69.6848V91.9683Z" fill="#F0F0F0"/>
<path id="Vector_275" d="M69.6848 93.2971H68.9419V94.0899H69.6848V93.2971Z" fill="#F0F0F0"/>
<path id="Vector_276" d="M69.6848 94.626H68.9419V95.4187H69.6848V94.626Z" fill="#F0F0F0"/>
<path id="Vector_277" d="M69.6848 95.9548H68.9419V96.7476H69.6848V95.9548Z" fill="#F0F0F0"/>
<path id="Vector_278" d="M69.6848 97.2839H68.9419V98.0767H69.6848V97.2839Z" fill="#F0F0F0"/>
<path id="Vector_279" d="M69.6848 98.6128H68.9419V99.4056H69.6848V98.6128Z" fill="#F0F0F0"/>
<path id="Vector_280" d="M69.6848 99.9417H68.9419V100.734H69.6848V99.9417Z" fill="#F0F0F0"/>
<path id="Vector_281" d="M69.6848 101.271H68.9419V102.064H69.6848V101.271Z" fill="#F0F0F0"/>
<path id="Vector_282" d="M68.5051 72.0347H67.7622V72.8274H68.5051V72.0347Z" fill="#F0F0F0"/>
<path id="Vector_283" d="M68.5051 73.3635H67.7622V74.1563H68.5051V73.3635Z" fill="#F0F0F0"/>
<path id="Vector_284" d="M68.5051 74.6926H67.7622V75.4854H68.5051V74.6926Z" fill="#F0F0F0"/>
<path id="Vector_285" d="M68.5051 76.0215H67.7622V76.8143H68.5051V76.0215Z" fill="#F0F0F0"/>
<path id="Vector_286" d="M68.5051 77.3503H67.7622V78.1431H68.5051V77.3503Z" fill="#F0F0F0"/>
<path id="Vector_287" d="M68.5051 78.6792H67.7622V79.472H68.5051V78.6792Z" fill="#F0F0F0"/>
<path id="Vector_288" d="M68.5051 80.0083H67.7622V80.8011H68.5051V80.0083Z" fill="#F0F0F0"/>
<path id="Vector_289" d="M68.5051 81.3372H67.7622V82.1299H68.5051V81.3372Z" fill="#F0F0F0"/>
<path id="Vector_290" d="M68.5051 82.666H67.7622V83.4588H68.5051V82.666Z" fill="#F0F0F0"/>
<path id="Vector_291" d="M68.5051 83.9946H67.7622V84.7874H68.5051V83.9946Z" fill="#F0F0F0"/>
<path id="Vector_292" d="M68.5051 85.324H67.7622V86.1168H68.5051V85.324Z" fill="#F0F0F0"/>
<path id="Vector_293" d="M68.5051 86.6526H67.7622V87.4454H68.5051V86.6526Z" fill="#F0F0F0"/>
<path id="Vector_294" d="M68.5051 87.9817H67.7622V88.7745H68.5051V87.9817Z" fill="#F0F0F0"/>
<path id="Vector_295" d="M68.5051 89.3103H67.7622V90.1031H68.5051V89.3103Z" fill="#F0F0F0"/>
<path id="Vector_296" d="M68.5051 90.6392H67.7622V91.4319H68.5051V90.6392Z" fill="#F0F0F0"/>
<path id="Vector_297" d="M68.5051 91.9683H67.7622V92.761H68.5051V91.9683Z" fill="#F0F0F0"/>
<path id="Vector_298" d="M68.5051 93.2971H67.7622V94.0899H68.5051V93.2971Z" fill="#F0F0F0"/>
<path id="Vector_299" d="M68.5051 94.626H67.7622V95.4187H68.5051V94.626Z" fill="#F0F0F0"/>
<path id="Vector_300" d="M68.5051 95.9548H67.7622V96.7476H68.5051V95.9548Z" fill="#F0F0F0"/>
<path id="Vector_301" d="M67.3254 72.0347H66.5825V72.8274H67.3254V72.0347Z" fill="#F0F0F0"/>
<path id="Vector_302" d="M67.3254 73.3635H66.5825V74.1563H67.3254V73.3635Z" fill="#F0F0F0"/>
<path id="Vector_303" d="M67.3254 74.6926H66.5825V75.4854H67.3254V74.6926Z" fill="#F0F0F0"/>
<path id="Vector_304" d="M67.3254 76.0215H66.5825V76.8143H67.3254V76.0215Z" fill="#F0F0F0"/>
<path id="Vector_305" d="M67.3254 77.3503H66.5825V78.1431H67.3254V77.3503Z" fill="#F0F0F0"/>
<path id="Vector_306" d="M67.3254 78.6792H66.5825V79.472H67.3254V78.6792Z" fill="#F0F0F0"/>
<path id="Vector_307" d="M67.3254 80.0083H66.5825V80.8011H67.3254V80.0083Z" fill="#F0F0F0"/>
<path id="Vector_308" d="M67.3254 81.3372H66.5825V82.1299H67.3254V81.3372Z" fill="#F0F0F0"/>
<path id="Vector_309" d="M67.3254 82.666H66.5825V83.4588H67.3254V82.666Z" fill="#F0F0F0"/>
<path id="Vector_310" d="M67.3254 83.9946H66.5825V84.7874H67.3254V83.9946Z" fill="#F0F0F0"/>
<path id="Vector_311" d="M67.3254 85.324H66.5825V86.1168H67.3254V85.324Z" fill="#F0F0F0"/>
<path id="Vector_312" d="M67.3254 86.6526H66.5825V87.4454H67.3254V86.6526Z" fill="#F0F0F0"/>
<path id="Vector_313" d="M67.3254 87.9817H66.5825V88.7745H67.3254V87.9817Z" fill="#F0F0F0"/>
<path id="Vector_314" d="M67.3254 89.3103H66.5825V90.1031H67.3254V89.3103Z" fill="#F0F0F0"/>
<path id="Vector_315" d="M67.3254 90.6392H66.5825V91.4319H67.3254V90.6392Z" fill="#F0F0F0"/>
<path id="Vector_316" d="M67.3254 91.9683H66.5825V92.761H67.3254V91.9683Z" fill="#F0F0F0"/>
<path id="Vector_317" d="M67.3254 93.2971H66.5825V94.0899H67.3254V93.2971Z" fill="#F0F0F0"/>
<path id="Vector_318" d="M67.3254 94.626H66.5825V95.4187H67.3254V94.626Z" fill="#F0F0F0"/>
<path id="Vector_319" d="M67.3254 95.9548H66.5825V96.7476H67.3254V95.9548Z" fill="#F0F0F0"/>
<path id="Vector_320" d="M66.1453 72.0347H65.4023V72.8274H66.1453V72.0347Z" fill="#F0F0F0"/>
<path id="Vector_321" d="M66.1453 73.3635H65.4023V74.1563H66.1453V73.3635Z" fill="#F0F0F0"/>
<path id="Vector_322" d="M66.1453 74.6926H65.4023V75.4854H66.1453V74.6926Z" fill="#F0F0F0"/>
<path id="Vector_323" d="M66.1453 76.0215H65.4023V76.8143H66.1453V76.0215Z" fill="#F0F0F0"/>
<path id="Vector_324" d="M66.1453 77.3503H65.4023V78.1431H66.1453V77.3503Z" fill="#F0F0F0"/>
<path id="Vector_325" d="M66.1453 78.6792H65.4023V79.472H66.1453V78.6792Z" fill="#F0F0F0"/>
<path id="Vector_326" d="M66.1453 80.0083H65.4023V80.8011H66.1453V80.0083Z" fill="#F0F0F0"/>
<path id="Vector_327" d="M66.1453 81.3372H65.4023V82.1299H66.1453V81.3372Z" fill="#F0F0F0"/>
<path id="Vector_328" d="M66.1453 82.666H65.4023V83.4588H66.1453V82.666Z" fill="#F0F0F0"/>
<path id="Vector_329" d="M66.1453 83.9946H65.4023V84.7874H66.1453V83.9946Z" fill="#F0F0F0"/>
<path id="Vector_330" d="M66.1453 85.324H65.4023V86.1168H66.1453V85.324Z" fill="#F0F0F0"/>
<path id="Vector_331" d="M66.1453 86.6526H65.4023V87.4454H66.1453V86.6526Z" fill="#F0F0F0"/>
<path id="Vector_332" d="M66.1453 87.9817H65.4023V88.7745H66.1453V87.9817Z" fill="#F0F0F0"/>
<path id="Vector_333" d="M66.1453 89.3103H65.4023V90.1031H66.1453V89.3103Z" fill="#F0F0F0"/>
<path id="Vector_334" d="M66.1453 90.6392H65.4023V91.4319H66.1453V90.6392Z" fill="#F0F0F0"/>
<path id="Vector_335" d="M64.9656 72.0347H64.2227V72.8274H64.9656V72.0347Z" fill="#F0F0F0"/>
<path id="Vector_336" d="M64.9656 73.3635H64.2227V74.1563H64.9656V73.3635Z" fill="#F0F0F0"/>
<path id="Vector_337" d="M64.9656 74.6926H64.2227V75.4854H64.9656V74.6926Z" fill="#F0F0F0"/>
<path id="Vector_338" d="M64.9656 76.0215H64.2227V76.8143H64.9656V76.0215Z" fill="#F0F0F0"/>
<path id="Vector_339" d="M64.9656 77.3503H64.2227V78.1431H64.9656V77.3503Z" fill="#F0F0F0"/>
<path id="Vector_340" d="M64.9656 78.6792H64.2227V79.472H64.9656V78.6792Z" fill="#F0F0F0"/>
<path id="Vector_341" d="M64.9656 80.0083H64.2227V80.8011H64.9656V80.0083Z" fill="#F0F0F0"/>
<path id="Vector_342" d="M64.9656 81.3372H64.2227V82.1299H64.9656V81.3372Z" fill="#F0F0F0"/>
<path id="Vector_343" d="M64.9656 82.666H64.2227V83.4588H64.9656V82.666Z" fill="#F0F0F0"/>
<path id="Vector_344" d="M64.9656 83.9946H64.2227V84.7874H64.9656V83.9946Z" fill="#F0F0F0"/>
<path id="Vector_345" d="M64.9656 85.324H64.2227V86.1168H64.9656V85.324Z" fill="#F0F0F0"/>
<path id="Vector_346" d="M64.9656 86.6526H64.2227V87.4454H64.9656V86.6526Z" fill="#F0F0F0"/>
<path id="Vector_347" d="M64.9656 87.9817H64.2227V88.7745H64.9656V87.9817Z" fill="#F0F0F0"/>
<path id="Vector_348" d="M63.7859 72.0347H63.043V72.8274H63.7859V72.0347Z" fill="#F0F0F0"/>
<path id="Vector_349" d="M63.7859 73.3635H63.043V74.1563H63.7859V73.3635Z" fill="#F0F0F0"/>
<path id="Vector_350" d="M63.7859 74.6926H63.043V75.4854H63.7859V74.6926Z" fill="#F0F0F0"/>
<path id="Vector_351" d="M63.7859 76.0215H63.043V76.8143H63.7859V76.0215Z" fill="#F0F0F0"/>
<path id="Vector_352" d="M63.7859 77.3503H63.043V78.1431H63.7859V77.3503Z" fill="#F0F0F0"/>
<path id="Vector_353" d="M63.7859 78.6792H63.043V79.472H63.7859V78.6792Z" fill="#F0F0F0"/>
<path id="Vector_354" d="M63.7859 80.0083H63.043V80.8011H63.7859V80.0083Z" fill="#F0F0F0"/>
<path id="Vector_355" d="M63.7859 81.3372H63.043V82.1299H63.7859V81.3372Z" fill="#F0F0F0"/>
<path id="Vector_356" d="M63.7859 82.666H63.043V83.4588H63.7859V82.666Z" fill="#F0F0F0"/>
<path id="Vector_357" d="M63.7859 83.9946H63.043V84.7874H63.7859V83.9946Z" fill="#F0F0F0"/>
<path id="Vector_358" d="M63.7859 85.324H63.043V86.1168H63.7859V85.324Z" fill="#F0F0F0"/>
<path id="Vector_359" d="M63.7859 86.6526H63.043V87.4454H63.7859V86.6526Z" fill="#F0F0F0"/>
<path id="Vector_360" d="M132.651 71.6382H131.908V72.431H132.651V71.6382Z" fill="#F0F0F0"/>
<path id="Vector_361" d="M132.651 72.967H131.908V73.7598H132.651V72.967Z" fill="#F0F0F0"/>
<path id="Vector_362" d="M132.651 74.2959H131.908V75.0887H132.651V74.2959Z" fill="#F0F0F0"/>
<path id="Vector_363" d="M132.651 75.625H131.908V76.4178H132.651V75.625Z" fill="#F0F0F0"/>
<path id="Vector_364" d="M132.651 76.9539H131.908V77.7466H132.651V76.9539Z" fill="#F0F0F0"/>
<path id="Vector_365" d="M132.651 78.2827H131.908V79.0755H132.651V78.2827Z" fill="#F0F0F0"/>
<path id="Vector_366" d="M132.651 79.6116H131.908V80.4043H132.651V79.6116Z" fill="#F0F0F0"/>
<path id="Vector_367" d="M132.651 80.9407H131.908V81.7335H132.651V80.9407Z" fill="#F0F0F0"/>
<path id="Vector_368" d="M132.651 82.2695H131.908V83.0623H132.651V82.2695Z" fill="#F0F0F0"/>
<path id="Vector_369" d="M132.651 83.5984H131.908V84.3912H132.651V83.5984Z" fill="#F0F0F0"/>
<path id="Vector_370" d="M132.651 84.9272H131.908V85.72H132.651V84.9272Z" fill="#F0F0F0"/>
<path id="Vector_371" d="M132.651 86.2563H131.908V87.0491H132.651V86.2563Z" fill="#F0F0F0"/>
<path id="Vector_372" d="M132.651 87.5852H131.908V88.378H132.651V87.5852Z" fill="#F0F0F0"/>
<path id="Vector_373" d="M132.651 88.9141H131.908V89.7068H132.651V88.9141Z" fill="#F0F0F0"/>
<path id="Vector_374" d="M132.651 90.2429H131.908V91.0357H132.651V90.2429Z" fill="#F0F0F0"/>
<path id="Vector_375" d="M132.651 91.572H131.908V92.3648H132.651V91.572Z" fill="#F0F0F0"/>
<path id="Vector_376" d="M132.651 92.9009H131.908V93.6937H132.651V92.9009Z" fill="#F0F0F0"/>
<path id="Vector_377" d="M132.651 95.5588H131.908V96.3516H132.651V95.5588Z" fill="#F0F0F0"/>
<path id="Vector_378" d="M132.651 96.8877H131.908V97.6805H132.651V96.8877Z" fill="#F0F0F0"/>
<path id="Vector_379" d="M132.651 98.2166H131.908V99.0093H132.651V98.2166Z" fill="#F0F0F0"/>
<path id="Vector_380" d="M132.651 99.5454H131.908V100.338H132.651V99.5454Z" fill="#F0F0F0"/>
<path id="Vector_381" d="M132.651 100.875H131.908V101.667H132.651V100.875Z" fill="#F0F0F0"/>
<path id="Vector_382" d="M131.471 71.6382H130.728V72.431H131.471V71.6382Z" fill="#F0F0F0"/>
<path id="Vector_383" d="M131.471 72.967H130.728V73.7598H131.471V72.967Z" fill="#F0F0F0"/>
<path id="Vector_384" d="M131.471 74.2959H130.728V75.0887H131.471V74.2959Z" fill="#F0F0F0"/>
<path id="Vector_385" d="M131.471 75.625H130.728V76.4178H131.471V75.625Z" fill="#F0F0F0"/>
<path id="Vector_386" d="M131.471 76.9539H130.728V77.7466H131.471V76.9539Z" fill="#F0F0F0"/>
<path id="Vector_387" d="M131.471 78.2827H130.728V79.0755H131.471V78.2827Z" fill="#F0F0F0"/>
<path id="Vector_388" d="M131.471 79.6116H130.728V80.4043H131.471V79.6116Z" fill="#F0F0F0"/>
<path id="Vector_389" d="M131.471 80.9407H130.728V81.7335H131.471V80.9407Z" fill="#F0F0F0"/>
<path id="Vector_390" d="M131.471 82.2695H130.728V83.0623H131.471V82.2695Z" fill="#F0F0F0"/>
<path id="Vector_391" d="M131.471 83.5984H130.728V84.3912H131.471V83.5984Z" fill="#F0F0F0"/>
<path id="Vector_392" d="M131.471 84.9272H130.728V85.72H131.471V84.9272Z" fill="#F0F0F0"/>
<path id="Vector_393" d="M131.471 86.2563H130.728V87.0491H131.471V86.2563Z" fill="#F0F0F0"/>
<path id="Vector_394" d="M131.471 87.5852H130.728V88.378H131.471V87.5852Z" fill="#F0F0F0"/>
<path id="Vector_395" d="M131.471 88.9141H130.728V89.7068H131.471V88.9141Z" fill="#F0F0F0"/>
<path id="Vector_396" d="M131.471 90.2429H130.728V91.0357H131.471V90.2429Z" fill="#F0F0F0"/>
<path id="Vector_397" d="M131.471 91.572H130.728V92.3648H131.471V91.572Z" fill="#F0F0F0"/>
<path id="Vector_398" d="M131.471 99.5454H130.728V100.338H131.471V99.5454Z" fill="#F0F0F0"/>
<path id="Vector_399" d="M131.471 100.875H130.728V101.667H131.471V100.875Z" fill="#F0F0F0"/>
<path id="Vector_400" d="M130.291 71.6382H129.548V72.431H130.291V71.6382Z" fill="#F0F0F0"/>
<path id="Vector_401" d="M130.291 72.967H129.548V73.7598H130.291V72.967Z" fill="#F0F0F0"/>
<path id="Vector_402" d="M130.291 74.2959H129.548V75.0887H130.291V74.2959Z" fill="#F0F0F0"/>
<path id="Vector_403" d="M130.291 75.625H129.548V76.4178H130.291V75.625Z" fill="#F0F0F0"/>
<path id="Vector_404" d="M130.291 76.9539H129.548V77.7466H130.291V76.9539Z" fill="#F0F0F0"/>
<path id="Vector_405" d="M130.291 78.2827H129.548V79.0755H130.291V78.2827Z" fill="#F0F0F0"/>
<path id="Vector_406" d="M130.291 79.6116H129.548V80.4043H130.291V79.6116Z" fill="#F0F0F0"/>
<path id="Vector_407" d="M130.291 80.9407H129.548V81.7335H130.291V80.9407Z" fill="#F0F0F0"/>
<path id="Vector_408" d="M130.291 82.2695H129.548V83.0623H130.291V82.2695Z" fill="#F0F0F0"/>
<path id="Vector_409" d="M130.291 83.5984H129.548V84.3912H130.291V83.5984Z" fill="#F0F0F0"/>
<path id="Vector_410" d="M130.291 84.9272H129.548V85.72H130.291V84.9272Z" fill="#F0F0F0"/>
<path id="Vector_411" d="M130.291 86.2563H129.548V87.0491H130.291V86.2563Z" fill="#F0F0F0"/>
<path id="Vector_412" d="M130.291 87.5852H129.548V88.378H130.291V87.5852Z" fill="#F0F0F0"/>
<path id="Vector_413" d="M130.291 88.9141H129.548V89.7068H130.291V88.9141Z" fill="#F0F0F0"/>
<path id="Vector_414" d="M130.291 90.2429H129.548V91.0357H130.291V90.2429Z" fill="#F0F0F0"/>
<path id="Vector_415" d="M130.291 91.572H129.548V92.3648H130.291V91.572Z" fill="#F0F0F0"/>
<path id="Vector_416" d="M130.291 94.2297H129.548V95.0225H130.291V94.2297Z" fill="#F0F0F0"/>
<path id="Vector_417" d="M130.291 95.5588H129.548V96.3516H130.291V95.5588Z" fill="#F0F0F0"/>
<path id="Vector_418" d="M130.291 96.8877H129.548V97.6805H130.291V96.8877Z" fill="#F0F0F0"/>
<path id="Vector_419" d="M130.291 98.2166H129.548V99.0093H130.291V98.2166Z" fill="#F0F0F0"/>
<path id="Vector_420" d="M130.291 100.875H129.548V101.667H130.291V100.875Z" fill="#F0F0F0"/>
<path id="Vector_421" d="M109.71 80.9407H108.967V81.7335H109.71V80.9407Z" fill="#F0F0F0"/>
<path id="Vector_422" d="M109.71 82.2695H108.967V83.0623H109.71V82.2695Z" fill="#F0F0F0"/>
<path id="Vector_423" d="M109.71 83.5984H108.967V84.3912H109.71V83.5984Z" fill="#F0F0F0"/>
<path id="Vector_424" d="M109.71 84.9272H108.967V85.72H109.71V84.9272Z" fill="#F0F0F0"/>
<path id="Vector_425" d="M109.71 86.2563H108.967V87.0491H109.71V86.2563Z" fill="#F0F0F0"/>
<path id="Vector_426" d="M109.71 87.5852H108.967V88.378H109.71V87.5852Z" fill="#F0F0F0"/>
<path id="Vector_427" d="M109.71 88.9141H108.967V89.7068H109.71V88.9141Z" fill="#F0F0F0"/>
<path id="Vector_428" d="M109.71 90.2429H108.967V91.0357H109.71V90.2429Z" fill="#F0F0F0"/>
<path id="Vector_429" d="M109.71 91.572H108.967V92.3648H109.71V91.572Z" fill="#F0F0F0"/>
<path id="Vector_430" d="M109.71 92.9009H108.967V93.6937H109.71V92.9009Z" fill="#F0F0F0"/>
<path id="Vector_431" d="M109.71 94.2297H108.967V95.0225H109.71V94.2297Z" fill="#F0F0F0"/>
<path id="Vector_432" d="M109.71 95.5588H108.967V96.3516H109.71V95.5588Z" fill="#F0F0F0"/>
<path id="Vector_433" d="M109.71 96.8877H108.967V97.6805H109.71V96.8877Z" fill="#F0F0F0"/>
<path id="Vector_434" d="M109.71 99.5454H108.967V100.338H109.71V99.5454Z" fill="#F0F0F0"/>
<path id="Vector_435" d="M109.71 100.875H108.967V101.667H109.71V100.875Z" fill="#F0F0F0"/>
<path id="Vector_436" d="M109.71 102.203H108.967V102.996H109.71V102.203Z" fill="#F0F0F0"/>
<path id="Vector_437" d="M109.71 103.532H108.967V104.325H109.71V103.532Z" fill="#F0F0F0"/>
<path id="Vector_438" d="M109.71 106.19H108.967V106.983H109.71V106.19Z" fill="#F0F0F0"/>
<path id="Vector_439" d="M109.71 107.519H108.967V108.312H109.71V107.519Z" fill="#F0F0F0"/>
<path id="Vector_440" d="M109.71 108.848H108.967V109.641H109.71V108.848Z" fill="#F0F0F0"/>
<path id="Vector_441" d="M108.531 80.9407H107.788V81.7335H108.531V80.9407Z" fill="#F0F0F0"/>
<path id="Vector_442" d="M108.531 82.2695H107.788V83.0623H108.531V82.2695Z" fill="#F0F0F0"/>
<path id="Vector_443" d="M108.531 83.5984H107.788V84.3912H108.531V83.5984Z" fill="#F0F0F0"/>
<path id="Vector_444" d="M108.531 84.9272H107.788V85.72H108.531V84.9272Z" fill="#F0F0F0"/>
<path id="Vector_445" d="M108.531 86.2563H107.788V87.0491H108.531V86.2563Z" fill="#F0F0F0"/>
<path id="Vector_446" d="M108.531 87.5852H107.788V88.378H108.531V87.5852Z" fill="#F0F0F0"/>
<path id="Vector_447" d="M108.531 88.9141H107.788V89.7068H108.531V88.9141Z" fill="#F0F0F0"/>
<path id="Vector_448" d="M108.531 90.2429H107.788V91.0357H108.531V90.2429Z" fill="#F0F0F0"/>
<path id="Vector_449" d="M108.531 91.572H107.788V92.3648H108.531V91.572Z" fill="#F0F0F0"/>
<path id="Vector_450" d="M108.531 92.9009H107.788V93.6937H108.531V92.9009Z" fill="#F0F0F0"/>
<path id="Vector_451" d="M108.531 94.2297H107.788V95.0225H108.531V94.2297Z" fill="#F0F0F0"/>
<path id="Vector_452" d="M108.531 95.5588H107.788V96.3516H108.531V95.5588Z" fill="#F0F0F0"/>
<path id="Vector_453" d="M108.531 96.8877H107.788V97.6805H108.531V96.8877Z" fill="#F0F0F0"/>
<path id="Vector_454" d="M108.531 100.875H107.788V101.667H108.531V100.875Z" fill="#F0F0F0"/>
<path id="Vector_455" d="M108.531 102.203H107.788V102.996H108.531V102.203Z" fill="#F0F0F0"/>
<path id="Vector_456" d="M108.531 104.861H107.788V105.654H108.531V104.861Z" fill="#F0F0F0"/>
<path id="Vector_457" d="M108.531 106.19H107.788V106.983H108.531V106.19Z" fill="#F0F0F0"/>
<path id="Vector_458" d="M108.531 107.519H107.788V108.312H108.531V107.519Z" fill="#F0F0F0"/>
<path id="Vector_459" d="M108.531 108.848H107.788V109.641H108.531V108.848Z" fill="#F0F0F0"/>
<path id="Vector_460" d="M107.351 80.9407H106.608V81.7335H107.351V80.9407Z" fill="#F0F0F0"/>
<path id="Vector_461" d="M107.351 82.2695H106.608V83.0623H107.351V82.2695Z" fill="#F0F0F0"/>
<path id="Vector_462" d="M107.351 83.5984H106.608V84.3912H107.351V83.5984Z" fill="#F0F0F0"/>
<path id="Vector_463" d="M107.351 84.9272H106.608V85.72H107.351V84.9272Z" fill="#F0F0F0"/>
<path id="Vector_464" d="M107.351 86.2563H106.608V87.0491H107.351V86.2563Z" fill="#F0F0F0"/>
<path id="Vector_465" d="M107.351 87.5852H106.608V88.378H107.351V87.5852Z" fill="#F0F0F0"/>
<path id="Vector_466" d="M107.351 88.9141H106.608V89.7068H107.351V88.9141Z" fill="#F0F0F0"/>
<path id="Vector_467" d="M107.351 90.2429H106.608V91.0357H107.351V90.2429Z" fill="#F0F0F0"/>
<path id="Vector_468" d="M107.351 91.572H106.608V92.3648H107.351V91.572Z" fill="#F0F0F0"/>
<path id="Vector_469" d="M107.351 92.9009H106.608V93.6937H107.351V92.9009Z" fill="#F0F0F0"/>
<path id="Vector_470" d="M107.351 94.2297H106.608V95.0225H107.351V94.2297Z" fill="#F0F0F0"/>
<path id="Vector_471" d="M107.351 95.5588H106.608V96.3516H107.351V95.5588Z" fill="#F0F0F0"/>
<path id="Vector_472" d="M107.351 96.8877H106.608V97.6805H107.351V96.8877Z" fill="#F0F0F0"/>
<path id="Vector_473" d="M107.351 98.2166H106.608V99.0093H107.351V98.2166Z" fill="#F0F0F0"/>
<path id="Vector_474" d="M107.351 100.875H106.608V101.667H107.351V100.875Z" fill="#F0F0F0"/>
<path id="Vector_475" d="M107.351 103.532H106.608V104.325H107.351V103.532Z" fill="#F0F0F0"/>
<path id="Vector_476" d="M107.351 104.861H106.608V105.654H107.351V104.861Z" fill="#F0F0F0"/>
<path id="Vector_477" d="M107.351 106.19H106.608V106.983H107.351V106.19Z" fill="#F0F0F0"/>
<path id="Vector_478" d="M107.351 107.519H106.608V108.312H107.351V107.519Z" fill="#F0F0F0"/>
<path id="Vector_479" d="M107.351 108.848H106.608V109.641H107.351V108.848Z" fill="#F0F0F0"/>
<path id="Vector_480" d="M114.517 88.5178H113.774V89.3106H114.517V88.5178Z" fill="#F0F0F0"/>
<path id="Vector_481" d="M114.517 89.8469H113.774V90.6397H114.517V89.8469Z" fill="#F0F0F0"/>
<path id="Vector_482" d="M114.517 91.1758H113.774V91.9686H114.517V91.1758Z" fill="#F0F0F0"/>
<path id="Vector_483" d="M114.517 92.5046H113.774V93.2974H114.517V92.5046Z" fill="#F0F0F0"/>
<path id="Vector_484" d="M114.517 93.8335H113.774V94.6263H114.517V93.8335Z" fill="#F0F0F0"/>
<path id="Vector_485" d="M114.517 95.1626H113.774V95.9554H114.517V95.1626Z" fill="#F0F0F0"/>
<path id="Vector_486" d="M114.517 99.1492H113.774V99.9419H114.517V99.1492Z" fill="#F0F0F0"/>
<path id="Vector_487" d="M114.517 100.478H113.774V101.271H114.517V100.478Z" fill="#F0F0F0"/>
<path id="Vector_488" d="M114.517 101.807H113.774V102.6H114.517V101.807Z" fill="#F0F0F0"/>
<path id="Vector_489" d="M114.517 103.136H113.774V103.929H114.517V103.136Z" fill="#F0F0F0"/>
<path id="Vector_490" d="M114.517 104.465H113.774V105.257H114.517V104.465Z" fill="#F0F0F0"/>
<path id="Vector_491" d="M114.517 105.793H113.774V106.586H114.517V105.793Z" fill="#F0F0F0"/>
<path id="Vector_492" d="M114.517 107.123H113.774V107.915H114.517V107.123Z" fill="#F0F0F0"/>
<path id="Vector_493" d="M113.337 88.5178H112.594V89.3106H113.337V88.5178Z" fill="#F0F0F0"/>
<path id="Vector_494" d="M113.337 89.8469H112.594V90.6397H113.337V89.8469Z" fill="#F0F0F0"/>
<path id="Vector_495" d="M113.337 91.1758H112.594V91.9686H113.337V91.1758Z" fill="#F0F0F0"/>
<path id="Vector_496" d="M113.337 92.5046H112.594V93.2974H113.337V92.5046Z" fill="#F0F0F0"/>
<path id="Vector_497" d="M113.337 93.8335H112.594V94.6263H113.337V93.8335Z" fill="#F0F0F0"/>
<path id="Vector_498" d="M113.337 95.1626H112.594V95.9554H113.337V95.1626Z" fill="#F0F0F0"/>
<path id="Vector_499" d="M113.337 99.1492H112.594V99.9419H113.337V99.1492Z" fill="#F0F0F0"/>
<path id="Vector_500" d="M113.337 100.478H112.594V101.271H113.337V100.478Z" fill="#F0F0F0"/>
<path id="Vector_501" d="M113.337 101.807H112.594V102.6H113.337V101.807Z" fill="#F0F0F0"/>
<path id="Vector_502" d="M113.337 103.136H112.594V103.929H113.337V103.136Z" fill="#F0F0F0"/>
<path id="Vector_503" d="M113.337 104.465H112.594V105.257H113.337V104.465Z" fill="#F0F0F0"/>
<path id="Vector_504" d="M113.337 105.793H112.594V106.586H113.337V105.793Z" fill="#F0F0F0"/>
<path id="Vector_505" d="M113.337 108.451H112.594V109.244H113.337V108.451Z" fill="#F0F0F0"/>
<path id="Vector_506" d="M74.1418 82.666H73.3989V83.4588H74.1418V82.666Z" fill="#F0F0F0"/>
<path id="Vector_507" d="M74.1418 83.9946H73.3989V84.7874H74.1418V83.9946Z" fill="#F0F0F0"/>
<path id="Vector_508" d="M74.1418 85.324H73.3989V86.1168H74.1418V85.324Z" fill="#F0F0F0"/>
<path id="Vector_509" d="M74.1418 86.6526H73.3989V87.4454H74.1418V86.6526Z" fill="#F0F0F0"/>
<path id="Vector_510" d="M74.1418 87.9817H73.3989V88.7745H74.1418V87.9817Z" fill="#F0F0F0"/>
<path id="Vector_511" d="M74.1418 89.3103H73.3989V90.1031H74.1418V89.3103Z" fill="#F0F0F0"/>
<path id="Vector_512" d="M74.1418 90.6392H73.3989V91.4319H74.1418V90.6392Z" fill="#F0F0F0"/>
<path id="Vector_513" d="M74.1418 91.9683H73.3989V92.761H74.1418V91.9683Z" fill="#F0F0F0"/>
<path id="Vector_514" d="M74.1418 93.2971H73.3989V94.0899H74.1418V93.2971Z" fill="#F0F0F0"/>
<path id="Vector_515" d="M74.1418 94.626H73.3989V95.4187H74.1418V94.626Z" fill="#F0F0F0"/>
<path id="Vector_516" d="M74.1418 95.9548H73.3989V96.7476H74.1418V95.9548Z" fill="#F0F0F0"/>
<path id="Vector_517" d="M74.1418 98.6128H73.3989V99.4056H74.1418V98.6128Z" fill="#F0F0F0"/>
<path id="Vector_518" d="M74.1418 99.9417H73.3989V100.734H74.1418V99.9417Z" fill="#F0F0F0"/>
<path id="Vector_519" d="M74.1418 101.271H73.3989V102.064H74.1418V101.271Z" fill="#F0F0F0"/>
<path id="Vector_520" d="M74.1418 102.6H73.3989V103.392H74.1418V102.6Z" fill="#F0F0F0"/>
<path id="Vector_521" d="M74.1418 103.928H73.3989V104.721H74.1418V103.928Z" fill="#F0F0F0"/>
<path id="Vector_522" d="M74.1418 105.257H73.3989V106.05H74.1418V105.257Z" fill="#F0F0F0"/>
<path id="Vector_523" d="M74.1418 106.586H73.3989V107.379H74.1418V106.586Z" fill="#F0F0F0"/>
<path id="Vector_524" d="M74.1418 107.915H73.3989V108.708H74.1418V107.915Z" fill="#F0F0F0"/>
<path id="Vector_525" d="M72.9622 82.666H72.2192V83.4588H72.9622V82.666Z" fill="#F0F0F0"/>
<path id="Vector_526" d="M72.9622 83.9946H72.2192V84.7874H72.9622V83.9946Z" fill="#F0F0F0"/>
<path id="Vector_527" d="M72.9622 85.324H72.2192V86.1168H72.9622V85.324Z" fill="#F0F0F0"/>
<path id="Vector_528" d="M72.9622 86.6526H72.2192V87.4454H72.9622V86.6526Z" fill="#F0F0F0"/>
<path id="Vector_529" d="M72.9622 87.9817H72.2192V88.7745H72.9622V87.9817Z" fill="#F0F0F0"/>
<path id="Vector_530" d="M72.9622 89.3103H72.2192V90.1031H72.9622V89.3103Z" fill="#F0F0F0"/>
<path id="Vector_531" d="M72.9622 90.6392H72.2192V91.4319H72.9622V90.6392Z" fill="#F0F0F0"/>
<path id="Vector_532" d="M72.9622 91.9683H72.2192V92.761H72.9622V91.9683Z" fill="#F0F0F0"/>
<path id="Vector_533" d="M72.9622 93.2971H72.2192V94.0899H72.9622V93.2971Z" fill="#F0F0F0"/>
<path id="Vector_534" d="M72.9622 94.626H72.2192V95.4187H72.9622V94.626Z" fill="#F0F0F0"/>
<path id="Vector_535" d="M72.9622 95.9548H72.2192V96.7476H72.9622V95.9548Z" fill="#F0F0F0"/>
<path id="Vector_536" d="M72.9622 97.2839H72.2192V98.0767H72.9622V97.2839Z" fill="#F0F0F0"/>
<path id="Vector_537" d="M72.9622 98.6128H72.2192V99.4056H72.9622V98.6128Z" fill="#F0F0F0"/>
<path id="Vector_538" d="M72.9622 99.9417H72.2192V100.734H72.9622V99.9417Z" fill="#F0F0F0"/>
<path id="Vector_539" d="M72.9622 101.271H72.2192V102.064H72.9622V101.271Z" fill="#F0F0F0"/>
<path id="Vector_540" d="M72.9622 102.6H72.2192V103.392H72.9622V102.6Z" fill="#F0F0F0"/>
<path id="Vector_541" d="M72.9622 103.928H72.2192V104.721H72.9622V103.928Z" fill="#F0F0F0"/>
<path id="Vector_542" d="M72.9622 105.257H72.2192V106.05H72.9622V105.257Z" fill="#F0F0F0"/>
<path id="Vector_543" d="M72.9622 106.586H72.2192V107.379H72.9622V106.586Z" fill="#F0F0F0"/>
<path id="Vector_544" d="M72.9622 107.915H72.2192V108.708H72.9622V107.915Z" fill="#F0F0F0"/>
<path id="Vector_545" d="M79.9534 87.8418H79.2104V88.6346H79.9534V87.8418Z" fill="#F0F0F0"/>
<path id="Vector_546" d="M79.9534 89.1704H79.2104V89.9632H79.9534V89.1704Z" fill="#F0F0F0"/>
<path id="Vector_547" d="M79.9534 90.4998H79.2104V91.2925H79.9534V90.4998Z" fill="#F0F0F0"/>
<path id="Vector_548" d="M79.9534 91.8284H79.2104V92.6211H79.9534V91.8284Z" fill="#F0F0F0"/>
<path id="Vector_549" d="M79.9534 93.1575H79.2104V93.9502H79.9534V93.1575Z" fill="#F0F0F0"/>
<path id="Vector_550" d="M79.9534 94.4861H79.2104V95.2789H79.9534V94.4861Z" fill="#F0F0F0"/>
<path id="Vector_551" d="M79.9534 95.8149H79.2104V96.6077H79.9534V95.8149Z" fill="#F0F0F0"/>
<path id="Vector_552" d="M79.9534 97.144H79.2104V97.9368H79.9534V97.144Z" fill="#F0F0F0"/>
<path id="Vector_553" d="M79.9534 98.4729H79.2104V99.2657H79.9534V98.4729Z" fill="#F0F0F0"/>
<path id="Vector_554" d="M79.9534 99.8018H79.2104V100.595H79.9534V99.8018Z" fill="#F0F0F0"/>
<path id="Vector_555" d="M78.7737 87.8418H78.0308V88.6346H78.7737V87.8418Z" fill="#F0F0F0"/>
<path id="Vector_556" d="M78.7737 89.1704H78.0308V89.9632H78.7737V89.1704Z" fill="#F0F0F0"/>
<path id="Vector_557" d="M78.7737 90.4998H78.0308V91.2925H78.7737V90.4998Z" fill="#F0F0F0"/>
<path id="Vector_558" d="M78.7737 91.8284H78.0308V92.6211H78.7737V91.8284Z" fill="#F0F0F0"/>
<path id="Vector_559" d="M78.7737 93.1575H78.0308V93.9502H78.7737V93.1575Z" fill="#F0F0F0"/>
<path id="Vector_560" d="M78.7737 94.4861H78.0308V95.2789H78.7737V94.4861Z" fill="#F0F0F0"/>
<path id="Vector_561" d="M78.7737 95.8149H78.0308V96.6077H78.7737V95.8149Z" fill="#F0F0F0"/>
<path id="Vector_562" d="M78.7737 97.144H78.0308V97.9368H78.7737V97.144Z" fill="#F0F0F0"/>
<path id="Vector_563" d="M78.7737 98.4729H78.0308V99.2657H78.7737V98.4729Z" fill="#F0F0F0"/>
</g>
</g>
<g id="Group_6">
<path id="Vector_564" d="M85.7937 37.4092H84.5469V111.527H85.7937V37.4092Z" fill="#E0E0E0"/>
<path id="Vector_565" d="M109.247 37.4092H108V111.527H109.247V37.4092Z" fill="#E0E0E0"/>
<path id="Vector_566" d="M132.701 37.4092H131.454V111.527H132.701V37.4092Z" fill="#E0E0E0"/>
</g>
</g>
<g id="Group_7">
<path id="Vector_567" d="M53.0461 121.565H42.7383V105.719C42.7383 104.946 43.3259 104.318 44.0513 104.318H51.7334C52.4584 104.318 53.0464 104.945 53.0464 105.719L53.0461 121.565Z" fill="#F0F0F0"/>
<path id="Vector_568" d="M53.0466 106.65H42.7388V107.885H53.0466V106.65Z" fill="#E6E6E6"/>
<path id="Vector_569" d="M51.1674 119.477H48.5995C48.2089 119.477 47.8921 119.815 47.8921 120.231V121.566H51.8749V120.231C51.8749 119.814 51.5581 119.477 51.1674 119.477Z" fill="#E0E0E0"/>
<path id="Vector_570" d="M51.8884 121.565H49.0318C48.7788 121.565 48.5737 121.347 48.5737 121.077C48.5737 120.807 48.7788 120.588 49.0318 120.588H51.8884C52.1414 120.588 52.3464 120.807 52.3464 121.077C52.3464 121.347 52.1414 121.565 51.8884 121.565Z" fill="#E6E6E6"/>
</g>
<g id="Group_8">
<path id="Vector_571" d="M97.6551 33.9209C101.428 32.9702 103.764 28.936 102.873 24.9102C101.982 20.8843 98.2018 18.3914 94.4291 19.342C90.6565 20.2926 88.3203 24.3268 89.2111 28.3527C90.102 32.3785 93.8824 34.8715 97.6551 33.9209Z" fill="#E0E0E0"/>
<path id="Vector_572" d="M97.0034 32.9225C100.257 32.359 102.466 29.0877 101.938 25.6158C101.41 22.1439 98.3448 19.7862 95.0912 20.3496C91.8377 20.9131 89.6282 24.1844 90.1563 27.6563C90.6843 31.1282 93.7499 33.486 97.0034 32.9225Z" fill="#F0F0F0"/>
<g id="Vector_573">
<path d="M96.3271 22.2688V26.7208L99.092 25.0513" fill="#F0F0F0"/>
<path d="M96.3271 22.2688V26.7208L99.092 25.0513" stroke="#E0E0E0" stroke-width="2" stroke-miterlimit="10" stroke-linecap="round" stroke-linejoin="round"/>
</g>
</g>
<g id="Group_9">
<g id="Group_10">
<path id="Vector_574" d="M28.8856 99.7379C28.3492 98.7953 27.4659 99.6151 27.4659 99.6151C27.592 97.8089 26.0349 96.5734 26.0349 96.5734C26.0349 96.5734 27.8444 96.5734 28.0968 94.7309C28.3492 92.8885 27.4659 93.7455 26.6372 93.7331C25.8085 93.7203 24.9422 96.3041 26.0349 97.7574C27.1277 99.2103 26.8351 101.691 24.311 104.076C23.6953 104.658 23.2766 105.433 22.9938 106.271C23.1843 104.079 23.2918 100.991 22.6875 98.9298C21.6609 95.4286 23.617 94.4861 24.1849 92.7355C24.7529 90.9849 22.6875 89.5037 22.6875 89.5037C22.6875 89.5037 24.6266 88.5611 23.6801 87.4837C22.7337 86.4063 20.7776 86.5529 20.7776 87.961C20.7776 89.3688 22.1025 89.9075 22.1025 89.9075C22.1025 89.9075 23.6167 91.5907 23.6167 92.4661C23.6167 93.3416 22.1025 95.2267 22.1025 95.2267C22.1025 95.2267 22.7966 93.6132 21.4085 93.5448C20.0204 93.4761 19.5788 95.4286 20.1465 96.3041C20.7141 97.1795 21.6606 96.4386 21.6606 96.4386C21.6606 96.4386 21.7708 98.3237 22.0942 99.4685C22.2363 99.9719 22.1696 101.947 22.0501 104.002C21.7705 103.26 21.3751 102.58 20.8211 102.056C18.2974 99.6704 18.0044 97.1904 19.0972 95.7374C20.19 94.2845 19.3237 91.7007 18.4949 91.7135C17.6662 91.7259 16.7829 90.8688 17.0353 92.7113C17.2877 94.5538 19.0972 94.5538 19.0972 94.5538C19.0972 94.5538 17.5401 95.7893 17.6662 97.5955C17.6662 97.5955 16.7829 96.7757 16.2465 97.7186C15.2891 99.4014 17.5083 100.445 17.8814 99.617C17.8814 99.617 22.5877 103.172 21.452 108.289L21.7157 108.705C21.6817 109.118 21.6606 109.367 21.6606 109.367L22.0286 109.197L22.4473 109.857C22.4256 111.136 22.5546 112.082 22.5546 112.082L23.6798 110.309C22.5442 105.192 27.2502 101.637 27.2502 101.637C27.6239 102.464 29.8431 101.421 28.8856 99.7379Z" fill="#E0E0E0"/>
<path id="Vector_575" opacity="0.2" d="M28.8856 99.7379C28.3492 98.7953 27.4659 99.6151 27.4659 99.6151C27.592 97.8089 26.0349 96.5734 26.0349 96.5734C26.0349 96.5734 27.8444 96.5734 28.0968 94.7309C28.3492 92.8885 27.4659 93.7455 26.6372 93.7331C25.8085 93.7203 24.9422 96.3041 26.0349 97.7574C27.1277 99.2103 26.8351 101.691 24.311 104.076C23.6953 104.658 23.2766 105.433 22.9938 106.271C23.1843 104.079 23.2918 100.991 22.6875 98.9298C21.6609 95.4286 23.617 94.4861 24.1849 92.7355C24.7529 90.9849 22.6875 89.5037 22.6875 89.5037C22.6875 89.5037 24.6266 88.5611 23.6801 87.4837C22.7337 86.4063 20.7776 86.5529 20.7776 87.961C20.7776 89.3688 22.1025 89.9075 22.1025 89.9075C22.1025 89.9075 23.6167 91.5907 23.6167 92.4661C23.6167 93.3416 22.1025 95.2267 22.1025 95.2267C22.1025 95.2267 22.7966 93.6132 21.4085 93.5448C20.0204 93.4761 19.5788 95.4286 20.1465 96.3041C20.7141 97.1795 21.6606 96.4386 21.6606 96.4386C21.6606 96.4386 21.7708 98.3237 22.0942 99.4685C22.2363 99.9719 22.1696 101.947 22.0501 104.002C21.7705 103.26 21.3751 102.58 20.8211 102.056C18.2974 99.6704 18.0044 97.1904 19.0972 95.7374C20.19 94.2845 19.3237 91.7007 18.4949 91.7135C17.6662 91.7259 16.7829 90.8688 17.0353 92.7113C17.2877 94.5538 19.0972 94.5538 19.0972 94.5538C19.0972 94.5538 17.5401 95.7893 17.6662 97.5955C17.6662 97.5955 16.7829 96.7757 16.2465 97.7186C15.2891 99.4014 17.5083 100.445 17.8814 99.617C17.8814 99.617 22.5877 103.172 21.452 108.289L21.7157 108.705C21.6817 109.118 21.6606 109.367 21.6606 109.367L22.0286 109.197L22.4473 109.857C22.4256 111.136 22.5546 112.082 22.5546 112.082L23.6798 110.309C22.5442 105.192 27.2502 101.637 27.2502 101.637C27.6239 102.464 29.8431 101.421 28.8856 99.7379Z" fill="#E0E0E0"/>
</g>
<path id="Vector_576" d="M27.9649 121.565H17.1848L16.022 108.971H29.128L27.9649 121.565Z" fill="#E6E6E6"/>
<path id="Vector_577" d="M29.7035 107.581H15.4463V110.36H29.7035V107.581Z" fill="#F0F0F0"/>
</g>
</g>
</g>
<g id="Shadow_1_">
<path id="_x3C_Path_x3E__359_" d="M74.5001 135.964C106.411 135.964 132.279 134.352 132.279 132.364C132.279 130.375 106.411 128.763 74.5001 128.763C42.5897 128.763 16.7212 130.375 16.7212 132.364C16.7212 134.352 42.5897 135.964 74.5001 135.964Z" fill="#F5F5F5"/>
</g>
<g id="Plant">
<g id="Group_11">
<g id="Group_12">
<path id="Vector_578" d="M122.313 122.34C122.358 122.014 123.401 114.335 121.312 111.684C120.85 111.098 120.266 110.791 119.577 110.773C115.36 110.667 114.783 114.282 114.778 114.319L115.275 114.401C115.295 114.271 115.795 111.212 119.565 111.309C120.111 111.323 120.556 111.559 120.927 112.03C122.872 114.498 121.826 122.183 121.815 122.261L122.313 122.34Z" fill="#407BFF"/>
</g>
<g id="Group_13">
<path id="Vector_579" d="M122.569 121.99L123.072 121.973C123.069 121.902 122.904 114.897 126.139 113.45C129.309 112.033 130.735 114.947 130.794 115.072L131.243 114.83C131.227 114.795 129.554 111.34 125.944 112.955C122.391 114.545 122.56 121.687 122.569 121.99Z" fill="#407BFF"/>
</g>
<g id="Group_14">
<path id="Vector_580" d="M122.554 122.54C122.554 122.429 122.584 111.35 124.608 108.11C126.552 104.999 129.687 106.463 129.819 106.528L130.027 106.038C129.991 106.021 126.373 104.316 124.189 107.812C122.081 111.187 122.051 122.078 122.05 122.54L122.554 122.54Z" fill="#407BFF"/>
</g>
<path id="Vector_581" d="M118.974 111.039C118.974 111.039 120.815 111.763 120.268 113.473C119.721 115.184 113.897 117.998 113.897 117.998C113.897 117.998 111.459 115.613 113.698 111.734C115.938 107.855 118.924 109.815 118.974 111.039Z" fill="#407BFF"/>
<path id="Vector_582" d="M124.699 107.526C124.699 107.526 123.392 107.377 123.497 106.527C123.602 105.677 128.579 103.49 131.516 107.027C131.516 107.027 129.636 110.473 126.918 110.518C124.2 110.563 124.699 107.526 124.699 107.526Z" fill="#407BFF"/>
<path id="Vector_583" d="M126.042 113.203C126.042 113.203 125.139 112.426 126.113 112.046C127.087 111.667 131.865 111.775 131.915 116.825C131.915 116.825 126.35 117.812 125.661 115.888C124.972 113.965 126.042 113.203 126.042 113.203Z" fill="#407BFF"/>
<path id="Vector_584" opacity="0.2" d="M118.974 111.039C118.974 111.039 120.815 111.763 120.268 113.473C119.721 115.184 113.897 117.998 113.897 117.998C113.897 117.998 111.459 115.613 113.698 111.734C115.938 107.855 118.924 109.815 118.974 111.039Z" fill="black"/>
<path id="Vector_585" opacity="0.2" d="M124.699 107.526C124.699 107.526 123.392 107.377 123.497 106.527C123.602 105.677 128.579 103.49 131.516 107.027C131.516 107.027 129.636 110.473 126.918 110.518C124.2 110.563 124.699 107.526 124.699 107.526Z" fill="black"/>
<path id="Vector_586" opacity="0.2" d="M126.042 113.203C126.042 113.203 125.139 112.426 126.113 112.046C127.087 111.667 131.865 111.775 131.915 116.825C131.915 116.825 126.35 117.812 125.661 115.888C124.972 113.965 126.042 113.203 126.042 113.203Z" fill="black"/>
<path id="Vector_587" d="M117.984 132.629H126.62L127.551 122.54H117.053L117.984 132.629Z" fill="#407BFF"/>
<path id="Vector_588" opacity="0.5" d="M117.984 132.629H126.62L127.551 122.54H117.053L117.984 132.629Z" fill="white"/>
<path id="Vector_589" d="M116.592 123.653H128.013V121.427H116.592V123.653Z" fill="#407BFF"/>
<path id="Vector_590" opacity="0.2" d="M116.592 123.653H128.013V121.427H116.592V123.653Z" fill="white"/>
</g>
</g>
<g id="Chair">
<g id="Group_15">
<path id="Vector_591" d="M108.211 125.397L99.6247 124.496V111.62H96.2218V124.493L87.601 125.397C86.7451 125.487 86.0928 126.255 86.0928 127.172V128.548H97.5905H98.2211H109.719V127.172C109.719 126.255 109.066 125.487 108.211 125.397Z" fill="#263238"/>
<path id="Vector_592" opacity="0.2" d="M108.211 125.397L99.6247 124.496V111.62H96.2218V124.493L87.601 125.397C86.7451 125.487 86.0928 126.255 86.0928 127.172V128.548H97.5905H98.2211H109.719V127.172C109.719 126.255 109.066 125.487 108.211 125.397Z" fill="white"/>
<path id="Vector_593" d="M87.0012 132.629C88.23 132.629 89.2261 131.566 89.2261 130.255C89.2261 128.943 88.23 127.88 87.0012 127.88C85.7725 127.88 84.7764 128.943 84.7764 130.255C84.7764 131.566 85.7725 132.629 87.0012 132.629Z" fill="#263238"/>
<path id="Vector_594" d="M108.81 132.629C110.039 132.629 111.035 131.566 111.035 130.255C111.035 128.943 110.039 127.88 108.81 127.88C107.581 127.88 106.585 128.943 106.585 130.255C106.585 131.566 107.581 132.629 108.81 132.629Z" fill="#263238"/>
<path id="Vector_595" d="M98.9785 114.387H96.8669C96.1866 114.387 95.6353 113.799 95.6353 113.073V102.918H100.21V113.073C100.21 113.799 99.6589 114.387 98.9785 114.387Z" fill="#263238"/>
<path id="Vector_596" opacity="0.3" d="M98.9785 114.387H96.8669C96.1866 114.387 95.6353 113.799 95.6353 113.073V102.918H100.21V113.073C100.21 113.799 99.6589 114.387 98.9785 114.387Z" fill="white"/>
<path id="Vector_597" d="M106.058 82.7913C106.058 82.7913 106.707 99.9623 102.227 102.918H107.342C107.342 102.918 111.304 97.0685 110.185 82.7913H106.058Z" fill="#263238"/>
<path id="Vector_598" opacity="0.3" d="M106.058 82.7913C106.058 82.7913 106.707 99.9623 102.227 102.918H107.342C107.342 102.918 111.304 97.0685 110.185 82.7913H106.058Z" fill="white"/>
<path id="Vector_599" d="M87.6511 100.517H107.594C108.417 100.517 109.084 101.229 109.084 102.107V104.234H86.1611V102.107C86.1611 101.229 86.8284 100.517 87.6511 100.517Z" fill="#263238"/>
<g id="Group_16">
<path id="Vector_600" d="M85.8048 102.376H109.44C109.771 102.376 110.039 102.662 110.039 103.015V103.595C110.039 103.948 109.771 104.234 109.44 104.234H85.8048C85.4738 104.234 85.2056 103.948 85.2056 103.595V103.015C85.2056 102.662 85.4738 102.376 85.8048 102.376Z" fill="#263238"/>
<path id="Vector_601" opacity="0.6" d="M85.8048 102.376H109.44C109.771 102.376 110.039 102.662 110.039 103.015V103.595C110.039 103.948 109.771 104.234 109.44 104.234H85.8048C85.4738 104.234 85.2056 103.948 85.2056 103.595V103.015C85.2056 102.662 85.4738 102.376 85.8048 102.376Z" fill="white"/>
</g>
<path id="Vector_602" d="M111.438 86.28H103.245C100.845 86.28 98.8989 84.2038 98.8989 81.6423V78.2232C98.8989 75.6617 100.845 73.5854 103.245 73.5854H111.438C113.839 73.5854 115.784 75.6617 115.784 78.2232V81.6423C115.784 84.2038 113.839 86.28 111.438 86.28Z" fill="#263238"/>
</g>
</g>
<g id="Character">
<g id="Group_17">
<path id="Vector_603" d="M78.3891 59.5548L76.7543 54.9534C76.7543 54.9534 77.4555 54.2608 76.9745 53.5583C76.4935 52.8558 73.476 50.8788 72.9259 51.2264C72.3758 51.5737 71.1546 52.8842 71.8149 53.6111C72.475 54.338 75.3984 55.5515 75.3984 55.5515L76.8446 61.5888L78.3891 59.5548Z" fill="#E4897B"/>
<g id="Group_18">
<path id="Vector_604" d="M89.8121 68.3038C89.8121 68.3038 82.3711 66.6715 81.5641 66.2819C80.7574 65.8924 77.7616 56.5308 77.7616 56.5308L75.4658 57.6756C75.4658 57.6756 77.314 67.0696 79.2036 69.3035C81.0936 71.5375 89.1542 73.4267 89.1542 73.4267L89.8121 68.3038Z" fill="#407BFF"/>
<path id="Vector_605" opacity="0.2" d="M89.1532 73.4253C89.1532 73.4253 89.1067 73.4148 89.0167 73.3916C88.6096 73.294 87.339 72.9741 85.8269 72.5025C83.3729 71.7421 80.2826 70.5795 79.2024 69.3047C77.3154 67.0695 75.4648 57.6748 75.4648 57.6748L77.76 56.5312C77.76 56.5312 80.7555 65.8929 81.5652 66.2821C82.3719 66.6704 89.8124 68.303 89.8124 68.303L89.1532 73.4253Z" fill="black"/>
<path id="Vector_606" d="M77.798 56.3469L78.2725 57.3229L75.3223 58.4069L75.4361 57.2141L77.798 56.3469Z" fill="#407BFF"/>
</g>
<path id="Vector_607" opacity="0.2" d="M89.2103 73.2972C88.7972 73.2336 87.5072 73.0196 85.9653 72.6746C86.8444 71.055 89.4189 70.2222 89.4189 70.2222L89.2103 73.2972Z" fill="black"/>
<path id="Vector_608" d="M100.302 61.8234C100.302 61.8234 100.739 66.2213 99.2122 67.3012C97.6849 68.3812 90.175 67.1162 89.3227 65.3471C88.4708 63.5781 91.6767 58.7734 91.6767 58.7734L100.302 61.8234Z" fill="#263238"/>
<path id="Vector_609" d="M69.9087 119.694L71.8683 120.197L72.8601 117.311L73.7606 114.685L71.5286 113.669L70.6704 116.856L69.9087 119.694Z" fill="#E4897B"/>
<path id="Vector_610" opacity="0.2" d="M70.6704 116.856L72.8601 117.311L73.7607 114.685L71.5287 113.669L70.6704 116.856Z" fill="black"/>
<g id="Group_19">
<path id="Vector_611" d="M70.8677 115.332L73.5854 116.41C73.5854 116.41 80.8358 97.0659 82.3258 96.9991C83.8158 96.9323 98.987 104.374 102.789 100.246C106.592 96.1214 101.094 86.1776 101.094 86.1776C101.094 86.1776 91.9482 84.7847 91.2598 86.9885C91.1257 87.4146 90.9797 88.2509 90.8724 88.9664C90.7681 89.6406 90.6966 90.2066 90.6966 90.2066C90.6966 90.2066 90.6936 90.2066 90.6906 90.2035C90.4075 90.1271 81.2262 87.599 77.6084 90.2066C73.9341 92.8588 70.8677 115.332 70.8677 115.332Z" fill="#407BFF"/>
<path id="Vector_612" opacity="0.6" d="M70.8677 115.332L73.5854 116.41C73.5854 116.41 80.8358 97.0659 82.3258 96.9991C83.8158 96.9323 98.987 104.374 102.789 100.246C106.592 96.1214 101.094 86.1776 101.094 86.1776C101.094 86.1776 91.9482 84.7847 91.2598 86.9885C91.1257 87.4146 90.9797 88.2509 90.8724 88.9664C90.7681 89.6406 90.6966 90.2066 90.6966 90.2066C90.6966 90.2066 90.6936 90.2066 90.6906 90.2035C90.4075 90.1271 81.2262 87.599 77.6084 90.2066C73.9341 92.8588 70.8677 115.332 70.8677 115.332Z" fill="white"/>
</g>
<path id="Vector_613" d="M86.4996 127.946L88.4521 127.412L88.0763 124.423L87.7277 121.681L85.313 121.912L85.94 125.107L86.4996 127.946Z" fill="#E4897B"/>
<path id="Vector_614" opacity="0.2" d="M85.9553 125.171L88.0899 124.48L87.7344 121.709L85.3164 121.926L85.9553 125.171Z" fill="black"/>
<path id="Vector_615" d="M74.7077 115.337L70.7493 113.901L70.5801 115.632L73.5827 116.764L74.7077 115.337Z" fill="#407BFF"/>
<g id="Group_20">
<path id="Vector_616" d="M96.2214 101.238C96.2214 101.238 95.6021 101.254 86.0092 100.777C86.0092 100.777 87.4429 113.575 88.2248 123.156L85.3563 123.677C85.3563 123.677 78.5023 103.162 78.5768 99.9027C78.6513 96.6432 82.1528 95.6892 82.1528 95.6892C82.1528 95.6892 88.9871 99.9024 96.2214 101.238Z" fill="#407BFF"/>
<path id="Vector_617" opacity="0.6" d="M96.2214 101.238C96.2214 101.238 95.6021 101.254 86.0092 100.777C86.0092 100.777 87.4429 113.575 88.2248 123.156L85.3563 123.677C85.3563 123.677 78.5023 103.162 78.5768 99.9027C78.6513 96.6432 82.1528 95.6892 82.1528 95.6892C82.1528 95.6892 88.9871 99.9024 96.2214 101.238Z" fill="white"/>
<path id="Vector_618" opacity="0.1" d="M96.2214 101.238C96.2214 101.238 95.6021 101.254 86.0092 100.777C86.0092 100.777 87.4429 113.575 88.2248 123.156L85.3563 123.677C85.3563 123.677 78.5023 103.162 78.5768 99.9027C78.6513 96.6432 82.1528 95.6892 82.1528 95.6892C82.1528 95.6892 88.9871 99.9024 96.2214 101.238Z" fill="black"/>
</g>
<path id="Vector_619" d="M88.6442 122.227L84.7017 122.705L85.4622 124.355L88.6537 123.918L88.6442 122.227Z" fill="#407BFF"/>
<path id="Vector_620" opacity="0.1" d="M90.6963 90.2065L96.0454 91.3958C96.0454 91.3958 93.0892 89.6532 90.8721 88.9663C90.7678 89.6405 90.6963 90.2065 90.6963 90.2065Z" fill="black"/>
<g id="Group_21">
<g id="Group_22">
<path id="Vector_621" d="M100.873 84.6602L101.093 86.1783L91.2592 86.9876L90.999 85.1922L100.873 84.6602Z" fill="#263238"/>
<path id="Vector_622" opacity="0.2" d="M100.873 84.6602L101.093 86.1783L91.2592 86.9876L90.999 85.1922L100.873 84.6602Z" fill="black"/>
</g>
<path id="Vector_623" d="M97.7651 87.2013L98.251 87.1479L97.9965 84.5071L97.5106 84.5604L97.7651 87.2013Z" fill="#407BFF"/>
<path id="Vector_624" d="M93.411 86.9353L95.5654 86.7876L95.4605 85.0442L93.306 85.1918L93.411 86.9353Z" fill="white"/>
<path id="Vector_625" d="M91.7417 87.4862L92.2275 87.4329L91.973 84.7923L91.4872 84.8456L91.7417 87.4862Z" fill="#407BFF"/>
<path id="Vector_626" opacity="0.6" d="M97.7651 87.2013L98.251 87.1479L97.9965 84.5071L97.5106 84.5604L97.7651 87.2013Z" fill="white"/>
<path id="Vector_627" opacity="0.6" d="M91.7417 87.4862L92.2275 87.4329L91.973 84.7923L91.4872 84.8456L91.7417 87.4862Z" fill="white"/>
</g>
<path id="Vector_628" d="M89.634 68.1587C89.634 68.1587 92.1446 68.9992 95.2998 68.8262C98.4551 68.6532 102.227 70.2887 102.227 70.2887L100.873 84.6603L90.9991 85.1924C90.9991 85.1924 87.6815 73.191 89.634 68.1587Z" fill="#407BFF"/>
<path id="Vector_629" d="M91.2202 60.043C91.2202 60.043 91.7754 53.0635 97.2422 55.5996C104.104 58.7827 98.6476 67.2835 95.2954 65.5383C91.9432 63.7932 91.2202 60.043 91.2202 60.043Z" fill="#263238"/>
<path id="Vector_630" opacity="0.2" d="M92.7524 69.216L92.9095 73.1596L94.1358 71.3043C94.1358 71.3043 93.6983 75.666 93.9543 78.0409C93.9543 78.0409 94.1885 73.7822 94.744 71.3043L96.0453 73.1596L97.9153 69.2402C97.9153 69.2402 94.8897 68.0805 92.7524 69.216Z" fill="black"/>
<path id="Vector_631" d="M94.446 69.9497L97.2728 69.0975C95.531 67.8182 96.4092 64.9578 96.4092 64.9578L93.6089 66.0084C93.7585 66.5042 93.8526 66.9255 93.9093 67.2852C94.2019 69.1493 93.4131 69.2981 93.4131 69.2981L94.446 69.9497Z" fill="#E4897B"/>
<path id="Vector_632" opacity="0.2" d="M93.6089 66.0084C93.7585 66.5042 93.8526 66.9255 93.9093 67.2852C95.2497 66.7119 96.4092 64.9578 96.4092 64.9578L93.6089 66.0084Z" fill="black"/>
<g id="Group_23">
<path id="Vector_633" d="M95.4361 57.0648C92.9559 56.479 91.8637 57.7075 91.1163 60.392C90.1824 63.7469 90.3883 66.3357 93.6404 66.3402C98.0573 66.3459 99.5551 58.0375 95.4361 57.0648Z" fill="#E4897B"/>
<path id="Vector_634" d="M92.7502 60.6228C92.7502 60.6228 92.2633 61.233 91.8008 61.5501C91.8008 61.5501 91.9385 61.9603 92.3926 62.0039L92.7502 60.6228Z" fill="#DE5753"/>
<g id="Group_24">
<path id="Vector_635" d="M94.3135 60.765C94.2637 60.9812 94.3329 61.1854 94.4679 61.2207C94.6029 61.256 94.7531 61.1097 94.8028 60.8935C94.8526 60.6772 94.7835 60.4731 94.6485 60.4375C94.5135 60.4018 94.3636 60.5484 94.3135 60.765Z" fill="#263238"/>
<path id="Vector_636" d="M94.7021 60.4625L94.3037 60.1624C94.3037 60.1624 94.4322 60.6158 94.7021 60.4625Z" fill="#263238"/>
</g>
<g id="Group_25">
<path id="Vector_637" d="M91.8042 60.0584C91.7545 60.2746 91.8236 60.4788 91.9586 60.5144C92.0939 60.55 92.2438 60.4034 92.2935 60.1872C92.3433 59.9709 92.2742 59.7668 92.1392 59.7315C92.0039 59.6956 91.854 59.8422 91.8042 60.0584Z" fill="#263238"/>
<path id="Vector_638" d="M92.193 59.7562L91.7949 59.4561C91.7949 59.4561 91.9231 59.9095 92.193 59.7562Z" fill="#263238"/>
</g>
<path id="Vector_639" d="M94.7173 58.9434C94.7173 58.9434 95.4343 59.0114 95.7099 59.5975" stroke="#263238" stroke-width="0.7247" stroke-miterlimit="10" stroke-linecap="round" stroke-linejoin="round"/>
<path id="Vector_640" d="M92.9378 58.4054C92.9378 58.4054 92.5355 58.1287 91.9043 58.3895" stroke="#263238" stroke-width="0.7247" stroke-miterlimit="10" stroke-linecap="round" stroke-linejoin="round"/>
<path id="Vector_641" d="M97.2217 62.1658C97.2217 62.1658 96.5131 59.7176 97.037 58.0802C97.037 58.0802 92.5664 54.7768 91.2197 60.0432C91.2197 60.0432 91.7198 55.2026 96.0053 56.1041C100.284 57.0044 98.892 63.6576 96.2789 65.1207C96.2789 65.1207 97.6571 63.6951 97.2217 62.1658Z" fill="#263238"/>
<path id="Vector_642" d="M96.7008 62.6289C96.8057 62.2066 97.3675 61.5827 98.0922 61.8447C98.8423 62.1156 98.8593 63.8859 96.8636 63.8392C96.5772 63.8325 96.4818 63.5098 96.7008 62.6289Z" fill="#E4897B"/>
<g id="Group_26">
<path id="Vector_643" d="M91.9492 63.0096C92.0371 63.3597 92.0777 63.9931 92.0777 63.9931C92.1322 63.9995 92.1867 64.0059 92.2413 64.0094C92.9818 64.0765 93.3459 63.8465 93.5253 63.5715C93.6228 63.4204 93.6636 63.2538 93.6797 63.1161C93.7 62.9574 93.6803 62.8391 93.6803 62.8391C93.2679 63.0538 92.5729 63.048 92.2019 63.028C92.0467 63.0216 91.9492 63.0096 91.9492 63.0096Z" fill="#263238"/>
<path id="Vector_644" d="M92.2021 63.028L92.2471 63.3171C92.9448 63.3784 93.4436 63.3218 93.6799 63.1161C93.7002 62.9574 93.6805 62.8391 93.6805 62.8391C93.2681 63.0538 92.5732 63.0477 92.2021 63.028Z" fill="white"/>
<path id="Vector_645" d="M92.2412 64.009C92.9817 64.0761 93.3459 63.8462 93.5253 63.5711C93.2723 63.5587 92.9656 63.5737 92.6891 63.6703C92.4775 63.7438 92.3381 63.8735 92.2412 64.009Z" fill="#DE5753"/>
</g>
<path id="Vector_646" d="M95.4461 57.2766C95.4461 57.2766 95.542 61.8676 98.1233 62.4187C100.705 62.9698 97.8828 56.5191 97.8828 56.5191C97.8828 56.5191 94.0395 53.8403 91.4776 55.7283C88.9157 57.6162 91.2198 60.0432 91.2198 60.0432C91.2198 60.0432 91.761 56.633 95.4461 57.2766Z" fill="#263238"/>
<path id="Vector_647" d="M95.5352 56.9731C95.5352 56.9731 94.6152 59.8752 96.4318 61.3988" stroke="#263238" stroke-width="0.5" stroke-miterlimit="10" stroke-linecap="round" stroke-linejoin="round"/>
</g>
<g id="Group_27">
<path id="Vector_648" d="M98.8768 63.3631C98.5484 64.2968 97.7053 64.8221 96.9934 64.5372C96.2818 64.2519 95.971 63.2642 96.2994 62.3309C96.6278 61.3972 97.4708 60.8719 98.1827 61.1568C98.8943 61.4418 99.2052 62.4295 98.8768 63.3631Z" fill="#407BFF"/>
<path id="Vector_649" opacity="0.4" d="M98.8768 63.3631C98.5484 64.2968 97.7053 64.8221 96.9934 64.5372C96.2818 64.2519 95.971 63.2642 96.2994 62.3309C96.6278 61.3972 97.4708 60.8719 98.1827 61.1568C98.8943 61.4418 99.2052 62.4295 98.8768 63.3631Z" fill="black"/>
<path id="Vector_650" d="M98.0553 61.8322C98.0553 61.8322 99.1239 56.722 96.7256 55.3826C96.7256 55.3826 97.2253 55.4544 97.5353 55.5508C97.8452 55.6471 99.761 57.7196 98.7928 62.3124L98.0553 61.8322Z" fill="#407BFF"/>
<path id="Vector_651" opacity="0.2" d="M98.0553 61.8322C98.0553 61.8322 99.1239 56.722 96.7256 55.3826C96.7256 55.3826 97.2253 55.4544 97.5353 55.5508C97.8452 55.6471 99.761 57.7196 98.7928 62.3124L98.0553 61.8322Z" fill="black"/>
<g id="Group_28">
<g id="Group_29">
<path id="Vector_652" d="M93.5565 64.7568C93.4972 64.7485 93.4376 64.739 93.3774 64.7282L93.4257 64.4146C95.5853 64.7899 97.1921 63.5703 97.2082 63.5576L97.3844 63.8142C97.3173 63.8667 95.7546 65.0653 93.5565 64.7568Z" fill="#407BFF"/>
</g>
<g id="Group_30" opacity="0.2">
<path id="Vector_653" d="M93.5565 64.7568C93.4972 64.7485 93.4376 64.739 93.3774 64.7282L93.4257 64.4146C95.5853 64.7899 97.1921 63.5703 97.2082 63.5576L97.3844 63.8142C97.3173 63.8667 95.7546 65.0653 93.5565 64.7568Z" fill="black"/>
</g>
</g>
<path id="Vector_654" d="M98.7763 63.2352C98.559 63.8524 98.0018 64.1997 97.5312 64.0114C97.0607 63.8229 96.8554 63.17 97.0723 62.5528C97.2895 61.9355 97.8468 61.5883 98.3174 61.7765C98.7879 61.9651 98.9932 62.6179 98.7763 63.2352Z" fill="#407BFF"/>
<g id="Group_31">
<path id="Vector_655" d="M93.2903 64.8611L93.0511 64.8274C92.8734 64.8026 92.7486 64.6287 92.7718 64.4391C92.7951 64.2496 92.9581 64.1164 93.1354 64.1412L93.3747 64.1749C93.5523 64.1997 93.6771 64.3736 93.6539 64.5631C93.631 64.7527 93.468 64.8859 93.2903 64.8611Z" fill="#407BFF"/>
<path id="Vector_656" opacity="0.4" d="M93.2903 64.8611L93.0511 64.8274C92.8734 64.8026 92.7486 64.6287 92.7718 64.4391C92.7951 64.2496 92.9581 64.1164 93.1354 64.1412L93.3747 64.1749C93.5523 64.1997 93.6771 64.3736 93.6539 64.5631C93.631 64.7527 93.468 64.8859 93.2903 64.8611Z" fill="black"/>
</g>
</g>
<path id="Vector_657" d="M96.5149 68.0039L94.7441 69.8598L95.4522 72.1338L97.9155 69.2403L96.5149 68.0039Z" fill="#407BFF"/>
<path id="Vector_658" d="M93.9543 68.3918L94.2406 69.8203L93.3237 71.8402L92.7524 69.2161L93.9543 68.3918Z" fill="#407BFF"/>
<path id="Vector_659" d="M96.1357 69.6147L97.1641 65.5983C97.1641 65.5983 96.6659 64.5979 96.7735 64.3884C96.881 64.1791 97.4162 61.4825 97.798 61.1886C98.1794 60.8951 99.7481 61.3963 99.9069 61.6698C100.066 61.9433 98.4035 65.598 98.4035 65.598L97.7977 69.9492L96.1357 69.6147Z" fill="#E4897B"/>
<g id="Group_32">
<path id="Vector_660" d="M102.227 70.2885C105.057 73.3791 99.3857 80.3809 96.136 80.0826C92.8863 79.7843 96.217 67.0881 96.217 67.0881L98.298 67.4535C98.298 67.4535 97.5679 72.9479 97.7979 73.3791C98.0286 73.81 101.276 69.2496 102.227 70.2885Z" fill="#407BFF"/>
<path id="Vector_661" opacity="0.2" d="M102.227 70.2885C105.057 73.3791 99.3857 80.3809 96.136 80.0826C92.8863 79.7843 96.217 67.0881 96.217 67.0881L98.298 67.4535C98.298 67.4535 97.5679 72.9479 97.7979 73.3791C98.0286 73.81 101.276 69.2496 102.227 70.2885Z" fill="black"/>
<path id="Vector_662" d="M96.0459 66.6821L95.7378 67.7306L98.6373 68.0037V67.0882L96.0459 66.6821Z" fill="#407BFF"/>
</g>
<g id="Group_33">
<path id="Vector_663" opacity="0.6" d="M91.6526 77.8543H90.4779C90.3477 77.8543 90.2422 77.7417 90.2422 77.6027V75.2371C90.2422 75.0982 90.3477 74.9856 90.4779 74.9856H91.6526C91.7828 74.9856 91.8883 75.0982 91.8883 75.2371V77.6027C91.8883 77.7417 91.7828 77.8543 91.6526 77.8543Z" fill="white"/>
<path id="Vector_664" opacity="0.2" d="M91.6766 75.1741H90.3403V77.124H91.6766V75.1741Z" fill="black"/>
<path id="Vector_665" d="M91.1849 74.2932H90.8901V75.4425H91.1849V74.2932Z" fill="#263238"/>
</g>
<path id="Vector_666" d="M66.6642 123.756C66.9622 123.609 67.2826 123.523 67.6101 123.499C67.6101 123.499 68.7419 122.788 69.8635 120.027L71.125 120.019C71.5615 120.024 71.9489 120.32 72.0941 120.759C72.1149 120.819 72.1269 120.882 72.1298 120.946C72.117 121.271 72.0848 121.595 72.033 121.916C71.9194 122.923 71.2954 125.083 71.2954 125.083L71.0818 125.025L71.4704 123.016C71.5997 122.334 70.9277 122.993 70.616 123.681C70.3043 124.369 69.8263 125.062 68.4331 124.722C66.8096 124.317 66.1552 124.067 66.6642 123.756Z" fill="#407BFF"/>
<path id="Vector_667" d="M70.0919 119.303C70.0919 119.303 68.517 122.82 67.6099 123.499C67.6099 123.499 68.8257 124.273 70.0919 122.551C71.7291 120.324 72.1296 120.946 72.1296 120.946C72.1296 120.946 72.0602 120.184 71.9324 119.811C71.6868 119.092 70.0919 119.303 70.0919 119.303Z" fill="#E4897B"/>
<path id="Vector_668" d="M84.0139 132.136C84.2708 131.918 84.5629 131.753 84.8758 131.647C84.8758 131.647 85.8171 130.67 86.2934 127.704L87.5169 127.377C87.9425 127.271 88.3841 127.461 88.6228 127.851C88.6562 127.904 88.6818 127.962 88.6988 128.023C88.7587 128.342 88.7992 128.665 88.8201 128.99C88.9336 129.997 88.8076 132.253 88.8076 132.253L88.5871 132.251L88.5182 130.202C88.492 129.506 87.9857 130.317 87.8358 131.064C87.6859 131.811 87.3754 132.605 85.9465 132.627C84.2801 132.644 83.589 132.567 84.0139 132.136Z" fill="#407BFF"/>
<path id="Vector_669" d="M86.3547 126.943C86.3547 126.943 85.6061 130.758 84.876 131.647C84.876 131.647 86.2292 132.091 87.0764 130.098C88.1719 127.52 88.6993 128.023 88.6993 128.023C88.6993 128.023 88.4627 127.3 88.2556 126.97C87.8569 126.334 86.3547 126.943 86.3547 126.943Z" fill="#E4897B"/>
</g>
</g>
<g id="Speech_bubble">
<g id="Group_34">
<path id="Vector_670" d="M114.062 57.9457H103.657C102.824 57.9457 102.148 57.2245 102.148 56.3351V51.5838C102.148 50.6944 102.824 49.9731 103.657 49.9731H114.062C114.896 49.9731 115.572 50.6944 115.572 51.5838V56.3351C115.572 57.2245 114.896 57.9457 114.062 57.9457Z" fill="#407BFF"/>
<path id="Vector_671" d="M105.746 57.0369L102.611 61.5836L107.668 57.3418L105.746 57.0369Z" fill="#407BFF"/>
<g id="Group_35">
<path id="Vector_672" d="M105.862 53.9593C105.862 54.2185 105.666 54.4283 105.423 54.4283C105.18 54.4283 104.983 54.2181 104.983 53.9593C104.983 53.7001 105.18 53.4902 105.423 53.4902C105.666 53.4902 105.862 53.7001 105.862 53.9593Z" fill="white"/>
<path id="Vector_673" d="M108.154 53.9593C108.154 54.2185 107.957 54.4283 107.714 54.4283C107.472 54.4283 107.275 54.2181 107.275 53.9593C107.275 53.7001 107.472 53.4902 107.714 53.4902C107.957 53.4902 108.154 53.7001 108.154 53.9593Z" fill="white"/>
<path id="Vector_674" d="M110.445 53.9593C110.445 54.2185 110.248 54.4283 110.005 54.4283C109.763 54.4283 109.566 54.2181 109.566 53.9593C109.566 53.7001 109.763 53.4902 110.005 53.4902C110.248 53.4902 110.445 53.7001 110.445 53.9593Z" fill="white"/>
<path id="Vector_675" d="M112.737 53.9593C112.737 54.2185 112.54 54.4283 112.297 54.4283C112.054 54.4283 111.857 54.2181 111.857 53.9593C111.857 53.7001 112.054 53.4902 112.297 53.4902C112.54 53.4902 112.737 53.7001 112.737 53.9593Z" fill="white"/>
</g>
</g>
</g>
<g id="Bird">
<g id="Group_36">
<g id="Group_37">
<path id="Vector_676" d="M72.2446 51.6768L64.8244 47.4121C64.6238 47.2967 64.5487 47.0299 64.6569 46.8156L67.0233 42.1266C67.1315 41.9126 67.3815 41.8325 67.5824 41.9476L75.0026 46.2123C75.2031 46.3277 75.2782 46.5945 75.1703 46.8089L72.8039 51.4978C72.6955 51.7118 72.4451 51.7919 72.2446 51.6768Z" fill="#407BFF"/>
<path id="Vector_677" opacity="0.7" d="M72.2446 51.6768L64.8244 47.4121C64.6238 47.2967 64.5487 47.0299 64.6569 46.8156L67.0233 42.1266C67.1315 41.9126 67.3815 41.8325 67.5824 41.9476L75.0026 46.2123C75.2031 46.3277 75.2782 46.5945 75.1703 46.8089L72.8039 51.4978C72.6955 51.7118 72.4451 51.7919 72.2446 51.6768Z" fill="white"/>
<path id="Vector_678" opacity="0.2" d="M66.8276 42.5144L69.1491 47.1403C69.3299 47.5006 69.6959 47.7093 70.077 47.6689L74.9088 47.1591L69.9903 47.9319C69.5493 48.0012 69.1181 47.7531 68.9294 47.3222L66.8276 42.5144Z" fill="black"/>
</g>
<g id="Group_38">
<path id="Vector_679" d="M61.1921 41.6524C61.2711 39.883 62.4982 36.3183 63.9915 35.2281C65.4848 34.1377 64.5023 35.6476 64.5023 35.6476C64.5023 35.6476 65.9169 34.18 66.6637 34.222C67.4105 34.264 66.6637 35.1865 66.6637 35.1865C66.6637 35.1865 68.1963 34.1784 68.9037 34.221C69.6112 34.264 68.9037 35.1445 68.9037 35.1445C68.9037 35.1445 70.1613 34.18 70.6721 34.6414C71.1829 35.1029 64.1489 40.0509 63.363 42.0639C62.5769 44.0762 61.1122 43.443 61.1921 41.6524Z" fill="#407BFF"/>
<path id="Vector_680" opacity="0.4" d="M61.1921 41.6524C61.2711 39.883 62.4982 36.3183 63.9915 35.2281C65.4848 34.1377 64.5023 35.6476 64.5023 35.6476C64.5023 35.6476 65.9169 34.18 66.6637 34.222C67.4105 34.264 66.6637 35.1865 66.6637 35.1865C66.6637 35.1865 68.1963 34.1784 68.9037 34.221C69.6112 34.264 68.9037 35.1445 68.9037 35.1445C68.9037 35.1445 70.1613 34.18 70.6721 34.6414C71.1829 35.1029 64.1489 40.0509 63.363 42.0639C62.5769 44.0762 61.1122 43.443 61.1921 41.6524Z" fill="white"/>
</g>
<g id="Group_39">
<path id="Vector_681" d="M67.2335 41.3914L68.1731 42.0334C68.2407 42.0795 68.2055 42.1914 68.1254 42.1848L67.1384 42.1027L67.2233 42.9111C67.2326 42.9988 67.1304 43.0472 67.0755 42.981L66.5063 42.2932L67.2335 41.3914Z" fill="#407BFF"/>
<path id="Vector_682" opacity="0.3" d="M67.2335 41.3914L68.1731 42.0334C68.2407 42.0795 68.2055 42.1914 68.1254 42.1848L67.1384 42.1027L67.2233 42.9111C67.2326 42.9988 67.1304 43.0472 67.0755 42.981L66.5063 42.2932L67.2335 41.3914Z" fill="white"/>
</g>
<g id="Group_40">
<path id="Vector_683" d="M54.0498 37.4094C54.0498 37.4094 55.3467 36.4442 57.3114 37.0732C57.3114 37.0732 57.8764 39.8408 59.4213 40.7633C60.2697 41.2699 62.3482 41.2263 63.992 40.6584C65.9442 39.9839 66.8999 39.9839 67.2536 40.7633C67.5885 41.5014 67.2143 42.3568 65.721 42.7343C64.2277 43.1117 63.0488 45.8793 60.3373 45.9213C57.6258 45.9633 56.1987 43.0621 56.8793 40.5118C56.8793 40.5118 56.0539 38.6108 54.0498 37.4094Z" fill="#407BFF"/>
<path id="Vector_684" opacity="0.5" d="M54.0498 37.4094C54.0498 37.4094 55.3467 36.4442 57.3114 37.0732C57.3114 37.0732 57.8764 39.8408 59.4213 40.7633C60.2697 41.2699 62.3482 41.2263 63.992 40.6584C65.9442 39.9839 66.8999 39.9839 67.2536 40.7633C67.5885 41.5014 67.2143 42.3568 65.721 42.7343C64.2277 43.1117 63.0488 45.8793 60.3373 45.9213C57.6258 45.9633 56.1987 43.0621 56.8793 40.5118C56.8793 40.5118 56.0539 38.6108 54.0498 37.4094Z" fill="white"/>
</g>
<path id="Vector_685" d="M66.5064 41.2878C66.5064 41.366 66.4471 41.4293 66.3738 41.4293C66.3005 41.4293 66.2412 41.366 66.2412 41.2878C66.2412 41.2095 66.3005 41.1462 66.3738 41.1462C66.4471 41.1462 66.5064 41.2095 66.5064 41.2878Z" fill="#263238"/>
<path id="Vector_686" d="M59.7077 43.6166C58.1062 44.0825 54.5502 43.9371 53.1174 42.758C51.6846 41.5789 53.3335 42.1099 53.3335 42.1099C53.3335 42.1099 51.5887 41.127 51.3956 40.3561C51.2025 39.5853 52.2553 40.0585 52.2553 40.0585C52.2553 40.0585 50.8836 38.8142 50.7033 38.0831C50.523 37.352 51.5264 37.7982 51.5264 37.7982C51.5264 37.7982 50.2787 36.8194 50.532 36.1585C50.7853 35.4977 57.3672 41.1101 59.404 41.2863C61.4409 41.4631 61.3285 43.145 59.7077 43.6166Z" fill="#407BFF"/>
<path id="Vector_687" opacity="0.4" d="M59.7077 43.6166C58.1062 44.0825 54.5502 43.9371 53.1174 42.758C51.6846 41.5789 53.3335 42.1099 53.3335 42.1099C53.3335 42.1099 51.5887 41.127 51.3956 40.3561C51.2025 39.5853 52.2553 40.0585 52.2553 40.0585C52.2553 40.0585 50.8836 38.8142 50.7033 38.0831C50.523 37.352 51.5264 37.7982 51.5264 37.7982C51.5264 37.7982 50.2787 36.8194 50.532 36.1585C50.7853 35.4977 57.3672 41.1101 59.404 41.2863C61.4409 41.4631 61.3285 43.145 59.7077 43.6166Z" fill="white"/>
<g id="Group_41">
<g id="Group_42">
<path id="Vector_688" d="M49.2189 35.7619C48.9388 35.6554 48.6554 35.5562 48.3696 35.4636" stroke="#407BFF" stroke-width="0.75" stroke-linecap="round" stroke-linejoin="round"/>
<path id="Vector_689" d="M46.6275 34.9896C45.583 34.7561 44.5212 34.6048 43.4666 34.5265C40.5691 34.3113 36.027 34.005 34.2521 37.0861C32.6349 39.8938 35.4173 44.6841 36.4049 47.2907C37.6145 50.4831 39.0526 54.4308 37.6234 57.8105C34.6863 64.7553 22.1137 61.1492 17.8726 54.7529" stroke="#407BFF" stroke-width="0.75" stroke-linecap="round" stroke-linejoin="round" stroke-dasharray="6.03 6.03"/>
<path id="Vector_690" d="M17.3902 53.9452C17.2409 53.6647 17.108 53.3798 16.9927 53.0911" stroke="#407BFF" stroke-width="0.75" stroke-linecap="round" stroke-linejoin="round"/>
</g>
</g>
</g>
</g>
<g id="Desk">
<g id="Group_43">
<g id="Group_44">
<path id="Vector_691" d="M53.583 79.1953H42.2715V81.6709H53.583V79.1953Z" fill="white"/>
<path id="Vector_692" opacity="0.1" d="M53.583 79.1953H42.2715V81.6709H53.583V79.1953Z" fill="black"/>
<path id="Vector_693" opacity="0.1" d="M47.0356 79.1953H42.2715V81.6709H47.0356V79.1953Z" fill="black"/>
<path id="Vector_694" opacity="0.1" d="M42.2715 79.5518H52.3406L42.2715 79.8558V79.5518Z" fill="black"/>
<path id="Vector_695" opacity="0.1" d="M53.5829 79.9817L44.8545 80.2122H53.5829V79.9817Z" fill="black"/>
<path id="Vector_696" opacity="0.1" d="M42.7324 80.6738L47.0355 80.4849L53.3621 80.6738L47.0355 80.7784L42.7324 80.6738Z" fill="black"/>
<path id="Vector_697" opacity="0.1" d="M42.2715 81.1978H49.7274L42.2715 81.3863V81.1978Z" fill="black"/>
<path id="Vector_698" opacity="0.1" d="M53.5667 81.3862L48.5874 81.4848H53.5828L53.5667 81.3862Z" fill="black"/>
</g>
<g id="Group_45">
<path id="Vector_699" d="M52.0083 76.7197H40.6968V79.1954H52.0083V76.7197Z" fill="white"/>
<path id="Vector_700" opacity="0.1" d="M52.0083 76.7197H40.6968V79.1954H52.0083V76.7197Z" fill="black"/>
<path id="Vector_701" opacity="0.1" d="M45.4609 76.7197H40.6968V79.1954H45.4609V76.7197Z" fill="black"/>
<path id="Vector_702" opacity="0.1" d="M40.6968 77.0762H50.7659L40.6968 77.3802V77.0762Z" fill="black"/>
<path id="Vector_703" opacity="0.1" d="M52.0085 77.5061L43.2798 77.7367H52.0085V77.5061Z" fill="black"/>
<path id="Vector_704" opacity="0.1" d="M41.1582 78.1982L45.461 78.0093L51.7879 78.1982L45.461 78.3028L41.1582 78.1982Z" fill="black"/>
<path id="Vector_705" opacity="0.1" d="M40.6968 78.7222H48.1527L40.6968 78.9107V78.7222Z" fill="black"/>
<path id="Vector_706" opacity="0.1" d="M51.9922 78.9106L47.0132 79.0092H52.0086L51.9922 78.9106Z" fill="black"/>
</g>
<g id="Group_46">
<path id="Vector_707" d="M53.2998 74.2439H41.9883V76.7195H53.2998V74.2439Z" fill="white"/>
<path id="Vector_708" opacity="0.1" d="M53.2998 74.2439H41.9883V76.7195H53.2998V74.2439Z" fill="black"/>
<path id="Vector_709" opacity="0.1" d="M46.7524 74.2439H41.9883V76.7195H46.7524V74.2439Z" fill="black"/>
<path id="Vector_710" opacity="0.1" d="M41.9883 74.6003H52.0574L41.9883 74.9043V74.6003Z" fill="black"/>
<path id="Vector_711" opacity="0.1" d="M53.3 75.0303L44.5713 75.2608H53.3V75.0303Z" fill="black"/>
<path id="Vector_712" opacity="0.1" d="M42.4497 75.722L46.7525 75.5334L53.0794 75.722L46.7525 75.827L42.4497 75.722Z" fill="black"/>
<path id="Vector_713" opacity="0.1" d="M41.9883 76.2463H49.4442L41.9883 76.4349V76.2463Z" fill="black"/>
<path id="Vector_714" opacity="0.1" d="M53.2837 76.4348L48.3047 76.5334H53.3001L53.2837 76.4348Z" fill="black"/>
</g>
<g id="Group_47">
<path id="Vector_715" d="M60.8354 81.619L61.1296 80.4329H73.2141L78.7789 81.0259L78.9905 81.619H60.8354Z" fill="#263238"/>
<path id="Vector_716" opacity="0.4" d="M73.2141 80.4329V81.619H60.8354L61.1296 80.4329H73.2141Z" fill="black"/>
</g>
<g id="Group_48">
<path id="Vector_717" d="M70.7861 74.755C70.8398 75.3815 70.4106 75.8903 69.8266 75.8903H51.3148C50.7277 75.8903 50.2092 75.3815 50.1556 74.755L49.056 62.1082C49.044 61.9778 49.053 61.8538 49.0798 61.7393C49.1841 61.2941 49.5506 60.9729 50.0155 60.9729H68.5273C69.1143 60.9729 69.6329 61.4817 69.6865 62.1082L70.7861 74.755Z" fill="#263238"/>
<path id="Vector_718" opacity="0.4" d="M69.7615 75.8903H51.3153C50.7282 75.8903 50.2097 75.3815 50.1561 74.755L49.0564 62.1081C49.0445 61.9778 49.0535 61.8537 49.0803 61.7393H67.5265C68.1106 61.7393 68.6291 62.2481 68.6857 62.8745L69.7853 75.5214C69.7972 75.6518 69.788 75.7758 69.7615 75.8903Z" fill="black"/>
<path id="Vector_719" d="M57.0431 68.1335H60.8727L59.8518 79.8337L65.9077 80.8039V81.619H53.1533V80.8039L55.7662 79.8337L57.0431 68.1335Z" fill="#263238"/>
<path id="Vector_720" opacity="0.1" d="M60.8726 68.1335L58.0354 81.4329L55.7661 81.3611L57.043 68.1335H60.8726Z" fill="white"/>
</g>
<g id="Group_49">
<g id="Group_50">
<path id="Vector_721" d="M60.8556 132.629H59.0301L55.75 83.8962H58.1721L60.8556 132.629Z" fill="#263238"/>
<path id="Vector_722" opacity="0.4" d="M60.8567 132.629H59.03L55.9099 86.3169L55.749 83.9749H58.1718L58.3029 86.3169L60.8567 132.629Z" fill="white"/>
<path id="Vector_723" opacity="0.2" d="M58.3029 86.2009H55.9099L55.749 83.9749H58.1718L58.3029 86.2009Z" fill="black"/>
</g>
<g id="Group_51">
<path id="Vector_724" d="M74.2534 132.629H72.4279L72.1299 83.8962H74.5517L74.2534 132.629Z" fill="#263238"/>
<path id="Vector_725" opacity="0.5" d="M74.5531 83.9749L74.5054 91.8374L74.2551 132.629H72.4284L72.1781 91.8374L72.1304 83.9749H74.5531Z" fill="white"/>
<path id="Vector_726" opacity="0.2" d="M74.5531 83.9749L74.5054 91.9249H72.1781L72.1304 83.9749H74.5531Z" fill="black"/>
</g>
<g id="Group_52">
<path id="Vector_727" d="M93.6354 132.629H91.8099L88.5298 83.8962H90.9519L93.6354 132.629Z" fill="#263238"/>
<path id="Vector_728" opacity="0.5" d="M93.6365 132.629H91.8098L88.6897 86.3169L88.5288 83.9749H90.9516L91.0827 86.3169L93.6365 132.629Z" fill="white"/>
<path id="Vector_729" opacity="0.2" d="M91.0827 86.2009H88.6897L88.5288 83.9749H90.9516L91.0827 86.2009Z" fill="black"/>
</g>
<g id="Group_53">
<path id="Vector_730" d="M39.9714 132.629H38.1455L40.8293 83.8962H43.2511L39.9714 132.629Z" fill="#263238"/>
<path id="Vector_731" opacity="0.5" d="M43.2507 83.9749L43.0898 86.3169L39.9698 132.629H38.146L40.6969 86.3169L40.828 83.9749H43.2507Z" fill="white"/>
<path id="Vector_732" opacity="0.2" d="M40.8279 83.9749H43.2506L43.0897 86.2009H40.6968L40.8279 83.9749Z" fill="black"/>
</g>
<g id="Group_54">
<path id="Vector_733" d="M92.2275 85.1167H39.5539C39.1981 85.1167 38.9097 84.8089 38.9097 84.4292V82.6758H92.8718V84.4289C92.8718 84.8089 92.5833 85.1167 92.2275 85.1167Z" fill="#407BFF"/>
<path id="Vector_734" opacity="0.6" d="M92.2275 85.1167H39.5539C39.1981 85.1167 38.9097 84.8089 38.9097 84.4292V82.6758H92.8718V84.4289C92.8718 84.8089 92.5833 85.1167 92.2275 85.1167Z" fill="white"/>
</g>
<path id="Vector_735" opacity="0.2" d="M92.8718 82.6758H38.9097V83.8963H92.8718V82.6758Z" fill="black"/>
<g id="Group_55">
<path id="Vector_736" d="M94.0032 82.9942H37.7781C37.4223 82.9942 37.1338 82.6863 37.1338 82.3067C37.1338 81.927 37.4223 81.6191 37.7781 81.6191H94.0035C94.3593 81.6191 94.6478 81.927 94.6478 82.3067C94.6475 82.6863 94.359 82.9942 94.0032 82.9942Z" fill="#407BFF"/>
<path id="Vector_737" opacity="0.6" d="M94.0032 82.9942H37.7781C37.4223 82.9942 37.1338 82.6863 37.1338 82.3067C37.1338 81.927 37.4223 81.6191 37.7781 81.6191H94.0035C94.3593 81.6191 94.6478 81.927 94.6478 82.3067C94.6475 82.6863 94.359 82.9942 94.0032 82.9942Z" fill="white"/>
</g>
</g>
<g id="Group_56">
<path id="Vector_738" d="M80.7002 79.5008L81.3927 78.3945C81.5307 78.1738 81.7629 78.0415 82.0117 78.0415H82.8887C82.9617 78.0415 83.0347 78.053 83.1045 78.0755L86.2299 79.0865C86.4075 79.144 86.5589 79.2703 86.6536 79.4404L87.1021 80.2449L80.7002 79.5008Z" fill="#407BFF"/>
<path id="Vector_739" opacity="0.2" d="M87.1022 80.2452L82.5518 79.7174L80.7012 79.5011L81.3925 78.3945C81.5296 78.1751 81.7621 78.0415 82.0124 78.0415H82.8885C82.963 78.0415 83.0345 78.0542 83.106 78.0765L83.1746 78.0987L86.2291 79.0877C86.4079 79.145 86.5599 79.269 86.6552 79.4407L87.1022 80.2452Z" fill="black"/>
<path id="Vector_740" opacity="0.2" d="M87.1022 80.2454L82.5518 79.7175L83.1746 78.0989L86.2291 79.0879C86.4079 79.1451 86.5599 79.2691 86.6552 79.4408L87.1022 80.2454Z" fill="black"/>
<path id="Vector_741" d="M89.2652 81.5138V81.6188H85.2988H79.604L79.9616 80.1273C80.1017 79.5677 80.5785 79.1765 81.1208 79.1765H85.4061C85.5491 79.1765 85.6892 79.202 85.8233 79.256L86.3597 79.4691L88.4874 80.315C88.9555 80.5029 89.2652 80.9799 89.2652 81.5138Z" fill="#407BFF"/>
<path id="Vector_742" opacity="0.2" d="M89.2652 81.5137V81.6186H85.2988L85.5104 80.0064C85.567 79.5803 85.9812 79.3195 86.3597 79.469L88.4874 80.3149C88.9556 80.5028 89.2652 80.9798 89.2652 81.5137Z" fill="black"/>
<path id="Vector_743" d="M85.9165 80.5229L87.1782 76.4818C87.2328 76.3072 87.4202 76.2261 87.5734 76.3104C87.6902 76.3746 87.7495 76.5171 87.7161 76.6525L86.6535 80.9668C86.6535 80.9668 85.946 81.2721 85.9165 80.5229Z" fill="#263238"/>
<path id="Vector_744" opacity="0.2" d="M80.7001 81.2833H80.1401L80.248 80.6963H80.808L80.7001 81.2833Z" fill="black"/>
<path id="Vector_745" opacity="0.2" d="M81.535 81.2604H80.9751L81.083 80.6733H81.6432L81.535 81.2604Z" fill="black"/>
</g>
</g>
</g>
</g>
</svg>
