<svg width="172" height="104" viewBox="0 0 172 104" fill="none" xmlns="http://www.w3.org/2000/svg">
<g id="OBJECTS">
<g id="Group">
<path id="Vector" d="M170.378 103.458H1.62195C0.725939 103.458 0 102.738 0 101.85C0 100.962 0.72632 100.243 1.62195 100.243H172V101.85C172 102.738 171.274 103.458 170.378 103.458Z" fill="#6876EB"/>
<path id="Vector_2" d="M62.2668 103.458H1.62195C0.725939 103.458 0 102.738 0 101.85V100.243H63.8891V101.85C63.8891 102.738 63.1628 103.458 62.2668 103.458Z" fill="#1C145E"/>
</g>
<g id="Group_2">
<path id="Vector_3" d="M87.4756 38.9521C80.2489 52.7168 72.1289 58.3245 72.1289 58.3245L79.1414 69.4215L91.3868 56.8085L87.4756 38.9521Z" fill="#1C145E"/>
<path id="Vector_4" d="M105.397 35.6667L87.4783 38.9522C86.3433 72.5542 85.918 100.238 85.918 100.238H118.081C118.081 100.238 119.014 48.7836 113.84 37.5568L105.397 35.6667Z" fill="#1C145E"/>
<path id="Vector_5" d="M103.315 52.7903L112.044 52.0583" stroke="#6876EB" stroke-width="4" stroke-miterlimit="10"/>
<path id="Vector_6" d="M99.3066 45.5686C99.3066 45.5686 104.847 83.0451 100.026 98.2089" stroke="#6876EB" stroke-miterlimit="10"/>
<path id="Vector_7" d="M93.5059 64.3411C93.5059 64.3411 98.8576 66.4763 105.796 66.7022C112.734 66.9281 108.417 70.5872 98.1316 69.8933" stroke="#6876EB" stroke-miterlimit="10"/>
<path id="Vector_8" d="M94.8857 34.3005L99.308 45.9458L105.395 35.6668L101.383 29.168L94.8857 34.3005Z" fill="#E9A394"/>
<path id="Vector_9" d="M99.3066 45.9458L107.562 43.6868L105.394 35.6667L99.3066 45.9458Z" fill="#6876EB"/>
<path id="Vector_10" d="M95.8677 36.8882L91.3877 41.848L99.3072 45.9457L95.8677 36.8882Z" fill="#6876EB"/>
<path id="Vector_11" d="M79.1436 69.4215C79.1436 69.4215 81.7601 64.0133 76.142 57.0476C73.0267 53.1848 71.5912 46.5193 71.5912 46.5193L66.9106 47.2249L71.1967 69.4218H79.1436V69.4215Z" fill="#E9A394"/>
<path id="Vector_12" d="M65.9532 39.5596L64.0368 41.286L66.5989 43.5276L58.5763 43.3922L58.4043 46.1206L66.9097 47.2248L71.5907 46.5192L65.9532 39.5596Z" fill="#E9A394"/>
<path id="Vector_13" d="M67.3553 43.8091L59.658 40.6621L59.1611 42.0175L65.5858 44.6935L67.3553 43.8091Z" fill="#E9A394"/>
<path id="Vector_14" d="M113.839 37.5569C113.839 37.5569 124.179 43.3924 127.445 65.2507L115.448 68.1198L113.839 37.5569Z" fill="#1C145E"/>
<g id="Group_3">
<path id="Vector_15" d="M91.3798 20.0697L87.4746 29.9742L90.4609 30.8849L91.3798 36.4636L100.914 34.3005L102.292 19.1589L91.3798 20.0697Z" fill="#E9A394"/>
<path id="Vector_16" d="M97.7452 22.4233H90.4546L91.2498 20.2881L97.7452 19.8899V22.4233Z" fill="#E37A82"/>
<path id="Vector_17" d="M101.551 26.9418C101.551 26.9418 96.9 25.9881 96.9 21.2187C96.9 21.2187 89.9987 22.1498 87.6162 18.4368C84.7942 14.0385 89.1069 8.984 92.6685 10.0109C92.6685 10.0109 90.4241 12.2159 93.8327 12.4749C96.2635 12.6597 100.706 9.45426 102.291 12.5545C102.291 12.5545 114.527 15.3244 105.393 26.6239L101.551 26.9418Z" fill="#16005C"/>
<path id="Vector_18" d="M96.9015 20.8416C96.9015 20.8416 87.6762 22.6084 85.7468 16.0512C84.6188 12.2178 88.4954 10.0347 88.4954 10.0347" stroke="#16005C" stroke-width="2" stroke-miterlimit="10"/>
<g id="Group_4">
<path id="Vector_19" d="M92.9981 29.6586C94.9214 29.6586 96.4805 28.1132 96.4805 26.2069C96.4805 24.3005 94.9214 22.7551 92.9981 22.7551C91.0748 22.7551 89.5156 24.3005 89.5156 26.2069C89.5156 28.1132 91.0748 29.6586 92.9981 29.6586Z" stroke="#16005C" stroke-width="0.5" stroke-miterlimit="10"/>
<path id="Vector_20" d="M96.2935 25.0898L101.253 25.3591" stroke="#16005C" stroke-width="0.5" stroke-miterlimit="10"/>
</g>
<path id="Vector_21" d="M107.563 27.8111C107.563 29.949 104.674 31.6818 102.517 31.6818C100.36 31.6818 99.7529 29.9486 99.7529 27.8111C99.7529 25.6737 101.502 23.9404 103.658 23.9404C105.815 23.9404 107.563 25.6737 107.563 27.8111Z" fill="#E9A394"/>
</g>
<path id="Vector_22" d="M126.012 65.5928V83.4424H117.033L116.286 67.9192L126.012 65.5928Z" fill="#E9A394"/>
<path id="Vector_23" d="M86.7775 61.5576L87.1545 49.1204L81.3379 67.1608L86.7775 61.5576Z" fill="#009CF8"/>
<path id="Vector_24" d="M95.3472 35.4851L100.915 34.3005L96.3505 38.1596L95.3472 35.4851Z" fill="#E37A82"/>
<path id="Vector_25" d="M92.0543 27.8111C92.4224 27.8111 92.7209 27.1942 92.7209 26.4331C92.7209 25.6721 92.4224 25.0552 92.0543 25.0552C91.6861 25.0552 91.3877 25.6721 91.3877 26.4331C91.3877 27.1942 91.6861 27.8111 92.0543 27.8111Z" fill="#16005C"/>
<path id="Vector_26" d="M93.8659 23.0817C93.8659 21.2354 92.3828 22.4784 92.3828 22.4784L93.8659 23.0817Z" fill="#16005C"/>
<path id="Vector_27" d="M92.3828 31.2559L94.5039 30.6963C94.5039 30.6963 95.4129 38.4943 92.3828 31.2559Z" fill="white"/>
</g>
<g id="Group_5">
<path id="Vector_28" d="M46.6748 66.2085C46.6748 66.2085 60.9855 64.0138 61.2666 88.7487C61.3123 92.7627 63.8907 100.242 63.8907 100.242H50.9216L46.6748 66.2085Z" fill="#5321D7"/>
<path id="Vector_29" d="M31.7108 64.0137L23.0615 66.0373L25.7005 100.242H59.3539C59.3539 100.242 58.2251 73.1794 45.5341 65.0605L31.7108 64.0137Z" fill="#3362CC"/>
<path id="Vector_30" d="M23.0636 66.0375C14.1488 68.0528 16.2357 74.8348 17.9569 88.7617C13.5073 92.3435 17.7762 93.9557 17.7762 93.9557C12.8894 99.0901 18.9857 100.243 18.9857 100.243H35.26C35.26 100.243 31.9845 64.0207 23.0636 66.0375Z" fill="#3362CC"/>
<path id="Vector_31" d="M34.2937 92.3422L30.3882 74.5725" stroke="#5321D7" stroke-miterlimit="10"/>
<path id="Vector_32" d="M18.9844 100.242C18.9844 100.242 21.7321 93.9895 30.4164 90.8459C37.6168 88.2397 48.1494 95.0055 54.8917 88.5764L56.1404 95.8148L35.2587 100.242H18.9844Z" fill="#E9A394"/>
<g id="Group_6">
<g id="Group_7">
<path id="Vector_33" d="M47.6151 46.3974L54.0535 56.1111L49.9219 57.5728L49.2078 65.4669L36.7915 61.1912L37.9615 45.134L47.6151 46.3974Z" fill="#E9A394"/>
<path id="Vector_34" d="M38.0634 56.6008L31.7168 64.0138L39.8558 73.9002L43.5266 62.353L38.0634 56.6008Z" fill="#E37A82"/>
<path id="Vector_35" d="M40.186 52.0109L49.2679 48.8881L47.617 46.3972L38.6455 47.3227L40.186 52.0109Z" fill="#E37A82"/>
<path id="Vector_36" d="M39.4008 55.4138C39.4008 55.4138 42.1504 60.8702 40.2374 50.3521C40.2374 50.3521 42.8467 50.6425 44.8902 47.2293C44.8902 47.2293 44.2552 52.7913 50.2495 47.2293C56.2439 41.6668 48.6234 37.3149 39.3117 38.9523C31.2408 40.3718 23.1642 44.8915 34.9687 60.2148L39.4008 55.4138Z" fill="#16005C"/>
<path id="Vector_37" d="M37.9314 57.5832C37.312 58.4065 36.2478 59.1535 35.1414 59.3134C32.9285 59.6328 30.7675 57.9015 30.4452 55.7082C30.1229 53.5149 31.2408 52.376 33.4532 52.0566C34.697 51.8771 36.1371 52.2425 37.2172 52.9866C37.5437 53.3897 37.9314 57.5832 37.9314 57.5832Z" fill="#E9A394"/>
<path id="Vector_38" d="M46.6893 54.5515C47.0207 54.4624 47.123 53.7825 46.9178 53.033C46.7125 52.2834 46.2775 51.748 45.9462 51.8372C45.6148 51.9263 45.5126 52.6062 45.7178 53.3557C45.923 54.1053 46.358 54.6406 46.6893 54.5515Z" fill="#16005C"/>
<path id="Vector_39" d="M44.1736 51.2874C44.1736 51.2874 43.8509 49.4837 45.5402 50.3522L44.1736 51.2874Z" fill="#16005C"/>
</g>
<path id="Vector_40" d="M30.6987 64.317L32.1723 62.6396L31.6316 61.3962L34.9672 60.2151L44.5365 64.9848L44.8888 68.6266L43.2695 68.1194L40.626 77.8859L30.6987 64.317Z" fill="#3362CC"/>
<path id="Vector_41" d="M39.3379 66.7019L44.8871 68.6267L44.5347 64.9849" stroke="#5321D7" stroke-miterlimit="10"/>
<path id="Vector_42" d="M40.2368 50.3521C40.2368 50.3521 41.3531 56.7917 42.9857 58.1157C43.5218 58.5505 44.5365 57.4444 49.2079 57.3517C52.0641 57.2951 52.0618 67.177 48.2716 66.8938C44.4813 66.6106 38.7214 64.2683 37.8581 57.0654C37.1013 50.7465 40.2368 50.3521 40.2368 50.3521Z" fill="#16005C"/>
<path id="Vector_43" d="M44.8872 59.3135C44.8872 59.3135 45.8506 61.0916 47.7491 59.8871" stroke="#C4C6C5" stroke-miterlimit="10"/>
</g>
</g>
<g id="Group_8">
<path id="Vector_44" d="M66.546 96.1758H34.5986V98.5218C34.5986 99.4721 35.3759 100.242 36.3343 100.242H66.546C67.5048 100.242 68.2817 99.4718 68.2817 98.5218V97.8962C68.2821 96.9462 67.5048 96.1758 66.546 96.1758Z" fill="#1C145E"/>
<g id="Group_9">
<path id="Vector_45" d="M92.4925 72.657H55.3296C54.2251 72.657 53.2926 73.4708 53.1525 74.5565L50.1586 97.7917C49.9912 99.092 51.0132 100.243 52.3357 100.243H89.4986C90.6031 100.243 91.5356 99.4287 91.6756 98.343L94.6696 75.1079C94.837 73.8076 93.815 72.657 92.4925 72.657Z" fill="#1C145E"/>
<path id="Vector_46" d="M94.2904 72.657H57.1275C56.0229 72.657 55.0904 73.4708 54.9504 74.5565L51.9565 97.7917C51.7891 99.092 52.811 100.243 54.1335 100.243H91.2964C92.4009 100.243 93.3335 99.4287 93.4735 98.343L96.4674 75.1079C96.6348 73.8076 95.6129 72.657 94.2904 72.657Z" fill="#6876EB"/>
<path id="Vector_47" d="M76.6039 88.9461C78.1515 87.4906 78.3345 85.1912 77.0125 83.8103C75.6906 82.4295 73.3644 82.4899 71.8168 83.9454C70.2692 85.4009 70.0863 87.7002 71.4082 89.0811C72.7301 90.462 75.0564 90.4016 76.6039 88.9461Z" fill="white"/>
</g>
<path id="Vector_48" d="M93.4788 100.046H47.2207" stroke="#1C145E" stroke-miterlimit="10"/>
</g>
<g id="Group_10">
<g id="Group_11">
<g id="Group_12">
<path id="Vector_49" d="M113.923 68.9509L129.279 69.2394L125.798 50.6201L117.632 51.5365C117.632 51.5365 113.954 56.9172 116.859 61.1009C120.136 65.8212 113.585 65.9973 113.923 68.9509Z" fill="#16005C"/>
<path id="Vector_50" d="M117.632 51.5366C117.632 51.5366 113.954 56.9173 116.859 61.101C120.136 65.8217 113.585 65.9975 113.923 68.951" stroke="#7079F1" stroke-width="2" stroke-miterlimit="10"/>
</g>
<path id="Vector_51" d="M120.695 66.7019C120.695 66.7019 113.709 73.4975 110.024 99.107H117.802L120.695 66.7019Z" fill="#7079F1"/>
<path id="Vector_52" d="M139.162 64.8086L136.122 99.1068H113.532L116.344 86.0074C116.344 86.0074 107.744 81.5601 120.696 66.7017L123.916 65.0605L137.902 64.0137L139.162 64.8086Z" fill="#C3C8FF"/>
<path id="Vector_53" d="M120.694 82.052C120.694 82.052 119.34 84.3509 120.642 86.1965L118.725 99.107" stroke="#7079F1" stroke-miterlimit="10"/>
<path id="Vector_54" d="M117.538 86.0667L130.622 86.4494" stroke="#7079F1" stroke-miterlimit="10"/>
<path id="Vector_55" d="M133.2 92.523L131.816 76.0261" stroke="#7079F1" stroke-miterlimit="10"/>
<path id="Vector_56" d="M139.16 64.8088C139.16 64.8088 140.408 66.3644 141.852 69.9715C143.9 75.0863 146.342 84.3268 146.182 99.1067H136.12L139.16 64.8088Z" fill="#C3C8FF"/>
<path id="Vector_57" d="M146.182 100.238C146.182 100.238 141.154 88.8419 128.508 92.1031C114.701 95.6642 109.574 94.9986 109.574 94.9986L108.527 100.238H146.182Z" fill="#E9A394"/>
<g id="Group_13">
<path id="Vector_58" d="M133.022 89.708L128.535 90.7025L138.726 100.238H148.333C148.333 100.238 144.193 90.2876 133.022 89.708Z" fill="#7079F1"/>
<path id="Vector_59" d="M133.299 92.6657L135.436 92.0186" stroke="#C3C8FF" stroke-miterlimit="10"/>
</g>
<path id="Vector_60" d="M109.574 94.9987L103.013 93.6543L98.3101 100.238H108.527L109.574 94.9987Z" fill="#E9A394"/>
<path id="Vector_61" d="M120.695 82.052L132.887 69.9677L130.622 68.9077L139.161 64.8088L135.239 62.3357H126.113L120.695 69.0491L122.192 69.4217L120.695 70.4625V82.052Z" fill="#7079F1"/>
<g id="Group_14">
<path id="Vector_62" d="M129.215 66.4436L133.198 63.7156L128.899 54.187L122.235 58.3357L124.112 66.2396L120.691 82.052L129.215 66.4436Z" fill="#E9A394"/>
<path id="Vector_63" d="M122.771 60.5928L127.448 58.1755L123.273 62.7032L122.771 60.5928Z" fill="#E37A82"/>
<path id="Vector_64" d="M114.228 46.7979L112.186 58.0156H115.249L118.688 62.7031L127.448 58.1755L121.321 44.6458L114.228 46.7979Z" fill="#E9A394"/>
<path id="Vector_65" d="M113.732 49.5181L113.527 50.7505L121.605 49.658L121.482 48.1235L113.732 49.5181Z" fill="#E37A82"/>
<path id="Vector_66" d="M136.556 45.9458C134.534 40.5123 132.061 38.4174 132.061 38.4174C127.106 33.5365 118.635 38.9526 118.635 38.9526C107.779 36.3482 112.186 49.7068 112.186 49.7068L121.026 48.632C122.262 55.9827 126.683 52.2606 126.683 52.2606L128.745 55.9465C128.745 55.9465 126.665 57.7687 128.833 60.8927C130.619 63.465 126.343 64.3414 127.448 67.0797L144.536 63.5691C144.536 52.4246 140.211 55.7659 136.556 45.9458Z" fill="#16005C"/>
<path id="Vector_67" d="M111.492 49.7931C111.492 49.7931 109.929 42.1659 112.801 39.6841C114.298 38.3899 119.014 38.9525 119.014 38.9525" stroke="#7079F1" stroke-width="2" stroke-miterlimit="10"/>
<path id="Vector_68" d="M145.654 63.2479C145.654 63.2479 147.019 58.1757 139.583 52.4243" stroke="#16005C" stroke-width="2" stroke-miterlimit="10"/>
<path id="Vector_69" d="M126.937 56.418C128.97 56.418 130.618 54.7845 130.618 52.7694C130.618 50.7544 128.97 49.1208 126.937 49.1208C124.904 49.1208 123.256 50.7544 123.256 52.7694C123.256 54.7845 124.904 56.418 126.937 56.418Z" fill="#E9A394"/>
</g>
</g>
<path id="Vector_70" d="M117.539 57.6031L119.821 57.0476C119.821 57.0476 120.622 63.4989 117.539 57.6031Z" fill="white"/>
<g id="Group_15">
<path id="Vector_71" d="M115.639 53.7907C115.639 53.7907 116.365 49.4029 117.955 53.7907" stroke="#1C145E" stroke-width="0.5" stroke-miterlimit="10"/>
<path id="Vector_72" d="M116.198 50.453C116.198 50.453 117.083 48.9679 118.131 50.453H116.198Z" fill="#16005C"/>
</g>
</g>
<g id="Group_16">
<g id="Group_17">
<path id="Vector_73" d="M81.8539 10.9236C80.5298 7.27392 76.3671 5.44643 72.7184 7.0058C69.5784 8.34795 67.9138 11.8789 68.8878 15.1281C69.4323 16.9447 70.6619 18.3498 72.2017 19.1696C73.6232 19.9261 74.8429 21.0058 75.7371 22.3366L75.995 22.7205L81.1074 20.8987L81.0598 20.442C80.8913 18.8249 81.1767 17.2071 81.7797 15.6953C82.3679 14.2196 82.4379 12.5339 81.8539 10.9236Z" fill="#C3C8FF"/>
<path id="Vector_74" d="M81.8539 10.9236C80.5298 7.27392 76.3671 5.44643 72.7184 7.0058C69.5784 8.34795 67.9138 11.8789 68.8878 15.1281C69.4323 16.9447 70.6619 18.3498 72.2017 19.1696C73.6232 19.9261 74.8429 21.0058 75.7371 22.3366L75.995 22.7205L81.1074 20.8987L81.0598 20.442C80.8913 18.8249 81.1767 17.2071 81.7797 15.6953C82.3679 14.2196 82.4379 12.5339 81.8539 10.9236Z" fill="#C3C8FF"/>
<path id="Vector_75" d="M77.1631 21.2261L73.0879 15.5294C73.0879 15.5294 73.1621 14.3758 74.4412 14.5587C75.7204 14.7416 76.484 16.7426 75.5712 16.4197C74.6585 16.0969 74.3355 13.7449 76.0628 13.3862C77.7898 13.0276 78.3669 16.9168 77.4127 16.1675C76.4585 15.4181 76.6598 12.942 78.5092 12.9216L79.5943 21.1378" stroke="white" stroke-miterlimit="10"/>
<path id="Vector_76" d="M80.9885 24.7923L78.5877 25.648C77.675 25.9735 76.6686 25.5036 76.3407 24.5989L75.8331 23.1998C75.5048 22.2951 75.9789 21.2976 76.8916 20.9725L79.2924 20.1169C80.2051 19.7914 81.2111 20.2613 81.5394 21.166L82.047 22.5651C82.3749 23.4698 81.9013 24.4669 80.9885 24.7923Z" fill="#16005C"/>
<path id="Vector_77" d="M81.5537 18.8502L74.3237 21.4265L75.5926 24.9248L82.8225 22.3485L81.5537 18.8502Z" fill="#6876EB"/>
</g>
<path id="Vector_78" d="M75.2614 4.72117L74.54 0.622314" stroke="#C3C8FF" stroke-miterlimit="10"/>
<path id="Vector_79" d="M70.0491 7.16248L66.5952 3.8186" stroke="#C3C8FF" stroke-miterlimit="10"/>
<path id="Vector_80" d="M66.4512 13.2371L62.5103 13.5165" stroke="#C3C8FF" stroke-miterlimit="10"/>
<path id="Vector_81" d="M80.9434 6.96719L82.7171 3.70703" stroke="#C3C8FF" stroke-miterlimit="10"/>
</g>
<g id="Group_18">
<g id="Group_19">
<g id="Group_20">
<path id="Vector_82" d="M136.429 37.0791H160.865C161.715 37.0791 162.529 36.3965 162.683 35.5541L165.208 21.7453C165.362 20.9032 164.798 20.2202 163.948 20.2202H139.512C138.662 20.2202 137.848 20.9028 137.694 21.7453L135.169 35.5541C135.015 36.3962 135.579 37.0791 136.429 37.0791Z" fill="#009CF8"/>
<g id="Group_21">
<path id="Vector_83" d="M156.021 29.7226C156.735 29.0768 156.872 28.0749 156.328 27.4849C155.785 26.8949 154.766 26.9401 154.052 27.586C153.339 28.2318 153.202 29.2337 153.745 29.8237C154.289 30.4137 155.308 30.3684 156.021 29.7226Z" fill="white"/>
<path id="Vector_84" d="M151.167 29.7226C151.88 29.0768 152.018 28.0749 151.474 27.4849C150.93 26.8949 149.911 26.9401 149.198 27.586C148.485 28.2318 148.347 29.2337 148.891 29.8237C149.435 30.4137 150.454 30.3684 151.167 29.7226Z" fill="white"/>
<path id="Vector_85" d="M146.312 29.7226C147.026 29.0768 147.163 28.0749 146.619 27.4849C146.076 26.8949 145.057 26.9401 144.343 27.586C143.63 28.2318 143.493 29.2337 144.036 29.8237C144.58 30.4137 145.599 30.3684 146.312 29.7226Z" fill="white"/>
</g>
</g>
<path id="Vector_86" d="M149.581 36.1711L141.09 41.1727L142.612 35.7766L149.581 36.1711Z" fill="#009CF8"/>
</g>
<g id="Group_22">
<g id="Group_23">
<path id="Vector_87" d="M57.7058 35.032H33.2689C32.4193 35.032 31.6055 34.3494 31.4514 33.507L28.9262 19.6981C28.7721 18.8561 29.3364 18.1731 30.186 18.1731H54.6229C55.4725 18.1731 56.2863 18.8557 56.4404 19.6981L58.9656 33.507C59.1197 34.3491 58.5558 35.032 57.7058 35.032Z" fill="#C3C8FF"/>
<g id="Group_24">
<path id="Vector_88" d="M40.3797 27.7702C40.9235 27.1802 40.786 26.1784 40.0727 25.5325C39.3593 24.8867 38.3403 24.8414 37.7965 25.4314C37.2528 26.0215 37.3903 27.0233 38.1036 27.6691C38.8169 28.315 39.836 28.3602 40.3797 27.7702Z" fill="white"/>
<path id="Vector_89" d="M45.2342 27.7702C45.778 27.1802 45.6405 26.1784 44.9272 25.5325C44.2138 24.8867 43.1948 24.8414 42.651 25.4314C42.1073 26.0215 42.2448 27.0233 42.9581 27.6691C43.6714 28.315 44.6905 28.3602 45.2342 27.7702Z" fill="white"/>
<path id="Vector_90" d="M50.0887 27.7705C50.6324 27.1805 50.495 26.1786 49.7817 25.5328C49.0683 24.8869 48.0493 24.8417 47.5055 25.4317C46.9618 26.0217 47.0993 27.0236 47.8126 27.6694C48.5259 28.3152 49.545 28.3605 50.0887 27.7705Z" fill="white"/>
</g>
</g>
<path id="Vector_91" d="M48.9888 34.124L50.3292 38.9522L55.7501 33.7861L48.9888 34.124Z" fill="#C3C8FF"/>
</g>
</g>
</g>
</svg>
