<svg width="166" height="167" viewBox="0 0 166 167" fill="none" xmlns="http://www.w3.org/2000/svg">
<g id="5155720_2672333 1">
<g id="OBJECTS">
<g id="Group">
<path id="Vector" d="M71.9732 52.807C66.785 33.8729 43.4053 27.7734 30.0064 41.9239C29.8138 42.127 29.6219 42.3338 29.4297 42.5438C10.2205 63.5508 19.2951 115.318 59.3841 128.439C99.4731 141.56 141.171 117.6 143.514 96.1816C145.856 74.7632 127.361 68.0331 98.6587 74.0223C82.4425 77.4058 75.2029 64.5939 71.9732 52.807Z" fill="#BBE2F2"/>
<path id="Vector_2" d="M105.322 56.0455C99.9578 56.9239 98.4714 61.7048 102.613 65.0962C103.982 66.2171 105.936 67.1487 108.721 67.6133C119.33 69.3838 124.96 64.6617 120.707 58.5395C118.083 54.7609 110.637 55.1751 105.322 56.0455Z" fill="#BBE2F2"/>
<path id="Vector_3" d="M19.7986 94.3031C16.464 89.9862 11.5803 90.9621 10.6032 96.2437C10.2802 97.9895 10.4033 100.162 11.3309 102.844C14.8647 113.062 21.6807 115.774 24.9878 109.087C27.0292 104.959 23.1033 98.581 19.7986 94.3031Z" fill="#BBE2F2"/>
<path id="Vector_4" d="M147.294 98.6706C146.8 101.273 148.936 103.116 151.356 102.113C152.156 101.782 152.963 101.143 153.681 100.019C156.415 95.7398 155.031 92.0691 151.223 92.4458C148.873 92.6786 147.784 96.0918 147.294 98.6706Z" fill="#BBE2F2"/>
<path id="Vector_5" d="M133.734 71.21C136.312 71.7514 138.181 69.6342 137.225 67.183C136.909 66.3727 136.288 65.5501 135.184 64.8089C130.977 61.9856 127.305 63.3159 127.615 67.1523C127.806 69.5197 131.18 70.6736 133.734 71.21Z" fill="#BBE2F2"/>
<path id="Vector_6" d="M71.0771 43.3631C73.1182 45.0371 75.7453 44.0227 76.0186 41.4038C76.1089 40.5385 75.9336 39.5204 75.2922 38.3511C72.849 33.8969 68.9805 33.3782 67.5005 36.9272C66.5871 39.1179 69.0546 41.7041 71.0771 43.3631Z" fill="#BBE2F2"/>
</g>
<g id="Group_2">
<path id="Vector_7" d="M153.686 111.688C157.779 107.549 160.896 102.87 157.795 102.141C154.692 101.411 149.479 109.564 148.57 116.984L147.661 119.434C148.417 114.038 146.579 107.465 143.888 107.194C141.214 106.925 142.833 111.188 144.957 114.834C146.573 117.61 146.999 119.8 147.106 120.931L142.812 132.502C143.985 123.953 141.073 113.582 136.815 113.153C132.573 112.726 135.141 119.491 138.51 125.277C141.057 129.649 141.742 133.107 141.917 134.914L141.061 137.221C141.436 137.433 141.811 137.643 142.188 137.85L147.296 124.084C148.281 123.344 149.778 122.449 151.908 121.724C155.887 120.37 159.887 118.216 157.692 116.657C155.787 115.303 151.308 117.908 148.223 121.585L149.99 116.824C150.786 115.446 151.919 113.475 153.686 111.688Z" fill="#1C31B5"/>
<path id="Vector_8" d="M24.6581 57.6813C25.189 52.6817 24.7757 47.8494 22.3023 49.0411C19.8265 50.2341 20.6944 58.536 24.0602 64.012L24.7624 66.1502C22.3786 62.1165 17.6224 58.699 15.6702 59.9763C13.7304 61.2455 17.1018 63.2311 20.4816 64.528C23.0546 65.5153 24.5137 66.7548 25.1917 67.4572L28.5083 77.5563C24.7152 71.1793 17.2024 65.7932 14.1135 67.8142C11.0355 69.8282 16.3847 72.9789 21.7478 75.037C25.8006 76.5921 28.1139 78.5426 29.1996 79.6612L29.8609 81.6749C30.2261 81.6144 30.5907 81.5516 30.9549 81.4865L27.009 69.4715C27.2743 68.4401 27.7999 67.028 28.842 65.3857C30.7889 62.3183 32.3207 58.703 30.011 58.846C28.0064 58.9702 26.3945 63.1486 26.2926 67.2902L24.9281 63.1352C24.7242 61.7772 24.4291 59.8393 24.6581 57.6813Z" fill="#1C31B5"/>
<g id="Group_3">
<g id="Group_4">
<path id="Vector_9" d="M126.055 125.44C126.107 125.723 126.167 126.033 126.237 126.361V126.362C126.975 129.809 128.784 135.453 132.855 136.563C132.855 136.563 130.639 124.938 138.537 121.91C146.436 118.883 145.562 116 145.111 110.869C144.659 105.737 142.914 104.759 148.394 99.9525C153.874 95.1459 152.826 87.9866 152.826 87.9866C152.826 87.9866 147.64 96.1609 142.1 96.3506C136.561 96.5403 135.591 101.298 135.827 104.836C136.063 108.374 131.359 108.774 128.813 110.826C126.267 112.878 125.788 123.654 125.788 123.654C125.788 123.654 125.858 124.359 126.055 125.44Z" fill="#009CF8"/>
</g>
<g id="Group_5">
<path id="Vector_10" d="M126.055 125.44C126.107 125.723 126.167 126.033 126.237 126.361C126.805 124.631 127.604 123.179 128.352 122.064C130.124 119.423 132.619 117.253 134.863 116.402C138.436 115.048 140.181 111.522 140.519 104.97C140.715 101.167 144.67 98.9205 144.71 98.8984C144.826 98.834 144.868 98.687 144.804 98.5708C144.74 98.4539 144.594 98.4115 144.478 98.4759C144.306 98.5718 140.25 100.871 140.04 104.944C139.714 111.278 138.064 114.673 134.694 115.951C132.326 116.849 129.807 119.033 127.954 121.793C127.3 122.769 126.607 123.998 126.055 125.44Z" fill="#006BDE"/>
</g>
</g>
<g id="Group_6">
<g id="Group_7">
<path id="Vector_11" d="M38.6309 136.499H44.1809C41.1819 136.001 33.7468 132.79 33.0838 126.35C32.2442 118.194 29.3571 118.296 24.493 117.444C19.6285 116.591 18.2886 117.983 15.2 111.651C12.1114 105.32 5.2207 104.521 5.2207 104.521C5.2207 104.521 11.5011 111.416 10.2993 116.655C9.09747 121.894 13.2621 123.986 16.5973 124.645C19.9326 125.303 19.1332 129.812 20.4004 132.709C20.9788 134.03 23.3462 135.4 25.7493 136.499H38.6309Z" fill="#006BDE"/>
</g>
<g id="Group_8">
<path id="Vector_12" d="M26.6092 128.471C26.8516 130.913 28.2477 133.818 30.3436 136.24C30.4173 136.326 30.494 136.412 30.5723 136.499H31.2038C31.0232 136.307 30.8519 136.118 30.6928 135.934C28.6879 133.617 27.2991 130.739 27.0687 128.424C26.7029 124.738 23.8719 122.226 17.8879 120.28C14.4145 119.151 13.3176 114.885 13.3077 114.841C13.2768 114.717 13.151 114.641 13.0274 114.672C12.9033 114.703 12.8276 114.829 12.8585 114.954C12.9043 115.139 14.0251 119.513 17.7452 120.722C23.5296 122.604 26.2636 124.994 26.6092 128.471Z" fill="#1C31B5"/>
</g>
</g>
<g id="Group_9">
<g id="Group_10">
<path id="Vector_13" d="M41.6243 121.363C41.5067 121.759 41.3736 122.191 41.2232 122.649L41.2229 122.65C39.6449 127.454 36.4079 135.546 30.4302 136.499C30.4302 136.499 35.1612 119.938 24.3563 114.397C13.5513 108.856 15.2379 104.879 16.6662 97.6288C18.0941 90.3787 20.7335 89.2528 13.6499 81.5484C6.56639 73.844 9.15566 63.793 9.15566 63.793C9.15566 63.793 15.3056 76.2562 23.179 77.3834C31.0527 78.5107 31.7097 85.4479 30.8323 90.4585C29.9548 95.4692 36.6051 96.7671 39.9231 100.088C43.2411 103.409 42.2786 118.857 42.2786 118.857C42.2786 118.857 42.0705 119.851 41.6243 121.363Z" fill="#009CF8"/>
</g>
<g id="Group_11">
<path id="Vector_14" d="M41.6243 121.363C41.5068 121.759 41.3736 122.19 41.2232 122.649C40.6774 120.093 39.7594 117.897 38.863 116.191C36.7392 112.149 33.5112 108.669 30.4402 107.107C25.5498 104.623 23.5997 99.3231 24.1182 89.924C24.42 84.4685 19.1213 80.6518 19.0665 80.6148C18.9115 80.5049 18.8736 80.2888 18.9829 80.1328C19.0924 79.9758 19.3072 79.9378 19.4623 80.0476C19.6937 80.211 25.1285 84.1184 24.8058 89.9621C24.3038 99.0482 26.1371 104.146 30.75 106.491C33.9906 108.137 37.2515 111.643 39.4719 115.867C40.2564 117.36 41.0576 119.219 41.6243 121.363Z" fill="#006BDE"/>
</g>
</g>
</g>
<g id="Group_12">
<g id="Group_13">
<path id="Vector_15" d="M45.9099 132.605C45.9281 133.864 45.9507 135.174 45.9782 136.499H58.0498C58.0727 135.048 58.0903 133.658 58.1036 132.354C58.1397 128.819 58.1441 125.911 58.1411 124.103C58.1397 122.82 58.1344 122.093 58.1344 122.093L45.8252 121.962C45.8252 121.962 45.8252 123.031 45.8345 124.781C45.8425 126.726 45.864 129.51 45.9099 132.605Z" fill="#18315B"/>
<path id="Vector_16" d="M45.8345 124.781C45.8424 126.726 45.864 129.51 45.9098 132.605C49.7019 132.896 53.8589 132.898 58.1035 132.354C58.1401 128.819 58.144 125.91 58.1414 124.103L45.8345 124.781Z" fill="#000B29"/>
</g>
<g id="Group_14">
<path id="Vector_17" d="M30.6969 129.812C30.7105 131.792 30.7338 134.059 30.7729 136.499H42.8455C42.8753 135.071 42.8992 133.659 42.9188 132.311C42.9607 129.417 42.9822 126.811 42.9929 124.938C43.0022 123.095 43.0022 121.962 43.0022 121.962L30.6873 122.093C30.6873 122.093 30.678 123.407 30.6807 125.617C30.681 126.785 30.6863 128.203 30.6969 129.812Z" fill="#18315B"/>
<path id="Vector_18" d="M30.6812 125.617C30.6812 126.785 30.6865 128.203 30.6974 129.812C33.1489 130.539 37.5373 131.67 42.9193 132.311C42.9612 129.417 42.9827 126.811 42.9934 124.938L30.6812 125.617Z" fill="#000B29"/>
</g>
<g id="Group_15">
<path id="Vector_19" d="M50.9175 56.8071C50.9175 56.8071 52.8574 54.9276 52.8511 53.0716C52.8445 51.2156 51.5905 51.764 50.9175 50.0345C50.2446 48.3051 48.2449 47.2503 47.1483 47.4614C46.0517 47.6725 43.7364 43.3696 40.5963 44.1288C37.4559 44.8879 37.7292 48.9377 36.3766 49.5282C35.024 50.1187 35.4012 52.5232 36.1143 53.0716C36.8271 53.62 37.1289 55.8238 37.53 55.774C37.9307 55.7242 50.9175 56.8071 50.9175 56.8071Z" fill="#18315B"/>
<g id="Group_16">
<path id="Vector_20" d="M37.8615 56.7627C37.8615 56.7627 36.6417 55.1268 35.735 56.4795C34.828 57.8322 36.1102 61.8275 38.3306 60.8522L37.8615 56.7627Z" fill="#F97853"/>
<g id="Group_17">
<path id="Vector_21" d="M37.8461 59.6178C37.7641 59.6178 37.6887 59.5634 37.6655 59.4799C37.3215 58.2464 36.051 57.7464 36.0383 57.7414C35.9417 57.7043 35.8929 57.5954 35.9298 57.4979C35.9663 57.4004 36.0749 57.3513 36.1715 57.3883C36.2309 57.4107 37.6306 57.9575 38.027 59.378C38.0549 59.4785 37.9968 59.5824 37.8972 59.6108C37.8799 59.6155 37.8627 59.6178 37.8461 59.6178Z" fill="#EA5143"/>
</g>
<g id="Group_18">
<path id="Vector_22" d="M36.5637 58.9961C36.5289 58.9961 36.4937 58.9864 36.4625 58.966C36.3755 58.9096 36.3502 58.7927 36.4063 58.7052C36.4156 58.6905 36.6404 58.3458 37.1105 58.134C37.2045 58.0913 37.316 58.134 37.3582 58.2292C37.4004 58.3244 37.3582 58.436 37.2636 58.4784C36.9 58.642 36.7234 58.9069 36.7218 58.9092C36.6856 58.9657 36.6251 58.9961 36.5637 58.9961Z" fill="#EA5143"/>
</g>
</g>
<g id="Group_19">
<path id="Vector_23" d="M50.4305 56.7627C50.4305 56.7627 51.65 55.1268 52.557 56.4795C53.4637 57.8322 52.1818 61.8275 49.9614 60.8522L50.4305 56.7627Z" fill="#F97853"/>
<g id="Group_20">
<path id="Vector_24" d="M50.4462 59.6178C50.5282 59.6178 50.6036 59.5634 50.6268 59.4799C50.9708 58.2464 52.241 57.7464 52.254 57.7414C52.3506 57.7043 52.3994 57.5954 52.3625 57.4979C52.3257 57.4004 52.2174 57.3513 52.1208 57.3883C52.0614 57.4107 50.6617 57.9575 50.2653 59.378C50.2374 59.4785 50.2955 59.5824 50.3954 59.6108C50.4124 59.6155 50.4296 59.6178 50.4462 59.6178Z" fill="#EA5143"/>
</g>
<g id="Group_21">
<g id="Group_22">
<path id="Vector_25" d="M51.7281 58.9961C51.763 58.9961 51.7982 58.9864 51.8294 58.966C51.9167 58.9096 51.9416 58.7927 51.8855 58.7052C51.8762 58.6905 51.6515 58.3458 51.1813 58.134C51.0874 58.0913 50.9758 58.134 50.9333 58.2292C50.8912 58.3244 50.9333 58.436 51.028 58.4784C51.3915 58.642 51.5681 58.9069 51.5698 58.9092C51.6063 58.9657 51.6664 58.9961 51.7281 58.9961Z" fill="#EA5143"/>
</g>
</g>
</g>
<path id="Vector_26" d="M47.1484 64.2412V68.2145C47.1484 68.2145 45.9704 70.2382 44.3778 70.3758C42.7865 70.5154 41.3726 68.6336 41.3726 68.6336V64.5208L47.1484 64.2412Z" fill="#FFA681"/>
<path id="Vector_27" d="M47.1482 64.2412V66.0044C46.0795 67.1978 44.1811 67.4957 41.3721 67.0785V64.5208L47.1482 64.2412Z" fill="#F97853"/>
<path id="Vector_28" d="M51.3122 54.0369C51.2391 55.581 51.0927 57.5119 50.7999 59.056C50.7269 59.4411 50.6442 59.8035 50.5522 60.1281C49.7209 63.0556 47.6422 68.0766 41.822 65.9851C39.2513 65.0623 38.0601 62.1819 37.5289 59.252C37.1686 57.2624 37.1142 55.2524 37.1404 53.8158C37.1686 52.3492 37.9641 51.0089 39.2324 50.2861C42.6679 48.3269 46.293 49.0573 48.6794 49.9802C50.3364 50.6205 51.3965 52.2571 51.3122 54.0369Z" fill="#FFA681"/>
<path id="Vector_29" d="M37.5293 59.2518C37.5293 59.2518 38.094 62.6369 38.6276 63.8711C39.1621 65.1049 40.6192 65.3377 41.1664 66.3804C41.9469 67.8674 43.1368 69.0461 45.0939 68.328C46.7224 67.7304 46.6487 66.8928 47.561 66.2448C49.1241 65.1346 49.8986 63.9128 49.9617 62.9005C50.0244 61.8881 50.8007 59.0558 50.8007 59.0558L49.9617 58.9963C49.9617 58.9963 49.4836 59.9923 48.7804 61.0895C48.0746 59.5304 44.6746 60.6643 44.6746 60.6643L44.0255 60.8758L43.3589 60.6643C43.3589 60.6643 39.9184 59.5785 39.2391 61.2134C38.8228 60.5732 38.4845 59.853 38.3307 59.0899L37.5293 59.2518ZM44.0252 61.4031C47.9249 60.7298 47.228 63.0267 47.2028 63.1092V63.1105C47.2015 63.1119 47.2015 63.1119 47.2015 63.1119C46.9372 63.3651 46.6679 63.5775 46.4 63.7231C44.8891 64.5444 44.7257 64.4205 44.1295 64.4469C43.5232 64.4759 42.6866 64.2949 41.8377 63.818C41.5734 63.6687 41.1786 63.3801 40.7457 62.9826C40.7457 62.9826 40.1332 60.8754 44.0252 61.4031Z" fill="#18315B"/>
<path id="Vector_30" d="M41.6812 57.281C41.6812 57.7052 41.4641 58.0489 41.1958 58.0489C40.9279 58.0489 40.7104 57.7052 40.7104 57.281C40.7104 56.8569 40.9279 56.5132 41.1958 56.5132C41.4638 56.5132 41.6812 56.8569 41.6812 57.281Z" fill="#18315B"/>
<path id="Vector_31" d="M47.4507 57.281C47.4507 57.7052 47.2333 58.0489 46.9654 58.0489C46.6974 58.0489 46.48 57.7052 46.48 57.281C46.48 56.8569 46.6971 56.5132 46.9654 56.5132C47.2333 56.5132 47.4507 56.8569 47.4507 57.281Z" fill="#18315B"/>
<path id="Vector_32" d="M48.8759 54.7524C48.8759 54.7524 46.8703 53.9551 45.3262 54.6261L45.4806 55.4902C45.4806 55.4902 47.7468 55.2974 48.8889 55.7627C48.9915 55.43 49.0064 55.094 48.8759 54.7524Z" fill="#18315B"/>
<path id="Vector_33" d="M39.3407 54.7563C39.3407 54.7563 41.3609 53.9531 42.9163 54.6291L42.7606 55.4995C42.7606 55.4995 40.4774 55.3051 39.3271 55.774C39.2245 55.439 39.2092 55.1003 39.3407 54.7563Z" fill="#18315B"/>
<g id="Group_23">
<path id="Vector_34" d="M44.2109 60.4997C44.5273 60.4997 44.8414 60.3758 44.8902 60.3558C44.9861 60.3164 45.032 60.2062 44.9928 60.11C44.9539 60.0134 44.844 59.967 44.7484 60.0064C44.5791 60.0756 44.1721 60.1841 43.9958 60.0779C43.9616 60.0575 43.9154 60.0168 43.9035 59.9022C43.8358 59.2429 44.015 57.0335 44.017 57.0114C44.0257 56.9076 43.9486 56.8164 43.8454 56.808C43.7418 56.7994 43.6515 56.8768 43.6432 56.9807C43.6356 57.0729 43.4593 59.2476 43.5307 59.9413C43.5575 60.2025 43.6937 60.3361 43.8036 60.4022C43.9231 60.474 44.0675 60.4997 44.2109 60.4997Z" fill="#F97853"/>
</g>
<path id="Vector_35" d="M41.8193 61.781C41.9618 62.5021 42.4352 63.8284 44.0301 63.8284C45.629 63.8284 46.0772 62.6163 46.2313 61.781H41.8193Z" fill="white"/>
<path id="Vector_36" d="M51.312 54.0368C51.239 55.5809 51.0925 57.5117 50.7997 59.0558L49.9611 58.996C49.9611 58.996 50.1643 57.6924 50.2582 56.8427C50.3522 55.9934 50.5115 54.4055 49.7908 54.2075C49.072 54.0111 49.494 52.1998 48.494 51.4146C47.494 50.6273 45.2723 49.9346 43.7975 50.8484C42.3228 51.7602 40.6452 51.2562 39.9662 51.4146C39.2853 51.5712 38.362 52.5151 38.6117 53.3965C38.863 54.2759 38.1127 54.8123 37.9307 55.7238C37.7488 56.6356 38.3305 59.0892 38.3305 59.0892L37.5294 59.2515C37.1691 57.2619 37.1147 55.2519 37.1409 53.8153C37.1691 52.3488 37.9646 51.0084 39.2328 50.2856C42.6684 48.3264 46.2935 49.0569 48.6799 49.9797C50.3363 50.6203 51.3963 52.2569 51.312 54.0368Z" fill="#18315B"/>
</g>
<g id="Group_24">
<g id="Group_25">
<path id="Vector_37" d="M60.6853 128.064C56.8889 129.031 53.0925 129.657 49.2934 129.944C49.1211 129.957 48.9504 129.97 48.7781 129.981C48.2559 130.017 47.7337 130.046 47.2117 130.069C44.6278 130.181 42.0432 130.137 39.4582 129.937C38.937 129.896 38.4164 129.85 37.8952 129.796C37.7288 129.78 37.5622 129.762 37.3948 129.743C34.3089 129.406 31.2236 128.846 28.135 128.064C28.1042 125.202 28.1393 116.153 28.314 106.34C28.3342 105.161 28.3568 103.97 28.3827 102.778C28.6563 89.8454 29.1842 76.7175 30.134 75.4025C31.0443 74.144 33.7883 72.5445 36.4115 71.1016C36.5678 71.0158 36.7245 70.93 36.8799 70.8448C37.4699 70.5225 38.0462 70.2102 38.5887 69.9136C39.751 69.2773 40.7534 68.7115 41.3725 68.2747V68.634C41.3725 68.634 42.7849 70.5148 44.3765 70.3758C45.8273 70.2506 46.9319 68.5642 47.1195 68.262C47.804 68.7469 49.0331 69.4153 50.458 70.1728C50.8548 70.3842 51.2648 70.6003 51.6831 70.8234C51.8372 70.9049 51.9919 70.9874 52.1476 71.0709C55.0486 72.619 58.1764 74.3641 59.1153 75.6614C59.1857 75.7573 59.2524 75.9182 59.3161 76.1387C59.8719 78.0311 60.2165 84.311 60.4263 91.9158C60.4273 91.9429 60.428 91.9706 60.429 91.9983C60.4383 92.3056 60.4456 92.6152 60.4532 92.9269C60.4549 92.9673 60.4556 93.0087 60.4566 93.0498C60.5253 95.7174 60.5771 98.5257 60.6172 101.348C60.6206 101.571 60.6249 101.796 60.6272 102.019C60.6282 102.132 60.6299 102.243 60.6305 102.356C60.6398 102.911 60.6455 103.467 60.6508 104.02C60.6568 104.428 60.6617 104.836 60.6651 105.244C60.77 115.444 60.7271 125.065 60.6853 128.064Z" fill="#006BDE"/>
</g>
<g id="Group_26">
<path id="Vector_38" d="M60.4537 92.9271C59.5401 91.4261 58.5593 89.8941 57.6354 88.5387C57.6327 88.5353 57.6304 88.532 57.6287 88.5287C57.2406 87.9595 56.8632 87.4225 56.5043 86.9318C56.4983 86.9225 56.4926 86.9141 56.486 86.9064C56.3738 86.7525 56.2626 86.6025 56.1537 86.4569C56.1361 86.4315 56.1228 86.4054 56.1145 86.3777L56.1135 86.3767C56.0843 86.2782 56.1168 86.169 56.2031 86.1032C56.3144 86.018 56.4727 86.04 56.5564 86.1519C57.6659 87.6309 59.0852 89.7574 60.4272 91.9158C60.4282 91.9428 60.4288 91.9705 60.4298 91.9983C60.4388 92.3059 60.4461 92.6158 60.4537 92.9271Z" fill="#264CBE"/>
</g>
<path id="Vector_39" d="M59.1544 75.4529C59.1544 75.4529 64.8797 86.0053 68.3697 91.3536C68.3697 91.3536 70.3544 89.5193 72.9357 87.0654C75.7345 84.4047 79.5621 79.9582 79.5621 79.9582L81.6803 82.4853C81.6803 82.4853 73.0801 98.0547 69.223 100.012C65.3654 101.968 58.2573 88.1185 58.2573 88.1185L59.1544 75.4529Z" fill="#006BDE"/>
<g id="Group_27">
<path id="Vector_40" d="M34.913 117.043C34.9096 117.043 34.9067 117.043 34.9037 117.043C34.7609 117.038 34.649 116.917 34.654 116.773C34.9541 108.251 30.5618 105.49 30.5173 105.463C30.3951 105.389 30.3549 105.229 30.4283 105.106C30.5017 104.983 30.66 104.942 30.7829 105.016C30.8317 105.045 31.993 105.754 33.1175 107.573C34.144 109.233 35.3339 112.18 35.1713 116.791C35.1666 116.932 35.0517 117.043 34.913 117.043Z" fill="#264CBE"/>
</g>
<g id="Group_28">
<path id="Vector_41" d="M53.652 109.014C53.5182 109.014 53.4047 108.911 53.394 108.774C53.2549 106.979 53.8426 105.67 54.5866 104.013C54.8044 103.528 55.0291 103.027 55.2595 102.465C56.7034 98.9423 55.9777 94.9146 55.9704 94.8742C55.9441 94.7329 56.0364 94.5966 56.1772 94.5702C56.318 94.5435 56.4531 94.637 56.4793 94.7783C56.5112 94.949 57.2399 98.9994 55.7383 102.664C55.5046 103.234 55.2778 103.739 55.0584 104.228C54.317 105.879 53.7815 107.072 53.9103 108.734C53.9212 108.877 53.8147 109.003 53.6723 109.014C53.6656 109.014 53.659 109.014 53.652 109.014Z" fill="#264CBE"/>
</g>
<g id="Group_29">
<path id="Vector_42" d="M38.5889 69.9135C38.6994 70.7525 38.8618 71.841 39.0391 73.0771C39.0932 73.4442 39.1473 73.825 39.2027 74.2161C39.3827 75.4929 39.5689 76.8824 39.7273 78.2872C39.7701 78.6643 39.8103 79.0427 39.8481 79.4198C39.9879 80.8106 40.0935 82.1923 40.1313 83.4769C40.144 83.8653 40.1489 84.2451 40.1466 84.6135C40.144 85.5941 40.0898 86.4952 39.9716 87.2661C39.896 87.7534 39.8296 88.229 39.7705 88.695C39.7213 89.0811 39.6775 89.4605 39.6383 89.8339C39.4873 91.2831 39.4119 92.6322 39.3906 93.9037C39.3843 94.2898 39.383 94.6682 39.387 95.039C39.3983 96.4828 39.48 97.8282 39.5981 99.1088C39.6333 99.4922 39.6722 99.8693 39.7127 100.241C39.8674 101.641 40.056 102.973 40.2336 104.291C40.2851 104.668 40.3355 105.044 40.3847 105.42C40.4613 106.022 40.5344 106.625 40.5971 107.231C40.6639 107.874 40.7067 108.625 40.7266 109.459C40.7366 109.824 40.7416 110.205 40.7429 110.598C40.7479 111.845 40.7163 113.226 40.6586 114.669C40.6436 115.047 40.627 115.429 40.6084 115.815C40.5443 117.156 40.46 118.536 40.3657 119.897C40.3382 120.281 40.3103 120.662 40.2814 121.041C40.1768 122.459 40.0613 123.839 39.9441 125.124C39.9089 125.513 39.8737 125.895 39.8385 126.264C39.7037 127.677 39.5732 128.934 39.4587 129.937C42.0437 130.137 44.6289 130.181 47.2126 130.068C47.273 129.001 47.4377 127.28 47.6 125.254C47.6302 124.884 47.6591 124.501 47.688 124.112C47.7849 122.823 47.8729 121.447 47.9307 120.057C47.947 119.676 47.9609 119.294 47.9709 118.913C48.01 117.526 48.011 116.148 47.9519 114.856C47.9343 114.463 47.9118 114.08 47.8815 113.707C47.8513 113.325 47.8148 112.953 47.771 112.593C47.6465 111.578 47.5987 110.604 47.605 109.64C47.6063 109.258 47.6163 108.878 47.6339 108.497C47.693 107.176 47.8364 105.852 48.0024 104.446C48.0466 104.073 48.093 103.693 48.1395 103.306C48.2892 102.056 48.4453 100.73 48.5685 99.2781C48.601 98.906 48.6302 98.5253 48.6578 98.1355C48.7434 96.8903 48.8012 95.5527 48.8102 94.0947C48.8125 93.719 48.8115 93.3356 48.8065 92.9431C48.7926 91.6813 48.7398 90.3312 48.6378 88.877C48.6289 88.7481 48.6202 88.6175 48.6103 88.4859C48.5914 88.2314 48.5751 87.9745 48.5638 87.7177C48.4971 86.3914 48.5147 85.0273 48.589 83.6669C48.6093 83.2848 48.6342 82.9027 48.6634 82.5203C48.7677 81.1586 48.92 79.8096 49.096 78.5163C49.1475 78.1315 49.2016 77.7508 49.257 77.376C49.4685 75.9585 49.6959 74.6249 49.9048 73.4328C49.9741 73.0407 50.0405 72.6633 50.1036 72.3039C50.2457 71.499 50.3689 70.7815 50.4595 70.174C49.0342 69.4158 47.8052 68.7478 47.1209 68.2632C46.9334 68.5658 45.8291 70.2512 44.3773 70.3767C42.786 70.516 41.3733 68.6353 41.3733 68.6353V68.2759C40.7535 68.7114 39.7512 69.2772 38.5889 69.9135Z" fill="white"/>
<g id="Group_30">
<g id="Group_31">
<path id="Vector_43" d="M39.0391 73.0776C39.0932 73.4446 39.1473 73.8254 39.2027 74.2165C40.6307 74.2492 42.3073 74.0341 44.3275 73.5649C46.4911 73.0639 48.3995 73.151 49.9038 73.4319C49.9731 73.0398 50.0395 72.6624 50.1026 72.303C48.4725 72.0004 46.4158 71.9132 44.0735 72.456C42.0795 72.9182 40.4189 73.1307 39.0391 73.0776Z" fill="#E3E3E3"/>
</g>
<g id="Group_32">
<path id="Vector_44" d="M39.7275 78.2877C39.7704 78.6647 39.8105 79.0432 39.8484 79.4203C41.1302 79.3862 42.6046 79.1708 44.3281 78.7696C46.1182 78.3545 47.7357 78.3444 49.0956 78.5151C49.147 78.1303 49.2012 77.7496 49.2566 77.3748C47.7822 77.1915 46.0276 77.2065 44.0741 77.6597C42.4005 78.0485 40.9616 78.2609 39.7275 78.2877Z" fill="#E3E3E3"/>
</g>
<g id="Group_33">
<path id="Vector_45" d="M40.1309 83.4774C40.1435 83.8658 40.1485 84.2456 40.1461 84.614C41.3576 84.5569 42.7364 84.3444 44.3273 83.9747C45.8997 83.6103 47.3389 83.5582 48.5879 83.6661C48.6081 83.284 48.633 82.9019 48.6623 82.5195C47.3187 82.4082 45.7702 82.4714 44.0734 82.8648C42.58 83.2118 41.2729 83.4183 40.1309 83.4774Z" fill="#E3E3E3"/>
</g>
<g id="Group_34">
<path id="Vector_46" d="M39.6382 89.834C40.9692 89.819 42.5087 89.6012 44.3277 89.1797C45.9203 88.8103 47.3768 88.7622 48.6374 88.8761C48.6284 88.7472 48.6198 88.6166 48.6098 88.485C48.5909 88.2305 48.5746 87.9736 48.5633 87.7168C47.2426 87.6169 45.7294 87.685 44.0737 88.0698C42.4197 88.4546 40.9954 88.6647 39.7703 88.6951C39.7212 89.0812 39.677 89.4609 39.6382 89.834Z" fill="#E3E3E3"/>
</g>
<g id="Group_35">
<path id="Vector_47" d="M39.3865 95.0391C40.7739 95.0504 42.3931 94.834 44.3277 94.3848C45.997 93.9977 47.5129 93.9609 48.8097 94.0939C48.812 93.7181 48.811 93.3347 48.806 92.9422C47.4299 92.8143 45.8323 92.8674 44.0737 93.2749C42.246 93.6987 40.6986 93.9128 39.3905 93.9038C39.3839 94.2899 39.3825 94.6683 39.3865 95.0391Z" fill="#E3E3E3"/>
</g>
<g id="Group_36">
<path id="Vector_48" d="M39.5977 99.1092C39.6328 99.4927 39.6717 99.8697 39.7122 100.242C41.0256 100.22 42.5425 100.004 44.3277 99.5902C45.8937 99.2271 47.3266 99.1713 48.5683 99.2776C48.6008 98.9055 48.63 98.5247 48.6576 98.1349C47.314 98.0237 45.7682 98.0869 44.0737 98.4803C42.3426 98.8814 40.8609 99.0952 39.5977 99.1092Z" fill="#E3E3E3"/>
</g>
<g id="Group_37">
<path id="Vector_49" d="M40.2329 104.291C40.2844 104.668 40.3348 105.044 40.384 105.42C41.5377 105.348 42.8381 105.141 44.3275 104.795C45.6608 104.485 46.8975 104.4 48.002 104.446C48.0462 104.072 48.0927 103.692 48.1392 103.305C46.9214 103.249 45.5542 103.341 44.0735 103.685C42.623 104.021 41.3498 104.225 40.2329 104.291Z" fill="#E3E3E3"/>
</g>
<g id="Group_38">
<path id="Vector_50" d="M40.7261 109.46C40.736 109.824 40.741 110.205 40.7423 110.599C41.8054 110.509 42.9916 110.31 44.3273 109.999C45.5036 109.726 46.6041 109.628 47.6041 109.639C47.6054 109.257 47.6154 108.877 47.633 108.497C46.5474 108.485 45.3525 108.593 44.073 108.89C42.8333 109.178 41.7211 109.369 40.7261 109.46Z" fill="#E3E3E3"/>
</g>
<g id="Group_39">
<path id="Vector_51" d="M40.6079 115.815C41.7048 115.73 42.9339 115.526 44.3276 115.204C45.6397 114.9 46.8588 114.813 47.9518 114.856C47.9342 114.463 47.9116 114.08 47.8814 113.707C46.7303 113.674 45.4511 113.775 44.0737 114.094C42.8044 114.389 41.671 114.582 40.6584 114.67C40.6431 115.047 40.6268 115.429 40.6079 115.815Z" fill="#E3E3E3"/>
</g>
<g id="Group_40">
<path id="Vector_52" d="M40.2808 121.042C41.4594 120.974 42.794 120.764 44.3275 120.409C45.6319 120.106 46.8434 120.018 47.9304 120.057C47.9466 119.677 47.9606 119.294 47.9705 118.913C46.7969 118.873 45.4875 118.971 44.0735 119.299C42.6811 119.623 41.4507 119.824 40.3651 119.898C40.3372 120.281 40.3096 120.662 40.2808 121.042Z" fill="#E3E3E3"/>
</g>
<g id="Group_41">
<path id="Vector_53" d="M39.8379 126.264C41.1224 126.232 42.5991 126.015 44.3275 125.614C45.5011 125.342 46.6007 125.242 47.5994 125.254C47.6296 124.884 47.6585 124.502 47.6874 124.112C46.5868 124.095 45.374 124.202 44.0732 124.504C42.4972 124.87 41.1284 125.078 39.9435 125.124C39.9083 125.514 39.8731 125.895 39.8379 126.264Z" fill="#E3E3E3"/>
</g>
</g>
</g>
<g id="Group_42">
<g id="Group_43">
<path id="Vector_54" d="M48.7778 129.981C48.9501 129.97 49.1211 129.957 49.2934 129.944C50.3123 123.918 49.725 115.072 49.5059 112.361C49.2795 109.547 49.7147 105.928 50.6998 102.435C51.4647 99.7215 50.9953 93.4306 50.6191 88.3762C50.5135 86.9577 50.4129 85.6173 50.3538 84.5165C50.1613 80.9577 51.4418 74.3722 52.1476 71.0716C51.9916 70.9881 51.8369 70.906 51.6835 70.8235C50.9767 74.091 49.6493 80.8261 49.8505 84.5442C49.9109 85.6504 50.0115 86.9931 50.1171 88.4143C50.4906 93.4296 50.9561 99.6697 50.2164 102.296C49.2151 105.845 48.7735 109.529 49.0049 112.402C49.223 115.117 49.8143 124.018 48.7778 129.981Z" fill="#264CBE"/>
</g>
<g id="Group_44">
<path id="Vector_55" d="M38.3409 105.461C38.9398 109.166 38.7509 111.573 38.5321 114.358C38.4617 115.26 38.3887 116.19 38.3372 117.217C38.1775 120.442 37.6354 126.935 37.395 129.743C37.5623 129.762 37.7283 129.78 37.8957 129.796C38.136 126.988 38.6795 120.478 38.8402 117.242C38.8907 116.222 38.9634 115.295 39.0341 114.399C39.2542 111.581 39.4454 109.146 38.8365 105.379C38.7071 104.571 38.5686 103.751 38.4315 102.935C37.7536 98.8962 37.0514 94.7202 37.3837 92.7195C37.4641 92.2309 37.5673 91.6768 37.6782 91.0896C38.1284 88.6751 38.6908 85.6708 38.5135 83.0636C38.3372 80.4794 37.2844 73.4825 36.8807 70.8452C36.7247 70.9301 36.569 71.0162 36.4116 71.1021C36.8329 73.8596 37.8405 80.5883 38.0115 83.0977C38.1838 85.6401 37.6291 88.6103 37.1839 90.9958C37.073 91.5856 36.9687 92.1424 36.887 92.6357C36.5424 94.7202 37.219 98.7506 37.9362 103.019C38.073 103.835 38.2101 104.653 38.3409 105.461Z" fill="#264CBE"/>
</g>
</g>
</g>
<g id="Group_45">
<path id="Vector_56" d="M28.4391 79.7002C28.4391 79.7002 23.314 96.8942 22.0448 103.022C20.7756 109.149 20.6773 121.888 20.6773 121.888C20.6773 121.888 18.4366 126.567 18.3838 128.649C18.3274 130.869 19.4857 132.636 19.3536 134.088C19.2215 135.541 20.9794 134.752 20.4827 131.81C19.9861 128.867 21.3951 126.202 22.0033 126.287C22.6115 126.373 21.5 129.5 22.0402 130.627C22.58 131.754 23.2792 129.565 23.9741 128.237C24.6958 126.857 24.6533 123.848 24.325 121.7C23.9966 119.551 27.8674 106.503 27.886 102.722L32.7877 86.0589C32.7877 86.0589 31.1685 79.103 28.4391 79.7002Z" fill="#FFA681"/>
<path id="Vector_57" d="M33.4156 85.6404C33.242 86.7452 32.6344 88.642 31.8496 91.0288V91.0301C31.7829 91.2312 31.7148 91.4363 31.6471 91.645C31.6434 91.6537 31.6394 91.6641 31.6371 91.6741C31.4409 92.2676 31.2357 92.8888 31.0246 93.5318C31.0232 93.5355 31.0222 93.5395 31.0209 93.5431C30.1517 96.1981 29.1893 99.2355 28.3818 102.356C28.104 103.424 27.8447 104.504 27.6146 105.579C27.3201 106.952 27.0711 108.322 26.8888 109.662C26.2335 114.49 24.9805 120.604 24.9805 120.604C23.1425 121.364 20.2694 120.362 20.2694 120.362C20.2694 120.362 20.1951 111.555 20.6054 108.133C21.1124 103.902 21.7578 100.89 22.5576 97.4329C24.7591 87.9176 28.6335 78.6073 29.6962 76.1381C29.7806 75.9407 29.8473 75.7874 29.8938 75.6812H30.8084C32.6082 76.8325 33.8851 82.6638 33.4156 85.6404Z" fill="#006BDE"/>
<path id="Vector_58" d="M20.1196 118.599L20.2637 120.625C20.2637 120.625 22.9954 121.518 25.0432 120.889L25.5847 119.082C23.6129 119.187 21.7912 119.138 20.1196 118.599Z" fill="#009CF8"/>
<g id="Group_46">
<path id="Vector_59" d="M31.8497 91.0289V91.0302C31.8497 91.0593 31.8448 91.0883 31.8348 91.1174C31.773 91.2884 31.7103 91.4641 31.6472 91.6451C31.6436 91.6538 31.6396 91.6641 31.6373 91.6741C31.4361 92.2486 31.2309 92.8739 31.0247 93.5319C31.0234 93.5355 31.0224 93.5395 31.0211 93.5432C29.9507 96.965 28.8624 101.27 28.3617 104.02C28.3667 103.467 28.373 102.912 28.382 102.356C28.1041 103.425 27.8448 104.504 27.6147 105.58C27.718 104.571 28.0048 103.06 28.3959 101.348C29.1861 97.8829 30.3986 93.5913 31.362 90.944C31.4098 90.8124 31.5546 90.7453 31.6854 90.7934C31.787 90.8315 31.8497 90.9263 31.8497 91.0289Z" fill="#264CBE"/>
</g>
</g>
</g>
<g id="Group_47">
<g id="Group_48">
<g id="Group_49">
<g id="Group_50">
<path id="Vector_60" d="M123.528 136.5H135.635C135.594 135.655 135.555 134.845 135.516 134.081C135.305 129.91 135.126 127.071 135.126 127.071L125.28 127.51L124.464 127.548L123.016 127.613C123.016 127.613 123.155 130.152 123.373 133.872C123.421 134.694 123.473 135.576 123.528 136.5Z" fill="#18315B"/>
</g>
</g>
<path id="Vector_61" d="M124.463 127.547L123.015 127.612C123.015 127.612 123.155 130.152 123.372 133.872C127.155 134.189 131.285 134.318 135.516 134.08C135.304 129.91 135.125 127.07 135.125 127.07L125.28 127.51L124.463 127.547Z" fill="#000B29"/>
<g id="Group_51">
<path id="Vector_62" d="M125.782 136.499C125.56 132.639 125.379 129.341 125.279 127.51L124.463 127.548C124.562 129.37 124.743 132.653 124.964 136.499H125.782Z" fill="#000B29"/>
</g>
</g>
<g id="Group_52">
<g id="Group_53">
<g id="Group_54">
<path id="Vector_63" d="M119.976 136.5C120.038 135.454 120.097 134.462 120.15 133.548C120.359 130.005 120.49 127.613 120.49 127.613L118.918 127.542L118.103 127.505L108.378 127.07C108.378 127.07 108.271 128.763 108.125 131.453C108.048 132.886 107.959 134.604 107.87 136.499H119.976V136.5Z" fill="#18315B"/>
</g>
</g>
<path id="Vector_64" d="M108.125 131.453C110.765 132.077 115.021 132.953 120.15 133.548C120.359 130.004 120.489 127.612 120.489 127.612L118.918 127.542L118.103 127.505L108.378 127.07C108.378 127.07 108.271 128.763 108.125 131.453Z" fill="#000B29"/>
<g id="Group_55">
<path id="Vector_65" d="M118.417 136.5C118.638 132.649 118.819 129.364 118.918 127.542L118.103 127.505C118.003 129.335 117.822 132.636 117.6 136.5H118.417Z" fill="#000B29"/>
</g>
</g>
<g id="Group_56">
<g id="Group_57">
<g id="Group_58">
<path id="Vector_66" d="M136.883 128.968C134.417 129.651 131.951 130.166 129.485 130.512C128.628 130.633 127.771 130.734 126.914 130.813C125.758 130.921 124.603 130.993 123.448 131.03C121.538 131.089 119.627 131.047 117.716 130.904C114.022 130.632 110.328 129.983 106.633 128.968C106.599 125.502 106.651 113.074 106.909 101.086C106.922 100.548 106.933 100.011 106.947 99.4752C106.948 99.3616 106.952 99.2477 106.954 99.1342C106.957 99.0103 106.96 98.8867 106.964 98.7638C106.972 98.3833 106.982 98.0046 106.991 97.6275C107.01 96.8573 107.03 96.0938 107.052 95.3379C107.066 94.886 107.079 94.4365 107.092 93.9909C107.095 93.8984 107.098 93.8065 107.101 93.7147C107.11 93.4208 107.119 93.1289 107.128 92.8383C107.128 92.8383 107.128 92.8383 107.128 92.8373C107.132 92.7471 107.134 92.6572 107.138 92.5671C107.146 92.2992 107.155 92.0333 107.163 91.7698C107.172 91.545 107.179 91.3236 107.187 91.1015C107.473 83.015 107.892 76.6366 108.491 75.7375C109.507 74.2131 112.967 72.1894 115.75 70.5418C116.741 69.9559 117.925 69.3464 118.603 68.8945C119.591 69.6951 120.308 70.4182 121.773 70.3684C123.413 70.312 123.817 69.3203 124.442 68.47C124.824 68.7191 125.793 69.5187 126.296 69.816C126.727 70.0718 127.194 70.343 127.681 70.6249C128.434 71.0585 129.235 71.5191 130.028 71.9887C131.204 72.6847 132.363 73.4028 133.324 74.0889C134.284 74.7749 135.046 75.4305 135.424 75.999C135.968 76.8206 136.32 82.1399 136.547 89.1406C136.556 89.3854 136.563 89.6339 136.572 89.8837C136.573 89.9141 136.573 89.9442 136.573 89.9756C136.582 90.2297 136.59 90.4909 136.596 90.7518C136.618 91.5397 136.639 92.3446 136.661 93.1626C136.665 93.3353 136.669 93.5093 136.672 93.683C136.675 93.8136 136.68 93.9448 136.68 94.0734C136.688 94.4101 136.695 94.7478 136.703 95.0884C136.705 95.1566 136.705 95.2247 136.707 95.2932C136.726 96.1913 136.743 97.1021 136.759 98.0206C136.764 98.2892 136.768 98.5587 136.772 98.8279C136.978 111.432 136.931 125.244 136.883 128.968Z" fill="#006BDE"/>
</g>
</g>
<path id="Vector_67" d="M136.772 98.8293L132.867 102.814L129.228 99.1035L125.591 102.814L121.939 99.0885L118.286 102.814L114.61 99.0641L110.933 102.814L106.963 98.7642C106.972 98.3837 106.982 98.005 106.991 97.6279C107.01 96.8577 107.03 96.0942 107.052 95.3383L110.933 91.3784L114.61 95.1296L118.286 91.3784L121.939 95.1042L125.591 91.3784L129.228 95.0892L132.867 91.3784L136.707 95.2946C136.725 96.1927 136.742 97.1035 136.758 98.022C136.763 98.2905 136.768 98.5597 136.772 98.8293Z" fill="#264CBE"/>
<g id="Group_59">
<path id="Vector_68" d="M130.031 119.369H130.03C124.801 119.346 120.338 116.952 117.514 114.948C114.461 112.781 112.61 110.585 112.592 110.563C112.503 110.456 112.517 110.296 112.623 110.206C112.729 110.116 112.888 110.13 112.977 110.237C112.995 110.258 114.812 112.412 117.816 114.542C120.578 116.501 124.94 118.84 130.032 118.863C130.171 118.863 130.283 118.977 130.283 119.117C130.282 119.256 130.169 119.369 130.031 119.369Z" fill="#264CBE"/>
</g>
<g id="Group_60">
<path id="Vector_69" d="M126.769 116.258C122.317 115.377 118.376 111.947 118.197 111.789C118.093 111.697 118.082 111.538 118.173 111.432C118.265 111.327 118.424 111.317 118.528 111.408C118.574 111.449 123.212 115.483 127.938 115.917C128.079 115.929 128.179 116.053 128.166 116.192C128.153 116.331 128.031 116.434 127.893 116.421C127.516 116.387 127.141 116.331 126.769 116.258Z" fill="#264CBE"/>
</g>
<g id="Group_61">
<path id="Vector_70" d="M117.853 77.3302C117.734 77.3302 117.629 77.2457 117.606 77.1241C117.58 76.9869 117.67 76.8543 117.806 76.8282C124.181 75.6111 126.103 71.4855 126.121 71.4438C126.179 71.3165 126.328 71.2598 126.454 71.3175C126.581 71.375 126.637 71.525 126.58 71.6525C126.499 71.8319 124.53 76.0603 117.9 77.3259C117.885 77.3285 117.869 77.3302 117.853 77.3302Z" fill="#264CBE"/>
</g>
<g id="Group_62">
<path id="Vector_71" d="M110.074 88.4362V88.4378C110.068 88.4656 110.056 88.4933 110.04 88.5187C109.945 88.6727 109.845 88.832 109.746 88.9943C109.741 89.0036 109.735 89.011 109.731 89.0213C109.412 89.5401 109.08 90.1065 108.737 90.705C108.736 90.7094 108.735 90.7117 108.731 90.7151C108.197 91.6569 107.643 92.6783 107.101 93.7154C107.11 93.4215 107.119 93.1295 107.128 92.839C107.128 92.839 107.128 92.839 107.128 92.838C107.131 92.7478 107.134 92.6579 107.137 92.5678C108.012 90.9345 108.884 89.4068 109.615 88.2485C109.691 88.1299 109.845 88.0962 109.963 88.1703C110.054 88.2301 110.096 88.336 110.074 88.4362Z" fill="#264CBE"/>
</g>
</g>
<g id="Group_63">
<path id="Vector_72" d="M142.198 79.0556C142.198 79.0556 150.351 76.4196 152.763 71.0379C153.461 69.4791 147.712 53.6545 147.712 53.6545L144.938 53.7895C144.938 53.7895 145.729 59.2801 146.208 62.389C146.602 64.9451 147.239 67.9995 147.454 69.0052C147.5 69.2233 147.527 69.3445 147.527 69.3445C147.39 69.3682 147.254 69.3946 147.115 69.4223C143.307 70.2006 138.443 72.6966 138.443 72.6966L142.198 79.0556Z" fill="#FFA681"/>
<g id="Group_64">
<g id="Group_65">
<path id="Vector_73" d="M149.574 70.8614C149.69 70.9462 149.856 70.9209 149.939 70.8036C150.027 70.6847 150 70.5201 149.881 70.4369C149.289 70.0034 148.393 69.4947 147.454 69.0054C147.5 69.2235 147.527 69.3447 147.527 69.3447C147.39 69.3684 147.254 69.3948 147.115 69.4225C148.072 69.9172 148.988 70.4322 149.574 70.8614Z" fill="#F97853"/>
</g>
</g>
<path id="Vector_74" d="M129.725 71.8157C129.725 71.8157 127.259 77.6373 133.537 80.8784C137.881 83.1216 147.778 77.2652 147.778 77.2652L144.25 69.7285C144.25 69.7285 135.195 73.4863 129.725 71.8157Z" fill="#006BDE"/>
<path id="Vector_75" d="M146.292 44.7574C146.046 44.9308 146.097 45.9999 146.205 47.0069C146.17 47.0119 146.135 47.0179 146.099 47.0243C145.807 45.6803 145.226 43.3944 144.73 43.8306C144.404 44.1161 144.84 46.0874 145.137 47.2661C145.075 47.2851 145.014 47.3045 144.952 47.3245C144.578 45.9251 143.772 43.2294 143.235 43.7534C142.876 44.1031 143.564 46.4768 143.946 47.6876C143.892 47.7086 143.841 47.729 143.789 47.7494C143.424 46.5747 142.644 44.3526 142.11 44.8746C141.625 45.3473 143.012 48.7066 143.012 48.7066L143.376 50.0253C143.376 50.0253 142.944 50.213 142.269 49.4454C141.595 48.6779 140.789 48.543 141.349 49.6532C141.982 50.908 142.919 51.8078 143.331 52.6956C143.744 53.5834 145.041 53.8769 145.041 53.8769L147.646 53.7504C147.646 53.7504 148.152 49.3205 147.18 47.209C147.013 45.9545 146.72 44.4558 146.292 44.7574Z" fill="#FFA681"/>
</g>
<g id="Group_66">
<path id="Vector_76" d="M114.058 54.9734C114.058 59.4377 116.79 62.5138 121.226 62.5138C125.663 62.5138 128.757 59.2069 128.757 54.7423C128.757 53.5112 128.557 52.3615 128.173 51.3442C128.151 51.2837 128.128 51.2229 128.103 51.1642C128.056 51.0486 128.007 50.933 127.955 50.8215C127.877 50.6491 127.791 50.4805 127.7 50.3178C126.544 48.2266 124.473 46.897 121.691 46.897C116.37 46.8973 114.058 50.5092 114.058 54.9734Z" fill="#18315B"/>
<g id="Group_67">
<path id="Vector_77" d="M115.054 56.8956C115.054 56.8956 113.822 55.2419 112.905 56.6093C111.988 57.9767 113.285 62.0155 115.529 61.0295L115.054 56.8956Z" fill="#F97853"/>
<g id="Group_68">
<path id="Vector_78" d="M115.038 59.7817C114.955 59.7817 114.879 59.7266 114.856 59.6424C114.508 58.3956 113.224 57.8902 113.211 57.8852C113.114 57.8475 113.064 57.7376 113.101 57.6391C113.138 57.5405 113.248 57.4911 113.346 57.5282C113.406 57.5509 114.821 58.1033 115.221 59.5392C115.249 59.6407 115.191 59.7459 115.09 59.7743C115.073 59.7793 115.055 59.7817 115.038 59.7817Z" fill="#EA5143"/>
</g>
<g id="Group_69">
<path id="Vector_79" d="M113.742 59.1534C113.707 59.1534 113.672 59.1437 113.64 59.123C113.552 59.0659 113.526 58.948 113.583 58.8592C113.593 58.8445 113.82 58.4958 114.295 58.282C114.39 58.2386 114.503 58.282 114.545 58.3782C114.588 58.4744 114.545 58.5873 114.45 58.63C114.082 58.7954 113.904 59.0632 113.902 59.0659C113.866 59.1227 113.805 59.1534 113.742 59.1534Z" fill="#EA5143"/>
</g>
</g>
<g id="Group_70">
<path id="Vector_80" d="M127.759 56.8956C127.759 56.8956 128.992 55.2419 129.908 56.6093C130.825 57.9767 129.529 62.0155 127.285 61.0295L127.759 56.8956Z" fill="#F97853"/>
<g id="Group_71">
<path id="Vector_81" d="M127.775 59.7817C127.858 59.7817 127.934 59.7266 127.958 59.6424C128.306 58.3956 129.589 57.8902 129.602 57.8852C129.7 57.8475 129.749 57.7376 129.712 57.6391C129.675 57.5405 129.566 57.4911 129.468 57.5282C129.408 57.5509 127.993 58.1033 127.592 59.5392C127.564 59.6407 127.623 59.7459 127.724 59.7743C127.741 59.7793 127.758 59.7817 127.775 59.7817Z" fill="#EA5143"/>
</g>
<g id="Group_72">
<g id="Group_73">
<g id="Group_74">
<path id="Vector_82" d="M129.071 59.1534C129.106 59.1534 129.142 59.1437 129.174 59.123C129.262 59.0659 129.287 58.948 129.231 58.8592C129.221 58.8445 128.994 58.4958 128.519 58.282C128.424 58.2386 128.311 58.282 128.268 58.3782C128.225 58.4744 128.268 58.5873 128.364 58.63C128.731 58.7954 128.91 59.0632 128.911 59.0659C128.948 59.1227 129.009 59.1534 129.071 59.1534Z" fill="#EA5143"/>
</g>
</g>
</g>
</g>
<path id="Vector_83" d="M124.442 64.4551V68.4714C124.442 68.4714 123.251 70.5168 121.641 70.6561C120.032 70.7974 118.603 68.8949 118.603 68.8949V64.7373L124.442 64.4551Z" fill="#FFA681"/>
<path id="Vector_84" d="M124.442 64.4551V66.2373C123.361 67.4434 121.442 67.7446 118.603 67.3228V64.7373L124.442 64.4551Z" fill="#F97853"/>
<path id="Vector_85" d="M128.65 54.1404C128.576 55.7012 128.428 57.6531 128.133 59.2139C128.059 59.603 127.975 59.9694 127.882 60.2977C127.042 63.2569 124.941 68.3324 119.057 66.2182C116.459 65.285 115.255 62.3735 114.718 59.4123C114.354 57.4012 114.299 55.3692 114.326 53.9173C114.354 52.435 115.158 51.08 116.441 50.3492C119.913 48.3685 123.578 49.107 125.99 50.0402C127.664 50.6868 128.736 52.3411 128.65 54.1404Z" fill="#FFA681"/>
<path id="Vector_86" d="M118.884 57.4195C118.884 57.8484 118.664 58.1957 118.394 58.1957C118.123 58.1957 117.903 57.8484 117.903 57.4195C117.903 56.9907 118.123 56.6433 118.394 56.6433C118.665 56.6433 118.884 56.991 118.884 57.4195Z" fill="#18315B"/>
<path id="Vector_87" d="M124.666 57.4039C124.666 57.8328 124.447 58.1801 124.176 58.1801C123.905 58.1801 123.685 57.8328 123.685 57.4039C123.685 56.975 123.905 56.6277 124.176 56.6277C124.447 56.6274 124.666 56.975 124.666 57.4039Z" fill="#18315B"/>
<path id="Vector_88" d="M125.775 54.7359C125.775 54.7359 124.227 54.1203 123.035 54.6383L123.154 55.305C123.154 55.305 124.904 55.156 125.785 55.5154C125.864 55.2592 125.875 54.9997 125.775 54.7359Z" fill="#18315B"/>
<path id="Vector_89" d="M116.756 54.7359C116.756 54.7359 118.304 54.1203 119.496 54.6383L119.377 55.305C119.377 55.305 117.628 55.156 116.746 55.5154C116.667 55.2592 116.656 54.9997 116.756 54.7359Z" fill="#18315B"/>
<g id="Group_75">
<path id="Vector_90" d="M121.472 60.6733C121.792 60.6733 122.11 60.548 122.159 60.5276C122.256 60.4879 122.302 60.3767 122.263 60.2788C122.223 60.1813 122.112 60.1345 122.016 60.1743C121.844 60.2441 121.433 60.3539 121.255 60.2467C121.22 60.226 121.173 60.1849 121.161 60.069C121.093 59.4027 121.274 57.1693 121.276 57.1469C121.285 57.042 121.207 56.9498 121.103 56.9411C120.998 56.9321 120.907 57.0106 120.898 57.1155C120.89 57.2087 120.712 59.4071 120.784 60.1081C120.811 60.372 120.949 60.5073 121.06 60.5741C121.182 60.6475 121.327 60.6733 121.472 60.6733Z" fill="#F97853"/>
</g>
<path id="Vector_91" d="M118.926 61.6421C119.241 62.743 120.137 63.8411 121.372 63.8565C122.605 63.8415 123.502 62.743 123.817 61.6421H118.926Z" fill="white"/>
<g id="Group_76">
<path id="Vector_92" d="M121.267 65.0523C121.758 65.0523 122.174 64.8021 122.191 64.7914C122.281 64.737 122.309 64.6194 122.255 64.5292C122.201 64.439 122.084 64.4103 121.995 64.4648C121.992 64.4668 121.649 64.6702 121.267 64.6702C120.916 64.6702 120.58 64.4678 120.576 64.4654C120.487 64.4103 120.371 64.4377 120.315 64.5275C120.26 64.6171 120.288 64.7346 120.377 64.7901C120.394 64.8014 120.803 65.0523 121.267 65.0523Z" fill="#F97853"/>
</g>
<path id="Vector_93" d="M128.45 56.9294H127.591C127.686 56.0613 127.822 54.5323 127.113 54.3132C124.874 53.6211 127.776 52.0289 126.765 51.235C125.754 50.4394 123.238 50.7804 121.488 50.7233C119.727 50.6659 116.898 50.6909 116.211 50.8513C115.522 51.0096 115.9 52.1595 116.152 53.0506C116.407 53.9398 115.308 54.9244 115.124 55.8462C115.072 56.1108 115.083 56.5035 115.125 56.9294H114.408C114.323 55.8078 114.311 54.7637 114.326 53.917C114.354 52.4347 115.159 51.0797 116.441 50.3489C119.913 48.3683 123.578 49.1068 125.99 50.04C127.665 50.6866 128.736 52.3409 128.651 54.1402C128.61 54.9955 128.547 55.9681 128.45 56.9294Z" fill="#18315B"/>
<g id="Group_77">
<g id="Group_78">
<path id="Vector_94" d="M118.307 59.6674C117.123 59.6674 116.16 58.6984 116.16 57.5074C116.16 56.3163 117.123 55.3474 118.307 55.3474C119.491 55.3474 120.454 56.3163 120.454 57.5074C120.454 58.6984 119.491 59.6674 118.307 59.6674ZM118.307 55.6841C117.307 55.6841 116.494 56.502 116.494 57.5074C116.494 58.5127 117.307 59.3307 118.307 59.3307C119.306 59.3307 120.119 58.5127 120.119 57.5074C120.119 56.502 119.306 55.6841 118.307 55.6841Z" fill="white"/>
</g>
<g id="Group_79">
<path id="Vector_95" d="M124.176 59.6674C122.992 59.6674 122.029 58.6984 122.029 57.5074C122.029 56.3163 122.992 55.3474 124.176 55.3474C125.36 55.3474 126.323 56.3163 126.323 57.5074C126.323 58.6984 125.36 59.6674 124.176 59.6674ZM124.176 55.6841C123.177 55.6841 122.363 56.502 122.363 57.5074C122.363 58.5127 123.177 59.3307 124.176 59.3307C125.175 59.3307 125.988 58.5127 125.988 57.5074C125.988 56.502 125.175 55.6841 124.176 55.6841Z" fill="white"/>
</g>
<g id="Group_80">
<path id="Vector_96" d="M116.523 56.8117C116.48 56.8117 116.437 56.7954 116.405 56.763C116.395 56.7533 115.42 55.8014 114.14 56.1017C114.051 56.123 113.96 56.0666 113.939 55.9761C113.919 55.8856 113.974 55.795 114.064 55.774C115.527 55.4307 116.596 56.4794 116.641 56.5245C116.706 56.59 116.706 56.6968 116.641 56.7626C116.609 56.7954 116.566 56.8117 116.523 56.8117Z" fill="white"/>
</g>
<g id="Group_81">
<path id="Vector_97" d="M125.999 56.8116C125.945 56.8116 125.891 56.7845 125.859 56.7351C125.808 56.6573 125.83 56.5531 125.907 56.5023C125.971 56.4602 127.491 55.4743 128.783 55.6883C128.875 55.7034 128.936 55.7902 128.921 55.8817C128.906 55.9732 128.821 56.0354 128.729 56.0203C127.565 55.8276 126.105 56.7742 126.09 56.7839C126.062 56.8029 126.031 56.8116 125.999 56.8116Z" fill="white"/>
</g>
<g id="Group_82">
<path id="Vector_98" d="M122.146 57.0224C122.143 57.0171 121.745 56.4763 121.222 56.4763C120.705 56.4763 120.345 57.0164 120.342 57.0217L120.062 56.8377C120.08 56.8093 120.521 56.1396 121.222 56.1396C121.918 56.1396 122.398 56.7976 122.418 56.8257L122.146 57.0224Z" fill="white"/>
</g>
</g>
</g>
<g id="Group_83">
<path id="Vector_99" d="M109.367 88.1189C109.367 88.1189 107.106 92.525 104.442 96.015C103.656 97.0444 102.836 97.9939 102.028 98.7274C100.719 99.9168 99.442 100.539 98.4018 100.011C94.5443 98.0547 85.9448 82.4853 85.9448 82.4853L88.0627 79.9583C88.0627 79.9583 91.89 84.4048 94.689 87.0658C97.2703 89.5197 99.2554 91.354 99.2554 91.354C99.6126 90.8069 99.9934 90.2074 100.389 89.5728C100.81 88.8995 101.247 88.1864 101.691 87.4532C104.914 82.1296 108.491 75.7385 108.491 75.7385L109.367 88.1189Z" fill="#FFA681"/>
<path id="Vector_100" d="M104.442 96.0149C103.656 97.0443 102.836 97.9938 102.028 98.7273L100.389 89.5727C100.81 88.8993 101.247 88.1863 101.691 87.4531L104.442 96.0149Z" fill="#F97853"/>
<path id="Vector_101" d="M108.49 75.7385L100.76 87.9696L103.354 98.7274L109.751 88.2485C109.751 88.2485 110.527 81.0795 108.49 75.7385Z" fill="#006BDE"/>
</g>
</g>
<g id="Group_84">
<g id="Group_85">
<path id="Vector_102" d="M98.77 136.5C98.2179 133.421 97.6738 129.95 97.1791 126.579C97.0705 125.833 96.9646 125.094 96.8597 124.365C96.463 121.573 96.1087 118.934 95.8242 116.744C95.7156 115.912 95.6184 115.144 95.5297 114.458C95.2538 112.272 95.0918 110.914 95.0918 110.914L82.8845 111.378L70.6397 110.914C70.6397 110.914 70.3239 113.601 69.8186 117.497C69.7263 118.206 69.6277 118.954 69.5242 119.734C69.2522 121.779 68.9415 124.037 68.6072 126.349C68.6022 126.382 68.5972 126.416 68.5922 126.45C68.4873 127.171 68.3814 127.896 68.2715 128.621C68.2702 128.632 68.2692 128.64 68.2665 128.65V128.652C68.0046 130.405 67.73 132.156 67.4508 133.84C67.3359 134.535 67.2201 135.218 67.1025 135.883C67.0664 136.09 67.0298 136.295 66.9937 136.499H98.77V136.5Z" fill="#006BDE"/>
<g id="Group_86">
<path id="Vector_103" d="M73.4534 114.603C73.4534 115.242 72.9385 115.76 72.3031 115.76C71.6676 115.76 71.1523 115.242 71.1523 114.603C71.1523 113.963 71.6676 113.445 72.3031 113.445C72.9385 113.445 73.4534 113.963 73.4534 114.603Z" fill="#264CBE"/>
<path id="Vector_104" d="M76.3089 119.087C76.3089 119.726 75.7936 120.244 75.1585 120.244C74.5231 120.244 74.0078 119.726 74.0078 119.087C74.0078 118.448 74.5231 117.93 75.1585 117.93C75.7936 117.929 76.3089 118.448 76.3089 119.087Z" fill="#264CBE"/>
<path id="Vector_105" d="M81.9258 116.772C81.9258 117.411 81.4105 117.929 80.7754 117.929C80.1399 117.929 79.625 117.411 79.625 116.772C79.625 116.133 80.1399 115.615 80.7754 115.615C81.4108 115.615 81.9258 116.133 81.9258 116.772Z" fill="#264CBE"/>
<path id="Vector_106" d="M73.0605 123.849C73.0605 124.488 72.5453 125.007 71.9101 125.007C71.2747 125.007 70.7598 124.488 70.7598 123.849C70.7598 123.21 71.2747 122.692 71.9101 122.692C72.5453 122.692 73.0605 123.21 73.0605 123.849Z" fill="#264CBE"/>
<path id="Vector_107" d="M80.0796 123.354C80.0796 123.993 79.5646 124.511 78.9292 124.511C78.2937 124.511 77.7788 123.993 77.7788 123.354C77.7788 122.715 78.2941 122.197 78.9292 122.197C79.5643 122.197 80.0796 122.715 80.0796 123.354Z" fill="#264CBE"/>
<path id="Vector_108" d="M70.5672 118.583C70.5672 119.185 70.1107 119.681 69.5244 119.735C69.628 118.954 69.7266 118.206 69.8189 117.497C70.2568 117.661 70.5672 118.084 70.5672 118.583Z" fill="#264CBE"/>
<path id="Vector_109" d="M91.5179 130.154C91.5179 130.794 91.003 131.312 90.3675 131.312C89.7321 131.312 89.2168 130.793 89.2168 130.154C89.2168 129.515 89.7321 128.997 90.3675 128.997C91.0026 128.997 91.5179 129.515 91.5179 130.154Z" fill="#264CBE"/>
<path id="Vector_110" d="M90.9746 123.849C90.9746 124.488 90.4593 125.007 89.8242 125.007C89.1888 125.007 88.6738 124.488 88.6738 123.849C88.6738 123.21 89.1891 122.692 89.8242 122.692C90.4593 122.692 90.9746 123.21 90.9746 123.849Z" fill="#264CBE"/>
<path id="Vector_111" d="M97.1791 126.578C97.0406 126.638 96.8872 126.67 96.7275 126.67C96.0924 126.67 95.5771 126.152 95.5771 125.513C95.5771 124.874 96.0924 124.356 96.7275 124.356C96.7723 124.356 96.8162 124.358 96.8597 124.364C96.9646 125.094 97.0705 125.833 97.1791 126.578Z" fill="#264CBE"/>
<path id="Vector_112" d="M92.125 134.775C92.125 135.415 91.6097 135.933 90.9746 135.933C90.3391 135.933 89.8242 135.415 89.8242 134.775C89.8242 134.136 90.3391 133.618 90.9746 133.618C91.6097 133.618 92.125 134.136 92.125 134.775Z" fill="#264CBE"/>
<path id="Vector_113" d="M97.0462 132.928C97.0462 133.567 96.5309 134.085 95.8955 134.085C95.26 134.085 94.7451 133.567 94.7451 132.928C94.7451 132.288 95.26 131.77 95.8955 131.77C96.5313 131.77 97.0462 132.288 97.0462 132.928Z" fill="#264CBE"/>
<path id="Vector_114" d="M86.806 136.5C86.5992 136.195 86.2523 135.995 85.8579 135.995C85.4634 135.995 85.1165 136.195 84.9097 136.5H86.806Z" fill="#264CBE"/>
<path id="Vector_115" d="M72.303 131.161C72.303 131.8 71.7878 132.318 71.1523 132.318C70.5169 132.318 70.002 131.8 70.002 131.161C70.002 130.522 70.5169 130.003 71.1523 130.003C71.7881 130.003 72.303 130.522 72.303 131.161Z" fill="#264CBE"/>
<path id="Vector_116" d="M69.2677 127.505C69.2677 128.092 68.8325 128.578 68.2671 128.651C68.2697 128.641 68.2707 128.632 68.2721 128.622C68.382 127.897 68.4879 127.171 68.5928 126.451C68.9905 126.634 69.2677 127.037 69.2677 127.505Z" fill="#264CBE"/>
<path id="Vector_117" d="M67.9227 134.774C67.9227 135.297 67.5771 135.739 67.103 135.884C67.2202 135.219 67.3364 134.536 67.4513 133.841C67.7368 134.051 67.9227 134.391 67.9227 134.774Z" fill="#264CBE"/>
<path id="Vector_118" d="M75.1585 135.264C75.1585 135.904 74.6432 136.422 74.0078 136.422C73.3724 136.422 72.8574 135.904 72.8574 135.264C72.8574 134.625 73.3727 134.107 74.0078 134.107C74.6432 134.107 75.1585 134.625 75.1585 135.264Z" fill="#264CBE"/>
<path id="Vector_119" d="M81.23 134.358C81.23 134.997 80.7147 135.515 80.0796 135.515C79.4445 135.515 78.9292 134.997 78.9292 134.358C78.9292 133.718 79.4441 133.2 80.0796 133.2C80.715 133.2 81.23 133.718 81.23 134.358Z" fill="#264CBE"/>
<path id="Vector_120" d="M76.8983 128.667C76.8983 129.306 76.383 129.824 75.7475 129.824C75.1121 129.824 74.5972 129.306 74.5972 128.667C74.5972 128.027 75.1121 127.509 75.7475 127.509C76.383 127.509 76.8983 128.028 76.8983 128.667Z" fill="#264CBE"/>
<path id="Vector_121" d="M83.0766 127.509C83.0766 128.149 82.5617 128.667 81.9263 128.667C81.2908 128.667 80.7759 128.149 80.7759 127.509C80.7759 126.87 81.2911 126.352 81.9263 126.352C82.5614 126.352 83.0766 126.87 83.0766 127.509Z" fill="#264CBE"/>
<path id="Vector_122" d="M85.8577 121.402C85.8577 122.041 85.3428 122.559 84.7074 122.559C84.0719 122.559 83.5566 122.041 83.5566 121.402C83.5566 120.763 84.0719 120.244 84.7074 120.244C85.3425 120.244 85.8577 120.763 85.8577 121.402Z" fill="#264CBE"/>
<path id="Vector_123" d="M95.8241 116.744C95.7445 116.763 95.6621 116.772 95.5771 116.772C94.9407 116.772 94.4268 116.253 94.4268 115.614C94.4268 114.992 94.9158 114.482 95.5297 114.458C95.6183 115.144 95.7159 115.912 95.8241 116.744Z" fill="#264CBE"/>
<path id="Vector_124" d="M89.8237 116.772C89.8237 117.411 89.3084 117.929 88.6733 117.929C88.0379 117.929 87.5229 117.411 87.5229 116.772C87.5229 116.133 88.0379 115.615 88.6733 115.615C89.3088 115.615 89.8237 116.133 89.8237 116.772Z" fill="#264CBE"/>
<path id="Vector_125" d="M94.0381 120.897C94.0381 121.536 93.5231 122.054 92.8877 122.054C92.2522 122.054 91.7373 121.536 91.7373 120.897C91.7373 120.258 92.2526 119.739 92.8877 119.739C93.5228 119.739 94.0381 120.258 94.0381 120.897Z" fill="#264CBE"/>
<path id="Vector_126" d="M87.0083 131.161C87.0083 131.8 86.493 132.318 85.8579 132.318C85.2225 132.318 84.7075 131.8 84.7075 131.161C84.7075 130.522 85.2225 130.003 85.8579 130.003C86.4934 130.003 87.0083 130.522 87.0083 131.161Z" fill="#264CBE"/>
</g>
<path id="Vector_127" d="M95.8343 111.218C89.3945 115.447 77.5703 115.116 70.1398 111.218C70.8496 106.77 71.7842 102.317 71.5834 96.3968C71.5608 95.7479 71.5336 95.1029 71.501 94.464C71.4725 93.9079 71.4399 93.3558 71.4051 92.8097C70.7637 82.961 69.0934 74.9086 69.9141 73.8682C70.2723 73.4126 70.8696 72.9207 71.6069 72.4173C71.8964 72.2189 72.2059 72.0182 72.5326 71.8175C73.3035 71.3442 74.1607 70.8672 75.0212 70.403C77.0634 69.3061 79.1367 68.2881 80.1762 67.593C81.2067 68.0449 82.0274 68.2921 82.9122 68.2871C82.9358 68.2871 82.962 68.2871 82.9882 68.2844C83.0121 68.2871 83.038 68.2871 83.0619 68.2871C83.9464 68.2921 84.7674 68.0449 85.7989 67.593C86.7634 68.2383 88.5784 69.1381 90.431 70.1194C91.7922 70.8412 93.173 71.6067 94.2483 72.3495C94.9518 72.8352 95.5272 73.3121 95.8788 73.759C96.2855 74.2747 96.1145 76.5365 95.7666 79.8876C95.4223 83.1845 94.907 87.5385 94.5953 92.3241C94.5093 93.653 94.4382 95.0148 94.3908 96.3968C94.1912 102.317 95.1245 106.77 95.8343 111.218Z" fill="#009CF8"/>
<g id="Group_87">
<path id="Vector_128" d="M91.8964 106.299H91.8954C86.7095 106.276 82.2833 103.902 79.4832 101.915C76.4551 99.7652 74.6198 97.5872 74.6015 97.5652C74.5129 97.4593 74.5265 97.3006 74.6317 97.2115C74.7373 97.1223 74.8947 97.136 74.9833 97.2419C75.0012 97.2632 76.803 99.3998 79.782 101.512C82.521 103.454 86.8467 105.774 91.897 105.797C92.0348 105.797 92.146 105.91 92.1454 106.049C92.1454 106.187 92.0335 106.299 91.8964 106.299Z" fill="#006BDE"/>
</g>
<g id="Group_88">
<path id="Vector_129" d="M88.4633 103.262C84.0481 102.389 80.1394 98.9866 79.9621 98.8303C79.8586 98.7388 79.8479 98.5805 79.9386 98.4763C80.0292 98.3718 80.1869 98.3617 80.2908 98.4526C80.3366 98.493 84.9362 102.494 89.623 102.925C89.7624 102.936 89.8614 103.059 89.8488 103.197C89.8361 103.335 89.715 103.437 89.5775 103.424C89.2037 103.39 88.8315 103.335 88.4633 103.262Z" fill="#006BDE"/>
</g>
<g id="Group_89">
<path id="Vector_130" d="M81.9262 80.2803C81.8086 80.2803 81.704 80.1964 81.6811 80.0759C81.6556 79.9396 81.7446 79.8083 81.8797 79.7823C88.202 78.5752 90.1076 74.4834 90.1262 74.4423C90.183 74.316 90.3307 74.2599 90.4566 74.317C90.5821 74.3741 90.6378 74.5228 90.5811 74.649C90.501 74.8271 88.5476 79.0204 81.973 80.2753C81.957 80.2786 81.9414 80.2803 81.9262 80.2803Z" fill="#006BDE"/>
</g>
<path id="Vector_131" d="M90.4311 70.1196C89.1761 72.9994 86.0912 75.9813 82.0793 75.2839C78.1942 74.6083 76.3516 72.5411 75.022 70.4029C77.0644 69.3057 79.1381 68.289 80.1766 67.5933C81.2071 68.0445 82.0282 68.2917 82.912 68.2876C82.9359 68.2876 82.9627 68.2876 82.988 68.285C83.0119 68.2876 83.0388 68.2876 83.0627 68.2876C83.9465 68.2917 84.7675 68.0445 85.7997 67.5933C86.7638 68.2379 88.5795 69.1377 90.4311 70.1196Z" fill="#FFA681"/>
<g id="Group_90">
<path id="Vector_132" d="M87.077 67.8042C86.9661 67.8029 86.8781 67.8924 86.8771 68.0026C86.8758 68.1646 86.81 71.9709 83.4137 72.2658C80.2633 72.5413 78.9592 69.5073 78.5565 68.2488C78.533 68.175 78.4649 68.1255 78.3879 68.1255H78.3507C78.2295 68.1255 78.1439 68.2444 78.182 68.36C78.612 69.6586 79.9851 72.7945 83.1946 72.6793C83.2779 72.6763 83.3622 72.6709 83.4479 72.6636C87.2068 72.3373 87.2739 68.0484 87.2742 68.0049C87.2749 67.8947 87.1865 67.8049 87.077 67.8042Z" fill="white"/>
</g>
</g>
<g id="Group_91">
<path id="Vector_133" d="M89.4778 47.5715C89.4778 47.5715 92.5133 52.3016 92.1806 57.2285C91.848 62.1553 92.6282 67.8427 88.2458 67.5928C83.8637 67.343 76.0471 69.3604 73.5627 65.523C71.0784 61.686 89.4778 47.5715 89.4778 47.5715Z" fill="#18315B"/>
<path id="Vector_134" d="M90.6028 56.269C90.6028 56.269 91.3906 63.4106 88.0222 65.3769C84.6537 67.3431 82.2158 65.1477 82.2158 65.1477C82.2158 65.1477 89.3163 55.1935 90.6028 56.269Z" fill="#000B29"/>
<g id="Group_92">
<g id="Group_93">
<path id="Vector_135" d="M76.6109 56.2359C76.6109 56.2359 75.4014 54.6136 74.502 55.955C73.6027 57.2966 74.8742 61.2589 77.076 60.2916L76.6109 56.2359Z" fill="#F97853"/>
<g id="Group_94">
<path id="Vector_136" d="M76.5952 59.0671C76.5139 59.0671 76.4392 59.013 76.4159 58.9305C76.0746 57.7071 74.815 57.2114 74.8021 57.2064C74.7061 57.1697 74.658 57.0615 74.6942 56.9649C74.7307 56.8684 74.8379 56.8197 74.9339 56.8561C74.9926 56.8784 76.3811 57.4205 76.7741 58.8293C76.8017 58.9289 76.7443 59.0321 76.6453 59.0601C76.6287 59.0648 76.6118 59.0671 76.5952 59.0671Z" fill="#EA5143"/>
</g>
<g id="Group_95">
<path id="Vector_137" d="M75.3236 58.4508C75.2891 58.4508 75.2542 58.4412 75.223 58.4211C75.1367 58.365 75.1118 58.2494 75.1672 58.1623C75.1765 58.1479 75.3993 57.8059 75.8657 57.5958C75.959 57.5534 76.0696 57.5958 76.1114 57.6903C76.1533 57.7845 76.1114 57.8954 76.0175 57.9375C75.6569 58.0998 75.4816 58.3623 75.48 58.365C75.4448 58.4208 75.385 58.4508 75.3236 58.4508Z" fill="#EA5143"/>
</g>
</g>
<g id="Group_96">
<path id="Vector_138" d="M89.076 56.2359C89.076 56.2359 90.2854 54.6136 91.1848 55.955C92.0842 57.2966 90.8127 61.2589 88.6108 60.2916L89.076 56.2359Z" fill="#F97853"/>
<g id="Group_97">
<path id="Vector_139" d="M89.0911 59.0671C89.1725 59.0671 89.2472 59.013 89.2704 58.9305C89.6117 57.7071 90.8713 57.2114 90.8843 57.2064C90.9802 57.1697 91.0283 57.0615 90.9922 56.9649C90.9556 56.8684 90.8484 56.8197 90.7524 56.8561C90.6937 56.8784 89.3053 57.4205 88.9122 58.8293C88.8846 58.9289 88.9421 59.0321 89.041 59.0601C89.0579 59.0648 89.0749 59.0671 89.0911 59.0671Z" fill="#EA5143"/>
</g>
<g id="Group_98">
<path id="Vector_140" d="M90.3631 58.4508C90.3977 58.4508 90.4325 58.4412 90.4637 58.4211C90.5501 58.365 90.575 58.2494 90.5195 58.1623C90.5102 58.1479 90.2874 57.8059 89.821 57.5958C89.7277 57.5534 89.6171 57.5958 89.5753 57.6903C89.5335 57.7845 89.5753 57.8954 89.6693 57.9375C90.0298 58.0998 90.2051 58.3623 90.2068 58.365C90.242 58.4208 90.302 58.4508 90.3631 58.4508Z" fill="#EA5143"/>
</g>
</g>
<path id="Vector_141" d="M85.8206 63.6528V67.5934C85.8206 67.5934 84.6523 69.6 83.0727 69.737C81.4947 69.8756 80.0923 68.0092 80.0923 68.0092V63.9301L85.8206 63.6528Z" fill="#FFA681"/>
<path id="Vector_142" d="M85.8206 63.6528V65.4013C84.7605 66.5847 82.8788 67.0039 80.0926 66.5904L80.0923 63.9301L85.8206 63.6528Z" fill="#F97853"/>
<path id="Vector_143" d="M89.9504 53.5325C89.8777 55.0639 89.7326 56.9787 89.4424 58.5101C89.3697 58.8919 89.288 59.2513 89.1967 59.5736C88.3724 62.477 86.3107 67.4566 80.5385 65.3825C77.9891 64.467 76.8075 61.6103 76.2809 58.7052C75.9237 56.7319 75.8696 54.7383 75.8958 53.3137C75.9237 51.8592 76.7125 50.5302 77.9705 49.8131C81.3775 47.8699 84.9727 48.5943 87.3395 49.5098C88.9826 50.1444 90.034 51.7673 89.9504 53.5325Z" fill="#FFA681"/>
<path id="Vector_144" d="M80.3012 56.4671C80.3012 56.8876 80.0857 57.2289 79.8198 57.2289C79.5538 57.2289 79.3384 56.8879 79.3384 56.4671C79.3384 56.0466 79.5538 55.7056 79.8198 55.7056C80.0854 55.7056 80.3012 56.0466 80.3012 56.4671Z" fill="#18315B"/>
<path id="Vector_145" d="M86.245 56.4671C86.245 56.8876 86.0296 57.2289 85.7636 57.2289C85.4977 57.2289 85.2822 56.8879 85.2822 56.4671C85.2822 56.0466 85.4977 55.7056 85.7636 55.7056C86.0296 55.7056 86.245 56.0466 86.245 56.4671Z" fill="#18315B"/>
<path id="Vector_146" d="M78.8664 54.1994C79.2661 54.0859 80.0735 53.8915 80.9254 53.8892C81.1495 53.8885 81.3212 54.0889 81.2817 54.311L81.2807 54.3167C81.2491 54.494 81.0914 54.6193 80.9125 54.6109C80.3328 54.5839 78.8116 54.6657 78.0932 54.9586C78.0785 54.833 78.1522 54.6954 78.2568 54.5735C78.4155 54.3882 78.6327 54.2659 78.8664 54.1994Z" fill="#18315B"/>
<path id="Vector_147" d="M86.6436 54.2153C86.2436 54.1018 85.4365 53.9074 84.5846 53.905C84.3605 53.9044 84.1888 54.1048 84.2283 54.3269L84.2293 54.3326C84.2609 54.5099 84.4186 54.6352 84.5972 54.6268C85.1769 54.5997 86.6981 54.6816 87.4165 54.9745C87.4311 54.8489 87.3574 54.7113 87.2529 54.5891C87.0945 54.4037 86.877 54.2814 86.6436 54.2153Z" fill="#18315B"/>
<g id="Group_99">
<path id="Vector_148" d="M82.9079 59.942C82.7655 59.942 82.6224 59.9167 82.5032 59.8449C82.3946 59.7794 82.2592 59.6468 82.2326 59.3879C82.1619 58.6999 82.3369 56.5433 82.3445 56.4518C82.3528 56.3485 82.4428 56.2721 82.5454 56.2804C82.648 56.2888 82.724 56.3793 82.7157 56.4825C82.7137 56.5045 82.5361 58.6959 82.6031 59.3495C82.6147 59.4631 82.6609 59.5035 82.6948 59.5239C82.8694 59.6291 83.2731 59.5215 83.4411 59.4531C83.536 59.4137 83.6449 59.4601 83.6835 59.5556C83.7223 59.6511 83.6768 59.7604 83.5815 59.7994C83.5331 59.8191 83.222 59.942 82.9079 59.942Z" fill="#F97853"/>
</g>
<path id="Vector_149" d="M80.5449 61.124C80.6857 61.8361 81.1531 63.1461 82.7282 63.1461C84.3071 63.1461 84.75 61.949 84.9021 61.124H80.5449Z" fill="white"/>
<g id="Group_100">
<path id="Vector_150" d="M82.7057 64.2385C82.2512 64.2385 81.8498 63.9923 81.8329 63.9816C81.7456 63.9272 81.7184 63.812 81.7725 63.7241C81.8263 63.6363 81.9408 63.6092 82.0281 63.663C82.0314 63.665 82.3588 63.8641 82.7057 63.8641C83.0809 63.8641 83.4172 63.664 83.4205 63.662C83.5088 63.6089 83.6227 63.6373 83.6758 63.7258C83.7289 63.814 83.7007 63.9289 83.6131 63.9823C83.5955 63.993 83.1871 64.2385 82.7057 64.2385Z" fill="#F97853"/>
</g>
</g>
<path id="Vector_151" d="M90.6996 53.2276C90.6398 53.3982 90.4738 53.5075 90.2517 53.5726C90.268 53.9854 90.2248 54.4821 90.1843 54.958C89.9546 57.6638 89.2763 58.1387 89.1229 57.4697C89.022 57.0255 89.0279 54.4774 89.0767 53.6464C88.5452 53.6113 88.091 53.5222 88.091 53.5222L87.4672 50.8952L87.2488 53.4894C86.3132 53.8171 84.1299 53.2924 84.1299 53.2924L83.3976 50.7032L82.9447 53.1945C81.5413 53.8822 79.7871 53.4243 79.7871 53.4243L79.384 50.7373L78.4534 53.4243C78.4534 53.4243 75.4594 54.5048 75.4269 53.4243C75.407 52.7954 75.8648 51.0245 76.2516 49.6528C76.6732 48.1568 77.65 46.8929 78.9713 46.1802C82.6851 44.1745 86.6126 45.2413 87.9599 46.0509C90.8168 47.7667 90.6996 53.2276 90.6996 53.2276Z" fill="#18315B"/>
<path id="Vector_152" d="M77.0761 47.7717C77.0761 47.7717 74.6113 50.7209 73.8003 55.9885C72.9892 61.256 71.8664 65.1477 75.0217 66.8872C78.4366 68.7696 78.1408 64.9089 78.0917 63.8595C78.0426 62.8101 75.1379 59.942 77.0761 51.8639C77.7019 49.256 77.0761 47.7717 77.0761 47.7717Z" fill="#18315B"/>
<path id="Vector_153" d="M76.5 58.6567C76.5 58.6567 76.5 58.6594 76.5 58.6631C76.5013 58.7022 76.5037 58.9116 76.5186 59.2392C76.5262 59.4426 76.5385 59.6898 76.5571 59.971C76.6733 61.7456 77.0163 64.8107 78.0242 65.8735C78.4223 66.294 79.1895 66.5047 80.0926 66.5902V65.1958C79.1407 64.7416 78.3984 63.9947 77.8233 63.0759C77.4678 62.3013 76.8552 61.0893 76.5684 59.1828L76.5 58.6567Z" fill="#000B29"/>
<path id="Vector_154" d="M89.9949 60.3809C89.9949 60.6231 89.7997 60.8195 89.559 60.8195C89.3183 60.8195 89.123 60.6231 89.123 60.3809C89.123 60.1388 89.3183 59.9424 89.559 59.9424C89.7997 59.9424 89.9949 60.1384 89.9949 60.3809Z" fill="white"/>
</g>
<g id="Group_101">
<path id="Vector_155" d="M98.8793 93.4205C97.6446 96.977 92.1142 96.7181 85.8155 94.7739C85.8065 94.7712 85.7972 94.7679 85.7882 94.7655C85.7683 94.7599 85.7494 94.7532 85.7295 94.7472L84.863 94.4693C84.7434 94.4302 84.6233 94.3901 84.5037 94.349C83.8248 94.1202 83.1412 93.8731 82.4546 93.6109C80.204 92.7509 77.9361 91.7315 75.7974 90.6446L75.8123 90.6072L76.4564 88.9242L76.6762 88.3514C76.6762 88.3514 88.3533 89.6313 94.2244 88.3965C94.324 88.3755 94.4209 88.3547 94.5165 88.3324C94.4933 88.2014 94.486 88.0675 94.4495 87.9426C91.3386 77.288 94.7406 75.2452 95.8794 73.7593C95.8794 73.7586 101.211 86.7065 98.8793 93.4205Z" fill="#009CF8"/>
<g id="Group_102">
<path id="Vector_156" d="M96.9766 90.123C96.9417 90.1397 96.9045 90.148 96.8677 90.148C96.7757 90.148 96.6867 90.0963 96.6436 90.0078C96.1987 89.0909 94.6884 88.5458 94.2246 88.3965C94.3242 88.3755 94.4212 88.3548 94.5168 88.3324C94.4935 88.2015 94.4713 88.0712 94.4497 87.9426C95.0397 88.1387 96.5808 88.7365 97.0911 89.7886C97.1515 89.9116 97.1001 90.0619 96.9766 90.123Z" fill="#006BDE"/>
</g>
<g id="Group_103">
<path id="Vector_157" d="M80.6215 89.6763C78.2384 89.6763 76.3032 89.5383 76.1346 89.526C75.9974 89.516 75.8945 89.3961 75.9045 89.2581C75.9144 89.1202 76.0336 89.0176 76.1711 89.0267C76.2591 89.033 85.0182 89.6563 88.4717 88.2471C88.5988 88.1953 88.7442 88.2568 88.796 88.3851C88.8475 88.5133 88.7864 88.6593 88.6589 88.7114C86.7469 89.4913 83.3834 89.6763 80.6215 89.6763Z" fill="#006BDE"/>
</g>
<g id="Group_104">
<path id="Vector_158" d="M84.8628 94.469C84.8638 94.469 84.8638 94.469 84.8638 94.469C86.8621 93.9146 88.6788 93.3745 89.7276 93.0365C91.1841 92.5666 92.3889 91.0856 92.9367 89.8264C92.9915 89.6995 93.1382 89.642 93.2644 89.6978C93.3905 89.7529 93.4476 89.9006 93.3929 90.0275C92.8002 91.3892 91.4842 92.9954 89.8793 93.5138C89.118 93.7593 87.9554 94.11 86.6118 94.4957C86.0391 94.6607 85.4302 94.6514 84.8628 94.469Z" fill="#006BDE"/>
</g>
<g id="Group_105">
<path id="Vector_159" d="M90.2498 92.7469C72.2036 98.8615 66.6519 94.8598 66.6519 94.8598C65.4371 83.8071 69.9141 73.8679 69.9141 73.8679C71.2368 76.062 72.7325 79.8916 72.7325 79.8916L73.1275 88.3639L73.0977 88.5993L73.0834 88.7102L73.0087 89.2897L73.007 89.3014C73.0452 89.3097 73.0841 89.3181 73.1232 89.3264C78.582 90.4851 88.5652 89.1905 88.5652 89.1905L90.2498 92.7469Z" fill="#009CF8"/>
<g id="Group_106">
<path id="Vector_160" d="M73.123 89.3264C72.1486 90.1481 71.2233 91.0946 70.3986 92.1825C70.3156 92.2927 70.1589 92.3144 70.0494 92.2302C69.9398 92.1467 69.9192 91.9898 70.0012 91.8795C70.0022 91.8795 70.0022 91.8785 70.0022 91.8785C70.9292 90.6537 71.9796 89.6053 73.0835 88.7102L73.0088 89.2897L73.0072 89.3014C73.045 89.3097 73.0839 89.3181 73.123 89.3264Z" fill="#006BDE"/>
</g>
<path id="Vector_161" d="M88.5654 89.1905C88.5654 89.1905 90.5634 84.6248 93.6009 85.0312L94.5169 88.3325C92.8542 89.0429 92.6109 91.911 90.2503 92.747L88.5654 89.1905Z" fill="#FFA681"/>
</g>
<path id="Vector_162" d="M76.6768 88.3514C76.6768 88.3514 75.4152 85.3721 72.0946 84.5074C68.7739 83.6423 66.6584 85.2168 66.4356 85.8106C66.2129 86.4048 67.6879 85.837 67.6879 85.837C67.6879 85.837 66.7271 86.1106 66.176 87.019C65.6249 87.9275 67.5176 86.9472 67.5176 86.9472C67.5176 86.9472 66.1604 87.5458 65.9878 88.1005C65.8151 88.6553 67.6053 87.7181 67.9416 87.7358C67.9416 87.7358 66.343 88.3751 66.354 88.9476C66.3649 89.52 68.1903 88.5865 69.5531 88.6603C70.9163 88.7341 73.0063 89.3023 73.0063 89.3023C74.1218 89.5157 75.1878 89.674 76.1523 89.7188L76.6768 88.3514Z" fill="#FFA681"/>
</g>
</g>
<g id="Group_107">
<g id="Group_108">
<g id="Group_109">
<g id="Group_110">
<g id="Group_111">
<path id="Vector_163" d="M108.742 42.0277C107.513 42.0277 106.513 41.0217 106.513 39.7852C106.513 38.5487 107.513 37.5427 108.742 37.5427C109.971 37.5427 110.971 38.5487 110.971 39.7852C110.971 41.0217 109.971 42.0277 108.742 42.0277ZM108.742 38.2465C107.898 38.2465 107.212 38.9368 107.212 39.7855C107.212 40.6342 107.898 41.3243 108.742 41.3243C109.585 41.3243 110.271 40.6339 110.271 39.7855C110.272 38.9368 109.585 38.2465 108.742 38.2465Z" fill="#006BDE"/>
</g>
<g id="Group_112">
<path id="Vector_164" d="M128.189 38.2181C126.959 38.2181 125.959 37.2121 125.959 35.9756C125.959 34.7392 126.959 33.7332 128.189 33.7332C129.418 33.7332 130.418 34.7392 130.418 35.9756C130.418 37.2121 129.418 38.2181 128.189 38.2181ZM128.189 34.4369C127.345 34.4369 126.659 35.1273 126.659 35.976C126.659 36.8247 127.345 37.515 128.189 37.515C129.032 37.515 129.718 36.8247 129.718 35.976C129.718 35.1269 129.032 34.4369 128.189 34.4369Z" fill="#009CF8"/>
</g>
<g id="Group_113">
<g id="Group_114">
<g id="Group_115">
<path id="Vector_165" d="M130.942 45.505C130.749 45.505 130.593 45.3477 130.593 45.1533V43.6022C130.593 43.4078 130.749 43.2505 130.942 43.2505C131.136 43.2505 131.292 43.4078 131.292 43.6022V45.1533C131.292 45.3473 131.136 45.505 130.942 45.505Z" fill="#006BDE"/>
</g>
<g id="Group_116">
<path id="Vector_166" d="M130.942 48.2193C130.749 48.2193 130.593 48.062 130.593 47.8676V46.3165C130.593 46.1222 130.749 45.9648 130.942 45.9648C131.136 45.9648 131.292 46.1222 131.292 46.3165V47.8676C131.292 48.062 131.136 48.2193 130.942 48.2193Z" fill="#006BDE"/>
</g>
</g>
<g id="Group_117">
<g id="Group_118">
<path id="Vector_167" d="M133.107 46.0865H131.722C131.528 46.0865 131.372 45.9291 131.372 45.7348C131.372 45.5404 131.529 45.3831 131.722 45.3831H133.107C133.3 45.3831 133.456 45.5404 133.456 45.7348C133.456 45.9291 133.3 46.0865 133.107 46.0865Z" fill="#006BDE"/>
</g>
<g id="Group_119">
<path id="Vector_168" d="M130.163 46.0865H128.778C128.585 46.0865 128.429 45.9291 128.429 45.7348C128.429 45.5404 128.585 45.3831 128.778 45.3831H130.163C130.357 45.3831 130.513 45.5404 130.513 45.7348C130.513 45.9291 130.357 46.0865 130.163 46.0865Z" fill="#006BDE"/>
</g>
</g>
</g>
<g id="Group_120">
<g id="Group_121">
<g id="Group_122">
<g id="Group_123">
<path id="Vector_169" d="M119.169 36.108C118.976 36.108 118.82 35.9504 118.82 35.7563V34.2052C118.82 34.0108 118.977 33.8535 119.169 33.8535C119.362 33.8535 119.519 34.0108 119.519 34.2052V35.7563C119.519 35.9504 119.363 36.108 119.169 36.108Z" fill="#1C31B5"/>
</g>
<g id="Group_124">
<path id="Vector_170" d="M119.169 38.8224C118.976 38.8224 118.82 38.6651 118.82 38.4707V36.9196C118.82 36.7252 118.977 36.5679 119.169 36.5679C119.362 36.5679 119.519 36.7252 119.519 36.9196V38.4707C119.519 38.6651 119.363 38.8224 119.169 38.8224Z" fill="#1C31B5"/>
</g>
</g>
<g id="Group_125">
<g id="Group_126">
<path id="Vector_171" d="M121.333 36.6897H119.948C119.755 36.6897 119.599 36.5321 119.599 36.338C119.599 36.1436 119.755 35.9863 119.948 35.9863H121.333C121.527 35.9863 121.683 36.1436 121.683 36.338C121.683 36.5321 121.527 36.6897 121.333 36.6897Z" fill="#1C31B5"/>
</g>
<g id="Group_127">
<path id="Vector_172" d="M118.39 36.6897H117.005C116.812 36.6897 116.655 36.5321 116.655 36.338C116.655 36.1436 116.812 35.9863 117.005 35.9863H118.39C118.583 35.9863 118.74 36.1436 118.74 36.338C118.74 36.5321 118.583 36.6897 118.39 36.6897Z" fill="#1C31B5"/>
</g>
</g>
</g>
</g>
</g>
</g>
<g id="Group_128">
<g id="Group_129">
<g id="Group_130">
<path id="Vector_173" d="M29.0723 34.0955C29.0723 32.859 30.0722 31.853 31.3013 31.853C32.5304 31.853 33.5304 32.859 33.5304 34.0955C33.5304 35.332 32.5304 36.338 31.3013 36.338C30.0722 36.3376 29.0723 35.332 29.0723 34.0955ZM29.7718 34.0955C29.7718 34.9442 30.458 35.6342 31.3013 35.6342C32.1449 35.6342 32.8308 34.9439 32.8308 34.0955C32.8308 33.2468 32.1446 32.5564 31.3013 32.5564C30.458 32.5564 29.7718 33.2468 29.7718 34.0955Z" fill="#006BDE"/>
</g>
<g id="Group_131">
<path id="Vector_174" d="M20.1216 42.6426C20.1216 41.4062 21.1216 40.4001 22.3506 40.4001C23.5797 40.4001 24.5797 41.4062 24.5797 42.6426C24.5797 43.8791 23.5797 44.8851 22.3506 44.8851C21.1212 44.8851 20.1216 43.8791 20.1216 42.6426ZM20.8208 42.6426C20.8208 43.4913 21.507 44.1814 22.3506 44.1814C23.1942 44.1814 23.8802 43.491 23.8802 42.6426C23.8802 41.7939 23.1939 41.1036 22.3506 41.1036C21.507 41.1036 20.8208 41.7939 20.8208 42.6426Z" fill="#009CF8"/>
</g>
<g id="Group_132">
<g id="Group_133">
<g id="Group_134">
<path id="Vector_175" d="M15.4873 45.7892C15.6805 45.7892 15.8369 45.6319 15.8369 45.4375V43.8864C15.8369 43.692 15.6802 43.5347 15.4873 43.5347C15.2944 43.5347 15.1377 43.692 15.1377 43.8864V45.4375C15.1377 45.6319 15.2944 45.7892 15.4873 45.7892Z" fill="#006BDE"/>
</g>
<g id="Group_135">
<path id="Vector_176" d="M15.4873 48.504C15.6805 48.504 15.8369 48.3467 15.8369 48.1523V46.6012C15.8369 46.4068 15.6802 46.2495 15.4873 46.2495C15.2944 46.2495 15.1377 46.4068 15.1377 46.6012V48.1523C15.1377 48.3464 15.2944 48.504 15.4873 48.504Z" fill="#006BDE"/>
</g>
</g>
<g id="Group_136">
<g id="Group_137">
<path id="Vector_177" d="M13.3227 46.3709H14.7078C14.9011 46.3709 15.0574 46.2132 15.0574 46.0192C15.0574 45.8248 14.9007 45.6675 14.7078 45.6675H13.3227C13.1298 45.6675 12.9731 45.8248 12.9731 46.0192C12.9731 46.2132 13.1298 46.3709 13.3227 46.3709Z" fill="#006BDE"/>
</g>
<g id="Group_138">
<path id="Vector_178" d="M16.2661 46.3709H17.6512C17.8444 46.3709 18.0008 46.2132 18.0008 46.0192C18.0008 45.8248 17.8441 45.6675 17.6512 45.6675H16.2661C16.0729 45.6675 15.9165 45.8248 15.9165 46.0192C15.9165 46.2132 16.0732 46.3709 16.2661 46.3709Z" fill="#006BDE"/>
</g>
</g>
</g>
<g id="Group_139">
<g id="Group_140">
<g id="Group_141">
<g id="Group_142">
<path id="Vector_179" d="M23.5439 33.8653C23.7368 33.8653 23.8935 33.708 23.8935 33.5136V31.9625C23.8935 31.7682 23.7368 31.6108 23.5439 31.6108C23.351 31.6108 23.1943 31.7682 23.1943 31.9625V33.5136C23.1943 33.708 23.3507 33.8653 23.5439 33.8653Z" fill="#1C31B5"/>
</g>
<g id="Group_143">
<path id="Vector_180" d="M23.5439 36.5802C23.7368 36.5802 23.8935 36.4229 23.8935 36.2285V34.6774C23.8935 34.483 23.7368 34.3257 23.5439 34.3257C23.351 34.3257 23.1943 34.4833 23.1943 34.6774V36.2285C23.1943 36.4225 23.3507 36.5802 23.5439 36.5802Z" fill="#1C31B5"/>
</g>
</g>
<g id="Group_144">
<g id="Group_145">
<path id="Vector_181" d="M21.3794 34.4471H22.7645C22.9574 34.4471 23.1141 34.2897 23.1141 34.0954C23.1141 33.901 22.9574 33.7437 22.7645 33.7437H21.3794C21.1862 33.7437 21.0298 33.9013 21.0298 34.0954C21.0298 34.2894 21.1862 34.4471 21.3794 34.4471Z" fill="#1C31B5"/>
</g>
<g id="Group_146">
<path id="Vector_182" d="M24.3227 34.4471H25.7078C25.9011 34.4471 26.0574 34.2897 26.0574 34.0954C26.0574 33.901 25.9007 33.7437 25.7078 33.7437H24.3227C24.1295 33.7437 23.9731 33.9013 23.9731 34.0954C23.9731 34.2894 24.1295 34.4471 24.3227 34.4471Z" fill="#1C31B5"/>
</g>
</g>
</g>
</g>
</g>
</g>
</g>
<g id="Group_147">
<g id="Group_148">
<g id="Group_149">
<path id="Vector_183" d="M90.2013 34.2564C90.1608 34.2608 90.119 34.2551 90.0788 34.238C89.6545 34.058 89.4058 33.9738 89.4032 33.9728C89.273 33.9291 89.203 33.7878 89.2461 33.6569C89.2896 33.526 89.4301 33.4555 89.5602 33.4989C89.5708 33.5026 89.8275 33.5891 90.2717 33.7775C90.3978 33.8312 90.4573 33.9775 90.4038 34.1048C90.3676 34.1919 90.2883 34.2471 90.2013 34.2564Z" fill="#BBE2F2"/>
</g>
<g id="Group_150">
<path id="Vector_184" d="M102.853 47.6528C103.022 48.106 103.18 48.5733 103.323 49.0419C103.359 49.1578 103.471 49.2293 103.587 49.2169C103.602 49.2152 103.618 49.2119 103.634 49.2072C103.765 49.1668 103.838 49.0269 103.798 48.8953C103.652 48.417 103.491 47.94 103.318 47.4778C103.27 47.3488 103.128 47.2834 102.999 47.3315C102.87 47.3796 102.805 47.5235 102.853 47.6528Z" fill="#BBE2F2"/>
<path id="Vector_185" d="M103.71 50.4566C103.824 50.9259 103.927 51.4088 104.016 51.8925C104.04 52.0214 104.158 52.1089 104.286 52.0952C104.292 52.0945 104.299 52.0935 104.305 52.0925C104.44 52.0671 104.529 51.9369 104.504 51.8013C104.413 51.3086 104.308 50.8163 104.193 50.338C104.16 50.2041 104.026 50.1219 103.892 50.1546C103.759 50.1874 103.678 50.3226 103.71 50.4566Z" fill="#BBE2F2"/>
<path id="Vector_186" d="M104.757 57.999C104.881 57.9859 104.977 57.8821 104.979 57.7545C104.987 57.2535 104.983 56.7505 104.969 56.2598C104.965 56.1219 104.85 56.0137 104.713 56.0177C104.574 56.0227 104.468 56.1369 104.472 56.2749C104.487 56.7578 104.49 57.2532 104.483 57.7468C104.481 57.8847 104.59 57.9983 104.727 58.0003C104.738 58.0006 104.748 58 104.757 57.999Z" fill="#BBE2F2"/>
<path id="Vector_187" d="M104.457 53.0636C104.32 53.0813 104.224 53.2066 104.242 53.3435C104.272 53.5693 104.298 53.7974 104.322 54.0215C104.349 54.28 104.373 54.5442 104.393 54.8061C104.404 54.9437 104.524 55.0462 104.66 55.0355C104.663 55.0352 104.665 55.0352 104.667 55.0349C104.8 55.0209 104.899 54.9023 104.888 54.767C104.868 54.5008 104.843 54.2323 104.816 53.9691C104.792 53.741 104.765 53.5088 104.735 53.279C104.718 53.1444 104.597 53.0486 104.463 53.0629C104.461 53.0633 104.459 53.0633 104.457 53.0636Z" fill="#BBE2F2"/>
<path id="Vector_188" d="M102.3 46.2957C102.345 46.3969 102.448 46.453 102.552 46.442C102.578 46.4394 102.603 46.4327 102.628 46.4216C102.753 46.3652 102.809 46.2176 102.753 46.0917C102.551 45.6367 102.332 45.1832 102.102 44.744C102.038 44.6217 101.888 44.575 101.767 44.6391C101.645 44.7032 101.599 44.8542 101.662 44.9764C101.887 45.4066 102.102 45.8502 102.3 46.2957Z" fill="#BBE2F2"/>
<path id="Vector_189" d="M91.3973 34.8589C91.8236 35.078 92.2539 35.3164 92.6762 35.5679C92.724 35.5963 92.7774 35.607 92.8286 35.6013C92.9039 35.5933 92.9746 35.5509 93.0165 35.4801C93.0862 35.3615 93.0473 35.2082 92.9295 35.1381C92.4985 34.8812 92.059 34.6378 91.6237 34.414C91.5019 34.3515 91.3522 34.3999 91.2897 34.5229C91.227 34.6454 91.2751 34.7957 91.3973 34.8589Z" fill="#BBE2F2"/>
<path id="Vector_190" d="M95.0971 37.2105C95.1495 37.2509 95.2129 37.2669 95.2737 37.2602C95.3391 37.2532 95.4019 37.2201 95.445 37.1634C95.5283 37.0538 95.5074 36.8968 95.3982 36.8133C95.0051 36.5114 94.5981 36.2175 94.1884 35.9392C94.0745 35.8621 93.9205 35.8922 93.8438 36.0067C93.7671 36.1209 93.797 36.2763 93.9108 36.3534C94.3126 36.626 94.7116 36.9145 95.0971 37.2105Z" fill="#BBE2F2"/>
<path id="Vector_191" d="M99.2689 41.2998C99.3237 41.369 99.4077 41.4007 99.489 41.392C99.5345 41.387 99.5793 41.3696 99.6178 41.3386C99.7247 41.2524 99.7423 41.0951 99.6563 40.9875C99.3479 40.6001 99.0225 40.2163 98.6892 39.8476C98.5972 39.7454 98.4402 39.7377 98.3386 39.8305C98.237 39.9234 98.2297 40.0814 98.322 40.1833C98.648 40.5446 98.9668 40.9204 99.2689 41.2998Z" fill="#BBE2F2"/>
<path id="Vector_192" d="M97.3076 39.1281C97.3627 39.1819 97.4361 39.205 97.5071 39.1976C97.5629 39.1916 97.6167 39.1669 97.6588 39.1235C97.7545 39.0246 97.7521 38.8666 97.6542 38.7704C97.3013 38.4247 96.9314 38.0844 96.5553 37.7581C96.4514 37.6679 96.2946 37.6799 96.2053 37.7841C96.1157 37.8887 96.1273 38.0463 96.2312 38.1362C96.5994 38.4558 96.9616 38.7895 97.3076 39.1281Z" fill="#BBE2F2"/>
<path id="Vector_193" d="M100.943 43.7005C100.995 43.7856 101.088 43.8287 101.181 43.8187C101.216 43.815 101.251 43.8033 101.284 43.7836C101.401 43.7118 101.438 43.5579 101.366 43.4403C101.109 43.0158 100.834 42.5939 100.55 42.1865C100.472 42.0736 100.317 42.0462 100.204 42.1253C100.092 42.2045 100.065 42.3605 100.144 42.4734C100.421 42.8722 100.69 43.285 100.943 43.7005Z" fill="#BBE2F2"/>
</g>
</g>
<g id="Group_151">
<g id="Group_152">
<path id="Vector_194" d="M90.1961 32.5476L91.2827 28.4995L77.9702 28.6144L90.1961 32.5476Z" fill="#009CF8"/>
<path id="Vector_195" d="M77.9702 28.614L89.55 33.5248L89.5806 33.5382L90.0789 34.3682L90.1961 32.5475L77.9702 28.614Z" fill="#006BDE"/>
<path id="Vector_196" d="M90.0788 34.3683L88.9995 34.1973L89.5805 33.5383L90.0788 34.3683Z" fill="#006BDE"/>
<path id="Vector_197" d="M88.1238 32.9201L89.5809 33.538L86.58 36.9398L77.9702 28.6145L88.1238 32.9201Z" fill="#009CF8"/>
</g>
</g>
</g>
</g>
<g id="Group_153">
<path id="Vector_198" d="M151.41 139.048V139.292C151.41 140.7 150.275 141.841 148.876 141.841H17.421C16.021 141.841 14.8872 140.7 14.8872 139.292V139.048C14.8872 137.641 16.021 136.499 17.421 136.499H148.876C150.276 136.499 151.41 137.641 151.41 139.048Z" fill="#1C31B5"/>
<path id="Vector_199" d="M151.41 139.048V139.17H14.8872V139.048C14.8872 137.641 16.021 136.499 17.421 136.499H148.876C150.276 136.499 151.41 137.641 151.41 139.048Z" fill="#006BDE"/>
</g>
<g id="Group_154">
<path id="Vector_200" d="M103.267 128.48H61.9706C60.9839 128.48 60.1841 127.676 60.1841 126.683V104.947C60.1841 103.955 60.9839 103.15 61.9706 103.15H103.266C104.253 103.15 105.053 103.955 105.053 104.947V126.683C105.053 127.676 104.253 128.48 103.267 128.48Z" fill="#18315B"/>
<path id="Vector_201" d="M86.0931 128.451H79.144V136.421H86.0931V128.451Z" fill="#000B29"/>
<path id="Vector_202" d="M82.5411 119.595C84.4458 119.595 85.9899 118.042 85.9899 116.125C85.9899 114.209 84.4458 112.656 82.5411 112.656C80.6364 112.656 79.0923 114.209 79.0923 116.125C79.0923 118.042 80.6364 119.595 82.5411 119.595Z" fill="#1D567E"/>
<path id="Vector_203" d="M91.4694 136.421H73.5454V135.813C73.5454 134.587 74.5331 133.593 75.7516 133.593H89.263C90.4814 133.593 91.4691 134.587 91.4691 135.813V136.421H91.4694Z" fill="#18315B"/>
</g>
</g>
</g>
</svg>
